<svg width="537" height="374" viewBox="0 0 537 374" fill="none" xmlns="http://www.w3.org/2000/svg">
<path d="M433.398 0L361.898 17.576L361.256 19.7449L360.525 22.1936C360.509 22.195 360.38 22.2134 360.38 22.2134C360.356 22.2162 357.568 22.556 357.129 22.6096L358.246 19.9158L309.117 25.9058L308.136 27.6887L294.096 53.3236L283.708 48.6549L283.707 48.6521H283.706L274.754 44.6288L274.752 44.6274H274.747L270.275 42.6178L214.12 52.1103L213.24 53.979L210.023 60.8289L205.111 61.3926L206.077 58.758L170.731 62.8181L169.806 63.6432C164.745 68.1183 159.307 74.3494 153.349 82.3853C153.28 82.4786 153.217 82.5683 153.147 82.6611L150.919 81.6584H150.916L141.963 77.635V77.6309H141.954L137.486 75.6233L88.3546 81.6133L87.3743 83.3962L80.7062 95.5765L72.872 92.0556L72.8706 92.0514H72.8664L68.3938 90.0418L32.1227 94.11L31.22 94.8432C28.6955 96.8909 25.8703 99.5778 22.6608 102.955C19.4755 106.287 16.3833 110.103 13.3581 114.394C10.3899 118.503 8.05148 122.027 6.3347 125.024L6.09558 125.441L5.96285 125.904C4.74794 130.177 3.96466 135.207 3.54684 141.056V141.088V141.119C3.24134 146.69 3.18838 149.386 3.3935 154.171L3.52427 157.306L8.00097 159.318C8.00097 159.318 8.00097 159.319 8.00097 159.319L8.00933 159.321L12.4758 161.326L16.9546 163.34H16.956L21.4347 165.354H21.4375L25.9101 167.363L25.9143 167.365L30.3828 169.374L30.394 169.377L34.8645 171.387H34.8659L37.5842 172.608C37.5368 174.55 37.4498 176.47 37.2902 178.128L7.71782 181.555L0 209.898L22.3365 220.204L13.81 219.985L0.680083 250.313L9.62738 254.334L9.62597 254.336H9.63433L15.1547 256.817V331.747L24.0999 335.768V335.769L24.1041 335.768L64.3923 353.875V353.883L64.4007 353.88L82.2993 361.925V361.929L82.3077 361.926L100.206 369.971V369.979L100.215 369.977L109.166 374L136.128 367.369V353.254L139.874 354.937V354.946H139.89L148.835 358.967L177.133 359.692L183.201 345.676L189.215 348.378V348.386L189.223 348.383L198.175 352.406L225.137 345.783V324.639L228.299 326.061V326.065L228.303 326.062L246.203 334.107V334.115L246.212 334.114L255.163 338.137L281.731 331.598V289.134L290.824 293.221L290.839 293.232L290.848 293.231L295.32 295.24L295.325 295.244H295.326L308.736 301.271L308.747 301.279L308.755 301.278L326.639 309.316L326.655 309.328L326.664 309.326L335.615 313.35L369.015 307.39L374.71 289.279L386.323 294.499L386.331 294.508L386.34 294.506L395.291 298.529L437.428 290.54L442.942 276.222L452.175 280.371V280.376L452.183 280.374L461.135 284.398L488.089 277.774V265.353L492.082 267.146C492.082 267.146 492.084 267.155 492.084 267.155H492.095L501.043 271.176L527.983 270.281L536.358 245.102L531.883 243.09L531.885 243.082C531.885 243.082 531.869 243.082 531.865 243.082L518.449 237.053H518.446L518.167 236.929L513.5 228.212L508.019 222.963L521.604 211.872L521.665 210.081C521.884 204.018 521.433 191.569 520.084 184.37C518.784 177.429 516.707 173.969 514.556 169.805L513.228 167.242L508.762 165.234C508.762 165.234 508.753 165.223 508.753 165.223L508.738 165.226L495.32 159.195H495.318L495.153 159.119L500.383 157.835V73.0515L519.65 68.3134L527.423 42.2619L473.705 18.118H473.702L446.844 6.046L433.398 0Z" fill="#383838"/>
<path d="M365.753 138.028L357.115 156.413L371.061 153.74V237.102L390.108 232.42V150.445L398.94 149.161C401.567 155.588 402.881 163.296 402.881 172.288L386.167 188.722V191.058L399.697 198.687L409.701 224.875L431.071 224.165L436.749 207.09L426.592 207.617L416.289 188.375L408.029 180.469L423.694 167.682C423.896 162.075 423.387 149.311 422.174 142.839C420.962 136.367 419.242 133.668 417.019 129.364L365.753 138.028ZM307.38 148.981L290.939 179V238.353L302.761 251.965L340.504 244.81L346.866 228.302L311.34 235.067V207.723L335.952 201.672V185.736L311.34 191.787V164.515L340.809 160.85L347.775 144.053L307.38 148.981ZM146.394 194.644L141.239 211.912L165.098 206.046V290.836L183.762 286.247V201.458L203.835 196.522L208.99 179.254L146.394 194.644ZM311.605 29.5853L295.164 59.6036V118.957L306.987 132.569L344.729 125.414L351.091 108.906L315.565 115.671V88.3274L340.178 82.2762V66.3403L315.565 72.3914V45.1194L345.034 41.4542L352 24.6572L311.605 29.5853ZM172.42 66.6008C167.671 70.7998 162.371 76.8486 156.511 84.7563C150.65 92.5629 146.355 99.3314 143.627 105.054C141.606 115.353 140.595 124.037 140.595 131.11C140.595 147.479 142.668 161.214 146.811 172.321L189.092 166.019L195.767 143.161L158.256 149.927C155.3 137.937 156.489 116.725 156.489 108.254C156.489 103.101 161.018 98.3488 162.029 95.9785C163.039 93.5071 168.33 90.641 169.846 89.3595L191.368 87.4053L200.159 63.4166L172.42 66.6008ZM5.36963 205.213L10.826 185.171L41.1393 181.659C42.1503 176.56 42.2 164.978 41.2911 160.351L7.34021 153.996C7.13866 149.297 7.18846 146.868 7.49199 141.337C7.89605 135.68 8.65333 130.896 9.76545 126.985C11.3821 124.163 13.6556 120.724 16.5859 116.669C19.5162 112.513 22.4971 108.85 25.5283 105.68C28.6607 102.383 31.3889 99.7929 33.7128 97.9079L62.0558 94.7286L53.265 114.988L30.0753 116.901C28.4587 121.239 27.9535 132.173 28.5596 136.268L61.1463 141.746C61.9547 146.397 62.2581 149.142 62.0553 155.355C61.8538 161.467 61.196 167.086 60.0851 172.209C53.4162 183.852 46.0905 193.433 38.1079 200.953L5.36963 205.213ZM90.8447 85.2921L74.4042 115.31V174.664L86.2264 188.276L123.969 181.12L130.331 164.613L94.8052 171.377V144.034L119.417 137.983V122.047L94.8052 128.098V100.826L124.274 97.161L131.24 80.364L90.8447 85.2921ZM127.167 202.972V300.428L108.111 305.113V223.874L95.8345 224.467L105.383 202.416L127.167 202.972ZM216.819 55.6608L208.182 74.0462L222.127 71.3733V154.735L241.174 150.052V68.0782L250.007 66.794C252.634 73.2212 253.947 80.9284 253.947 89.9213L237.233 106.355V108.691L250.763 116.32L260.768 142.508L282.137 141.798L287.815 124.723L277.658 125.25L267.355 106.008L259.095 98.1023L274.76 85.3149C274.963 79.7075 274.453 66.9434 273.24 60.4716C272.028 53.9997 270.308 51.3006 268.085 46.997L216.819 55.6608ZM365.041 20.8749L359.886 38.1433L383.746 32.2773V117.067L402.41 112.478V27.6886L422.483 22.7534L427.638 5.48505L365.041 20.8749ZM228.355 171.809L218.801 190.31L231.082 189.719V256.776L242.752 266.872L271.943 261.666L277.701 243.343L249.747 248.544V172.46L228.355 171.809ZM58.7709 260.722V216.162L77.8217 211.478V291.96L90.0986 291.367L80.5499 313.418L58.7709 312.861V272.999L38.1579 278.067V322.021L19.1011 326.707V245.467L6.82421 246.06L16.3729 224.009L38.1579 224.564V265.79L58.7709 260.722Z" fill="white" stroke="#383838" stroke-width="6.91764"/>
</svg>
