<svg width="276" height="375" viewBox="0 0 276 375" fill="none" xmlns="http://www.w3.org/2000/svg">
<path d="M275.906 0H0V374.173H275.906V0Z" fill="#FEC24B"/>
<path d="M257.008 18.8976H18.8976V355.276H257.008V18.8976Z" fill="#FEC24B"/>
<path d="M232.321 38.5782H43.5849C39.9398 38.5782 36.9849 41.5331 36.9849 45.1782V328.995C36.9849 332.64 39.9398 335.595 43.5849 335.595H232.321C235.966 335.595 238.921 332.64 238.921 328.995V45.1782C238.921 41.5331 235.966 38.5782 232.321 38.5782Z" fill="#372A0D"/>
<path d="M138.294 301.93C138.163 301.862 138.024 301.805 137.985 301.805C137.946 301.805 137.799 301.693 137.659 301.556C137.518 301.418 137.367 301.306 137.323 301.306C137.279 301.306 137.159 301.233 137.055 301.144C136.952 301.055 136.777 300.906 136.667 300.811C136.557 300.717 136.437 300.64 136.4 300.64C136.363 300.64 136.176 300.49 135.983 300.306C135.79 300.123 135.592 299.973 135.542 299.973C135.492 299.973 135.288 299.823 135.087 299.64C134.887 299.457 134.688 299.307 134.646 299.307C134.604 299.307 134.482 299.213 134.376 299.099C134.27 298.984 134.161 298.891 134.133 298.891C134.106 298.891 133.97 298.779 133.831 298.644C133.598 298.416 133.578 298.352 133.578 297.828C133.578 297.514 133.538 297.219 133.49 297.17C133.441 297.121 133.38 296.861 133.354 296.592C133.327 296.322 133.278 296.063 133.245 296.017C133.211 295.971 133.159 295.559 133.128 295.102C133.098 294.643 133.036 294.256 132.992 294.241C132.948 294.226 132.912 293.884 132.912 293.481C132.912 292.931 132.88 292.722 132.787 292.645C132.697 292.57 132.662 292.373 132.662 291.939C132.662 291.47 132.63 291.311 132.516 291.213C132.227 290.963 131.795 290.813 131.368 290.813C131.083 290.813 130.898 290.77 130.83 290.688C130.773 290.619 130.599 290.563 130.445 290.563C130.29 290.563 130.164 290.528 130.164 290.487C130.164 290.445 130.014 290.386 129.831 290.355C129.648 290.324 129.477 290.265 129.451 290.222C129.425 290.18 129.299 290.145 129.169 290.145C129.04 290.145 128.888 290.089 128.831 290.021C128.763 289.939 128.577 289.896 128.286 289.896C127.883 289.896 127.336 289.706 127.263 289.542C127.247 289.507 127.055 289.48 126.836 289.48C126.582 289.48 126.398 289.434 126.333 289.355C126.276 289.286 126.131 289.229 126.01 289.227C125.89 289.227 125.719 289.169 125.63 289.102C125.541 289.035 125.363 288.98 125.234 288.98C125.105 288.98 125 288.943 125 288.897C125 288.851 124.895 288.814 124.766 288.814C124.638 288.814 124.46 288.759 124.371 288.692C124.282 288.625 124.16 288.568 124.101 288.567C124.042 288.567 123.906 288.471 123.8 288.356C123.694 288.242 123.562 288.148 123.507 288.148C123.362 288.148 121.669 286.423 121.669 286.275C121.669 286.206 121.632 286.149 121.586 286.149C121.54 286.149 121.502 286.054 121.502 285.938C121.502 285.822 121.446 285.706 121.378 285.68C121.309 285.654 121.253 285.558 121.253 285.468C121.253 285.378 121.196 285.248 121.128 285.179C121.059 285.11 121.003 284.966 121.003 284.857C121.003 284.749 120.971 284.64 120.931 284.616C120.892 284.592 120.84 284.225 120.816 283.802C120.79 283.348 120.734 283.02 120.679 283.001C120.617 282.98 120.586 282.592 120.586 281.822C120.586 280.902 120.562 280.652 120.461 280.569C120.393 280.512 120.337 280.392 120.337 280.302C120.337 280.117 120.03 279.827 119.831 279.823C119.759 279.823 119.442 280.063 119.126 280.361C118.81 280.659 118.504 280.902 118.445 280.902C118.374 280.902 118.338 280.778 118.338 280.533C118.338 280.329 118.304 280.142 118.263 280.116C118.221 280.091 118.163 279.667 118.134 279.175C118.105 278.682 118.047 278.218 118.006 278.143C117.965 278.068 117.906 277.777 117.874 277.496C117.842 277.214 117.784 276.965 117.744 276.94C117.605 276.854 117.661 275.606 117.817 275.309C117.897 275.156 117.991 275.019 118.026 275.004C118.06 274.989 118.088 274.893 118.088 274.793C118.088 274.426 118.625 273.865 119.266 273.56C119.489 273.454 119.67 273.339 119.67 273.305C119.67 273.27 120.045 273.241 120.503 273.241C120.992 273.241 121.336 273.275 121.336 273.323C121.336 273.368 121.439 273.43 121.565 273.461C121.691 273.492 121.813 273.539 121.836 273.567C121.931 273.681 122.445 273.908 122.606 273.908C122.702 273.908 122.852 273.973 122.94 274.053C123.092 274.19 123.105 274.19 123.206 274.053C123.264 273.974 123.354 273.908 123.406 273.908C123.559 273.908 123.532 272.622 123.376 272.492C123.301 272.43 123.251 272.247 123.251 272.029C123.251 271.831 123.214 271.646 123.168 271.618C123.122 271.59 123.085 271.426 123.085 271.254C123.085 271.082 123.03 270.869 122.962 270.78C122.89 270.684 122.839 270.429 122.837 270.15C122.835 269.837 122.793 269.647 122.71 269.578C122.641 269.521 122.585 269.347 122.585 269.193C122.585 269.038 122.551 268.911 122.509 268.911C122.467 268.911 122.408 268.762 122.377 268.579C122.346 268.396 122.287 268.225 122.245 268.199C122.203 268.173 122.169 267.984 122.169 267.78C122.169 267.525 122.129 267.392 122.044 267.359C121.968 267.33 121.919 267.204 121.919 267.039C121.919 266.889 121.863 266.72 121.794 266.663C121.725 266.606 121.669 266.494 121.669 266.415C121.669 266.336 121.575 266.17 121.461 266.046C121.346 265.922 121.252 265.777 121.251 265.722C121.25 265.667 121.157 265.533 121.043 265.426C120.929 265.318 120.836 265.182 120.836 265.124C120.836 265.066 120.78 264.971 120.711 264.914C120.643 264.857 120.586 264.744 120.586 264.664C120.586 264.584 120.53 264.471 120.461 264.414C120.393 264.357 120.337 264.245 120.337 264.166C120.337 264.087 120.243 263.951 120.128 263.865C120.014 263.779 119.92 263.665 119.92 263.612C119.92 263.559 119.864 263.494 119.795 263.468C119.727 263.442 119.67 263.344 119.67 263.251C119.67 263.158 119.637 263.082 119.596 263.082C119.555 263.082 119.5 262.994 119.473 262.888C119.446 262.781 119.33 262.592 119.214 262.467C119.099 262.342 119.004 262.191 119.004 262.13C119.004 262.069 118.948 261.973 118.879 261.916C118.811 261.859 118.754 261.755 118.754 261.686C118.754 261.617 118.661 261.473 118.546 261.367C118.432 261.261 118.338 261.147 118.338 261.113C118.338 260.975 117.989 260.345 117.836 260.207C117.746 260.125 117.672 259.988 117.672 259.902C117.672 259.816 117.616 259.724 117.547 259.697C117.478 259.671 117.421 259.588 117.421 259.513C117.42 259.437 117.27 259.215 117.088 259.018C116.905 258.822 116.754 258.615 116.753 258.56C116.751 258.505 116.695 258.387 116.628 258.298C116.466 258.083 116.474 257.89 116.652 257.729C116.787 257.607 116.835 257.622 117.285 257.924C117.553 258.104 117.807 258.251 117.85 258.251C117.893 258.251 118.071 258.402 118.245 258.585C118.419 258.768 118.605 258.918 118.658 258.918C118.757 258.918 119.104 259.187 119.328 259.438C119.399 259.518 119.504 259.584 119.56 259.584C119.617 259.584 119.824 259.733 120.021 259.916C120.217 260.099 120.43 260.249 120.494 260.249C120.557 260.25 120.696 260.344 120.802 260.458C120.908 260.573 121.033 260.667 121.079 260.667C121.126 260.667 121.279 260.779 121.419 260.916C121.56 261.054 121.702 261.166 121.735 261.166C121.769 261.166 121.866 261.26 121.952 261.375C122.038 261.489 122.174 261.583 122.254 261.583C122.333 261.583 122.445 261.639 122.502 261.708C122.62 261.85 123.573 262.499 123.664 262.499C123.697 262.499 123.817 262.602 123.931 262.728C124.212 263.039 124.68 263.414 124.787 263.416C124.925 263.416 125.972 264.517 126.036 264.727C126.068 264.83 126.129 264.914 126.172 264.914C126.214 264.914 126.249 264.984 126.249 265.07C126.249 265.156 126.306 265.273 126.374 265.33C126.443 265.387 126.499 265.495 126.499 265.57C126.499 265.645 126.593 265.808 126.707 265.931C126.822 266.055 126.916 266.248 126.916 266.362C126.916 266.475 126.972 266.624 127.041 266.692C127.109 266.761 127.166 266.872 127.166 266.938C127.166 267.004 127.222 267.105 127.29 267.162C127.359 267.219 127.415 267.334 127.415 267.417C127.415 267.5 127.453 267.592 127.499 267.62C127.544 267.648 127.582 267.778 127.582 267.907C127.582 268.036 127.638 268.188 127.707 268.245C127.776 268.302 127.832 268.438 127.832 268.547C127.832 268.656 127.867 268.745 127.911 268.745C127.955 268.745 128.015 268.876 128.046 269.037C128.076 269.198 128.134 269.35 128.174 269.375C128.215 269.4 128.248 269.528 128.248 269.66C128.248 269.791 128.305 269.955 128.373 270.024C128.442 270.093 128.499 270.198 128.501 270.259C128.503 270.32 128.558 270.441 128.626 270.53C128.693 270.619 128.748 270.795 128.748 270.921C128.748 271.047 128.785 271.173 128.831 271.202C128.877 271.23 128.915 271.337 128.915 271.44C128.915 271.543 128.97 271.7 129.037 271.789C129.104 271.878 129.16 272.012 129.162 272.087C129.164 272.162 129.221 272.269 129.289 272.326C129.358 272.383 129.414 272.535 129.414 272.664C129.414 272.793 129.452 272.922 129.497 272.95C129.543 272.978 129.581 273.072 129.581 273.157C129.581 273.243 129.637 273.369 129.706 273.438C129.774 273.507 129.831 273.655 129.831 273.767C129.831 273.879 129.887 274.017 129.956 274.074C130.024 274.131 130.08 274.255 130.08 274.348C130.08 274.626 130.559 274.991 130.923 274.991C131.096 274.991 131.26 274.954 131.288 274.908C131.316 274.862 131.455 274.825 131.597 274.825C131.793 274.825 131.932 274.741 132.175 274.478C132.351 274.287 132.496 274.098 132.496 274.058C132.496 274.018 132.589 273.884 132.704 273.76C132.818 273.637 132.912 273.49 132.912 273.435C132.912 273.38 133.006 273.233 133.12 273.11C133.235 272.986 133.329 272.844 133.33 272.793C133.33 272.743 133.443 272.574 133.58 272.419C133.716 272.264 133.828 272.103 133.828 272.062C133.828 272.02 133.922 271.885 134.036 271.761C134.151 271.638 134.244 271.471 134.244 271.39C134.244 271.31 134.279 271.244 134.321 271.244C134.402 271.244 134.911 270.459 134.911 270.333C134.911 270.292 135.061 270.098 135.244 269.901C135.427 269.705 135.577 269.481 135.577 269.405C135.577 269.329 135.633 269.219 135.702 269.162C135.77 269.105 135.827 269.016 135.828 268.964C135.829 268.913 135.978 268.702 136.16 268.496C136.342 268.289 136.491 268.08 136.492 268.031C136.492 267.982 136.587 267.854 136.701 267.746C136.816 267.638 136.909 267.486 136.909 267.409C136.909 267.331 136.966 267.22 137.034 267.163C137.103 267.106 137.159 267.011 137.159 266.952C137.159 266.893 137.309 266.683 137.492 266.487C137.675 266.29 137.825 266.088 137.825 266.038C137.825 265.915 138.615 265.164 138.744 265.164C138.801 265.164 138.934 265.07 139.04 264.956C139.146 264.842 139.287 264.748 139.352 264.748C139.417 264.748 139.517 264.692 139.574 264.623C139.631 264.554 139.746 264.498 139.829 264.498C139.913 264.498 140.004 264.461 140.032 264.415C140.061 264.369 140.168 264.332 140.271 264.332C140.374 264.332 140.531 264.277 140.62 264.21C140.709 264.143 140.862 264.086 140.96 264.085C141.058 264.085 141.16 264.026 141.187 263.957C141.213 263.888 141.311 263.832 141.404 263.832C141.497 263.832 141.573 263.795 141.573 263.749C141.573 263.703 141.648 263.666 141.739 263.666C141.948 263.666 142.739 263.325 142.739 263.234C142.739 263.197 142.865 263.166 143.02 263.166C143.175 263.166 143.348 263.11 143.405 263.041C143.462 262.972 143.579 262.917 143.665 262.917C143.751 262.917 143.821 262.88 143.821 262.834C143.821 262.788 143.892 262.751 143.978 262.751C144.064 262.751 144.181 262.695 144.238 262.626C144.295 262.557 144.415 262.501 144.504 262.501C144.593 262.501 144.722 262.445 144.791 262.376C144.86 262.307 145.012 262.251 145.129 262.251C145.25 262.251 145.427 262.16 145.536 262.043C145.657 261.912 145.82 261.835 145.973 261.835C146.107 261.835 146.263 261.779 146.32 261.71C146.377 261.641 146.507 261.585 146.608 261.585C146.806 261.585 147.842 261.101 147.888 260.987C147.904 260.95 147.975 260.919 148.048 260.919C148.229 260.919 148.818 260.652 148.818 260.57C148.818 260.533 148.926 260.503 149.058 260.503C149.19 260.503 149.344 260.447 149.401 260.378C149.458 260.309 149.552 260.253 149.61 260.253C149.668 260.253 149.823 260.197 149.954 260.128C150.085 260.06 150.277 260.004 150.38 260.004C150.483 260.003 150.567 259.966 150.567 259.92C150.567 259.874 150.637 259.837 150.723 259.837C150.809 259.837 150.926 259.781 150.983 259.712C151.04 259.643 151.193 259.587 151.322 259.587C151.458 259.587 151.653 259.498 151.782 259.378C151.906 259.264 152.093 259.17 152.197 259.17C152.302 259.17 152.443 259.114 152.512 259.045C152.581 258.976 152.71 258.92 152.799 258.92C152.889 258.92 153.008 258.864 153.065 258.795C153.122 258.726 153.239 258.671 153.325 258.671C153.411 258.671 153.482 258.638 153.482 258.598C153.482 258.558 153.632 258.501 153.815 258.472C153.998 258.443 154.148 258.381 154.148 258.336C154.148 258.29 154.218 258.254 154.304 258.254C154.39 258.254 154.507 258.198 154.564 258.129C154.621 258.06 154.757 258.004 154.866 258.004C154.975 258.004 155.064 257.971 155.064 257.931C155.064 257.891 155.214 257.834 155.397 257.805C155.58 257.776 155.73 257.715 155.73 257.67C155.73 257.625 155.863 257.588 156.024 257.588C156.209 257.588 156.336 257.541 156.366 257.463C156.393 257.394 156.504 257.338 156.614 257.338C156.723 257.338 156.813 257.304 156.813 257.263C156.813 257.221 156.963 257.162 157.146 257.131C157.329 257.1 157.499 257.041 157.525 256.999C157.59 256.895 158.562 256.902 158.562 257.009C158.562 257.055 158.622 257.092 158.696 257.092C158.878 257.092 159.225 257.432 159.227 257.612C159.227 257.692 159.265 257.758 159.311 257.758C159.445 257.758 159.407 258.624 159.26 258.918C159.186 259.067 158.865 259.462 158.548 259.796C158.231 260.129 157.865 260.566 157.736 260.767C157.607 260.967 157.386 261.224 157.244 261.339C157.102 261.453 156.985 261.597 156.983 261.659C156.979 261.765 156.8 261.975 156.001 262.808C155.806 263.011 155.647 263.208 155.647 263.246C155.647 263.284 155.385 263.592 155.065 263.93C154.745 264.268 154.482 264.59 154.482 264.645C154.481 264.7 154.387 264.846 154.273 264.969C154.158 265.093 154.065 265.23 154.065 265.274C154.065 265.318 153.934 265.49 153.773 265.657C153.164 266.292 152.899 266.6 152.899 266.67C152.899 266.71 152.655 266.995 152.358 267.303C152.06 267.611 151.816 267.909 151.816 267.964C151.816 268.02 151.61 268.285 151.358 268.554C151.106 268.822 150.9 269.104 150.9 269.179C150.9 269.254 150.844 269.337 150.775 269.364C150.707 269.39 150.65 269.473 150.65 269.548C150.65 269.623 150.407 269.924 150.109 270.217C149.811 270.511 149.568 270.784 149.568 270.824C149.568 270.864 149.513 270.919 149.446 270.945C149.38 270.971 149.224 271.152 149.101 271.349C148.978 271.546 148.826 271.737 148.764 271.774C148.702 271.81 148.652 271.932 148.652 272.044C148.652 272.157 148.614 272.249 148.568 272.249C148.521 272.249 148.485 272.496 148.485 272.825C148.485 273.366 148.467 273.421 148.205 273.7C148.05 273.864 147.862 273.997 147.785 273.997C147.709 273.997 147.625 274.053 147.599 274.122C147.573 274.191 147.461 274.247 147.352 274.247C147.242 274.247 147.153 274.281 147.153 274.322C147.153 274.363 147.063 274.419 146.954 274.446C146.845 274.473 146.582 274.66 146.371 274.859L145.987 275.222V276.057C145.987 276.698 145.958 276.917 145.862 276.996C145.793 277.053 145.737 277.145 145.737 277.201C145.737 277.315 145.289 277.738 145.014 277.884C144.914 277.937 144.708 278.007 144.556 278.04C144.404 278.074 144.197 278.189 144.096 278.298C143.995 278.406 143.861 278.495 143.798 278.495C143.735 278.495 143.596 278.588 143.489 278.703C143.328 278.874 143.288 279.024 143.256 279.57C143.222 280.149 143.189 280.261 142.983 280.486C142.854 280.628 142.671 280.744 142.577 280.744C142.483 280.744 142.406 280.781 142.406 280.827C142.406 280.873 142.319 280.91 142.213 280.91C142.108 280.91 141.948 280.965 141.859 281.032C141.771 281.099 141.627 281.155 141.541 281.157C141.344 281.157 140.823 281.703 140.823 281.906C140.823 281.99 140.767 282.079 140.698 282.106C140.621 282.136 140.574 282.262 140.574 282.436C140.574 282.767 140.238 283.158 139.953 283.158C139.854 283.158 139.7 283.213 139.611 283.28C139.522 283.347 139.388 283.404 139.314 283.405C139.239 283.405 139.132 283.464 139.074 283.533C139.017 283.602 138.918 283.658 138.854 283.658C138.79 283.658 138.59 283.752 138.408 283.866C138.227 283.98 138.026 284.074 137.962 284.074C137.898 284.074 137.799 284.13 137.742 284.199C137.685 284.268 137.549 284.324 137.44 284.324C137.331 284.324 137.242 284.361 137.242 284.407C137.242 284.453 137.185 284.49 137.114 284.49C136.96 284.49 136.326 285.137 136.326 285.295C136.326 285.357 136.532 285.617 136.784 285.875C137.036 286.133 137.242 286.377 137.242 286.416C137.242 286.456 137.276 286.489 137.316 286.489C137.417 286.489 138.158 287.225 138.158 287.325C138.158 287.369 138.196 287.404 138.242 287.404C138.288 287.404 138.325 287.449 138.325 287.504C138.325 287.638 138.746 288.071 138.876 288.071C138.933 288.071 139.053 288.165 139.143 288.279C139.233 288.394 139.348 288.487 139.399 288.487C139.449 288.487 139.491 288.543 139.491 288.612C139.491 288.681 139.52 288.737 139.556 288.737C139.649 288.737 140.574 289.652 140.574 289.744C140.574 289.786 140.627 289.821 140.693 289.821C140.758 289.821 140.824 289.9 140.839 289.999C140.853 290.097 140.938 290.22 141.027 290.27C141.116 290.32 141.285 290.446 141.401 290.549C141.518 290.652 141.641 290.737 141.676 290.737C141.711 290.737 141.74 290.793 141.74 290.861C141.74 290.93 141.772 290.986 141.812 290.986C141.851 290.986 143.242 292.335 144.903 293.984C146.564 295.633 147.966 296.983 148.019 296.983C148.129 296.983 148.402 297.278 148.402 297.397C148.402 297.441 148.514 297.592 148.652 297.732C148.789 297.873 148.901 298.009 148.901 298.035C148.901 298.061 148.995 298.156 149.11 298.246C149.276 298.377 149.318 298.485 149.318 298.779C149.318 298.982 149.284 299.148 149.242 299.148C149.2 299.148 149.141 299.297 149.11 299.48C149.079 299.663 149.019 299.834 148.978 299.86C148.936 299.886 148.902 300.032 148.902 300.185C148.902 300.355 148.853 300.481 148.777 300.51C148.698 300.54 148.652 300.668 148.652 300.852C148.652 301.014 148.618 301.146 148.577 301.146C148.537 301.146 148.48 301.24 148.451 301.355C148.403 301.544 148.359 301.563 147.952 301.563C147.657 301.563 147.471 301.605 147.403 301.688C147.332 301.773 147.143 301.813 146.814 301.813C146.548 301.813 146.307 301.85 146.278 301.896C146.25 301.943 145.864 301.979 145.409 301.979H144.591L144.248 301.636C144.059 301.447 143.905 301.246 143.905 301.188C143.905 301.13 143.849 301.036 143.78 300.979C143.711 300.922 143.655 300.814 143.655 300.739C143.655 300.664 143.566 300.507 143.457 300.389C143.348 300.272 143.233 300.094 143.202 299.995C143.17 299.895 143.1 299.813 143.046 299.812C142.991 299.812 142.867 299.79 142.77 299.763C142.368 299.655 141.976 300.454 142.281 300.759C142.351 300.829 142.406 301.033 142.406 301.223C142.406 301.469 142.372 301.562 142.281 301.562C142.212 301.562 142.156 301.618 142.156 301.687C142.156 301.756 142.09 301.813 142.01 301.814C141.93 301.814 141.792 301.873 141.703 301.939C141.466 302.118 138.639 302.116 138.295 301.939L138.294 301.93Z" fill="#FEC24B"/>
<path d="M118.058 163.51H118.492C118.768 163.51 119.086 163.379 119.448 163.119C119.825 162.844 120.064 162.547 120.165 162.228C120.267 161.909 120.317 161.482 120.317 160.946C120.317 160.41 120.267 159.968 120.165 159.621C120.064 159.259 119.825 158.947 119.448 158.687C119.086 158.426 118.731 158.296 118.384 158.296C118.051 158.296 117.594 158.484 117.015 158.86C117.058 159.338 117.08 159.824 117.08 160.316V170.875H114.082V161.576C114.082 160.36 113.995 159.505 113.821 159.012C113.662 158.506 113.314 157.919 112.778 157.253L115.385 155.406C115.762 155.667 116.095 156.094 116.385 156.688C117.573 155.833 118.42 155.406 118.927 155.406C119.434 155.406 120.136 155.812 121.034 156.623C121.932 157.434 122.541 158.114 122.859 158.665C123.019 158.868 123.098 159.57 123.098 160.772C123.098 161.975 123.019 162.735 122.859 163.054C122.541 163.604 121.932 164.285 121.034 165.096C120.136 165.907 119.434 166.312 118.927 166.312H118.058V163.51ZM126.874 156.818C127.902 155.877 128.684 155.406 129.22 155.406C129.756 155.406 130.538 155.877 131.566 156.818C132.595 157.76 133.232 158.535 133.478 159.143C133.638 159.563 133.717 160.512 133.717 161.989V170.875H130.719V167.616H127.721V170.875H124.723V161.989C124.723 160.512 124.802 159.563 124.962 159.143C125.208 158.535 125.845 157.76 126.874 156.818ZM127.721 161.989V165.009H130.719V161.989C130.719 160.801 130.661 160.077 130.545 159.816C130.429 159.541 130.227 159.259 129.937 158.969C129.662 158.665 129.423 158.513 129.22 158.513C129.017 158.513 128.771 158.665 128.481 158.969C128.206 159.259 128.011 159.541 127.895 159.816C127.779 160.077 127.721 160.801 127.721 161.989ZM138.707 156.601C139.866 155.804 140.655 155.406 141.075 155.406C141.495 155.406 142.14 155.79 143.009 156.557C143.892 157.311 144.443 157.847 144.66 158.165C144.877 158.469 144.986 158.875 144.986 159.382C144.986 160.367 144.906 160.953 144.747 161.142C144.443 161.605 143.972 162.148 143.335 162.771C144.218 163.611 144.769 164.256 144.986 164.705C145.102 165.009 145.225 165.936 145.355 167.486C145.486 169.021 145.551 170.151 145.551 170.875H142.292C142.292 170.223 142.234 169.202 142.118 167.812C142.002 166.421 141.872 165.581 141.727 165.291C141.597 165.002 141.437 164.748 141.249 164.531H139.316V170.875H136.317V161.359C136.317 160.186 136.23 159.375 136.057 158.926C135.897 158.462 135.55 157.897 135.014 157.231L137.621 155.406C138.084 155.71 138.446 156.108 138.707 156.601ZM139.316 160.316V161.989H140.163C140.366 161.989 140.626 161.83 140.945 161.511C141.264 161.192 141.466 160.924 141.553 160.707C141.655 160.475 141.705 160.236 141.705 159.99C141.705 159.744 141.655 159.527 141.553 159.338C141.466 159.136 141.336 158.911 141.162 158.665C140.988 158.419 140.844 158.296 140.728 158.296C140.337 158.296 139.844 158.39 139.25 158.578C139.294 159.143 139.316 159.722 139.316 160.316ZM155.31 155.667V158.274H152.485V170.875H149.487V158.274H146.663V155.667H155.31ZM159.327 170.875V164.792C158.762 164.328 158.211 163.778 157.675 163.14C157.154 162.489 156.799 161.982 156.611 161.62C156.422 161.243 156.328 160.483 156.328 159.338V155.667H159.327V159.338C159.327 160.077 159.384 160.599 159.5 160.903C159.631 161.192 159.848 161.547 160.152 161.967C160.471 162.387 160.695 162.597 160.826 162.597C160.956 162.597 161.18 162.387 161.499 161.967C161.818 161.533 162.035 161.178 162.151 160.903C162.267 160.627 162.325 160.106 162.325 159.338V155.667H165.323V159.338C165.323 160.497 165.229 161.258 165.041 161.62C164.852 161.982 164.49 162.489 163.954 163.14C163.418 163.778 162.875 164.328 162.325 164.792V170.875H159.327Z" fill="#FEC24B"/>
<path d="M89.5818 215.414V204.355C89.5818 204.109 89.5311 203.906 89.4297 203.747C89.3428 203.573 89.1907 203.377 88.9735 203.16C88.7562 202.943 88.5824 202.834 88.452 202.834C88.1624 202.834 87.7785 203.124 87.3006 203.703C87.344 204.065 87.3657 204.449 87.3657 204.855V215.414H84.3675V206.115C84.3675 204.884 84.2806 204.022 84.1068 203.529C83.9475 203.037 83.5999 202.45 83.0639 201.77L85.6711 199.945C86.1346 200.278 86.4677 200.676 86.6705 201.14C87.7134 200.343 88.452 199.945 88.8866 199.945C89.3211 199.945 90.1394 200.502 91.3416 201.618C92.5438 200.502 93.3911 199.945 93.8836 199.945C94.2457 199.945 94.8613 200.328 95.7303 201.096C96.6138 201.849 97.1642 202.385 97.3815 202.704C97.5988 203.008 97.7074 203.414 97.7074 203.921V215.414H94.7092V204.355C94.7092 204.08 94.6585 203.87 94.5571 203.725C94.4557 203.566 94.2819 203.377 94.0357 203.16C93.8039 202.943 93.5939 202.834 93.4056 202.834C93.2318 202.834 92.9494 203.073 92.5583 203.551C92.5728 203.624 92.58 203.747 92.58 203.921V215.414H89.5818ZM102.886 206.158H106.775V208.787H102.886V212.785H108.079V215.414H99.8882V202.03L102.886 199.945H107.731V202.595H103.69L102.886 203.16V206.158ZM115.36 215.414V204.355C115.36 204.109 115.31 203.906 115.208 203.747C115.121 203.573 114.969 203.377 114.752 203.16C114.535 202.943 114.361 202.834 114.231 202.834C113.941 202.834 113.557 203.124 113.079 203.703C113.123 204.065 113.144 204.449 113.144 204.855V215.414H110.146V206.115C110.146 204.884 110.059 204.022 109.885 203.529C109.726 203.037 109.378 202.45 108.843 201.77L111.45 199.945C111.913 200.278 112.246 200.676 112.449 201.14C113.492 200.343 114.231 199.945 114.665 199.945C115.1 199.945 115.918 200.502 117.12 201.618C118.322 200.502 119.17 199.945 119.662 199.945C120.024 199.945 120.64 200.328 121.509 201.096C122.392 201.849 122.943 202.385 123.16 202.704C123.377 203.008 123.486 203.414 123.486 203.921V215.414H120.488V204.355C120.488 204.08 120.437 203.87 120.336 203.725C120.234 203.566 120.061 203.377 119.814 203.16C119.583 202.943 119.373 202.834 119.184 202.834C119.01 202.834 118.728 203.073 118.337 203.551C118.351 203.624 118.359 203.747 118.359 203.921V215.414H115.36ZM128.491 201.14C129.476 200.343 130.164 199.945 130.555 199.945C130.961 199.945 131.598 200.328 132.467 201.096C133.351 201.849 133.901 202.385 134.118 202.704C134.336 203.008 134.444 203.515 134.444 204.225C134.444 204.934 134.336 205.47 134.118 205.832C133.901 206.18 133.503 206.629 132.923 207.179C133.836 207.933 134.48 208.563 134.857 209.07C135.016 209.33 135.096 209.823 135.096 210.547C135.096 211.257 135.016 211.72 134.857 211.938C134.596 212.502 133.966 213.227 132.967 214.11C131.967 214.979 131.178 215.414 130.599 215.414H126.101V206.115C126.101 204.942 126.014 204.116 125.841 203.638C125.681 203.16 125.334 202.595 124.798 201.943L127.666 199.945C128.013 200.234 128.288 200.633 128.491 201.14ZM129.1 208.809V212.785H130.599C130.787 212.785 131.019 212.64 131.294 212.35C131.569 212.046 131.765 211.785 131.88 211.568C132.011 211.336 132.076 210.873 132.076 210.178C132.076 209.7 131.714 209.243 130.99 208.809H129.1ZM129.1 204.855V206.397H130.208C130.367 206.397 130.562 206.26 130.794 205.985C131.04 205.695 131.207 205.441 131.294 205.224C131.381 205.007 131.424 204.746 131.424 204.442C131.424 204.138 131.279 203.797 130.99 203.421C130.7 203.03 130.432 202.834 130.186 202.834C129.94 202.834 129.556 202.928 129.034 203.117C129.078 203.682 129.1 204.261 129.1 204.855ZM140.271 206.158H144.16V208.787H140.271V212.785H145.463V215.414H137.272V202.03L140.271 199.945H145.116V202.595H141.075L140.271 203.16V206.158ZM149.92 201.14C151.079 200.343 151.868 199.945 152.289 199.945C152.709 199.945 153.353 200.328 154.222 201.096C155.106 201.849 155.656 202.385 155.873 202.704C156.091 203.008 156.199 203.414 156.199 203.921C156.199 204.905 156.12 205.492 155.96 205.68C155.656 206.144 155.185 206.687 154.548 207.31C155.432 208.15 155.982 208.794 156.199 209.243C156.315 209.548 156.438 210.475 156.569 212.024C156.699 213.56 156.764 214.689 156.764 215.414H153.505C153.505 214.762 153.447 213.741 153.331 212.35C153.215 210.96 153.085 210.12 152.94 209.83C152.81 209.54 152.651 209.287 152.462 209.07H150.529V215.414H147.53V205.898C147.53 204.724 147.444 203.913 147.27 203.464C147.11 203.001 146.763 202.436 146.227 201.77L148.834 199.945C149.298 200.249 149.66 200.647 149.92 201.14ZM150.529 204.855V206.528H151.376C151.579 206.528 151.84 206.368 152.158 206.05C152.477 205.731 152.68 205.463 152.766 205.246C152.868 205.014 152.919 204.775 152.919 204.529C152.919 204.283 152.868 204.065 152.766 203.877C152.68 203.674 152.549 203.45 152.375 203.204C152.202 202.957 152.057 202.834 151.941 202.834C151.55 202.834 151.057 202.928 150.464 203.117C150.507 203.682 150.529 204.261 150.529 204.855ZM166.914 209.287C167.073 209.548 167.153 210.069 167.153 210.851C167.153 211.619 166.994 212.271 166.675 212.807C166.385 213.227 165.77 213.813 164.828 214.566C163.887 215.305 163.192 215.674 162.743 215.674C161.946 215.674 161.034 215.262 160.005 214.436C158.977 213.596 158.325 212.676 158.05 211.677L160.461 210.026C160.693 210.706 161.063 211.329 161.569 211.894C162.076 212.459 162.431 212.741 162.634 212.741C162.851 212.741 163.076 212.676 163.308 212.546C163.554 212.401 163.742 212.256 163.872 212.111C164.061 211.88 164.155 211.517 164.155 211.025C164.155 210.533 164.039 210.228 163.807 210.113C163.518 209.866 162.953 209.54 162.113 209.135C161.287 208.729 160.519 208.295 159.81 207.831C159.1 207.353 158.644 206.89 158.441 206.441C158.253 205.992 158.158 205.412 158.158 204.703C158.158 203.978 158.318 203.348 158.636 202.813C158.926 202.392 159.542 201.813 160.483 201.074C161.425 200.321 162.12 199.945 162.569 199.945C163.366 199.945 164.278 200.365 165.306 201.205C166.335 202.03 166.987 202.943 167.262 203.942L164.85 205.615C164.618 204.934 164.249 204.312 163.742 203.747C163.235 203.167 162.873 202.878 162.656 202.878C162.453 202.878 162.229 202.943 161.982 203.073C161.736 203.204 161.533 203.37 161.374 203.573C161.229 203.761 161.157 204.094 161.157 204.572C161.157 205.036 161.302 205.347 161.591 205.507C161.823 205.709 162.352 206.028 163.177 206.463C165.292 207.621 166.538 208.563 166.914 209.287ZM175.211 215.414V208.461H172.212V215.414H169.214V206.115C169.214 204.884 169.127 204.029 168.954 203.551C168.794 203.059 168.447 202.465 167.911 201.77L170.518 199.945C170.981 200.249 171.38 200.814 171.713 201.639C172.046 202.45 172.212 203.435 172.212 204.594V205.854H175.211V200.205H178.209V215.414H175.211ZM180.516 215.414V200.205H183.514V215.414H180.516ZM190.227 208.049H190.662C190.937 208.049 191.256 207.918 191.618 207.657C191.994 207.382 192.233 207.085 192.335 206.767C192.436 206.448 192.487 206.021 192.487 205.485C192.487 204.949 192.436 204.507 192.335 204.16C192.233 203.797 191.994 203.486 191.618 203.225C191.256 202.965 190.901 202.834 190.553 202.834C190.22 202.834 189.764 203.023 189.185 203.399C189.228 203.877 189.25 204.362 189.25 204.855V215.414H186.251V206.115C186.251 204.898 186.165 204.044 185.991 203.551C185.831 203.044 185.484 202.458 184.948 201.791L187.555 199.945C187.932 200.205 188.265 200.633 188.554 201.226C189.742 200.372 190.589 199.945 191.096 199.945C191.603 199.945 192.306 200.35 193.204 201.161C194.102 201.972 194.71 202.653 195.029 203.204C195.188 203.406 195.268 204.109 195.268 205.311C195.268 206.513 195.188 207.274 195.029 207.592C194.71 208.143 194.102 208.823 193.204 209.635C192.306 210.446 191.603 210.851 191.096 210.851H190.227V208.049Z" fill="#FEC24B"/>
<path d="M50.8948 189.018C52.068 189.018 53.0191 188.067 53.0191 186.894C53.0191 185.721 52.068 184.77 50.8948 184.77C49.7216 184.77 48.7705 185.721 48.7705 186.894C48.7705 188.067 49.7216 189.018 50.8948 189.018Z" fill="#FEC24B" stroke="#FEC24B" stroke-width="0.5" stroke-linecap="round"/>
<path d="M54.68 189.018C55.8532 189.018 56.8043 188.067 56.8043 186.894C56.8043 185.721 55.8532 184.77 54.68 184.77C53.5067 184.77 52.5557 185.721 52.5557 186.894C52.5557 188.067 53.5067 189.018 54.68 189.018Z" fill="#FEC24B" stroke="#FEC24B" stroke-width="0.5" stroke-linecap="round"/>
<path d="M58.4651 189.018C59.6383 189.018 60.5894 188.067 60.5894 186.894C60.5894 185.721 59.6383 184.77 58.4651 184.77C57.2919 184.77 56.3408 185.721 56.3408 186.894C56.3408 188.067 57.2919 189.018 58.4651 189.018Z" fill="#FEC24B" stroke="#FEC24B" stroke-width="0.5" stroke-linecap="round"/>
<path d="M62.2501 189.018C63.4234 189.018 64.3744 188.067 64.3744 186.894C64.3744 185.721 63.4234 184.77 62.2501 184.77C61.0769 184.77 60.1259 185.721 60.1259 186.894C60.1259 188.067 61.0769 189.018 62.2501 189.018Z" fill="#FEC24B" stroke="#FEC24B" stroke-width="0.5" stroke-linecap="round"/>
<path d="M66.0353 189.018C67.2085 189.018 68.1596 188.067 68.1596 186.894C68.1596 185.721 67.2085 184.77 66.0353 184.77C64.8621 184.77 63.911 185.721 63.911 186.894C63.911 188.067 64.8621 189.018 66.0353 189.018Z" fill="#FEC24B" stroke="#FEC24B" stroke-width="0.5" stroke-linecap="round"/>
<path d="M69.8205 189.018C70.9937 189.018 71.9448 188.067 71.9448 186.894C71.9448 185.721 70.9937 184.77 69.8205 184.77C68.6472 184.77 67.6962 185.721 67.6962 186.894C67.6962 188.067 68.6472 189.018 69.8205 189.018Z" fill="#FEC24B" stroke="#FEC24B" stroke-width="0.5" stroke-linecap="round"/>
<path d="M73.6056 189.018C74.7788 189.018 75.7299 188.067 75.7299 186.894C75.7299 185.721 74.7788 184.77 73.6056 184.77C72.4324 184.77 71.4813 185.721 71.4813 186.894C71.4813 188.067 72.4324 189.018 73.6056 189.018Z" fill="#FEC24B" stroke="#FEC24B" stroke-width="0.5" stroke-linecap="round"/>
<path d="M77.3908 189.018C78.564 189.018 79.5151 188.067 79.5151 186.894C79.5151 185.721 78.564 184.77 77.3908 184.77C76.2176 184.77 75.2665 185.721 75.2665 186.894C75.2665 188.067 76.2176 189.018 77.3908 189.018Z" fill="#FEC24B" stroke="#FEC24B" stroke-width="0.5" stroke-linecap="round"/>
<path d="M81.1758 189.018C82.349 189.018 83.3001 188.067 83.3001 186.894C83.3001 185.721 82.349 184.77 81.1758 184.77C80.0026 184.77 79.0515 185.721 79.0515 186.894C79.0515 188.067 80.0026 189.018 81.1758 189.018Z" fill="#FEC24B" stroke="#FEC24B" stroke-width="0.5" stroke-linecap="round"/>
<path d="M84.961 189.018C86.1342 189.018 87.0853 188.067 87.0853 186.894C87.0853 185.721 86.1342 184.77 84.961 184.77C83.7877 184.77 82.8367 185.721 82.8367 186.894C82.8367 188.067 83.7877 189.018 84.961 189.018Z" fill="#FEC24B" stroke="#FEC24B" stroke-width="0.5" stroke-linecap="round"/>
<path d="M88.7461 189.018C89.9193 189.018 90.8704 188.067 90.8704 186.894C90.8704 185.721 89.9193 184.77 88.7461 184.77C87.5729 184.77 86.6218 185.721 86.6218 186.894C86.6218 188.067 87.5729 189.018 88.7461 189.018Z" fill="#FEC24B" stroke="#FEC24B" stroke-width="0.5" stroke-linecap="round"/>
<path d="M92.5313 189.018C93.7045 189.018 94.6556 188.067 94.6556 186.894C94.6556 185.721 93.7045 184.77 92.5313 184.77C91.3581 184.77 90.407 185.721 90.407 186.894C90.407 188.067 91.3581 189.018 92.5313 189.018Z" fill="#FEC24B" stroke="#FEC24B" stroke-width="0.5" stroke-linecap="round"/>
<path d="M96.3164 189.018C97.4896 189.018 98.4407 188.067 98.4407 186.894C98.4407 185.721 97.4896 184.77 96.3164 184.77C95.1432 184.77 94.1921 185.721 94.1921 186.894C94.1921 188.067 95.1432 189.018 96.3164 189.018Z" fill="#FEC24B" stroke="#FEC24B" stroke-width="0.5" stroke-linecap="round"/>
<path d="M100.101 189.018C101.275 189.018 102.226 188.067 102.226 186.894C102.226 185.721 101.275 184.77 100.101 184.77C98.9283 184.77 97.9772 185.721 97.9772 186.894C97.9772 188.067 98.9283 189.018 100.101 189.018Z" fill="#FEC24B" stroke="#FEC24B" stroke-width="0.5" stroke-linecap="round"/>
<path d="M103.887 189.018C105.06 189.018 106.011 188.067 106.011 186.894C106.011 185.721 105.06 184.77 103.887 184.77C102.713 184.77 101.762 185.721 101.762 186.894C101.762 188.067 102.713 189.018 103.887 189.018Z" fill="#FEC24B" stroke="#FEC24B" stroke-width="0.5" stroke-linecap="round"/>
<path d="M107.672 189.018C108.845 189.018 109.796 188.067 109.796 186.894C109.796 185.721 108.845 184.77 107.672 184.77C106.499 184.77 105.547 185.721 105.547 186.894C105.547 188.067 106.499 189.018 107.672 189.018Z" fill="#FEC24B" stroke="#FEC24B" stroke-width="0.5" stroke-linecap="round"/>
<path d="M111.457 189.018C112.63 189.018 113.581 188.067 113.581 186.894C113.581 185.721 112.63 184.77 111.457 184.77C110.284 184.77 109.333 185.721 109.333 186.894C109.333 188.067 110.284 189.018 111.457 189.018Z" fill="#FEC24B" stroke="#FEC24B" stroke-width="0.5" stroke-linecap="round"/>
<path d="M115.242 189.018C116.415 189.018 117.366 188.067 117.366 186.894C117.366 185.721 116.415 184.77 115.242 184.77C114.069 184.77 113.118 185.721 113.118 186.894C113.118 188.067 114.069 189.018 115.242 189.018Z" fill="#FEC24B" stroke="#FEC24B" stroke-width="0.5" stroke-linecap="round"/>
<path d="M119.027 189.018C120.2 189.018 121.151 188.067 121.151 186.894C121.151 185.721 120.2 184.77 119.027 184.77C117.854 184.77 116.903 185.721 116.903 186.894C116.903 188.067 117.854 189.018 119.027 189.018Z" fill="#FEC24B" stroke="#FEC24B" stroke-width="0.5" stroke-linecap="round"/>
<path d="M122.812 189.018C123.985 189.018 124.937 188.067 124.937 186.894C124.937 185.721 123.985 184.77 122.812 184.77C121.639 184.77 120.688 185.721 120.688 186.894C120.688 188.067 121.639 189.018 122.812 189.018Z" fill="#FEC24B" stroke="#FEC24B" stroke-width="0.5" stroke-linecap="round"/>
<path d="M126.597 189.018C127.771 189.018 128.722 188.067 128.722 186.894C128.722 185.721 127.771 184.77 126.597 184.77C125.424 184.77 124.473 185.721 124.473 186.894C124.473 188.067 125.424 189.018 126.597 189.018Z" fill="#FEC24B" stroke="#FEC24B" stroke-width="0.5" stroke-linecap="round"/>
<path d="M130.383 189.018C131.556 189.018 132.507 188.067 132.507 186.894C132.507 185.721 131.556 184.77 130.383 184.77C129.209 184.77 128.258 185.721 128.258 186.894C128.258 188.067 129.209 189.018 130.383 189.018Z" fill="#FEC24B" stroke="#FEC24B" stroke-width="0.5" stroke-linecap="round"/>
<path d="M134.168 189.018C135.341 189.018 136.292 188.067 136.292 186.894C136.292 185.721 135.341 184.77 134.168 184.77C132.995 184.77 132.043 185.721 132.043 186.894C132.043 188.067 132.995 189.018 134.168 189.018Z" fill="#FEC24B" stroke="#FEC24B" stroke-width="0.5" stroke-linecap="round"/>
<path d="M137.953 189.018C139.126 189.018 140.077 188.067 140.077 186.894C140.077 185.721 139.126 184.77 137.953 184.77C136.78 184.77 135.828 185.721 135.828 186.894C135.828 188.067 136.78 189.018 137.953 189.018Z" fill="#FEC24B" stroke="#FEC24B" stroke-width="0.5" stroke-linecap="round"/>
<path d="M141.738 189.018C142.911 189.018 143.862 188.067 143.862 186.894C143.862 185.721 142.911 184.77 141.738 184.77C140.565 184.77 139.614 185.721 139.614 186.894C139.614 188.067 140.565 189.018 141.738 189.018Z" fill="#FEC24B" stroke="#FEC24B" stroke-width="0.5" stroke-linecap="round"/>
<path d="M145.523 189.018C146.696 189.018 147.647 188.067 147.647 186.894C147.647 185.721 146.696 184.77 145.523 184.77C144.35 184.77 143.399 185.721 143.399 186.894C143.399 188.067 144.35 189.018 145.523 189.018Z" fill="#FEC24B" stroke="#FEC24B" stroke-width="0.5" stroke-linecap="round"/>
<path d="M149.308 189.018C150.481 189.018 151.433 188.067 151.433 186.894C151.433 185.721 150.481 184.77 149.308 184.77C148.135 184.77 147.184 185.721 147.184 186.894C147.184 188.067 148.135 189.018 149.308 189.018Z" fill="#FEC24B" stroke="#FEC24B" stroke-width="0.5" stroke-linecap="round"/>
<path d="M153.093 189.018C154.267 189.018 155.218 188.067 155.218 186.894C155.218 185.721 154.267 184.77 153.093 184.77C151.92 184.77 150.969 185.721 150.969 186.894C150.969 188.067 151.92 189.018 153.093 189.018Z" fill="#FEC24B" stroke="#FEC24B" stroke-width="0.5" stroke-linecap="round"/>
<path d="M156.878 189.018C158.052 189.018 159.003 188.067 159.003 186.894C159.003 185.721 158.052 184.77 156.878 184.77C155.705 184.77 154.754 185.721 154.754 186.894C154.754 188.067 155.705 189.018 156.878 189.018Z" fill="#FEC24B" stroke="#FEC24B" stroke-width="0.5" stroke-linecap="round"/>
<path d="M160.664 189.018C161.837 189.018 162.788 188.067 162.788 186.894C162.788 185.721 161.837 184.77 160.664 184.77C159.49 184.77 158.539 185.721 158.539 186.894C158.539 188.067 159.49 189.018 160.664 189.018Z" fill="#FEC24B" stroke="#FEC24B" stroke-width="0.5" stroke-linecap="round"/>
<path d="M164.449 189.018C165.622 189.018 166.573 188.067 166.573 186.894C166.573 185.721 165.622 184.77 164.449 184.77C163.276 184.77 162.324 185.721 162.324 186.894C162.324 188.067 163.276 189.018 164.449 189.018Z" fill="#FEC24B" stroke="#FEC24B" stroke-width="0.5" stroke-linecap="round"/>
<path d="M168.234 189.018C169.407 189.018 170.358 188.067 170.358 186.894C170.358 185.721 169.407 184.77 168.234 184.77C167.061 184.77 166.11 185.721 166.11 186.894C166.11 188.067 167.061 189.018 168.234 189.018Z" fill="#FEC24B" stroke="#FEC24B" stroke-width="0.5" stroke-linecap="round"/>
<path d="M172.019 189.018C173.192 189.018 174.143 188.067 174.143 186.894C174.143 185.721 173.192 184.77 172.019 184.77C170.846 184.77 169.895 185.721 169.895 186.894C169.895 188.067 170.846 189.018 172.019 189.018Z" fill="#FEC24B" stroke="#FEC24B" stroke-width="0.5" stroke-linecap="round"/>
<path d="M175.804 189.018C176.977 189.018 177.928 188.067 177.928 186.894C177.928 185.721 176.977 184.77 175.804 184.77C174.631 184.77 173.68 185.721 173.68 186.894C173.68 188.067 174.631 189.018 175.804 189.018Z" fill="#FEC24B" stroke="#FEC24B" stroke-width="0.5" stroke-linecap="round"/>
<path d="M179.589 189.018C180.762 189.018 181.714 188.067 181.714 186.894C181.714 185.721 180.762 184.77 179.589 184.77C178.416 184.77 177.465 185.721 177.465 186.894C177.465 188.067 178.416 189.018 179.589 189.018Z" fill="#FEC24B" stroke="#FEC24B" stroke-width="0.5" stroke-linecap="round"/>
<path d="M183.374 189.018C184.548 189.018 185.499 188.067 185.499 186.894C185.499 185.721 184.548 184.77 183.374 184.77C182.201 184.77 181.25 185.721 181.25 186.894C181.25 188.067 182.201 189.018 183.374 189.018Z" fill="#FEC24B" stroke="#FEC24B" stroke-width="0.5" stroke-linecap="round"/>
<path d="M187.16 189.018C188.333 189.018 189.284 188.067 189.284 186.894C189.284 185.721 188.333 184.77 187.16 184.77C185.986 184.77 185.035 185.721 185.035 186.894C185.035 188.067 185.986 189.018 187.16 189.018Z" fill="#FEC24B" stroke="#FEC24B" stroke-width="0.5" stroke-linecap="round"/>
<path d="M190.945 189.018C192.118 189.018 193.069 188.067 193.069 186.894C193.069 185.721 192.118 184.77 190.945 184.77C189.771 184.77 188.82 185.721 188.82 186.894C188.82 188.067 189.771 189.018 190.945 189.018Z" fill="#FEC24B" stroke="#FEC24B" stroke-width="0.5" stroke-linecap="round"/>
<path d="M194.73 189.018C195.903 189.018 196.854 188.067 196.854 186.894C196.854 185.721 195.903 184.77 194.73 184.77C193.557 184.77 192.605 185.721 192.605 186.894C192.605 188.067 193.557 189.018 194.73 189.018Z" fill="#FEC24B" stroke="#FEC24B" stroke-width="0.5" stroke-linecap="round"/>
<path d="M198.515 189.018C199.688 189.018 200.639 188.067 200.639 186.894C200.639 185.721 199.688 184.77 198.515 184.77C197.342 184.77 196.391 185.721 196.391 186.894C196.391 188.067 197.342 189.018 198.515 189.018Z" fill="#FEC24B" stroke="#FEC24B" stroke-width="0.5" stroke-linecap="round"/>
<path d="M202.3 189.018C203.473 189.018 204.424 188.067 204.424 186.894C204.424 185.721 203.473 184.77 202.3 184.77C201.127 184.77 200.176 185.721 200.176 186.894C200.176 188.067 201.127 189.018 202.3 189.018Z" fill="#FEC24B" stroke="#FEC24B" stroke-width="0.5" stroke-linecap="round"/>
<path d="M206.085 189.018C207.258 189.018 208.21 188.067 208.21 186.894C208.21 185.721 207.258 184.77 206.085 184.77C204.912 184.77 203.961 185.721 203.961 186.894C203.961 188.067 204.912 189.018 206.085 189.018Z" fill="#FEC24B" stroke="#FEC24B" stroke-width="0.5" stroke-linecap="round"/>
<path d="M209.87 189.018C211.044 189.018 211.995 188.067 211.995 186.894C211.995 185.721 211.044 184.77 209.87 184.77C208.697 184.77 207.746 185.721 207.746 186.894C207.746 188.067 208.697 189.018 209.87 189.018Z" fill="#FEC24B" stroke="#FEC24B" stroke-width="0.5" stroke-linecap="round"/>
<path d="M213.655 189.018C214.829 189.018 215.78 188.067 215.78 186.894C215.78 185.721 214.829 184.77 213.655 184.77C212.482 184.77 211.531 185.721 211.531 186.894C211.531 188.067 212.482 189.018 213.655 189.018Z" fill="#FEC24B" stroke="#FEC24B" stroke-width="0.5" stroke-linecap="round"/>
<path d="M217.441 189.018C218.614 189.018 219.565 188.067 219.565 186.894C219.565 185.721 218.614 184.77 217.441 184.77C216.267 184.77 215.316 185.721 215.316 186.894C215.316 188.067 216.267 189.018 217.441 189.018Z" fill="#FEC24B" stroke="#FEC24B" stroke-width="0.5" stroke-linecap="round"/>
<path d="M221.226 189.018C222.399 189.018 223.35 188.067 223.35 186.894C223.35 185.721 222.399 184.77 221.226 184.77C220.053 184.77 219.101 185.721 219.101 186.894C219.101 188.067 220.053 189.018 221.226 189.018Z" fill="#FEC24B" stroke="#FEC24B" stroke-width="0.5" stroke-linecap="round"/>
<path d="M225.011 189.018C226.184 189.018 227.135 188.067 227.135 186.894C227.135 185.721 226.184 184.77 225.011 184.77C223.838 184.77 222.886 185.721 222.886 186.894C222.886 188.067 223.838 189.018 225.011 189.018Z" fill="#FEC24B" stroke="#FEC24B" stroke-width="0.5" stroke-linecap="round"/>
<path d="M136.378 121.427C136.327 121.375 135.979 121.318 135.606 121.298C135.232 121.278 134.907 121.231 134.884 121.193C134.86 121.155 134.704 121.124 134.537 121.124C134.365 121.124 134.191 121.072 134.135 121.005C134.08 120.939 133.96 120.884 133.867 120.883C133.774 120.883 133.628 120.828 133.543 120.763C133.459 120.699 133.324 120.647 133.245 120.647C133.166 120.647 133.101 120.616 133.101 120.577C133.101 120.539 133.039 120.484 132.962 120.456C132.672 120.349 132.377 120.153 132.284 120.005C132.232 119.92 132.148 119.852 132.099 119.852C132.049 119.852 131.859 119.682 131.676 119.474C131.215 118.952 131.193 118.921 131.193 118.78C131.193 118.711 131.14 118.634 131.074 118.609C131.009 118.584 130.955 118.482 130.955 118.383C130.955 118.284 130.901 118.158 130.836 118.103C130.77 118.049 130.717 117.921 130.717 117.82C130.717 117.718 130.681 117.613 130.637 117.586C130.589 117.556 130.558 116.951 130.558 116.037C130.558 114.81 130.536 114.515 130.438 114.418C130.373 114.352 130.319 114.274 130.319 114.244C130.319 114.215 130.251 114.114 130.167 114.02C130.083 113.926 129.882 113.698 129.72 113.512C129.558 113.326 129.377 113.174 129.316 113.174C129.256 113.174 129.206 113.141 129.206 113.101C129.206 113.061 129.099 113.004 128.968 112.976C128.838 112.948 128.711 112.891 128.686 112.85C128.661 112.81 128.537 112.777 128.411 112.777C128.285 112.777 128.16 112.741 128.133 112.698C128.106 112.654 127.855 112.619 127.576 112.619C127.297 112.619 127.047 112.655 127.02 112.698C126.991 112.744 126.545 112.777 125.952 112.777C125.143 112.777 124.912 112.752 124.834 112.658C124.779 112.592 124.686 112.539 124.625 112.539C124.565 112.539 124.516 112.509 124.516 112.472C124.516 112.436 124.426 112.364 124.317 112.315C124.208 112.265 124.118 112.175 124.118 112.114C124.118 112.053 124.029 111.937 123.92 111.855C123.81 111.773 123.721 111.665 123.721 111.615C123.721 111.565 123.667 111.48 123.602 111.426C123.536 111.372 123.482 111.241 123.482 111.135C123.482 111.03 123.429 110.923 123.363 110.898C123.283 110.867 123.244 110.741 123.244 110.508C123.244 110.318 123.208 110.141 123.164 110.114C123.121 110.087 123.085 109.984 123.085 109.886C123.085 109.788 123.032 109.638 122.968 109.553C122.904 109.468 122.85 109.303 122.849 109.186C122.847 109.069 122.793 108.919 122.727 108.854C122.662 108.788 122.608 108.609 122.608 108.455C122.608 108.301 122.574 108.155 122.533 108.13C122.492 108.104 122.434 107.923 122.405 107.726C122.375 107.53 122.319 107.35 122.281 107.326C122.183 107.266 122.192 106.041 122.29 105.98C122.333 105.953 122.369 105.848 122.369 105.747C122.369 105.646 122.423 105.518 122.489 105.464C122.554 105.41 122.608 105.32 122.608 105.265C122.608 105.174 122.853 104.931 123.572 104.311C123.921 104.01 124.118 103.697 124.118 103.444C124.118 103.336 124.154 103.225 124.198 103.198C124.303 103.133 124.303 101.355 124.198 101.29C124.152 101.262 124.117 100.842 124.115 100.312C124.113 99.656 124.079 99.3235 123.999 99.1833C123.922 99.0484 123.884 98.7281 123.883 98.1858C123.881 97.7464 123.848 97.3528 123.809 97.3113C123.77 97.2693 123.722 96.7429 123.703 96.1404C123.682 95.4536 123.634 95.0104 123.575 94.952C123.46 94.8369 123.442 91.6313 123.556 91.6313C123.597 91.6313 123.655 91.3444 123.686 90.9936C123.717 90.6429 123.773 90.3367 123.811 90.3132C123.849 90.2902 123.88 90.0746 123.88 89.8354C123.88 89.522 123.913 89.3876 123.999 89.3547C124.065 89.3297 124.119 89.2323 124.121 89.1385C124.123 89.0445 124.176 88.8988 124.24 88.814C124.304 88.729 124.357 88.5612 124.357 88.441C124.357 88.3207 124.393 88.2003 124.436 88.1732C124.48 88.1462 124.516 88.0412 124.516 87.9398C124.516 87.8384 124.569 87.7109 124.635 87.6565C124.701 87.6025 124.754 87.4947 124.754 87.418C124.754 87.341 124.808 87.234 124.873 87.1796C124.939 87.1256 124.993 87.0134 124.993 86.9313C124.993 86.8493 125.029 86.782 125.072 86.782C125.116 86.782 125.152 86.726 125.152 86.6575C125.152 86.5885 125.237 86.4191 125.341 86.2799C125.444 86.1407 125.59 85.8963 125.664 85.7367C125.738 85.5771 125.902 85.3446 126.029 85.22C126.156 85.0953 126.261 84.9439 126.262 84.8832C126.263 84.8222 126.354 84.6903 126.463 84.589C126.573 84.4877 126.662 84.3673 126.662 84.3215C126.662 84.2755 126.716 84.2375 126.781 84.2375C126.847 84.2375 126.901 84.1974 126.901 84.1474C126.901 84.0196 128.467 82.5074 128.848 82.2672C129.023 82.157 129.245 81.9829 129.341 81.8802C129.438 81.7776 129.549 81.6935 129.59 81.6935C129.63 81.6935 129.708 81.6405 129.762 81.5743C129.817 81.5083 129.91 81.4551 129.969 81.4551C130.082 81.4551 130.817 80.9807 130.862 80.8786C130.877 80.8456 130.99 80.8187 131.114 80.8187C131.238 80.8187 131.351 80.7917 131.366 80.7587C131.38 80.7257 131.535 80.6334 131.71 80.5531C131.885 80.4731 132.129 80.3565 132.253 80.2947C132.377 80.2337 132.525 80.1822 132.582 80.1822C132.639 80.1822 132.788 80.1293 132.913 80.0636C133.039 79.9986 133.237 79.9446 133.355 79.9443C133.473 79.9441 133.591 79.9082 133.618 79.8642C133.645 79.8202 133.756 79.7853 133.864 79.7853C133.972 79.7853 134.081 79.7323 134.106 79.666C134.139 79.579 134.276 79.5467 134.611 79.5467C134.864 79.5467 135.173 79.4937 135.298 79.4281C135.627 79.2566 140.433 79.2561 140.733 79.4275C140.842 79.4895 141.097 79.5425 141.3 79.5441C141.527 79.5441 141.705 79.592 141.766 79.666C141.821 79.732 141.959 79.7864 142.074 79.7878C142.287 79.7878 143.079 80.0382 143.172 80.1313C143.201 80.1593 143.321 80.1833 143.441 80.1833C143.56 80.1833 143.678 80.2363 143.703 80.3025C143.728 80.3685 143.837 80.4217 143.945 80.4217C144.053 80.4217 144.162 80.4547 144.187 80.4947C144.212 80.5347 144.339 80.5917 144.47 80.6203C144.601 80.6493 144.708 80.7053 144.708 80.7456C144.708 80.7856 144.797 80.8186 144.906 80.8186C145.016 80.8186 145.105 80.8516 145.105 80.8926C145.105 80.9336 145.266 81.0471 145.463 81.1453C145.66 81.2433 145.821 81.3533 145.821 81.3893C145.821 81.4253 145.91 81.4543 146.019 81.4543C146.129 81.4543 146.218 81.4833 146.218 81.5183C146.218 81.5543 146.363 81.6878 146.541 81.8165C146.949 82.112 147.341 82.4351 147.812 82.8651C148.016 83.0509 148.203 83.203 148.228 83.203C148.29 83.203 148.762 83.68 148.764 83.7457C148.765 83.7747 148.961 84.005 149.201 84.2565C149.44 84.508 149.636 84.7455 149.636 84.7845C149.636 84.8235 149.69 84.8755 149.756 84.9012C149.821 84.9262 149.875 84.9962 149.875 85.057C149.875 85.117 149.957 85.2557 150.057 85.364C150.158 85.4723 150.343 85.7645 150.469 86.0134C150.595 86.2623 150.745 86.5053 150.803 86.5533C150.861 86.6013 150.908 86.6857 150.908 86.7406C150.908 86.7956 150.962 86.8849 151.028 86.9393C151.093 86.9933 151.147 87.1215 151.147 87.223C151.147 87.3247 151.236 87.5761 151.346 87.7817C151.455 87.9872 151.544 88.2226 151.544 88.305C151.544 88.387 151.598 88.4753 151.664 88.5004C151.737 88.5294 151.783 88.649 151.783 88.8113C151.783 88.957 151.814 89.0955 151.852 89.119C151.89 89.142 151.945 89.3759 151.975 89.638C152.004 89.8999 152.059 90.1327 152.095 90.1553C152.132 90.1773 152.187 90.4649 152.217 90.7932C152.248 91.1215 152.306 91.4102 152.346 91.435C152.462 91.507 152.439 94.9957 152.322 95.1131C152.258 95.1771 152.214 95.5856 152.194 96.3017C152.177 96.9019 152.134 97.4287 152.099 97.4725C152.064 97.5165 152.009 98.1344 151.977 98.8461C151.945 99.5578 151.889 100.159 151.851 100.182C151.813 100.205 151.783 100.953 151.783 101.843C151.783 103.734 151.766 103.681 152.617 104.553C153.335 105.288 153.418 105.393 153.481 105.648C153.511 105.764 153.57 105.859 153.613 105.859C153.744 105.859 153.705 107.383 153.569 107.564C153.505 107.649 153.452 107.854 153.452 108.021C153.452 108.187 153.416 108.324 153.373 108.324C153.329 108.324 153.293 108.422 153.293 108.542C153.292 108.663 153.239 108.863 153.173 108.989C153.108 109.114 153.055 109.298 153.055 109.397C153.055 109.497 153.001 109.599 152.935 109.624C152.858 109.654 152.816 109.778 152.816 109.978C152.816 110.253 152.722 110.541 152.493 110.966C152.452 111.042 152.419 111.174 152.419 111.26C152.419 111.346 152.276 111.571 152.102 111.759C151.927 111.946 151.784 112.139 151.784 112.186C151.783 112.233 151.64 112.341 151.466 112.425C151.291 112.509 151.148 112.622 151.148 112.676C151.147 112.801 148.72 112.821 148.643 112.696C148.616 112.652 148.419 112.617 148.205 112.617C147.992 112.617 147.795 112.653 147.768 112.696C147.741 112.74 147.616 112.775 147.49 112.775C147.364 112.775 147.242 112.806 147.218 112.844C147.195 112.882 147.072 112.934 146.946 112.959C146.805 112.987 146.5 113.223 146.15 113.575L145.582 114.145V115.557C145.582 116.715 145.561 116.987 145.463 117.068C145.397 117.122 145.344 117.272 145.344 117.401C145.344 117.53 145.29 117.689 145.224 117.755C145.159 117.821 145.105 117.979 145.105 118.107C145.105 118.235 145.069 118.34 145.026 118.34C144.982 118.34 144.946 118.429 144.946 118.538C144.946 118.648 144.909 118.737 144.864 118.737C144.819 118.737 144.756 118.799 144.725 118.876C144.61 119.155 144.268 119.61 144.171 119.61C144.116 119.611 144.072 119.656 144.072 119.711C144.072 119.766 143.961 119.86 143.826 119.92C143.69 119.98 143.474 120.132 143.346 120.257C143.217 120.383 143.062 120.486 143 120.486C142.939 120.486 142.866 120.522 142.839 120.565C142.812 120.609 142.705 120.644 142.602 120.644C142.498 120.644 142.36 120.697 142.294 120.763C142.229 120.829 142.123 120.882 142.06 120.882C141.996 120.882 141.9 120.935 141.846 121.002C141.786 121.074 141.612 121.121 141.403 121.121C141.215 121.121 141.041 121.151 141.018 121.19C140.995 121.227 140.756 121.278 140.487 121.302C140.219 121.326 139.96 121.385 139.913 121.433C139.788 121.558 136.504 121.551 136.378 121.423L136.378 121.427ZM136.4 114.923C136.427 114.879 136.546 114.843 136.664 114.843C136.93 114.842 137.272 114.621 137.61 114.23C137.825 113.982 137.883 113.95 137.944 114.05C138.092 114.293 138.423 114.605 138.533 114.605C138.596 114.605 138.691 114.658 138.746 114.724C138.8 114.79 138.927 114.843 139.029 114.843C139.13 114.843 139.235 114.879 139.262 114.922C139.289 114.966 139.381 115.001 139.466 115.001C139.551 115.001 139.62 114.965 139.62 114.922C139.62 114.878 139.727 114.843 139.859 114.843C139.99 114.843 140.097 114.814 140.097 114.779C140.097 114.743 140.258 114.602 140.455 114.463C140.652 114.324 140.812 114.156 140.812 114.09C140.812 114.023 140.841 113.969 140.877 113.969C140.981 113.969 141.21 113.38 141.21 113.112C141.21 112.976 141.246 112.843 141.289 112.816C141.333 112.789 141.369 112.646 141.369 112.498C141.369 112.35 141.333 112.207 141.289 112.18C141.246 112.153 141.21 112.028 141.21 111.902C141.21 111.643 140.866 110.945 140.69 110.846C140.626 110.81 140.574 110.711 140.574 110.626C140.574 110.54 140.537 110.471 140.492 110.471C140.447 110.471 140.387 110.409 140.358 110.332C140.33 110.255 140.17 110.03 140.003 109.83C139.836 109.63 139.7 109.409 139.7 109.338C139.7 109.267 139.664 109.186 139.62 109.159C139.576 109.132 139.541 109.027 139.541 108.926C139.541 108.825 139.487 108.697 139.421 108.643C139.356 108.589 139.302 108.448 139.302 108.33C139.302 108.213 139.25 108.047 139.185 107.962C139.121 107.877 139.067 107.734 139.066 107.644C139.062 107.396 138.77 106.84 138.569 106.7C138.456 106.621 138.218 106.576 137.906 106.576C137.453 106.576 137.398 106.597 137.089 106.882C136.907 107.05 136.758 107.247 136.758 107.319C136.758 107.391 136.722 107.45 136.679 107.45C136.635 107.45 136.599 107.535 136.599 107.64C136.599 107.745 136.545 107.851 136.48 107.876C136.409 107.904 136.361 108.024 136.361 108.173C136.361 108.412 135.934 109.397 135.792 109.485C135.755 109.508 135.725 109.628 135.725 109.752C135.725 109.879 135.673 109.997 135.606 110.023C135.54 110.048 135.486 110.121 135.486 110.186C135.486 110.25 135.423 110.35 135.345 110.407C135.081 110.601 134.612 111.242 134.612 111.409C134.612 111.5 134.576 111.597 134.532 111.624C134.432 111.686 134.426 113.466 134.526 113.528C134.567 113.553 134.623 113.682 134.653 113.814C134.709 114.072 135.201 114.605 135.382 114.605C135.442 114.605 135.512 114.658 135.537 114.724C135.563 114.792 135.682 114.843 135.813 114.843C135.939 114.843 136.043 114.879 136.043 114.922C136.043 114.966 136.112 115.001 136.197 115.001C136.282 115.001 136.373 114.966 136.4 114.923ZM130.597 109.596C130.624 109.552 130.726 109.517 130.823 109.517C131.058 109.517 131.897 109.077 132.12 108.836C132.218 108.73 132.347 108.643 132.405 108.643C132.464 108.643 132.8 108.366 133.152 108.027C133.821 107.384 134.002 107.239 134.234 107.161C134.311 107.135 134.373 107.065 134.373 107.004C134.373 106.943 134.405 106.894 134.443 106.894C134.535 106.894 135.645 105.799 135.645 105.708C135.645 105.67 135.693 105.621 135.751 105.598C135.809 105.576 135.958 105.357 136.082 105.113C136.293 104.696 136.307 104.607 136.305 103.708C136.303 103.104 136.269 102.716 136.212 102.659C136.163 102.609 136.122 102.4 136.122 102.193C136.122 101.965 136.075 101.771 136.003 101.698C135.926 101.622 135.884 101.425 135.884 101.146C135.884 100.858 135.844 100.68 135.765 100.614C135.699 100.56 135.645 100.453 135.645 100.378C135.645 100.071 135.108 99.2623 134.904 99.2623C134.863 99.2623 134.746 99.1733 134.645 99.0636C134.543 98.9544 134.407 98.8649 134.341 98.8649C134.276 98.8649 134.127 98.776 134.01 98.668C133.893 98.5597 133.668 98.4512 133.509 98.4271C133.35 98.4031 133.111 98.3491 132.977 98.3061C132.842 98.2631 132.572 98.2291 132.376 98.2291C132.18 98.2291 131.982 98.1912 131.935 98.1442C131.887 98.0962 131.373 98.0383 130.77 98.013C129.889 97.977 129.657 97.99 129.508 98.087C129.408 98.153 129.218 98.2254 129.087 98.2486C128.698 98.3176 128.304 98.4955 128.117 98.6866C128.021 98.7846 127.911 98.8656 127.873 98.8656C127.791 98.8656 127.378 99.2868 127.378 99.3706C127.378 99.4026 127.297 99.5087 127.199 99.6053C126.993 99.8074 126.837 100.037 126.77 100.237C126.744 100.314 126.693 100.376 126.655 100.376C126.506 100.376 126.106 101.348 126.103 101.716C126.101 101.919 126.048 102.155 125.984 102.239C125.92 102.324 125.867 102.528 125.867 102.692C125.867 102.856 125.831 103.012 125.788 103.039C125.691 103.099 125.681 104.165 125.776 104.225C125.814 104.248 125.864 104.575 125.887 104.952C125.911 105.329 125.97 105.677 126.018 105.726C126.066 105.774 126.106 105.873 126.106 105.945C126.106 106.017 126.195 106.244 126.305 106.45C126.414 106.655 126.503 106.877 126.503 106.941C126.503 107.006 126.557 107.079 126.623 107.104C126.688 107.129 126.742 107.214 126.742 107.291C126.742 107.368 126.795 107.476 126.861 107.531C126.927 107.585 126.981 107.688 126.983 107.759C126.986 107.906 127.413 108.405 127.536 108.405C127.58 108.405 127.616 108.441 127.616 108.486C127.616 108.609 128.116 109.036 128.262 109.039C128.333 109.039 128.436 109.095 128.491 109.161C128.545 109.227 128.641 109.28 128.705 109.28C128.768 109.28 128.874 109.333 128.939 109.399C129.005 109.465 129.179 109.518 129.326 109.518C129.474 109.518 129.616 109.554 129.643 109.597C129.67 109.641 129.885 109.676 130.12 109.676C130.356 109.676 130.57 109.639 130.597 109.596ZM146.019 109.596C146.046 109.552 146.189 109.517 146.336 109.517C146.484 109.517 146.658 109.464 146.724 109.398C146.789 109.332 146.895 109.279 146.958 109.279C147.021 109.279 147.118 109.226 147.172 109.16C147.227 109.094 147.306 109.04 147.348 109.04C147.481 109.04 148.043 108.608 148.045 108.504C148.046 108.45 148.083 108.405 148.127 108.405C148.244 108.405 148.677 107.909 148.682 107.769C148.685 107.703 148.793 107.545 148.923 107.418C149.053 107.29 149.16 107.12 149.16 107.04C149.16 106.96 149.187 106.894 149.22 106.894C149.294 106.894 149.556 106.179 149.56 105.969C149.562 105.887 149.615 105.752 149.679 105.667C149.752 105.57 149.795 105.33 149.795 105.016C149.795 104.742 149.831 104.497 149.875 104.47C149.919 104.443 149.954 104.121 149.954 103.754C149.954 103.388 149.919 103.066 149.875 103.039C149.831 103.012 149.795 102.802 149.795 102.572C149.795 102.328 149.747 102.091 149.679 102.001C149.615 101.916 149.561 101.712 149.56 101.548C149.558 101.384 149.527 101.25 149.49 101.25C149.453 101.25 149.38 101.105 149.327 100.928C149.273 100.75 149.167 100.542 149.089 100.464C149.012 100.386 148.925 100.273 148.896 100.211C148.784 99.9735 148.633 99.7722 148.358 99.4958C148.202 99.3385 148.051 99.1494 148.022 99.0755C147.994 99.0015 147.907 98.9187 147.83 98.8912C147.752 98.8632 147.635 98.7962 147.57 98.7419C147.33 98.5424 146.7 98.2292 146.538 98.2292C146.446 98.2292 146.281 98.1703 146.171 98.0981C145.996 97.9836 145.807 97.9739 144.684 98.0211C143.977 98.0511 143.363 98.1101 143.321 98.1523C143.279 98.1943 143.127 98.2292 142.982 98.2292C142.837 98.2292 142.656 98.2633 142.58 98.3043C142.504 98.3453 142.312 98.4003 142.154 98.4254C141.995 98.4504 141.779 98.5509 141.673 98.6483C141.567 98.7453 141.348 98.8962 141.186 98.9827C141.024 99.0687 140.892 99.1674 140.892 99.2012C140.892 99.2352 140.821 99.2632 140.734 99.2632C140.636 99.2632 140.493 99.3906 140.356 99.6009C140.236 99.7867 140.11 99.9508 140.077 99.9653C140.044 99.9793 140.017 100.075 140.017 100.175C140.017 100.276 139.964 100.38 139.898 100.405C139.833 100.43 139.779 100.519 139.779 100.603C139.779 100.687 139.726 100.858 139.66 100.983C139.595 101.108 139.541 101.325 139.541 101.464C139.541 101.604 139.505 101.74 139.461 101.767C139.413 101.797 139.382 102.389 139.382 103.276C139.382 104.52 139.402 104.771 139.521 104.98C139.597 105.114 139.687 105.225 139.719 105.225C139.752 105.225 139.779 105.298 139.779 105.387C139.779 105.476 139.833 105.569 139.898 105.594C139.964 105.619 140.018 105.69 140.018 105.751C140.018 105.812 140.044 105.862 140.077 105.863C140.11 105.863 140.53 106.239 141.011 106.697C141.492 107.155 141.94 107.548 142.007 107.57C142.074 107.592 142.181 107.687 142.246 107.782C142.444 108.074 142.734 108.326 143.317 108.71C143.492 108.826 143.653 108.942 143.674 108.969C143.786 109.105 144.646 109.518 144.818 109.518C144.927 109.518 145.039 109.554 145.066 109.597C145.093 109.641 145.307 109.676 145.543 109.676C145.778 109.676 145.992 109.639 146.019 109.596Z" fill="#FEC24B"/>
</svg>
