<svg width="276" height="375" viewBox="0 0 276 375" fill="none" xmlns="http://www.w3.org/2000/svg">
<path d="M275.906 0H0V374.173H275.906V0Z" fill="#EAE6C4"/>
<path d="M257.008 18.8977H18.8977V355.276H257.008V18.8977Z" fill="#EAE6C4"/>
<path d="M40.8901 295.24L31.1538 305.945C32.8967 307.107 33.411 308.059 39.0894 308.059C59.5502 311.539 64.4019 326.649 64.7886 338.055C65.2719 341.1 68.1559 343.885 71.0073 343.934H94.0366H181.871H204.898C207.749 343.885 210.635 341.1 211.119 338.055C211.505 326.649 216.357 311.539 236.818 308.059C242.496 308.059 243.009 307.107 244.752 305.945L235.015 295.24L135.492 287.756L40.8901 295.24Z" fill="#66B3BB"/>
<path d="M246.863 300.5L246.863 37.5693C246.863 33.3946 243.478 30.0103 239.304 30.0103L36.6018 30.0103C32.4271 30.0103 29.0428 33.3946 29.0428 37.5693L29.0428 300.5C29.0428 304.675 32.4271 308.059 36.6018 308.059H239.304C243.478 308.059 246.863 304.675 246.863 300.5Z" fill="#66B3BB"/>
<path d="M100.733 73.7502V96.4084H77.6687V272.508H198.237V73.7502H100.733Z" fill="#EAE6C4"/>
<path d="M98.5094 77.6088V94.041H82.0771L98.5094 77.6088Z" fill="#EAE6C4"/>
<path d="M49.1474 291C49.982 291 50.6586 291.676 50.6586 292.511C50.6586 293.345 49.982 294.022 49.1474 294.022C48.3128 294.022 47.6362 293.345 47.6362 292.511C47.6362 291.676 48.3128 291 49.1474 291Z" fill="#EAE6C4"/>
<path d="M51.6765 294.28C52.5111 294.28 53.1876 294.957 53.1876 295.792C53.1876 296.626 52.5111 297.303 51.6765 297.303C50.8419 297.303 50.1653 296.626 50.1653 295.792C50.1653 294.957 50.8419 294.28 51.6765 294.28Z" fill="#EAE6C4"/>
<path d="M55.9909 50.1975C56.8255 50.1975 57.5021 49.521 57.5021 48.6864C57.5021 47.8518 56.8255 47.1752 55.9909 47.1752C55.1563 47.1752 54.4797 47.8518 54.4797 48.6864C54.4797 49.521 55.1563 50.1975 55.9909 50.1975Z" fill="#EAE6C4"/>
<path d="M59.989 50.1975C60.8236 50.1975 61.5001 49.521 61.5001 48.6864C61.5001 47.8518 60.8236 47.1752 59.989 47.1752C59.1544 47.1752 58.4778 47.8518 58.4778 48.6864C58.4778 49.521 59.1544 50.1975 59.989 50.1975Z" fill="#EAE6C4"/>
<path d="M63.9873 50.1975C64.8219 50.1975 65.4984 49.521 65.4984 48.6864C65.4984 47.8518 64.8219 47.1752 63.9873 47.1752C63.1527 47.1752 62.4761 47.8518 62.4761 48.6864C62.4761 49.521 63.1527 50.1975 63.9873 50.1975Z" fill="#EAE6C4"/>
<path d="M67.9853 50.1975C68.8199 50.1975 69.4965 49.521 69.4965 48.6864C69.4965 47.8518 68.8199 47.1752 67.9853 47.1752C67.1507 47.1752 66.4741 47.8518 66.4741 48.6864C66.4741 49.521 67.1507 50.1975 67.9853 50.1975Z" fill="#EAE6C4"/>
<path d="M71.9836 50.1975C72.8182 50.1975 73.4948 49.521 73.4948 48.6864C73.4948 47.8518 72.8182 47.1752 71.9836 47.1752C71.149 47.1752 70.4724 47.8518 70.4724 48.6864C70.4724 49.521 71.149 50.1975 71.9836 50.1975Z" fill="#EAE6C4"/>
<path d="M75.9816 50.1975C76.8162 50.1975 77.4928 49.521 77.4928 48.6864C77.4928 47.8518 76.8162 47.1752 75.9816 47.1752C75.147 47.1752 74.4705 47.8518 74.4705 48.6864C74.4705 49.521 75.147 50.1975 75.9816 50.1975Z" fill="#EAE6C4"/>
<path d="M79.9797 50.1975C80.8143 50.1975 81.4909 49.521 81.4909 48.6864C81.4909 47.8518 80.8143 47.1752 79.9797 47.1752C79.1451 47.1752 78.4685 47.8518 78.4685 48.6864C78.4685 49.521 79.1451 50.1975 79.9797 50.1975Z" fill="#EAE6C4"/>
<path d="M87.976 50.1975C88.8106 50.1975 89.4872 49.521 89.4872 48.6864C89.4872 47.8518 88.8106 47.1752 87.976 47.1752C87.1414 47.1752 86.4648 47.8518 86.4648 48.6864C86.4648 49.521 87.1414 50.1975 87.976 50.1975Z" fill="#EAE6C4"/>
<path d="M95.9724 50.1975C96.807 50.1975 97.4835 49.521 97.4835 48.6864C97.4835 47.8518 96.807 47.1752 95.9724 47.1752C95.1378 47.1752 94.4612 47.8518 94.4612 48.6864C94.4612 49.521 95.1378 50.1975 95.9724 50.1975Z" fill="#EAE6C4"/>
<path d="M83.978 50.1975C84.8126 50.1975 85.4892 49.521 85.4892 48.6864C85.4892 47.8518 84.8126 47.1752 83.978 47.1752C83.1434 47.1752 82.4668 47.8518 82.4668 48.6864C82.4668 49.521 83.1434 50.1975 83.978 50.1975Z" fill="#EAE6C4"/>
<path d="M91.9743 50.1975C92.8089 50.1975 93.4855 49.521 93.4855 48.6864C93.4855 47.8518 92.8089 47.1752 91.9743 47.1752C91.1397 47.1752 90.4631 47.8518 90.4631 48.6864C90.4631 49.521 91.1397 50.1975 91.9743 50.1975Z" fill="#EAE6C4"/>
<path d="M99.9704 50.1975C100.805 50.1975 101.482 49.521 101.482 48.6864C101.482 47.8518 100.805 47.1752 99.9704 47.1752C99.1358 47.1752 98.4592 47.8518 98.4592 48.6864C98.4592 49.521 99.1358 50.1975 99.9704 50.1975Z" fill="#EAE6C4"/>
<path d="M103.969 50.1975C104.803 50.1975 105.48 49.521 105.48 48.6864C105.48 47.8518 104.803 47.1752 103.969 47.1752C103.134 47.1752 102.458 47.8518 102.458 48.6864C102.458 49.521 103.134 50.1975 103.969 50.1975Z" fill="#EAE6C4"/>
<path d="M107.967 50.1975C108.801 50.1975 109.478 49.521 109.478 48.6864C109.478 47.8518 108.801 47.1752 107.967 47.1752C107.132 47.1752 106.456 47.8518 106.456 48.6864C106.456 49.521 107.132 50.1975 107.967 50.1975Z" fill="#EAE6C4"/>
<path d="M111.965 50.1975C112.8 50.1975 113.476 49.521 113.476 48.6864C113.476 47.8518 112.8 47.1752 111.965 47.1752C111.13 47.1752 110.454 47.8518 110.454 48.6864C110.454 49.521 111.13 50.1975 111.965 50.1975Z" fill="#EAE6C4"/>
<path d="M115.963 50.1975C116.798 50.1975 117.474 49.521 117.474 48.6864C117.474 47.8518 116.798 47.1752 115.963 47.1752C115.128 47.1752 114.452 47.8518 114.452 48.6864C114.452 49.521 115.128 50.1975 115.963 50.1975Z" fill="#EAE6C4"/>
<path d="M119.961 50.1975C120.796 50.1975 121.472 49.521 121.472 48.6864C121.472 47.8518 120.796 47.1752 119.961 47.1752C119.127 47.1752 118.45 47.8518 118.45 48.6864C118.45 49.521 119.127 50.1975 119.961 50.1975Z" fill="#EAE6C4"/>
<path d="M123.959 50.1975C124.794 50.1975 125.471 49.521 125.471 48.6864C125.471 47.8518 124.794 47.1752 123.959 47.1752C123.125 47.1752 122.448 47.8518 122.448 48.6864C122.448 49.521 123.125 50.1975 123.959 50.1975Z" fill="#EAE6C4"/>
<path d="M127.957 50.1975C128.792 50.1975 129.469 49.521 129.469 48.6864C129.469 47.8518 128.792 47.1752 127.957 47.1752C127.123 47.1752 126.446 47.8518 126.446 48.6864C126.446 49.521 127.123 50.1975 127.957 50.1975Z" fill="#EAE6C4"/>
<path d="M131.956 50.1975C132.79 50.1975 133.467 49.521 133.467 48.6864C133.467 47.8518 132.79 47.1752 131.956 47.1752C131.121 47.1752 130.445 47.8518 130.445 48.6864C130.445 49.521 131.121 50.1975 131.956 50.1975Z" fill="#EAE6C4"/>
<path d="M135.954 50.1975C136.788 50.1975 137.465 49.521 137.465 48.6864C137.465 47.8518 136.788 47.1752 135.954 47.1752C135.119 47.1752 134.443 47.8518 134.443 48.6864C134.443 49.521 135.119 50.1975 135.954 50.1975Z" fill="#EAE6C4"/>
<path d="M139.952 50.1975C140.786 50.1975 141.463 49.521 141.463 48.6864C141.463 47.8518 140.786 47.1752 139.952 47.1752C139.117 47.1752 138.441 47.8518 138.441 48.6864C138.441 49.521 139.117 50.1975 139.952 50.1975Z" fill="#EAE6C4"/>
<path d="M143.95 50.1975C144.785 50.1975 145.461 49.521 145.461 48.6864C145.461 47.8518 144.785 47.1752 143.95 47.1752C143.116 47.1752 142.439 47.8518 142.439 48.6864C142.439 49.521 143.116 50.1975 143.95 50.1975Z" fill="#EAE6C4"/>
<path d="M147.948 50.1975C148.783 50.1975 149.459 49.521 149.459 48.6864C149.459 47.8518 148.783 47.1752 147.948 47.1752C147.114 47.1752 146.437 47.8518 146.437 48.6864C146.437 49.521 147.114 50.1975 147.948 50.1975Z" fill="#EAE6C4"/>
<path d="M151.946 50.1975C152.781 50.1975 153.458 49.521 153.458 48.6864C153.458 47.8518 152.781 47.1752 151.946 47.1752C151.112 47.1752 150.435 47.8518 150.435 48.6864C150.435 49.521 151.112 50.1975 151.946 50.1975Z" fill="#EAE6C4"/>
<path d="M155.945 50.1975C156.779 50.1975 157.456 49.521 157.456 48.6864C157.456 47.8518 156.779 47.1752 155.945 47.1752C155.11 47.1752 154.433 47.8518 154.433 48.6864C154.433 49.521 155.11 50.1975 155.945 50.1975Z" fill="#EAE6C4"/>
<path d="M159.943 50.1975C160.777 50.1975 161.454 49.521 161.454 48.6864C161.454 47.8518 160.777 47.1752 159.943 47.1752C159.108 47.1752 158.432 47.8518 158.432 48.6864C158.432 49.521 159.108 50.1975 159.943 50.1975Z" fill="#EAE6C4"/>
<path d="M163.941 50.1975C164.775 50.1975 165.452 49.521 165.452 48.6864C165.452 47.8518 164.775 47.1752 163.941 47.1752C163.106 47.1752 162.43 47.8518 162.43 48.6864C162.43 49.521 163.106 50.1975 163.941 50.1975Z" fill="#EAE6C4"/>
<path d="M167.939 50.1975C168.774 50.1975 169.45 49.521 169.45 48.6864C169.45 47.8518 168.774 47.1752 167.939 47.1752C167.104 47.1752 166.428 47.8518 166.428 48.6864C166.428 49.521 167.104 50.1975 167.939 50.1975Z" fill="#EAE6C4"/>
<path d="M171.937 50.1975C172.772 50.1975 173.448 49.521 173.448 48.6864C173.448 47.8518 172.772 47.1752 171.937 47.1752C171.103 47.1752 170.426 47.8518 170.426 48.6864C170.426 49.521 171.103 50.1975 171.937 50.1975Z" fill="#EAE6C4"/>
<path d="M175.935 50.1975C176.77 50.1975 177.446 49.521 177.446 48.6864C177.446 47.8518 176.77 47.1752 175.935 47.1752C175.101 47.1752 174.424 47.8518 174.424 48.6864C174.424 49.521 175.101 50.1975 175.935 50.1975Z" fill="#EAE6C4"/>
<path d="M179.933 50.1975C180.768 50.1975 181.444 49.521 181.444 48.6864C181.444 47.8518 180.768 47.1752 179.933 47.1752C179.099 47.1752 178.422 47.8518 178.422 48.6864C178.422 49.521 179.099 50.1975 179.933 50.1975Z" fill="#EAE6C4"/>
<path d="M183.932 50.1975C184.766 50.1975 185.443 49.521 185.443 48.6864C185.443 47.8518 184.766 47.1752 183.932 47.1752C183.097 47.1752 182.42 47.8518 182.42 48.6864C182.42 49.521 183.097 50.1975 183.932 50.1975Z" fill="#EAE6C4"/>
<path d="M187.93 50.1975C188.764 50.1975 189.441 49.521 189.441 48.6864C189.441 47.8518 188.764 47.1752 187.93 47.1752C187.095 47.1752 186.418 47.8518 186.418 48.6864C186.418 49.521 187.095 50.1975 187.93 50.1975Z" fill="#EAE6C4"/>
<path d="M191.928 50.1975C192.763 50.1975 193.439 49.521 193.439 48.6864C193.439 47.8518 192.763 47.1752 191.928 47.1752C191.093 47.1752 190.417 47.8518 190.417 48.6864C190.417 49.521 191.093 50.1975 191.928 50.1975Z" fill="#EAE6C4"/>
<path d="M195.926 50.1975C196.761 50.1975 197.437 49.521 197.437 48.6864C197.437 47.8518 196.761 47.1752 195.926 47.1752C195.091 47.1752 194.415 47.8518 194.415 48.6864C194.415 49.521 195.091 50.1975 195.926 50.1975Z" fill="#EAE6C4"/>
<path d="M199.924 50.1975C200.759 50.1975 201.435 49.521 201.435 48.6864C201.435 47.8518 200.759 47.1752 199.924 47.1752C199.09 47.1752 198.413 47.8518 198.413 48.6864C198.413 49.521 199.09 50.1975 199.924 50.1975Z" fill="#EAE6C4"/>
<path d="M203.922 50.1975C204.757 50.1975 205.433 49.521 205.433 48.6864C205.433 47.8518 204.757 47.1752 203.922 47.1752C203.088 47.1752 202.411 47.8518 202.411 48.6864C202.411 49.521 203.088 50.1975 203.922 50.1975Z" fill="#EAE6C4"/>
<path d="M207.92 50.1975C208.755 50.1975 209.432 49.521 209.432 48.6864C209.432 47.8518 208.755 47.1752 207.92 47.1752C207.086 47.1752 206.409 47.8518 206.409 48.6864C206.409 49.521 207.086 50.1975 207.92 50.1975Z" fill="#EAE6C4"/>
<path d="M211.919 50.1975C212.753 50.1975 213.43 49.521 213.43 48.6864C213.43 47.8518 212.753 47.1752 211.919 47.1752C211.084 47.1752 210.407 47.8518 210.407 48.6864C210.407 49.521 211.084 50.1975 211.919 50.1975Z" fill="#EAE6C4"/>
<path d="M215.917 50.1975C216.751 50.1975 217.428 49.521 217.428 48.6864C217.428 47.8518 216.751 47.1752 215.917 47.1752C215.082 47.1752 214.406 47.8518 214.406 48.6864C214.406 49.521 215.082 50.1975 215.917 50.1975Z" fill="#EAE6C4"/>
<path d="M219.915 50.1975C220.75 50.1975 221.426 49.521 221.426 48.6864C221.426 47.8518 220.75 47.1752 219.915 47.1752C219.08 47.1752 218.404 47.8518 218.404 48.6864C218.404 49.521 219.08 50.1975 219.915 50.1975Z" fill="#EAE6C4"/>
<path d="M48.6953 59.2197C49.5299 59.2197 50.2064 58.5431 50.2064 57.7085C50.2064 56.8739 49.5299 56.1973 48.6953 56.1973C47.8607 56.1973 47.1841 56.8739 47.1841 57.7085C47.1841 58.5431 47.8607 59.2197 48.6953 59.2197Z" fill="#EAE6C4"/>
<path d="M48.6953 63.2177C49.5299 63.2177 50.2064 62.5412 50.2064 61.7066C50.2064 60.872 49.5299 60.1954 48.6953 60.1954C47.8607 60.1954 47.1841 60.872 47.1841 61.7066C47.1841 62.5412 47.8607 63.2177 48.6953 63.2177Z" fill="#EAE6C4"/>
<path d="M48.6953 67.2158C49.5299 67.2158 50.2064 66.5392 50.2064 65.7046C50.2064 64.87 49.5299 64.1934 48.6953 64.1934C47.8607 64.1934 47.1841 64.87 47.1841 65.7046C47.1841 66.5392 47.8607 67.2158 48.6953 67.2158Z" fill="#EAE6C4"/>
<path d="M48.6953 71.2138C49.5299 71.2138 50.2064 70.5372 50.2064 69.7026C50.2064 68.868 49.5299 68.1914 48.6953 68.1914C47.8607 68.1914 47.1841 68.868 47.1841 69.7026C47.1841 70.5372 47.8607 71.2138 48.6953 71.2138Z" fill="#EAE6C4"/>
<path d="M48.6953 75.2118C49.5299 75.2118 50.2064 74.5353 50.2064 73.7007C50.2064 72.8661 49.5299 72.1895 48.6953 72.1895C47.8607 72.1895 47.1841 72.8661 47.1841 73.7007C47.1841 74.5353 47.8607 75.2118 48.6953 75.2118Z" fill="#EAE6C4"/>
<path d="M48.6953 79.2099C49.5299 79.2099 50.2064 78.5334 50.2064 77.6988C50.2064 76.8642 49.5299 76.1876 48.6953 76.1876C47.8607 76.1876 47.1841 76.8642 47.1841 77.6988C47.1841 78.5334 47.8607 79.2099 48.6953 79.2099Z" fill="#EAE6C4"/>
<path d="M48.6953 83.2081C49.5299 83.2081 50.2064 82.5315 50.2064 81.6969C50.2064 80.8623 49.5299 80.1857 48.6953 80.1857C47.8607 80.1857 47.1841 80.8623 47.1841 81.6969C47.1841 82.5315 47.8607 83.2081 48.6953 83.2081Z" fill="#EAE6C4"/>
<path d="M48.6953 87.2061C49.5299 87.2061 50.2064 86.5296 50.2064 85.695C50.2064 84.8604 49.5299 84.1838 48.6953 84.1838C47.8607 84.1838 47.1841 84.8604 47.1841 85.695C47.1841 86.5296 47.8607 87.2061 48.6953 87.2061Z" fill="#EAE6C4"/>
<path d="M48.6953 91.2042C49.5299 91.2042 50.2064 90.5276 50.2064 89.693C50.2064 88.8584 49.5299 88.1818 48.6953 88.1818C47.8607 88.1818 47.1841 88.8584 47.1841 89.693C47.1841 90.5276 47.8607 91.2042 48.6953 91.2042Z" fill="#EAE6C4"/>
<path d="M48.6953 95.2022C49.5299 95.2022 50.2064 94.5257 50.2064 93.6911C50.2064 92.8565 49.5299 92.1799 48.6953 92.1799C47.8607 92.1799 47.1841 92.8565 47.1841 93.6911C47.1841 94.5257 47.8607 95.2022 48.6953 95.2022Z" fill="#EAE6C4"/>
<path d="M48.6953 99.2003C49.5299 99.2003 50.2064 98.5238 50.2064 97.6892C50.2064 96.8546 49.5299 96.178 48.6953 96.178C47.8607 96.178 47.1841 96.8546 47.1841 97.6892C47.1841 98.5238 47.8607 99.2003 48.6953 99.2003Z" fill="#EAE6C4"/>
<path d="M48.6953 103.198C49.5299 103.198 50.2064 102.522 50.2064 101.687C50.2064 100.853 49.5299 100.176 48.6953 100.176C47.8607 100.176 47.1841 100.853 47.1841 101.687C47.1841 102.522 47.8607 103.198 48.6953 103.198Z" fill="#EAE6C4"/>
<path d="M48.6953 107.197C49.5299 107.197 50.2064 106.52 50.2064 105.685C50.2064 104.851 49.5299 104.174 48.6953 104.174C47.8607 104.174 47.1841 104.851 47.1841 105.685C47.1841 106.52 47.8607 107.197 48.6953 107.197Z" fill="#EAE6C4"/>
<path d="M48.6953 111.195C49.5299 111.195 50.2064 110.518 50.2064 109.683C50.2064 108.849 49.5299 108.172 48.6953 108.172C47.8607 108.172 47.1841 108.849 47.1841 109.683C47.1841 110.518 47.8607 111.195 48.6953 111.195Z" fill="#EAE6C4"/>
<path d="M48.6953 115.193C49.5299 115.193 50.2064 114.516 50.2064 113.681C50.2064 112.847 49.5299 112.17 48.6953 112.17C47.8607 112.17 47.1841 112.847 47.1841 113.681C47.1841 114.516 47.8607 115.193 48.6953 115.193Z" fill="#EAE6C4"/>
<path d="M48.6953 119.191C49.5299 119.191 50.2064 118.514 50.2064 117.68C50.2064 116.845 49.5299 116.168 48.6953 116.168C47.8607 116.168 47.1841 116.845 47.1841 117.68C47.1841 118.514 47.8607 119.191 48.6953 119.191Z" fill="#EAE6C4"/>
<path d="M48.6953 123.189C49.5299 123.189 50.2064 122.512 50.2064 121.678C50.2064 120.843 49.5299 120.166 48.6953 120.166C47.8607 120.166 47.1841 120.843 47.1841 121.678C47.1841 122.512 47.8607 123.189 48.6953 123.189Z" fill="#EAE6C4"/>
<path d="M48.6953 127.187C49.5299 127.187 50.2064 126.51 50.2064 125.676C50.2064 124.841 49.5299 124.164 48.6953 124.164C47.8607 124.164 47.1841 124.841 47.1841 125.676C47.1841 126.51 47.8607 127.187 48.6953 127.187Z" fill="#EAE6C4"/>
<path d="M48.6953 131.185C49.5299 131.185 50.2064 130.508 50.2064 129.674C50.2064 128.839 49.5299 128.163 48.6953 128.163C47.8607 128.163 47.1841 128.839 47.1841 129.674C47.1841 130.508 47.8607 131.185 48.6953 131.185Z" fill="#EAE6C4"/>
<path d="M48.6953 135.183C49.5299 135.183 50.2064 134.506 50.2064 133.672C50.2064 132.837 49.5299 132.161 48.6953 132.161C47.8607 132.161 47.1841 132.837 47.1841 133.672C47.1841 134.506 47.8607 135.183 48.6953 135.183Z" fill="#EAE6C4"/>
<path d="M48.6953 139.181C49.5299 139.181 50.2064 138.505 50.2064 137.67C50.2064 136.835 49.5299 136.159 48.6953 136.159C47.8607 136.159 47.1841 136.835 47.1841 137.67C47.1841 138.505 47.8607 139.181 48.6953 139.181Z" fill="#EAE6C4"/>
<path d="M48.6953 143.179C49.5299 143.179 50.2064 142.503 50.2064 141.668C50.2064 140.833 49.5299 140.157 48.6953 140.157C47.8607 140.157 47.1841 140.833 47.1841 141.668C47.1841 142.503 47.8607 143.179 48.6953 143.179Z" fill="#EAE6C4"/>
<path d="M48.6953 147.177C49.5299 147.177 50.2064 146.501 50.2064 145.666C50.2064 144.831 49.5299 144.155 48.6953 144.155C47.8607 144.155 47.1841 144.831 47.1841 145.666C47.1841 146.501 47.8607 147.177 48.6953 147.177Z" fill="#EAE6C4"/>
<path d="M48.6953 151.175C49.5299 151.175 50.2064 150.499 50.2064 149.664C50.2064 148.83 49.5299 148.153 48.6953 148.153C47.8607 148.153 47.1841 148.83 47.1841 149.664C47.1841 150.499 47.8607 151.175 48.6953 151.175Z" fill="#EAE6C4"/>
<path d="M48.6953 155.173C49.5299 155.173 50.2064 154.497 50.2064 153.662C50.2064 152.828 49.5299 152.151 48.6953 152.151C47.8607 152.151 47.1841 152.828 47.1841 153.662C47.1841 154.497 47.8607 155.173 48.6953 155.173Z" fill="#EAE6C4"/>
<path d="M48.6953 159.171C49.5299 159.171 50.2064 158.495 50.2064 157.66C50.2064 156.826 49.5299 156.149 48.6953 156.149C47.8607 156.149 47.1841 156.826 47.1841 157.66C47.1841 158.495 47.8607 159.171 48.6953 159.171Z" fill="#EAE6C4"/>
<path d="M48.6953 163.169C49.5299 163.169 50.2064 162.493 50.2064 161.658C50.2064 160.824 49.5299 160.147 48.6953 160.147C47.8607 160.147 47.1841 160.824 47.1841 161.658C47.1841 162.493 47.8607 163.169 48.6953 163.169Z" fill="#EAE6C4"/>
<path d="M48.6953 167.168C49.5299 167.168 50.2064 166.491 50.2064 165.656C50.2064 164.822 49.5299 164.145 48.6953 164.145C47.8607 164.145 47.1841 164.822 47.1841 165.656C47.1841 166.491 47.8607 167.168 48.6953 167.168Z" fill="#EAE6C4"/>
<path d="M48.6953 171.166C49.5299 171.166 50.2064 170.489 50.2064 169.654C50.2064 168.82 49.5299 168.143 48.6953 168.143C47.8607 168.143 47.1841 168.82 47.1841 169.654C47.1841 170.489 47.8607 171.166 48.6953 171.166Z" fill="#EAE6C4"/>
<path d="M48.6953 175.164C49.5299 175.164 50.2064 174.487 50.2064 173.653C50.2064 172.818 49.5299 172.141 48.6953 172.141C47.8607 172.141 47.1841 172.818 47.1841 173.653C47.1841 174.487 47.8607 175.164 48.6953 175.164Z" fill="#EAE6C4"/>
<path d="M48.6953 179.162C49.5299 179.162 50.2064 178.485 50.2064 177.651C50.2064 176.816 49.5299 176.139 48.6953 176.139C47.8607 176.139 47.1841 176.816 47.1841 177.651C47.1841 178.485 47.8607 179.162 48.6953 179.162Z" fill="#EAE6C4"/>
<path d="M48.6953 183.16C49.5299 183.16 50.2064 182.483 50.2064 181.649C50.2064 180.814 49.5299 180.138 48.6953 180.138C47.8607 180.138 47.1841 180.814 47.1841 181.649C47.1841 182.483 47.8607 183.16 48.6953 183.16Z" fill="#EAE6C4"/>
<path d="M48.6953 187.158C49.5299 187.158 50.2064 186.481 50.2064 185.647C50.2064 184.812 49.5299 184.136 48.6953 184.136C47.8607 184.136 47.1841 184.812 47.1841 185.647C47.1841 186.481 47.8607 187.158 48.6953 187.158Z" fill="#EAE6C4"/>
<path d="M48.6953 191.156C49.5299 191.156 50.2064 190.479 50.2064 189.645C50.2064 188.81 49.5299 188.134 48.6953 188.134C47.8607 188.134 47.1841 188.81 47.1841 189.645C47.1841 190.479 47.8607 191.156 48.6953 191.156Z" fill="#EAE6C4"/>
<path d="M48.6953 195.154C49.5299 195.154 50.2064 194.478 50.2064 193.643C50.2064 192.808 49.5299 192.132 48.6953 192.132C47.8607 192.132 47.1841 192.808 47.1841 193.643C47.1841 194.478 47.8607 195.154 48.6953 195.154Z" fill="#EAE6C4"/>
<path d="M48.6953 199.152C49.5299 199.152 50.2064 198.476 50.2064 197.641C50.2064 196.806 49.5299 196.13 48.6953 196.13C47.8607 196.13 47.1841 196.806 47.1841 197.641C47.1841 198.476 47.8607 199.152 48.6953 199.152Z" fill="#EAE6C4"/>
<path d="M48.6953 203.15C49.5299 203.15 50.2064 202.474 50.2064 201.639C50.2064 200.804 49.5299 200.128 48.6953 200.128C47.8607 200.128 47.1841 200.804 47.1841 201.639C47.1841 202.474 47.8607 203.15 48.6953 203.15Z" fill="#EAE6C4"/>
<path d="M48.6953 207.148C49.5299 207.148 50.2064 206.472 50.2064 205.637C50.2064 204.803 49.5299 204.126 48.6953 204.126C47.8607 204.126 47.1841 204.803 47.1841 205.637C47.1841 206.472 47.8607 207.148 48.6953 207.148Z" fill="#EAE6C4"/>
<path d="M48.6953 211.146C49.5299 211.146 50.2064 210.47 50.2064 209.635C50.2064 208.801 49.5299 208.124 48.6953 208.124C47.8607 208.124 47.1841 208.801 47.1841 209.635C47.1841 210.47 47.8607 211.146 48.6953 211.146Z" fill="#EAE6C4"/>
<path d="M48.6953 215.144C49.5299 215.144 50.2064 214.468 50.2064 213.633C50.2064 212.799 49.5299 212.122 48.6953 212.122C47.8607 212.122 47.1841 212.799 47.1841 213.633C47.1841 214.468 47.8607 215.144 48.6953 215.144Z" fill="#EAE6C4"/>
<path d="M48.6953 219.142C49.5299 219.142 50.2064 218.466 50.2064 217.631C50.2064 216.797 49.5299 216.12 48.6953 216.12C47.8607 216.12 47.1841 216.797 47.1841 217.631C47.1841 218.466 47.8607 219.142 48.6953 219.142Z" fill="#EAE6C4"/>
<path d="M48.6953 223.141C49.5299 223.141 50.2064 222.464 50.2064 221.629C50.2064 220.795 49.5299 220.118 48.6953 220.118C47.8607 220.118 47.1841 220.795 47.1841 221.629C47.1841 222.464 47.8607 223.141 48.6953 223.141Z" fill="#EAE6C4"/>
<path d="M48.6953 227.139C49.5299 227.139 50.2064 226.462 50.2064 225.627C50.2064 224.793 49.5299 224.116 48.6953 224.116C47.8607 224.116 47.1841 224.793 47.1841 225.627C47.1841 226.462 47.8607 227.139 48.6953 227.139Z" fill="#EAE6C4"/>
<path d="M48.6953 231.137C49.5299 231.137 50.2064 230.46 50.2064 229.626C50.2064 228.791 49.5299 228.114 48.6953 228.114C47.8607 228.114 47.1841 228.791 47.1841 229.626C47.1841 230.46 47.8607 231.137 48.6953 231.137Z" fill="#EAE6C4"/>
<path d="M48.6953 235.135C49.5299 235.135 50.2064 234.458 50.2064 233.624C50.2064 232.789 49.5299 232.112 48.6953 232.112C47.8607 232.112 47.1841 232.789 47.1841 233.624C47.1841 234.458 47.8607 235.135 48.6953 235.135Z" fill="#EAE6C4"/>
<path d="M48.6953 239.133C49.5299 239.133 50.2064 238.456 50.2064 237.622C50.2064 236.787 49.5299 236.111 48.6953 236.111C47.8607 236.111 47.1841 236.787 47.1841 237.622C47.1841 238.456 47.8607 239.133 48.6953 239.133Z" fill="#EAE6C4"/>
<path d="M48.6953 243.131C49.5299 243.131 50.2064 242.454 50.2064 241.62C50.2064 240.785 49.5299 240.109 48.6953 240.109C47.8607 240.109 47.1841 240.785 47.1841 241.62C47.1841 242.454 47.8607 243.131 48.6953 243.131Z" fill="#EAE6C4"/>
<path d="M48.6953 247.129C49.5299 247.129 50.2064 246.453 50.2064 245.618C50.2064 244.783 49.5299 244.107 48.6953 244.107C47.8607 244.107 47.1841 244.783 47.1841 245.618C47.1841 246.453 47.8607 247.129 48.6953 247.129Z" fill="#EAE6C4"/>
<path d="M48.6953 251.127C49.5299 251.127 50.2064 250.451 50.2064 249.616C50.2064 248.781 49.5299 248.105 48.6953 248.105C47.8607 248.105 47.1841 248.781 47.1841 249.616C47.1841 250.451 47.8607 251.127 48.6953 251.127Z" fill="#EAE6C4"/>
<path d="M48.6953 255.125C49.5299 255.125 50.2064 254.449 50.2064 253.614C50.2064 252.779 49.5299 252.103 48.6953 252.103C47.8607 252.103 47.1841 252.779 47.1841 253.614C47.1841 254.449 47.8607 255.125 48.6953 255.125Z" fill="#EAE6C4"/>
<path d="M48.6953 259.123C49.5299 259.123 50.2064 258.447 50.2064 257.612C50.2064 256.777 49.5299 256.101 48.6953 256.101C47.8607 256.101 47.1841 256.777 47.1841 257.612C47.1841 258.447 47.8607 259.123 48.6953 259.123Z" fill="#EAE6C4"/>
<path d="M48.6953 263.121C49.5299 263.121 50.2064 262.445 50.2064 261.61C50.2064 260.776 49.5299 260.099 48.6953 260.099C47.8607 260.099 47.1841 260.776 47.1841 261.61C47.1841 262.445 47.8607 263.121 48.6953 263.121Z" fill="#EAE6C4"/>
<path d="M48.6953 267.119C49.5299 267.119 50.2064 266.443 50.2064 265.608C50.2064 264.774 49.5299 264.097 48.6953 264.097C47.8607 264.097 47.1841 264.774 47.1841 265.608C47.1841 266.443 47.8607 267.119 48.6953 267.119Z" fill="#EAE6C4"/>
<path d="M48.6953 271.117C49.5299 271.117 50.2064 270.441 50.2064 269.606C50.2064 268.772 49.5299 268.095 48.6953 268.095C47.8607 268.095 47.1841 268.772 47.1841 269.606C47.1841 270.441 47.8607 271.117 48.6953 271.117Z" fill="#EAE6C4"/>
<path d="M48.6953 275.116C49.5299 275.116 50.2064 274.439 50.2064 273.604C50.2064 272.77 49.5299 272.093 48.6953 272.093C47.8607 272.093 47.1841 272.77 47.1841 273.604C47.1841 274.439 47.8607 275.116 48.6953 275.116Z" fill="#EAE6C4"/>
<path d="M48.6953 279.114C49.5299 279.114 50.2064 278.437 50.2064 277.602C50.2064 276.768 49.5299 276.091 48.6953 276.091C47.8607 276.091 47.1841 276.768 47.1841 277.602C47.1841 278.437 47.8607 279.114 48.6953 279.114Z" fill="#EAE6C4"/>
<path d="M48.6953 283.112C49.5299 283.112 50.2064 282.435 50.2064 281.601C50.2064 280.766 49.5299 280.089 48.6953 280.089C47.8607 280.089 47.1841 280.766 47.1841 281.601C47.1841 282.435 47.8607 283.112 48.6953 283.112Z" fill="#EAE6C4"/>
<path d="M48.6953 287.11C49.5299 287.11 50.2064 286.433 50.2064 285.599C50.2064 284.764 49.5299 284.087 48.6953 284.087C47.8607 284.087 47.1841 284.764 47.1841 285.599C47.1841 286.433 47.8607 287.11 48.6953 287.11Z" fill="#EAE6C4"/>
<path d="M48.6953 291.108C49.5299 291.108 50.2064 290.431 50.2064 289.597C50.2064 288.762 49.5299 288.085 48.6953 288.085C47.8607 288.085 47.1841 288.762 47.1841 289.597C47.1841 290.431 47.8607 291.108 48.6953 291.108Z" fill="#EAE6C4"/>
<path d="M59.989 299.083C60.8236 299.083 61.5001 298.406 61.5001 297.572C61.5001 296.737 60.8236 296.061 59.989 296.061C59.1544 296.061 58.4778 296.737 58.4778 297.572C58.4778 298.406 59.1544 299.083 59.989 299.083Z" fill="#EAE6C4"/>
<path d="M63.9873 299.083C64.8219 299.083 65.4984 298.406 65.4984 297.572C65.4984 296.737 64.8219 296.061 63.9873 296.061C63.1527 296.061 62.4761 296.737 62.4761 297.572C62.4761 298.406 63.1527 299.083 63.9873 299.083Z" fill="#EAE6C4"/>
<path d="M67.9853 299.083C68.8199 299.083 69.4965 298.406 69.4965 297.572C69.4965 296.737 68.8199 296.061 67.9853 296.061C67.1507 296.061 66.4741 296.737 66.4741 297.572C66.4741 298.406 67.1507 299.083 67.9853 299.083Z" fill="#EAE6C4"/>
<path d="M71.9836 299.083C72.8182 299.083 73.4948 298.406 73.4948 297.572C73.4948 296.737 72.8182 296.061 71.9836 296.061C71.149 296.061 70.4724 296.737 70.4724 297.572C70.4724 298.406 71.149 299.083 71.9836 299.083Z" fill="#EAE6C4"/>
<path d="M75.9816 299.083C76.8162 299.083 77.4928 298.406 77.4928 297.572C77.4928 296.737 76.8162 296.061 75.9816 296.061C75.147 296.061 74.4705 296.737 74.4705 297.572C74.4705 298.406 75.147 299.083 75.9816 299.083Z" fill="#EAE6C4"/>
<path d="M79.9797 299.083C80.8143 299.083 81.4909 298.406 81.4909 297.572C81.4909 296.737 80.8143 296.061 79.9797 296.061C79.1451 296.061 78.4685 296.737 78.4685 297.572C78.4685 298.406 79.1451 299.083 79.9797 299.083Z" fill="#EAE6C4"/>
<path d="M87.976 299.083C88.8106 299.083 89.4872 298.406 89.4872 297.572C89.4872 296.737 88.8106 296.061 87.976 296.061C87.1414 296.061 86.4648 296.737 86.4648 297.572C86.4648 298.406 87.1414 299.083 87.976 299.083Z" fill="#EAE6C4"/>
<path d="M95.9724 299.083C96.807 299.083 97.4835 298.406 97.4835 297.572C97.4835 296.737 96.807 296.061 95.9724 296.061C95.1378 296.061 94.4612 296.737 94.4612 297.572C94.4612 298.406 95.1378 299.083 95.9724 299.083Z" fill="#EAE6C4"/>
<path d="M83.978 299.083C84.8126 299.083 85.4892 298.406 85.4892 297.572C85.4892 296.737 84.8126 296.061 83.978 296.061C83.1434 296.061 82.4668 296.737 82.4668 297.572C82.4668 298.406 83.1434 299.083 83.978 299.083Z" fill="#EAE6C4"/>
<path d="M91.9743 299.083C92.8089 299.083 93.4855 298.406 93.4855 297.572C93.4855 296.737 92.8089 296.061 91.9743 296.061C91.1397 296.061 90.4631 296.737 90.4631 297.572C90.4631 298.406 91.1397 299.083 91.9743 299.083Z" fill="#EAE6C4"/>
<path d="M99.9704 299.083C100.805 299.083 101.482 298.406 101.482 297.572C101.482 296.737 100.805 296.061 99.9704 296.061C99.1358 296.061 98.4592 296.737 98.4592 297.572C98.4592 298.406 99.1358 299.083 99.9704 299.083Z" fill="#EAE6C4"/>
<path d="M103.969 299.083C104.803 299.083 105.48 298.406 105.48 297.572C105.48 296.737 104.803 296.061 103.969 296.061C103.134 296.061 102.458 296.737 102.458 297.572C102.458 298.406 103.134 299.083 103.969 299.083Z" fill="#EAE6C4"/>
<path d="M107.967 299.083C108.801 299.083 109.478 298.406 109.478 297.572C109.478 296.737 108.801 296.061 107.967 296.061C107.132 296.061 106.456 296.737 106.456 297.572C106.456 298.406 107.132 299.083 107.967 299.083Z" fill="#EAE6C4"/>
<path d="M111.965 299.083C112.8 299.083 113.476 298.406 113.476 297.572C113.476 296.737 112.8 296.061 111.965 296.061C111.13 296.061 110.454 296.737 110.454 297.572C110.454 298.406 111.13 299.083 111.965 299.083Z" fill="#EAE6C4"/>
<path d="M115.963 299.083C116.798 299.083 117.474 298.406 117.474 297.572C117.474 296.737 116.798 296.061 115.963 296.061C115.128 296.061 114.452 296.737 114.452 297.572C114.452 298.406 115.128 299.083 115.963 299.083Z" fill="#EAE6C4"/>
<path d="M119.961 299.083C120.796 299.083 121.472 298.406 121.472 297.572C121.472 296.737 120.796 296.061 119.961 296.061C119.127 296.061 118.45 296.737 118.45 297.572C118.45 298.406 119.127 299.083 119.961 299.083Z" fill="#EAE6C4"/>
<path d="M123.959 299.083C124.794 299.083 125.471 298.406 125.471 297.572C125.471 296.737 124.794 296.061 123.959 296.061C123.125 296.061 122.448 296.737 122.448 297.572C122.448 298.406 123.125 299.083 123.959 299.083Z" fill="#EAE6C4"/>
<path d="M127.957 299.083C128.792 299.083 129.469 298.406 129.469 297.572C129.469 296.737 128.792 296.061 127.957 296.061C127.123 296.061 126.446 296.737 126.446 297.572C126.446 298.406 127.123 299.083 127.957 299.083Z" fill="#EAE6C4"/>
<path d="M131.956 299.083C132.79 299.083 133.467 298.406 133.467 297.572C133.467 296.737 132.79 296.061 131.956 296.061C131.121 296.061 130.445 296.737 130.445 297.572C130.445 298.406 131.121 299.083 131.956 299.083Z" fill="#EAE6C4"/>
<path d="M135.954 299.083C136.788 299.083 137.465 298.406 137.465 297.572C137.465 296.737 136.788 296.061 135.954 296.061C135.119 296.061 134.443 296.737 134.443 297.572C134.443 298.406 135.119 299.083 135.954 299.083Z" fill="#EAE6C4"/>
<path d="M139.952 299.083C140.786 299.083 141.463 298.406 141.463 297.572C141.463 296.737 140.786 296.061 139.952 296.061C139.117 296.061 138.441 296.737 138.441 297.572C138.441 298.406 139.117 299.083 139.952 299.083Z" fill="#EAE6C4"/>
<path d="M143.95 299.083C144.785 299.083 145.461 298.406 145.461 297.572C145.461 296.737 144.785 296.061 143.95 296.061C143.116 296.061 142.439 296.737 142.439 297.572C142.439 298.406 143.116 299.083 143.95 299.083Z" fill="#EAE6C4"/>
<path d="M147.948 299.083C148.783 299.083 149.459 298.406 149.459 297.572C149.459 296.737 148.783 296.061 147.948 296.061C147.114 296.061 146.437 296.737 146.437 297.572C146.437 298.406 147.114 299.083 147.948 299.083Z" fill="#EAE6C4"/>
<path d="M151.946 299.083C152.781 299.083 153.458 298.406 153.458 297.572C153.458 296.737 152.781 296.061 151.946 296.061C151.112 296.061 150.435 296.737 150.435 297.572C150.435 298.406 151.112 299.083 151.946 299.083Z" fill="#EAE6C4"/>
<path d="M155.945 299.083C156.779 299.083 157.456 298.406 157.456 297.572C157.456 296.737 156.779 296.061 155.945 296.061C155.11 296.061 154.433 296.737 154.433 297.572C154.433 298.406 155.11 299.083 155.945 299.083Z" fill="#EAE6C4"/>
<path d="M159.943 299.083C160.777 299.083 161.454 298.406 161.454 297.572C161.454 296.737 160.777 296.061 159.943 296.061C159.108 296.061 158.432 296.737 158.432 297.572C158.432 298.406 159.108 299.083 159.943 299.083Z" fill="#EAE6C4"/>
<path d="M163.941 299.083C164.775 299.083 165.452 298.406 165.452 297.572C165.452 296.737 164.775 296.061 163.941 296.061C163.106 296.061 162.43 296.737 162.43 297.572C162.43 298.406 163.106 299.083 163.941 299.083Z" fill="#EAE6C4"/>
<path d="M167.939 299.083C168.774 299.083 169.45 298.406 169.45 297.572C169.45 296.737 168.774 296.061 167.939 296.061C167.104 296.061 166.428 296.737 166.428 297.572C166.428 298.406 167.104 299.083 167.939 299.083Z" fill="#EAE6C4"/>
<path d="M171.937 299.083C172.772 299.083 173.448 298.406 173.448 297.572C173.448 296.737 172.772 296.061 171.937 296.061C171.103 296.061 170.426 296.737 170.426 297.572C170.426 298.406 171.103 299.083 171.937 299.083Z" fill="#EAE6C4"/>
<path d="M175.935 299.083C176.77 299.083 177.446 298.406 177.446 297.572C177.446 296.737 176.77 296.061 175.935 296.061C175.101 296.061 174.424 296.737 174.424 297.572C174.424 298.406 175.101 299.083 175.935 299.083Z" fill="#EAE6C4"/>
<path d="M179.933 299.083C180.768 299.083 181.444 298.406 181.444 297.572C181.444 296.737 180.768 296.061 179.933 296.061C179.099 296.061 178.422 296.737 178.422 297.572C178.422 298.406 179.099 299.083 179.933 299.083Z" fill="#EAE6C4"/>
<path d="M183.932 299.083C184.766 299.083 185.443 298.406 185.443 297.572C185.443 296.737 184.766 296.061 183.932 296.061C183.097 296.061 182.42 296.737 182.42 297.572C182.42 298.406 183.097 299.083 183.932 299.083Z" fill="#EAE6C4"/>
<path d="M187.93 299.083C188.764 299.083 189.441 298.406 189.441 297.572C189.441 296.737 188.764 296.061 187.93 296.061C187.095 296.061 186.418 296.737 186.418 297.572C186.418 298.406 187.095 299.083 187.93 299.083Z" fill="#EAE6C4"/>
<path d="M191.928 299.083C192.763 299.083 193.439 298.406 193.439 297.572C193.439 296.737 192.763 296.061 191.928 296.061C191.093 296.061 190.417 296.737 190.417 297.572C190.417 298.406 191.093 299.083 191.928 299.083Z" fill="#EAE6C4"/>
<path d="M195.926 299.083C196.761 299.083 197.437 298.406 197.437 297.572C197.437 296.737 196.761 296.061 195.926 296.061C195.091 296.061 194.415 296.737 194.415 297.572C194.415 298.406 195.091 299.083 195.926 299.083Z" fill="#EAE6C4"/>
<path d="M199.924 299.083C200.759 299.083 201.435 298.406 201.435 297.572C201.435 296.737 200.759 296.061 199.924 296.061C199.09 296.061 198.413 296.737 198.413 297.572C198.413 298.406 199.09 299.083 199.924 299.083Z" fill="#EAE6C4"/>
<path d="M203.922 299.083C204.757 299.083 205.433 298.406 205.433 297.572C205.433 296.737 204.757 296.061 203.922 296.061C203.088 296.061 202.411 296.737 202.411 297.572C202.411 298.406 203.088 299.083 203.922 299.083Z" fill="#EAE6C4"/>
<path d="M207.92 299.083C208.755 299.083 209.432 298.406 209.432 297.572C209.432 296.737 208.755 296.061 207.92 296.061C207.086 296.061 206.409 296.737 206.409 297.572C206.409 298.406 207.086 299.083 207.92 299.083Z" fill="#EAE6C4"/>
<path d="M211.919 299.083C212.753 299.083 213.43 298.406 213.43 297.572C213.43 296.737 212.753 296.061 211.919 296.061C211.084 296.061 210.407 296.737 210.407 297.572C210.407 298.406 211.084 299.083 211.919 299.083Z" fill="#EAE6C4"/>
<path d="M215.917 299.083C216.751 299.083 217.428 298.406 217.428 297.572C217.428 296.737 216.751 296.061 215.917 296.061C215.082 296.061 214.406 296.737 214.406 297.572C214.406 298.406 215.082 299.083 215.917 299.083Z" fill="#EAE6C4"/>
<path d="M219.915 299.083C220.75 299.083 221.426 298.406 221.426 297.572C221.426 296.737 220.75 296.061 219.915 296.061C219.08 296.061 218.404 296.737 218.404 297.572C218.404 298.406 219.08 299.083 219.915 299.083Z" fill="#EAE6C4"/>
<path d="M55.9909 299.083C56.8255 299.083 57.5021 298.406 57.5021 297.572C57.5021 296.737 56.8255 296.061 55.9909 296.061C55.1563 296.061 54.4797 296.737 54.4797 297.572C54.4797 298.406 55.1563 299.083 55.9909 299.083Z" fill="#EAE6C4"/>
<path d="M227.21 59.2197C228.045 59.2197 228.722 58.5431 228.722 57.7085C228.722 56.8739 228.045 56.1973 227.21 56.1973C226.376 56.1973 225.699 56.8739 225.699 57.7085C225.699 58.5431 226.376 59.2197 227.21 59.2197Z" fill="#EAE6C4"/>
<path d="M227.21 63.2177C228.045 63.2177 228.722 62.5412 228.722 61.7066C228.722 60.872 228.045 60.1954 227.21 60.1954C226.376 60.1954 225.699 60.872 225.699 61.7066C225.699 62.5412 226.376 63.2177 227.21 63.2177Z" fill="#EAE6C4"/>
<path d="M227.21 67.2158C228.045 67.2158 228.722 66.5392 228.722 65.7046C228.722 64.87 228.045 64.1934 227.21 64.1934C226.376 64.1934 225.699 64.87 225.699 65.7046C225.699 66.5392 226.376 67.2158 227.21 67.2158Z" fill="#EAE6C4"/>
<path d="M227.21 71.2138C228.045 71.2138 228.722 70.5372 228.722 69.7026C228.722 68.868 228.045 68.1914 227.21 68.1914C226.376 68.1914 225.699 68.868 225.699 69.7026C225.699 70.5372 226.376 71.2138 227.21 71.2138Z" fill="#EAE6C4"/>
<path d="M227.21 75.2118C228.045 75.2118 228.722 74.5353 228.722 73.7007C228.722 72.8661 228.045 72.1895 227.21 72.1895C226.376 72.1895 225.699 72.8661 225.699 73.7007C225.699 74.5353 226.376 75.2118 227.21 75.2118Z" fill="#EAE6C4"/>
<path d="M227.21 79.2099C228.045 79.2099 228.722 78.5334 228.722 77.6988C228.722 76.8642 228.045 76.1876 227.21 76.1876C226.376 76.1876 225.699 76.8642 225.699 77.6988C225.699 78.5334 226.376 79.2099 227.21 79.2099Z" fill="#EAE6C4"/>
<path d="M227.21 83.2081C228.045 83.2081 228.722 82.5315 228.722 81.6969C228.722 80.8623 228.045 80.1857 227.21 80.1857C226.376 80.1857 225.699 80.8623 225.699 81.6969C225.699 82.5315 226.376 83.2081 227.21 83.2081Z" fill="#EAE6C4"/>
<path d="M227.21 87.2061C228.045 87.2061 228.722 86.5296 228.722 85.695C228.722 84.8604 228.045 84.1838 227.21 84.1838C226.376 84.1838 225.699 84.8604 225.699 85.695C225.699 86.5296 226.376 87.2061 227.21 87.2061Z" fill="#EAE6C4"/>
<path d="M227.21 91.2042C228.045 91.2042 228.722 90.5276 228.722 89.693C228.722 88.8584 228.045 88.1818 227.21 88.1818C226.376 88.1818 225.699 88.8584 225.699 89.693C225.699 90.5276 226.376 91.2042 227.21 91.2042Z" fill="#EAE6C4"/>
<path d="M227.21 95.2022C228.045 95.2022 228.722 94.5257 228.722 93.6911C228.722 92.8565 228.045 92.1799 227.21 92.1799C226.376 92.1799 225.699 92.8565 225.699 93.6911C225.699 94.5257 226.376 95.2022 227.21 95.2022Z" fill="#EAE6C4"/>
<path d="M227.21 99.2003C228.045 99.2003 228.722 98.5238 228.722 97.6892C228.722 96.8546 228.045 96.178 227.21 96.178C226.376 96.178 225.699 96.8546 225.699 97.6892C225.699 98.5238 226.376 99.2003 227.21 99.2003Z" fill="#EAE6C4"/>
<path d="M227.21 103.198C228.045 103.198 228.722 102.522 228.722 101.687C228.722 100.853 228.045 100.176 227.21 100.176C226.376 100.176 225.699 100.853 225.699 101.687C225.699 102.522 226.376 103.198 227.21 103.198Z" fill="#EAE6C4"/>
<path d="M227.21 107.197C228.045 107.197 228.722 106.52 228.722 105.685C228.722 104.851 228.045 104.174 227.21 104.174C226.376 104.174 225.699 104.851 225.699 105.685C225.699 106.52 226.376 107.197 227.21 107.197Z" fill="#EAE6C4"/>
<path d="M227.21 111.195C228.045 111.195 228.722 110.518 228.722 109.683C228.722 108.849 228.045 108.172 227.21 108.172C226.376 108.172 225.699 108.849 225.699 109.683C225.699 110.518 226.376 111.195 227.21 111.195Z" fill="#EAE6C4"/>
<path d="M227.21 115.193C228.045 115.193 228.722 114.516 228.722 113.681C228.722 112.847 228.045 112.17 227.21 112.17C226.376 112.17 225.699 112.847 225.699 113.681C225.699 114.516 226.376 115.193 227.21 115.193Z" fill="#EAE6C4"/>
<path d="M227.21 119.191C228.045 119.191 228.722 118.514 228.722 117.68C228.722 116.845 228.045 116.168 227.21 116.168C226.376 116.168 225.699 116.845 225.699 117.68C225.699 118.514 226.376 119.191 227.21 119.191Z" fill="#EAE6C4"/>
<path d="M227.21 123.189C228.045 123.189 228.722 122.512 228.722 121.678C228.722 120.843 228.045 120.166 227.21 120.166C226.376 120.166 225.699 120.843 225.699 121.678C225.699 122.512 226.376 123.189 227.21 123.189Z" fill="#EAE6C4"/>
<path d="M227.21 127.187C228.045 127.187 228.722 126.51 228.722 125.676C228.722 124.841 228.045 124.164 227.21 124.164C226.376 124.164 225.699 124.841 225.699 125.676C225.699 126.51 226.376 127.187 227.21 127.187Z" fill="#EAE6C4"/>
<path d="M227.21 131.185C228.045 131.185 228.722 130.508 228.722 129.674C228.722 128.839 228.045 128.163 227.21 128.163C226.376 128.163 225.699 128.839 225.699 129.674C225.699 130.508 226.376 131.185 227.21 131.185Z" fill="#EAE6C4"/>
<path d="M227.21 135.183C228.045 135.183 228.722 134.506 228.722 133.672C228.722 132.837 228.045 132.161 227.21 132.161C226.376 132.161 225.699 132.837 225.699 133.672C225.699 134.506 226.376 135.183 227.21 135.183Z" fill="#EAE6C4"/>
<path d="M227.21 139.181C228.045 139.181 228.722 138.505 228.722 137.67C228.722 136.835 228.045 136.159 227.21 136.159C226.376 136.159 225.699 136.835 225.699 137.67C225.699 138.505 226.376 139.181 227.21 139.181Z" fill="#EAE6C4"/>
<path d="M227.21 143.179C228.045 143.179 228.722 142.503 228.722 141.668C228.722 140.833 228.045 140.157 227.21 140.157C226.376 140.157 225.699 140.833 225.699 141.668C225.699 142.503 226.376 143.179 227.21 143.179Z" fill="#EAE6C4"/>
<path d="M227.21 147.177C228.045 147.177 228.722 146.501 228.722 145.666C228.722 144.831 228.045 144.155 227.21 144.155C226.376 144.155 225.699 144.831 225.699 145.666C225.699 146.501 226.376 147.177 227.21 147.177Z" fill="#EAE6C4"/>
<path d="M227.21 151.175C228.045 151.175 228.722 150.499 228.722 149.664C228.722 148.83 228.045 148.153 227.21 148.153C226.376 148.153 225.699 148.83 225.699 149.664C225.699 150.499 226.376 151.175 227.21 151.175Z" fill="#EAE6C4"/>
<path d="M227.21 155.173C228.045 155.173 228.722 154.497 228.722 153.662C228.722 152.828 228.045 152.151 227.21 152.151C226.376 152.151 225.699 152.828 225.699 153.662C225.699 154.497 226.376 155.173 227.21 155.173Z" fill="#EAE6C4"/>
<path d="M227.21 159.171C228.045 159.171 228.722 158.495 228.722 157.66C228.722 156.826 228.045 156.149 227.21 156.149C226.376 156.149 225.699 156.826 225.699 157.66C225.699 158.495 226.376 159.171 227.21 159.171Z" fill="#EAE6C4"/>
<path d="M227.21 163.169C228.045 163.169 228.722 162.493 228.722 161.658C228.722 160.824 228.045 160.147 227.21 160.147C226.376 160.147 225.699 160.824 225.699 161.658C225.699 162.493 226.376 163.169 227.21 163.169Z" fill="#EAE6C4"/>
<path d="M227.21 167.168C228.045 167.168 228.722 166.491 228.722 165.656C228.722 164.822 228.045 164.145 227.21 164.145C226.376 164.145 225.699 164.822 225.699 165.656C225.699 166.491 226.376 167.168 227.21 167.168Z" fill="#EAE6C4"/>
<path d="M227.21 171.166C228.045 171.166 228.722 170.489 228.722 169.654C228.722 168.82 228.045 168.143 227.21 168.143C226.376 168.143 225.699 168.82 225.699 169.654C225.699 170.489 226.376 171.166 227.21 171.166Z" fill="#EAE6C4"/>
<path d="M227.21 175.164C228.045 175.164 228.722 174.487 228.722 173.653C228.722 172.818 228.045 172.141 227.21 172.141C226.376 172.141 225.699 172.818 225.699 173.653C225.699 174.487 226.376 175.164 227.21 175.164Z" fill="#EAE6C4"/>
<path d="M227.21 179.162C228.045 179.162 228.722 178.485 228.722 177.651C228.722 176.816 228.045 176.139 227.21 176.139C226.376 176.139 225.699 176.816 225.699 177.651C225.699 178.485 226.376 179.162 227.21 179.162Z" fill="#EAE6C4"/>
<path d="M227.21 183.16C228.045 183.16 228.722 182.483 228.722 181.649C228.722 180.814 228.045 180.138 227.21 180.138C226.376 180.138 225.699 180.814 225.699 181.649C225.699 182.483 226.376 183.16 227.21 183.16Z" fill="#EAE6C4"/>
<path d="M227.21 187.158C228.045 187.158 228.722 186.481 228.722 185.647C228.722 184.812 228.045 184.136 227.21 184.136C226.376 184.136 225.699 184.812 225.699 185.647C225.699 186.481 226.376 187.158 227.21 187.158Z" fill="#EAE6C4"/>
<path d="M227.21 191.156C228.045 191.156 228.722 190.479 228.722 189.645C228.722 188.81 228.045 188.134 227.21 188.134C226.376 188.134 225.699 188.81 225.699 189.645C225.699 190.479 226.376 191.156 227.21 191.156Z" fill="#EAE6C4"/>
<path d="M227.21 195.154C228.045 195.154 228.722 194.478 228.722 193.643C228.722 192.808 228.045 192.132 227.21 192.132C226.376 192.132 225.699 192.808 225.699 193.643C225.699 194.478 226.376 195.154 227.21 195.154Z" fill="#EAE6C4"/>
<path d="M227.21 199.152C228.045 199.152 228.722 198.476 228.722 197.641C228.722 196.806 228.045 196.13 227.21 196.13C226.376 196.13 225.699 196.806 225.699 197.641C225.699 198.476 226.376 199.152 227.21 199.152Z" fill="#EAE6C4"/>
<path d="M227.21 203.15C228.045 203.15 228.722 202.474 228.722 201.639C228.722 200.804 228.045 200.128 227.21 200.128C226.376 200.128 225.699 200.804 225.699 201.639C225.699 202.474 226.376 203.15 227.21 203.15Z" fill="#EAE6C4"/>
<path d="M227.21 207.148C228.045 207.148 228.722 206.472 228.722 205.637C228.722 204.803 228.045 204.126 227.21 204.126C226.376 204.126 225.699 204.803 225.699 205.637C225.699 206.472 226.376 207.148 227.21 207.148Z" fill="#EAE6C4"/>
<path d="M227.21 211.146C228.045 211.146 228.722 210.47 228.722 209.635C228.722 208.801 228.045 208.124 227.21 208.124C226.376 208.124 225.699 208.801 225.699 209.635C225.699 210.47 226.376 211.146 227.21 211.146Z" fill="#EAE6C4"/>
<path d="M227.21 215.144C228.045 215.144 228.722 214.468 228.722 213.633C228.722 212.799 228.045 212.122 227.21 212.122C226.376 212.122 225.699 212.799 225.699 213.633C225.699 214.468 226.376 215.144 227.21 215.144Z" fill="#EAE6C4"/>
<path d="M227.21 219.142C228.045 219.142 228.722 218.466 228.722 217.631C228.722 216.797 228.045 216.12 227.21 216.12C226.376 216.12 225.699 216.797 225.699 217.631C225.699 218.466 226.376 219.142 227.21 219.142Z" fill="#EAE6C4"/>
<path d="M227.21 223.141C228.045 223.141 228.722 222.464 228.722 221.629C228.722 220.795 228.045 220.118 227.21 220.118C226.376 220.118 225.699 220.795 225.699 221.629C225.699 222.464 226.376 223.141 227.21 223.141Z" fill="#EAE6C4"/>
<path d="M227.21 227.139C228.045 227.139 228.722 226.462 228.722 225.627C228.722 224.793 228.045 224.116 227.21 224.116C226.376 224.116 225.699 224.793 225.699 225.627C225.699 226.462 226.376 227.139 227.21 227.139Z" fill="#EAE6C4"/>
<path d="M227.21 231.137C228.045 231.137 228.722 230.46 228.722 229.626C228.722 228.791 228.045 228.114 227.21 228.114C226.376 228.114 225.699 228.791 225.699 229.626C225.699 230.46 226.376 231.137 227.21 231.137Z" fill="#EAE6C4"/>
<path d="M227.21 235.135C228.045 235.135 228.722 234.458 228.722 233.624C228.722 232.789 228.045 232.112 227.21 232.112C226.376 232.112 225.699 232.789 225.699 233.624C225.699 234.458 226.376 235.135 227.21 235.135Z" fill="#EAE6C4"/>
<path d="M227.21 239.133C228.045 239.133 228.722 238.456 228.722 237.622C228.722 236.787 228.045 236.111 227.21 236.111C226.376 236.111 225.699 236.787 225.699 237.622C225.699 238.456 226.376 239.133 227.21 239.133Z" fill="#EAE6C4"/>
<path d="M227.21 243.131C228.045 243.131 228.722 242.454 228.722 241.62C228.722 240.785 228.045 240.109 227.21 240.109C226.376 240.109 225.699 240.785 225.699 241.62C225.699 242.454 226.376 243.131 227.21 243.131Z" fill="#EAE6C4"/>
<path d="M227.21 247.129C228.045 247.129 228.722 246.453 228.722 245.618C228.722 244.783 228.045 244.107 227.21 244.107C226.376 244.107 225.699 244.783 225.699 245.618C225.699 246.453 226.376 247.129 227.21 247.129Z" fill="#EAE6C4"/>
<path d="M227.21 251.127C228.045 251.127 228.722 250.451 228.722 249.616C228.722 248.781 228.045 248.105 227.21 248.105C226.376 248.105 225.699 248.781 225.699 249.616C225.699 250.451 226.376 251.127 227.21 251.127Z" fill="#EAE6C4"/>
<path d="M227.21 255.125C228.045 255.125 228.722 254.449 228.722 253.614C228.722 252.779 228.045 252.103 227.21 252.103C226.376 252.103 225.699 252.779 225.699 253.614C225.699 254.449 226.376 255.125 227.21 255.125Z" fill="#EAE6C4"/>
<path d="M227.21 259.123C228.045 259.123 228.722 258.447 228.722 257.612C228.722 256.777 228.045 256.101 227.21 256.101C226.376 256.101 225.699 256.777 225.699 257.612C225.699 258.447 226.376 259.123 227.21 259.123Z" fill="#EAE6C4"/>
<path d="M227.21 263.121C228.045 263.121 228.722 262.445 228.722 261.61C228.722 260.776 228.045 260.099 227.21 260.099C226.376 260.099 225.699 260.776 225.699 261.61C225.699 262.445 226.376 263.121 227.21 263.121Z" fill="#EAE6C4"/>
<path d="M227.21 267.119C228.045 267.119 228.722 266.443 228.722 265.608C228.722 264.774 228.045 264.097 227.21 264.097C226.376 264.097 225.699 264.774 225.699 265.608C225.699 266.443 226.376 267.119 227.21 267.119Z" fill="#EAE6C4"/>
<path d="M227.21 271.117C228.045 271.117 228.722 270.441 228.722 269.606C228.722 268.772 228.045 268.095 227.21 268.095C226.376 268.095 225.699 268.772 225.699 269.606C225.699 270.441 226.376 271.117 227.21 271.117Z" fill="#EAE6C4"/>
<path d="M227.21 275.116C228.045 275.116 228.722 274.439 228.722 273.604C228.722 272.77 228.045 272.093 227.21 272.093C226.376 272.093 225.699 272.77 225.699 273.604C225.699 274.439 226.376 275.116 227.21 275.116Z" fill="#EAE6C4"/>
<path d="M227.21 279.114C228.045 279.114 228.722 278.437 228.722 277.602C228.722 276.768 228.045 276.091 227.21 276.091C226.376 276.091 225.699 276.768 225.699 277.602C225.699 278.437 226.376 279.114 227.21 279.114Z" fill="#EAE6C4"/>
<path d="M227.21 283.112C228.045 283.112 228.722 282.435 228.722 281.601C228.722 280.766 228.045 280.089 227.21 280.089C226.376 280.089 225.699 280.766 225.699 281.601C225.699 282.435 226.376 283.112 227.21 283.112Z" fill="#EAE6C4"/>
<path d="M227.21 287.11C228.045 287.11 228.722 286.433 228.722 285.599C228.722 284.764 228.045 284.087 227.21 284.087C226.376 284.087 225.699 284.764 225.699 285.599C225.699 286.433 226.376 287.11 227.21 287.11Z" fill="#EAE6C4"/>
<path d="M227.21 291.108C228.045 291.108 228.722 290.431 228.722 289.597C228.722 288.762 228.045 288.085 227.21 288.085C226.376 288.085 225.699 288.762 225.699 289.597C225.699 290.431 226.376 291.108 227.21 291.108Z" fill="#EAE6C4"/>
<path d="M49.7441 55.2783C50.5787 55.2783 51.2553 54.6018 51.2553 53.7672C51.2553 52.9326 50.5787 52.256 49.7441 52.256C48.9095 52.256 48.2329 52.9326 48.2329 53.7672C48.2329 54.6018 48.9095 55.2783 49.7441 55.2783Z" fill="#EAE6C4"/>
<path d="M52.2729 51.9976C53.1075 51.9976 53.7841 51.3211 53.7841 50.4865C53.7841 49.6519 53.1075 48.9753 52.2729 48.9753C51.4383 48.9753 50.7617 49.6519 50.7617 50.4865C50.7617 51.3211 51.4383 51.9976 52.2729 51.9976Z" fill="#EAE6C4"/>
<path d="M226.273 55.2783C225.438 55.2783 224.762 54.6018 224.762 53.7672C224.762 52.9326 225.438 52.256 226.273 52.256C227.108 52.256 227.784 52.9326 227.784 53.7672C227.784 54.6018 227.108 55.2783 226.273 55.2783Z" fill="#EAE6C4"/>
<path d="M223.744 51.9976C222.91 51.9976 222.233 51.3211 222.233 50.4865C222.233 49.6519 222.91 48.9753 223.744 48.9753C224.579 48.9753 225.255 49.6519 225.255 50.4865C225.255 51.3211 224.579 51.9976 223.744 51.9976Z" fill="#EAE6C4"/>
<path d="M226.273 291.829C225.439 291.829 224.762 292.506 224.762 293.341C224.762 294.175 225.439 294.852 226.273 294.852C227.108 294.852 227.784 294.175 227.784 293.341C227.784 292.506 227.108 291.829 226.273 291.829Z" fill="#EAE6C4"/>
<path d="M223.744 295.11C222.91 295.11 222.233 295.787 222.233 296.621C222.233 297.456 222.91 298.133 223.744 298.133C224.579 298.133 225.256 297.456 225.256 296.621C225.256 295.787 224.579 295.11 223.744 295.11Z" fill="#EAE6C4"/>
<path d="M107.262 150.636L105.252 154.047L107.711 154.417V164.674L106.045 164.489L104.988 167.951L115.086 169.062C116.108 168.075 116.954 167.078 117.624 166.074C118.311 165.069 118.804 164.171 119.104 163.378C119.421 162.567 119.65 161.792 119.791 161.052C119.95 160.312 120.03 159.58 120.03 158.858C120.03 157.818 119.888 156.796 119.606 155.791C119.342 154.769 118.981 153.905 118.523 153.201C118.065 152.496 117.615 151.94 117.175 151.534H112.072L107.262 150.636ZM110.799 154.839H114.134C114.768 155.544 115.245 156.39 115.562 157.377C115.897 158.364 116.064 159.448 116.064 160.628C116.064 161.88 115.967 162.876 115.774 163.616C115.597 164.356 115.377 164.999 115.113 165.545L110.799 165.201V154.839Z" fill="#66B3BB"/>
<path d="M122.164 151.237L120.658 154.073L123.09 154.205V168.745H126.412V154.447L127.953 154.602C128.411 155.835 128.64 157.236 128.64 158.805L125.725 160.954V161.362L128.085 163.272L129.829 168.269L133.557 169.062L134.547 166.327L132.775 165.983L130.978 162.185L129.538 160.452L132.27 158.894C132.305 157.924 132.216 155.676 132.005 154.495C131.793 153.315 131.494 152.77 131.106 151.924L122.164 151.237Z" fill="#66B3BB"/>
<path d="M141.596 150.636L138.579 156.24V161.474H137.124V163.616H138.579V168.93H141.834V163.616H145.032V168.506L148.367 169.22L149.98 165.705L148.287 165.44V155.738L147.015 151.402L141.596 150.636ZM141.834 154.474L145.032 155.078V161.474H141.834V154.474Z" fill="#66B3BB"/>
<path d="M163.113 155.606L165.069 165.017L165.464 165.07L167.658 154.655L164.487 154.073L166.153 150.636L170.918 151.324L166.794 168.903L162.696 168.454L161.718 164.092L161.639 160.021L162.806 159.995L160.823 168.903L155.945 168.454L153.09 154.443L151.503 154.126L153.248 150.689L156.537 151.535L158.81 164.911L159.18 164.964L161.322 155.183L163.113 155.606Z" fill="#66B3BB"/>
<path d="M116.18 180.968L114.7 184.273L117.132 184.404V198.944H120.223V192.493L126.261 189.665C126.366 188.854 126.366 187.876 126.261 186.73C126.172 185.585 126.014 184.572 125.785 183.691C125.573 182.809 125.353 182.131 125.124 181.655L116.18 180.968ZM120.223 184.66L122.673 184.827C122.919 185.514 122.861 185.885 122.967 186.872C123.09 187.859 123.116 188.26 123.046 189.018L120.223 190.102V184.66Z" fill="#66B3BB"/>
<path d="M134.864 181.999V198.997H131.541V184.827L129.4 184.404L131.065 180.968L134.864 181.999Z" fill="#66B3BB"/>
<path d="M154.16 180.968L151.292 185.499V195.851L153.355 198.732L159.938 199.103L161.047 196.496L154.851 196.153V191.383H159.144V188.604H154.851V183.847L159.991 184.471L161.206 181.84L154.16 180.968Z" fill="#66B3BB"/>
<path d="M139.437 181.455L137.771 184.272L139.913 184.696V196.392L141.948 198.653L147.04 198.997L148.044 196.048L143.168 195.756V182.486L139.437 181.455Z" fill="#66B3BB"/>
<path d="M90.1873 176.052C90.7913 176.052 91.2809 175.563 91.2809 174.959C91.2809 174.355 90.7913 173.865 90.1873 173.865C89.5834 173.865 89.0938 174.355 89.0938 174.959C89.0938 175.563 89.5834 176.052 90.1873 176.052Z" fill="#66B3BB"/>
<path d="M94.1678 176.052C94.7718 176.052 95.2614 175.563 95.2614 174.959C95.2614 174.355 94.7718 173.865 94.1678 173.865C93.5638 173.865 93.0742 174.355 93.0742 174.959C93.0742 175.563 93.5638 176.052 94.1678 176.052Z" fill="#66B3BB"/>
<path d="M98.1483 176.052C98.7522 176.052 99.2419 175.563 99.2419 174.959C99.2419 174.355 98.7522 173.865 98.1483 173.865C97.5443 173.865 97.0547 174.355 97.0547 174.959C97.0547 175.563 97.5443 176.052 98.1483 176.052Z" fill="#66B3BB"/>
<path d="M102.129 176.052C102.733 176.052 103.222 175.563 103.222 174.959C103.222 174.355 102.733 173.865 102.129 173.865C101.525 173.865 101.035 174.355 101.035 174.959C101.035 175.563 101.525 176.052 102.129 176.052Z" fill="#66B3BB"/>
<path d="M106.109 176.052C106.713 176.052 107.203 175.563 107.203 174.959C107.203 174.355 106.713 173.865 106.109 173.865C105.505 173.865 105.016 174.355 105.016 174.959C105.016 175.563 105.505 176.052 106.109 176.052Z" fill="#66B3BB"/>
<path d="M110.09 176.052C110.694 176.052 111.183 175.563 111.183 174.959C111.183 174.355 110.694 173.865 110.09 173.865C109.486 173.865 108.996 174.355 108.996 174.959C108.996 175.563 109.486 176.052 110.09 176.052Z" fill="#66B3BB"/>
<path d="M114.07 176.052C114.674 176.052 115.164 175.563 115.164 174.959C115.164 174.355 114.674 173.865 114.07 173.865C113.466 173.865 112.977 174.355 112.977 174.959C112.977 175.563 113.466 176.052 114.07 176.052Z" fill="#66B3BB"/>
<path d="M118.051 176.052C118.655 176.052 119.144 175.563 119.144 174.959C119.144 174.355 118.655 173.865 118.051 173.865C117.447 173.865 116.957 174.355 116.957 174.959C116.957 175.563 117.447 176.052 118.051 176.052Z" fill="#66B3BB"/>
<path d="M122.031 176.052C122.635 176.052 123.125 175.563 123.125 174.959C123.125 174.355 122.635 173.865 122.031 173.865C121.427 173.865 120.938 174.355 120.938 174.959C120.938 175.563 121.427 176.052 122.031 176.052Z" fill="#66B3BB"/>
<path d="M126.012 176.052C126.616 176.052 127.105 175.563 127.105 174.959C127.105 174.355 126.616 173.865 126.012 173.865C125.408 173.865 124.918 174.355 124.918 174.959C124.918 175.563 125.408 176.052 126.012 176.052Z" fill="#66B3BB"/>
<path d="M129.992 176.052C130.596 176.052 131.086 175.563 131.086 174.959C131.086 174.355 130.596 173.865 129.992 173.865C129.388 173.865 128.898 174.355 128.898 174.959C128.898 175.563 129.388 176.052 129.992 176.052Z" fill="#66B3BB"/>
<path d="M133.972 176.052C134.576 176.052 135.066 175.563 135.066 174.959C135.066 174.355 134.576 173.865 133.972 173.865C133.369 173.865 132.879 174.355 132.879 174.959C132.879 175.563 133.369 176.052 133.972 176.052Z" fill="#66B3BB"/>
<path d="M137.953 176.052C138.557 176.052 139.047 175.563 139.047 174.959C139.047 174.355 138.557 173.865 137.953 173.865C137.349 173.865 136.859 174.355 136.859 174.959C136.859 175.563 137.349 176.052 137.953 176.052Z" fill="#66B3BB"/>
<path d="M141.933 176.052C142.537 176.052 143.027 175.563 143.027 174.959C143.027 174.355 142.537 173.865 141.933 173.865C141.329 173.865 140.84 174.355 140.84 174.959C140.84 175.563 141.329 176.052 141.933 176.052Z" fill="#66B3BB"/>
<path d="M145.914 176.052C146.518 176.052 147.007 175.563 147.007 174.959C147.007 174.355 146.518 173.865 145.914 173.865C145.31 173.865 144.82 174.355 144.82 174.959C144.82 175.563 145.31 176.052 145.914 176.052Z" fill="#66B3BB"/>
<path d="M149.894 176.052C150.498 176.052 150.988 175.563 150.988 174.959C150.988 174.355 150.498 173.865 149.894 173.865C149.29 173.865 148.801 174.355 148.801 174.959C148.801 175.563 149.29 176.052 149.894 176.052Z" fill="#66B3BB"/>
<path d="M153.875 176.052C154.479 176.052 154.968 175.563 154.968 174.959C154.968 174.355 154.479 173.865 153.875 173.865C153.271 173.865 152.781 174.355 152.781 174.959C152.781 175.563 153.271 176.052 153.875 176.052Z" fill="#66B3BB"/>
<path d="M157.855 176.052C158.459 176.052 158.949 175.563 158.949 174.959C158.949 174.355 158.459 173.865 157.855 173.865C157.251 173.865 156.762 174.355 156.762 174.959C156.762 175.563 157.251 176.052 157.855 176.052Z" fill="#66B3BB"/>
<path d="M161.836 176.052C162.44 176.052 162.929 175.563 162.929 174.959C162.929 174.355 162.44 173.865 161.836 173.865C161.232 173.865 160.742 174.355 160.742 174.959C160.742 175.563 161.232 176.052 161.836 176.052Z" fill="#66B3BB"/>
<path d="M165.816 176.052C166.42 176.052 166.91 175.563 166.91 174.959C166.91 174.355 166.42 173.865 165.816 173.865C165.212 173.865 164.723 174.355 164.723 174.959C164.723 175.563 165.212 176.052 165.816 176.052Z" fill="#66B3BB"/>
<path d="M169.797 176.052C170.401 176.052 170.89 175.563 170.89 174.959C170.89 174.355 170.401 173.865 169.797 173.865C169.193 173.865 168.703 174.355 168.703 174.959C168.703 175.563 169.193 176.052 169.797 176.052Z" fill="#66B3BB"/>
<path d="M173.777 176.052C174.381 176.052 174.871 175.563 174.871 174.959C174.871 174.355 174.381 173.865 173.777 173.865C173.173 173.865 172.684 174.355 172.684 174.959C172.684 175.563 173.173 176.052 173.777 176.052Z" fill="#66B3BB"/>
<path d="M177.758 176.052C178.362 176.052 178.851 175.563 178.851 174.959C178.851 174.355 178.362 173.865 177.758 173.865C177.154 173.865 176.664 174.355 176.664 174.959C176.664 175.563 177.154 176.052 177.758 176.052Z" fill="#66B3BB"/>
<path d="M181.738 176.052C182.342 176.052 182.832 175.563 182.832 174.959C182.832 174.355 182.342 173.865 181.738 173.865C181.134 173.865 180.645 174.355 180.645 174.959C180.645 175.563 181.134 176.052 181.738 176.052Z" fill="#66B3BB"/>
<path d="M185.719 176.052C186.323 176.052 186.812 175.563 186.812 174.959C186.812 174.355 186.323 173.865 185.719 173.865C185.115 173.865 184.625 174.355 184.625 174.959C184.625 175.563 185.115 176.052 185.719 176.052Z" fill="#66B3BB"/>
</svg>
