<svg width="455" height="122" viewBox="0 0 455 122" fill="none" xmlns="http://www.w3.org/2000/svg">
<path d="M6.03125 6.00684C6.35571 2.75968 8.87928 0 12.2471 0H442.758C446.125 0.000265977 448.65 2.75974 448.975 6.00684C448.898 6.00396 448.821 6 448.744 6H445.44C445.149 4.46808 443.945 3.50026 442.758 3.5H12.2471C11.0594 3.5 9.85205 4.46751 9.56055 6H6.25977C6.18313 6 6.10701 6.00401 6.03125 6.00684ZM9.56055 115.5C9.51742 115.273 9.49414 115.034 9.49414 114.784V6.71582C9.49414 6.46568 9.51742 6.22671 9.56055 6H445.44C445.473 6.17202 445.498 6.35044 445.507 6.53613L445.511 6.71582V114.784C445.511 115.034 445.487 115.273 445.444 115.5H9.56055ZM448.975 115.494C448.998 115.26 449.011 115.023 449.011 114.784V6.71582L449.003 6.38477C448.997 6.25814 448.987 6.13214 448.975 6.00684C452.462 6.13789 455.004 9.22831 455.004 12.6943V108.806C455.004 112.272 452.462 115.363 448.975 115.494ZM6.03125 115.494C2.54303 115.364 0.000156427 112.272 0 108.806V12.6943C0.000152932 9.22767 2.54305 6.13679 6.03125 6.00684C6.00785 6.24098 5.99414 6.47746 5.99414 6.71582V114.784C5.99414 115.023 6.00779 115.26 6.03125 115.494ZM12.2471 121.5C8.87962 121.5 6.35612 118.741 6.03125 115.494C6.107 115.497 6.18314 115.5 6.25977 115.5H9.56055C9.85205 117.032 11.0594 118 12.2471 118H442.758C443.945 118 445.153 117.032 445.444 115.5H448.744C448.821 115.5 448.898 115.497 448.975 115.494C448.65 118.741 446.125 121.5 442.758 121.5H12.2471Z" fill="#865849"/>
<mask id="path-2-inside-1_13_19382" fill="white">
<path d="M81.9242 60.63H83.5242C84.5375 60.63 85.7109 60.15 87.0442 59.19C88.4309 58.1767 89.3109 57.0833 89.6842 55.91C90.0575 54.7367 90.2442 53.1633 90.2442 51.19C90.2442 49.2167 90.0575 47.59 89.6842 46.31C89.3109 44.9767 88.4309 43.83 87.0442 42.87C85.7109 41.91 84.4042 41.43 83.1242 41.43C81.8975 41.43 80.2175 42.1233 78.0842 43.51C78.2442 45.27 78.3242 47.0567 78.3242 48.87V87.75H67.2842V53.51C67.2842 49.03 66.9642 45.8833 66.3242 44.07C65.7375 42.2033 64.4575 40.0433 62.4842 37.59L72.0842 30.79C73.4709 31.75 74.6975 33.3233 75.7642 35.51C80.1375 32.3633 83.2575 30.79 85.1242 30.79C86.9909 30.79 89.5775 32.2833 92.8842 35.27C96.1909 38.2567 98.4309 40.7633 99.6042 42.79C100.191 43.5367 100.484 46.1233 100.484 50.55C100.484 54.9767 100.191 57.7767 99.6042 58.95C98.4309 60.9767 96.1909 63.4833 92.8842 66.47C89.5775 69.4567 86.9909 70.95 85.1242 70.95H81.9242V60.63ZM116.865 35.19C121.132 32.2567 124.039 30.79 125.585 30.79C127.132 30.79 129.505 32.2033 132.705 35.03C135.959 37.8033 137.985 39.7767 138.785 40.95C139.585 42.07 139.985 43.5633 139.985 45.43C139.985 49.0567 139.692 51.2167 139.105 51.91C137.985 53.6167 136.252 55.6167 133.905 57.91C137.159 61.0033 139.185 63.3767 139.985 65.03C140.412 66.15 140.865 69.5633 141.345 75.27C141.825 80.9233 142.065 85.0833 142.065 87.75H130.065C130.065 85.35 129.852 81.59 129.425 76.47C128.999 71.35 128.519 68.2567 127.985 67.19C127.505 66.1233 126.919 65.19 126.225 64.39H119.105V87.75H108.065V52.71C108.065 48.39 107.745 45.4033 107.105 43.75C106.519 42.0433 105.239 39.9633 103.265 37.51L112.865 30.79C114.572 31.91 115.905 33.3767 116.865 35.19ZM119.105 48.87V55.03H122.225C122.972 55.03 123.932 54.4433 125.105 53.27C126.279 52.0967 127.025 51.11 127.345 50.31C127.719 49.4567 127.905 48.5767 127.905 47.67C127.905 46.7633 127.719 45.9633 127.345 45.27C127.025 44.5233 126.545 43.6967 125.905 42.79C125.265 41.8833 124.732 41.43 124.305 41.43C122.865 41.43 121.052 41.7767 118.865 42.47C119.025 44.55 119.105 46.6833 119.105 48.87ZM160.24 53.67H174.56V63.35H160.24V78.07H179.36V87.75H149.2V38.47L160.24 30.79H178.08V40.55H163.2L160.24 42.63V53.67ZM215.612 65.19C216.198 66.15 216.492 68.07 216.492 70.95C216.492 73.7767 215.905 76.1767 214.732 78.15C213.665 79.6967 211.398 81.8567 207.932 84.63C204.465 87.35 201.905 88.71 200.252 88.71C197.318 88.71 193.958 87.19 190.172 84.15C186.385 81.0567 183.985 77.67 182.972 73.99L191.852 67.91C192.705 70.4167 194.065 72.71 195.932 74.79C197.798 76.87 199.105 77.91 199.852 77.91C200.652 77.91 201.478 77.67 202.332 77.19C203.238 76.6567 203.932 76.1233 204.412 75.59C205.105 74.7367 205.452 73.4033 205.452 71.59C205.452 69.7767 205.025 68.6567 204.172 68.23C203.105 67.3233 201.025 66.1233 197.932 64.63C194.892 63.1367 192.065 61.5367 189.452 59.83C186.838 58.07 185.158 56.3633 184.412 54.71C183.718 53.0567 183.372 50.9233 183.372 48.31C183.372 45.6433 183.958 43.3233 185.132 41.35C186.198 39.8033 188.465 37.67 191.932 34.95C195.398 32.1767 197.958 30.79 199.612 30.79C202.545 30.79 205.905 32.3367 209.692 35.43C213.478 38.47 215.878 41.83 216.892 45.51L208.012 51.67C207.158 49.1633 205.798 46.87 203.932 44.79C202.065 42.6567 200.732 41.59 199.932 41.59C199.185 41.59 198.358 41.83 197.452 42.31C196.545 42.79 195.798 43.4033 195.212 44.15C194.678 44.8433 194.412 46.07 194.412 47.83C194.412 49.5367 194.945 50.6833 196.012 51.27C196.865 52.0167 198.812 53.19 201.852 54.79C209.638 59.0567 214.225 62.5233 215.612 65.19ZM222.961 87.75V31.75H234.001V87.75H222.961ZM252.801 34.95C256.321 32.1767 258.988 30.79 260.801 30.79C262.614 30.79 265.414 32.55 269.201 36.07C273.041 39.5367 275.414 42.3633 276.321 44.55C276.908 45.9367 277.201 49.43 277.201 55.03V64.47C277.201 70.07 276.908 73.5633 276.321 74.95C275.361 77.03 273.041 79.6967 269.361 82.95C265.681 86.15 262.774 87.75 260.641 87.75H244.081V53.51C244.081 49.19 243.761 46.15 243.121 44.39C242.534 42.63 241.254 40.55 239.281 38.15L249.841 30.79C250.961 31.6433 251.948 33.03 252.801 34.95ZM260.641 42.23C259.094 42.23 257.174 42.7367 254.881 43.75C255.041 44.87 255.121 46.5767 255.121 48.87V78.07H260.641C261.388 78.07 262.268 77.5367 263.281 76.47C264.348 75.35 265.094 74.31 265.521 73.35C265.948 72.3367 266.161 69.6433 266.161 65.27V55.03C266.161 50.6567 265.948 47.99 265.521 47.03C265.094 46.0167 264.348 44.9767 263.281 43.91C262.268 42.79 261.388 42.23 260.641 42.23ZM296.255 53.67H310.575V63.35H296.255V78.07H315.375V87.75H285.215V38.47L296.255 30.79H314.095V40.55H299.215L296.255 42.63V53.67ZM333.947 45.43L334.027 48.87V87.75H322.987V53.51C322.987 49.03 322.667 45.8833 322.027 44.07C321.441 42.2567 320.161 40.07 318.187 37.51L327.787 30.79C329.334 31.8033 330.774 33.5367 332.107 35.99C336.321 32.5233 339.174 30.79 340.667 30.79C342.161 30.79 344.507 32.2033 347.707 35.03C350.961 37.8033 352.987 39.7767 353.787 40.95C354.587 42.07 354.987 43.5633 354.987 45.43V87.75H343.867V47.03C343.867 46.55 343.654 45.9633 343.227 45.27C342.854 44.5233 342.241 43.6967 341.387 42.79C340.587 41.8833 339.814 41.43 339.067 41.43C338.374 41.43 337.494 41.8567 336.427 42.71C335.361 43.51 334.534 44.4167 333.947 45.43ZM391.75 31.75V41.35H381.35V87.75H370.31V41.35H359.91V31.75H391.75Z"/>
</mask>
<path d="M81.9242 60.63H83.5242C84.5375 60.63 85.7109 60.15 87.0442 59.19C88.4309 58.1767 89.3109 57.0833 89.6842 55.91C90.0575 54.7367 90.2442 53.1633 90.2442 51.19C90.2442 49.2167 90.0575 47.59 89.6842 46.31C89.3109 44.9767 88.4309 43.83 87.0442 42.87C85.7109 41.91 84.4042 41.43 83.1242 41.43C81.8975 41.43 80.2175 42.1233 78.0842 43.51C78.2442 45.27 78.3242 47.0567 78.3242 48.87V87.75H67.2842V53.51C67.2842 49.03 66.9642 45.8833 66.3242 44.07C65.7375 42.2033 64.4575 40.0433 62.4842 37.59L72.0842 30.79C73.4709 31.75 74.6975 33.3233 75.7642 35.51C80.1375 32.3633 83.2575 30.79 85.1242 30.79C86.9909 30.79 89.5775 32.2833 92.8842 35.27C96.1909 38.2567 98.4309 40.7633 99.6042 42.79C100.191 43.5367 100.484 46.1233 100.484 50.55C100.484 54.9767 100.191 57.7767 99.6042 58.95C98.4309 60.9767 96.1909 63.4833 92.8842 66.47C89.5775 69.4567 86.9909 70.95 85.1242 70.95H81.9242V60.63ZM116.865 35.19C121.132 32.2567 124.039 30.79 125.585 30.79C127.132 30.79 129.505 32.2033 132.705 35.03C135.959 37.8033 137.985 39.7767 138.785 40.95C139.585 42.07 139.985 43.5633 139.985 45.43C139.985 49.0567 139.692 51.2167 139.105 51.91C137.985 53.6167 136.252 55.6167 133.905 57.91C137.159 61.0033 139.185 63.3767 139.985 65.03C140.412 66.15 140.865 69.5633 141.345 75.27C141.825 80.9233 142.065 85.0833 142.065 87.75H130.065C130.065 85.35 129.852 81.59 129.425 76.47C128.999 71.35 128.519 68.2567 127.985 67.19C127.505 66.1233 126.919 65.19 126.225 64.39H119.105V87.75H108.065V52.71C108.065 48.39 107.745 45.4033 107.105 43.75C106.519 42.0433 105.239 39.9633 103.265 37.51L112.865 30.79C114.572 31.91 115.905 33.3767 116.865 35.19ZM119.105 48.87V55.03H122.225C122.972 55.03 123.932 54.4433 125.105 53.27C126.279 52.0967 127.025 51.11 127.345 50.31C127.719 49.4567 127.905 48.5767 127.905 47.67C127.905 46.7633 127.719 45.9633 127.345 45.27C127.025 44.5233 126.545 43.6967 125.905 42.79C125.265 41.8833 124.732 41.43 124.305 41.43C122.865 41.43 121.052 41.7767 118.865 42.47C119.025 44.55 119.105 46.6833 119.105 48.87ZM160.24 53.67H174.56V63.35H160.24V78.07H179.36V87.75H149.2V38.47L160.24 30.79H178.08V40.55H163.2L160.24 42.63V53.67ZM215.612 65.19C216.198 66.15 216.492 68.07 216.492 70.95C216.492 73.7767 215.905 76.1767 214.732 78.15C213.665 79.6967 211.398 81.8567 207.932 84.63C204.465 87.35 201.905 88.71 200.252 88.71C197.318 88.71 193.958 87.19 190.172 84.15C186.385 81.0567 183.985 77.67 182.972 73.99L191.852 67.91C192.705 70.4167 194.065 72.71 195.932 74.79C197.798 76.87 199.105 77.91 199.852 77.91C200.652 77.91 201.478 77.67 202.332 77.19C203.238 76.6567 203.932 76.1233 204.412 75.59C205.105 74.7367 205.452 73.4033 205.452 71.59C205.452 69.7767 205.025 68.6567 204.172 68.23C203.105 67.3233 201.025 66.1233 197.932 64.63C194.892 63.1367 192.065 61.5367 189.452 59.83C186.838 58.07 185.158 56.3633 184.412 54.71C183.718 53.0567 183.372 50.9233 183.372 48.31C183.372 45.6433 183.958 43.3233 185.132 41.35C186.198 39.8033 188.465 37.67 191.932 34.95C195.398 32.1767 197.958 30.79 199.612 30.79C202.545 30.79 205.905 32.3367 209.692 35.43C213.478 38.47 215.878 41.83 216.892 45.51L208.012 51.67C207.158 49.1633 205.798 46.87 203.932 44.79C202.065 42.6567 200.732 41.59 199.932 41.59C199.185 41.59 198.358 41.83 197.452 42.31C196.545 42.79 195.798 43.4033 195.212 44.15C194.678 44.8433 194.412 46.07 194.412 47.83C194.412 49.5367 194.945 50.6833 196.012 51.27C196.865 52.0167 198.812 53.19 201.852 54.79C209.638 59.0567 214.225 62.5233 215.612 65.19ZM222.961 87.75V31.75H234.001V87.75H222.961ZM252.801 34.95C256.321 32.1767 258.988 30.79 260.801 30.79C262.614 30.79 265.414 32.55 269.201 36.07C273.041 39.5367 275.414 42.3633 276.321 44.55C276.908 45.9367 277.201 49.43 277.201 55.03V64.47C277.201 70.07 276.908 73.5633 276.321 74.95C275.361 77.03 273.041 79.6967 269.361 82.95C265.681 86.15 262.774 87.75 260.641 87.75H244.081V53.51C244.081 49.19 243.761 46.15 243.121 44.39C242.534 42.63 241.254 40.55 239.281 38.15L249.841 30.79C250.961 31.6433 251.948 33.03 252.801 34.95ZM260.641 42.23C259.094 42.23 257.174 42.7367 254.881 43.75C255.041 44.87 255.121 46.5767 255.121 48.87V78.07H260.641C261.388 78.07 262.268 77.5367 263.281 76.47C264.348 75.35 265.094 74.31 265.521 73.35C265.948 72.3367 266.161 69.6433 266.161 65.27V55.03C266.161 50.6567 265.948 47.99 265.521 47.03C265.094 46.0167 264.348 44.9767 263.281 43.91C262.268 42.79 261.388 42.23 260.641 42.23ZM296.255 53.67H310.575V63.35H296.255V78.07H315.375V87.75H285.215V38.47L296.255 30.79H314.095V40.55H299.215L296.255 42.63V53.67ZM333.947 45.43L334.027 48.87V87.75H322.987V53.51C322.987 49.03 322.667 45.8833 322.027 44.07C321.441 42.2567 320.161 40.07 318.187 37.51L327.787 30.79C329.334 31.8033 330.774 33.5367 332.107 35.99C336.321 32.5233 339.174 30.79 340.667 30.79C342.161 30.79 344.507 32.2033 347.707 35.03C350.961 37.8033 352.987 39.7767 353.787 40.95C354.587 42.07 354.987 43.5633 354.987 45.43V87.75H343.867V47.03C343.867 46.55 343.654 45.9633 343.227 45.27C342.854 44.5233 342.241 43.6967 341.387 42.79C340.587 41.8833 339.814 41.43 339.067 41.43C338.374 41.43 337.494 41.8567 336.427 42.71C335.361 43.51 334.534 44.4167 333.947 45.43ZM391.75 31.75V41.35H381.35V87.75H370.31V41.35H359.91V31.75H391.75Z" fill="white"/>
<path d="M81.9242 60.63V59.2967H80.5909V60.63H81.9242ZM87.0442 59.19L87.8233 60.2721L87.8309 60.2665L87.0442 59.19ZM89.6842 55.91L88.4136 55.5057V55.5057L89.6842 55.91ZM89.6842 46.31L88.4003 46.6695L88.4022 46.6764L88.4042 46.6833L89.6842 46.31ZM87.0442 42.87L86.2651 43.952L86.2751 43.9592L86.2853 43.9663L87.0442 42.87ZM78.0842 43.51L77.3576 42.3921L76.6836 42.8302L76.7563 43.6307L78.0842 43.51ZM78.3242 87.75V89.0833H79.6575V87.75H78.3242ZM67.2842 87.75H65.9509V89.0833H67.2842V87.75ZM66.3242 44.07L65.0522 44.4698L65.0592 44.4919L65.0669 44.5138L66.3242 44.07ZM62.4842 37.59L61.7135 36.502L60.5569 37.3212L61.4453 38.4257L62.4842 37.59ZM72.0842 30.79L72.8432 29.6937L72.0755 29.1623L71.3135 29.702L72.0842 30.79ZM75.7642 35.51L74.5658 36.0946L75.2592 37.5159L76.5429 36.5923L75.7642 35.51ZM99.6042 42.79L98.4503 43.458L98.4975 43.5396L98.5558 43.6138L99.6042 42.79ZM99.6042 58.95L100.758 59.618L100.779 59.5828L100.797 59.5463L99.6042 58.95ZM92.8842 66.47L93.7779 67.4595V67.4595L92.8842 66.47ZM81.9242 70.95H80.5909V72.2833H81.9242V70.95ZM81.9242 60.63V61.9633H83.5242V60.63V59.2967H81.9242V60.63ZM83.5242 60.63V61.9633C84.9427 61.9633 86.3923 61.3024 87.8233 60.272L87.0442 59.19L86.2651 58.108C85.0295 58.9976 84.1324 59.2967 83.5242 59.2967V60.63ZM87.0442 59.19L87.8309 60.2665C89.3582 59.1504 90.4676 57.8454 90.9548 56.3143L89.6842 55.91L88.4136 55.5057C88.1541 56.3213 87.5035 57.2029 86.2575 58.1135L87.0442 59.19ZM89.6842 55.91L90.9548 56.3143C91.387 54.9557 91.5775 53.2284 91.5775 51.19H90.2442H88.9109C88.9109 53.0983 88.728 54.5176 88.4136 55.5057L89.6842 55.91ZM90.2442 51.19H91.5775C91.5775 49.1448 91.3855 47.381 90.9642 45.9367L89.6842 46.31L88.4042 46.6833C88.7296 47.799 88.9109 49.2886 88.9109 51.19H90.2442ZM89.6842 46.31L90.9682 45.9505C90.4939 44.2566 89.3876 42.8706 87.8032 41.7737L87.0442 42.87L86.2853 43.9663C87.4742 44.7893 88.1279 45.6967 88.4003 46.6695L89.6842 46.31ZM87.0442 42.87L87.8233 41.788C86.3275 40.711 84.7539 40.0967 83.1242 40.0967V41.43V42.7633C84.0545 42.7633 85.0943 43.109 86.2651 43.952L87.0442 42.87ZM83.1242 41.43V40.0967C81.4818 40.0967 79.5191 40.9871 77.3576 42.3921L78.0842 43.51L78.8109 44.6279C80.916 43.2596 82.3133 42.7633 83.1242 42.7633V41.43ZM78.0842 43.51L76.7563 43.6307C76.9126 45.3495 76.9909 47.0959 76.9909 48.87H78.3242H79.6575C79.6575 47.0174 79.5758 45.1904 79.4121 43.3893L78.0842 43.51ZM78.3242 48.87H76.9909V87.75H78.3242H79.6575V48.87H78.3242ZM78.3242 87.75V86.4167H67.2842V87.75V89.0833H78.3242V87.75ZM67.2842 87.75H68.6175V53.51H67.2842H65.9509V87.75H67.2842ZM67.2842 53.51H68.6175C68.6175 49.0265 68.3046 45.675 67.5815 43.6262L66.3242 44.07L65.0669 44.5138C65.6238 46.0916 65.9509 49.0335 65.9509 53.51H67.2842ZM66.3242 44.07L67.5962 43.6702C66.9386 41.5779 65.545 39.2679 63.5232 36.7543L62.4842 37.59L61.4453 38.4257C63.3701 40.8188 64.5365 42.8287 65.0522 44.4698L66.3242 44.07ZM62.4842 37.59L63.2549 38.678L72.8549 31.878L72.0842 30.79L71.3135 29.702L61.7135 36.502L62.4842 37.59ZM72.0842 30.79L71.3253 31.8863C72.459 32.6712 73.5578 34.0281 74.5658 36.0946L75.7642 35.51L76.9626 34.9254C75.8373 32.6186 74.4827 30.8288 72.8432 29.6937L72.0842 30.79ZM75.7642 35.51L76.5429 36.5923C78.6999 35.0404 80.5105 33.9038 81.9846 33.1605C83.4937 32.3995 84.5111 32.1233 85.1242 32.1233V30.79V29.4567C83.8707 29.4567 82.3947 29.9672 80.7839 30.7795C79.1379 31.6095 77.2019 32.833 74.9855 34.4277L75.7642 35.51ZM85.1242 30.79V32.1233C85.723 32.1233 86.5972 32.3717 87.7976 33.0647C88.9804 33.7476 90.3764 34.8015 91.9905 36.2595L92.8842 35.27L93.7779 34.2805C92.0854 32.7518 90.5346 31.5657 89.1308 30.7553C87.7445 29.9549 86.3921 29.4567 85.1242 29.4567V30.79ZM92.8842 35.27L91.9905 36.2595C95.2695 39.2211 97.3836 41.6155 98.4503 43.458L99.6042 42.79L100.758 42.1219C99.4782 39.9111 97.1123 37.2922 93.7779 34.2805L92.8842 35.27ZM99.6042 42.79L98.5558 43.6138C98.5327 43.5844 98.6048 43.6744 98.7 44.0353C98.7875 44.3667 98.87 44.8289 98.9394 45.4402C99.0778 46.6611 99.1509 48.3574 99.1509 50.55H100.484H101.818C101.818 48.3159 101.744 46.5055 101.589 45.1398C101.512 44.4578 101.411 43.8566 101.278 43.3547C101.154 42.8822 100.969 42.3689 100.653 41.9662L99.6042 42.79ZM100.484 50.55H99.1509C99.1509 52.7399 99.078 54.4955 98.9381 55.8311C98.7935 57.212 98.5897 57.9975 98.4116 58.3537L99.6042 58.95L100.797 59.5463C101.205 58.7291 101.442 57.528 101.59 56.1089C101.744 54.6445 101.818 52.7867 101.818 50.55H100.484ZM99.6042 58.95L98.4503 58.2819C97.3836 60.1245 95.2695 62.5189 91.9905 65.4805L92.8842 66.47L93.7779 67.4595C97.1123 64.4478 99.4782 61.8289 100.758 59.618L99.6042 58.95ZM92.8842 66.47L91.9905 65.4805C90.3764 66.9385 88.9804 67.9924 87.7976 68.6753C86.5972 69.3683 85.723 69.6167 85.1242 69.6167V70.95V72.2833C86.3921 72.2833 87.7445 71.7851 89.1308 70.9847C90.5346 70.1743 92.0854 68.9882 93.7779 67.4595L92.8842 66.47ZM85.1242 70.95V69.6167H81.9242V70.95V72.2833H85.1242V70.95ZM81.9242 70.95H83.2575V60.63H81.9242H80.5909V70.95H81.9242ZM116.865 35.19L115.687 35.8139L116.387 37.1367L117.621 36.2887L116.865 35.19ZM132.705 35.03L131.823 36.0293L131.832 36.0371L131.84 36.0447L132.705 35.03ZM138.785 40.95L137.684 41.7011L137.692 41.7131L137.7 41.725L138.785 40.95ZM139.105 51.91L138.088 51.0487L138.035 51.1107L137.991 51.1785L139.105 51.91ZM133.905 57.91L132.974 56.9564L131.984 57.9232L132.987 58.8763L133.905 57.91ZM139.985 65.03L141.231 64.5553L141.211 64.5013L141.186 64.4493L139.985 65.03ZM141.345 75.27L140.017 75.3818L140.017 75.3828L141.345 75.27ZM142.065 87.75V89.0833H143.399V87.75H142.065ZM130.065 87.75H128.732V89.0833H130.065V87.75ZM129.425 76.47L128.097 76.5807V76.5807L129.425 76.47ZM127.985 67.19L126.77 67.7372L126.781 67.762L126.793 67.7863L127.985 67.19ZM126.225 64.39L127.233 63.5168L126.834 63.0567H126.225V64.39ZM119.105 64.39V63.0567H117.772V64.39H119.105ZM119.105 87.75V89.0833H120.439V87.75H119.105ZM108.065 87.75H106.732V89.0833H108.065V87.75ZM107.105 43.75L105.845 44.1834L105.853 44.2075L105.862 44.2313L107.105 43.75ZM103.265 37.51L102.501 36.4177L101.333 37.2351L102.227 38.3457L103.265 37.51ZM112.865 30.79L113.597 29.6753L112.841 29.1794L112.101 29.6977L112.865 30.79ZM119.105 55.03H117.772V56.3633H119.105V55.03ZM127.345 50.31L126.124 49.7756L126.115 49.7951L126.107 49.8148L127.345 50.31ZM127.345 45.27L126.12 45.7952L126.143 45.8498L126.171 45.9021L127.345 45.27ZM118.865 42.47L118.462 41.199L117.455 41.5185L117.536 42.5723L118.865 42.47ZM116.865 35.19L117.621 36.2887C119.73 34.8387 121.468 33.7757 122.846 33.0804C124.275 32.3592 125.148 32.1233 125.585 32.1233V30.79V29.4567C124.477 29.4567 123.122 29.9541 121.645 30.6996C120.116 31.4709 118.268 32.6079 116.11 34.0913L116.865 35.19ZM125.585 30.79V32.1233C125.996 32.1233 126.723 32.3285 127.843 32.9956C128.931 33.6435 130.255 34.6446 131.823 36.0293L132.705 35.03L133.588 34.0307C131.956 32.5887 130.493 31.4698 129.208 30.7044C127.955 29.9582 126.722 29.4567 125.585 29.4567V30.79ZM132.705 35.03L131.84 36.0447C135.118 38.8386 137.001 40.7002 137.684 41.7011L138.785 40.95L139.887 40.1989C138.97 38.8531 136.8 36.7681 133.57 34.0153L132.705 35.03ZM138.785 40.95L137.7 41.725C138.29 42.5509 138.652 43.7441 138.652 45.43H139.985H141.319C141.319 43.3826 140.881 41.5891 139.87 40.175L138.785 40.95ZM139.985 45.43H138.652C138.652 47.2171 138.579 48.5961 138.444 49.5906C138.377 50.088 138.297 50.4589 138.216 50.722C138.13 51.0036 138.067 51.0731 138.088 51.0487L139.105 51.91L140.123 52.7713C140.437 52.4002 140.631 51.9397 140.765 51.5079C140.903 51.0577 141.008 50.532 141.087 49.9494C141.245 48.7839 141.319 47.2696 141.319 45.43H139.985ZM139.105 51.91L137.991 51.1785C136.945 52.7714 135.288 54.695 132.974 56.9564L133.905 57.91L134.837 58.8636C137.217 56.5383 139.026 54.462 140.22 52.6415L139.105 51.91ZM133.905 57.91L132.987 58.8763C136.244 61.9736 138.102 64.1996 138.785 65.6107L139.985 65.03L141.186 64.4493C140.268 62.5537 138.073 60.0331 134.824 56.9437L133.905 57.91ZM139.985 65.03L138.739 65.5047C138.889 65.8969 139.094 66.8773 139.324 68.6055C139.546 70.2818 139.778 72.5378 140.017 75.3818L141.345 75.27L142.674 75.1582C142.433 72.2955 142.198 69.9916 141.967 68.2545C141.743 66.5694 141.509 65.2831 141.231 64.5553L139.985 65.03ZM141.345 75.27L140.017 75.3828C140.496 81.0306 140.732 85.1433 140.732 87.75H142.065H143.399C143.399 85.0234 143.154 80.8161 142.674 75.1572L141.345 75.27ZM142.065 87.75V86.4167H130.065V87.75V89.0833H142.065V87.75ZM130.065 87.75H131.399C131.399 85.291 131.181 81.4845 130.754 76.3593L129.425 76.47L128.097 76.5807C128.523 81.6955 128.732 85.409 128.732 87.75H130.065ZM129.425 76.47L130.754 76.3593C130.54 73.785 130.31 71.6966 130.063 70.1055C129.825 68.5745 129.55 67.3376 129.178 66.5937L127.985 67.19L126.793 67.7863C126.954 68.1091 127.185 68.9522 127.428 70.5145C127.661 72.0167 127.885 74.035 128.097 76.5807L129.425 76.47ZM127.985 67.19L129.201 66.6428C128.674 65.4702 128.02 64.4244 127.233 63.5168L126.225 64.39L125.218 65.2632C125.818 65.9556 126.337 66.7765 126.77 67.7372L127.985 67.19ZM126.225 64.39V63.0567H119.105V64.39V65.7233H126.225V64.39ZM119.105 64.39H117.772V87.75H119.105H120.439V64.39H119.105ZM119.105 87.75V86.4167H108.065V87.75V89.0833H119.105V87.75ZM108.065 87.75H109.399V52.71H108.065H106.732V87.75H108.065ZM108.065 52.71H109.399C109.399 48.3956 109.089 45.1794 108.349 43.2687L107.105 43.75L105.862 44.2313C106.402 45.6272 106.732 48.3844 106.732 52.71H108.065ZM107.105 43.75L108.366 43.3166C107.706 41.3941 106.314 39.1722 104.304 36.6743L103.265 37.51L102.227 38.3457C104.164 40.7545 105.332 42.6926 105.845 44.1834L107.105 43.75ZM103.265 37.51L104.03 38.6023L113.63 31.8823L112.865 30.79L112.101 29.6977L102.501 36.4177L103.265 37.51ZM112.865 30.79L112.134 31.9047C113.652 32.9007 114.832 34.1981 115.687 35.8139L116.865 35.19L118.044 34.5661C116.979 32.5552 115.493 30.9193 113.597 29.6753L112.865 30.79ZM119.105 48.87H117.772V55.03H119.105H120.439V48.87H119.105ZM119.105 55.03V56.3633H122.225V55.03V53.6967H119.105V55.03ZM122.225 55.03V56.3633C122.938 56.3633 123.61 56.0888 124.201 55.7277C124.802 55.3602 125.419 54.8423 126.048 54.2128L125.105 53.27L124.163 52.3272C123.619 52.871 123.169 53.2332 122.81 53.4523C122.441 53.6779 122.259 53.6967 122.225 53.6967V55.03ZM125.105 53.27L126.048 54.2128C127.253 53.0081 128.16 51.8648 128.583 50.8052L127.345 50.31L126.107 49.8148C125.891 50.3552 125.305 51.1852 124.163 52.3272L125.105 53.27ZM127.345 50.31L128.567 50.8444C129.012 49.8273 129.239 48.7657 129.239 47.67H127.905H126.572C126.572 48.3876 126.426 49.086 126.124 49.7756L127.345 50.31ZM127.905 47.67H129.239C129.239 46.5763 129.012 45.5531 128.519 44.6379L127.345 45.27L126.171 45.9021C126.425 46.3736 126.572 46.9503 126.572 47.67H127.905ZM127.345 45.27L128.571 44.7448C128.204 43.8876 127.67 42.9784 126.995 42.0211L125.905 42.79L124.816 43.5589C125.42 44.415 125.847 45.159 126.12 45.7952L127.345 45.27ZM125.905 42.79L126.995 42.0211C126.643 41.5229 126.276 41.0827 125.889 40.7541C125.525 40.4446 124.983 40.0967 124.305 40.0967V41.43V42.7633C124.055 42.7633 123.993 42.642 124.162 42.7859C124.309 42.9106 124.528 43.1504 124.816 43.5589L125.905 42.79ZM124.305 41.43V40.0967C122.672 40.0967 120.712 40.4858 118.462 41.199L118.865 42.47L119.268 43.741C121.392 43.0675 123.059 42.7633 124.305 42.7633V41.43ZM118.865 42.47L117.536 42.5723C117.693 44.6167 117.772 46.7158 117.772 48.87H119.105H120.439C120.439 46.6508 120.358 44.4833 120.195 42.3677L118.865 42.47ZM160.24 53.67H158.906V55.0033H160.24V53.67ZM174.56 53.67H175.893V52.3367H174.56V53.67ZM174.56 63.35V64.6833H175.893V63.35H174.56ZM160.24 63.35V62.0167H158.906V63.35H160.24ZM160.24 78.07H158.906V79.4033H160.24V78.07ZM179.36 78.07H180.693V76.7367H179.36V78.07ZM179.36 87.75V89.0833H180.693V87.75H179.36ZM149.2 87.75H147.866V89.0833H149.2V87.75ZM149.2 38.47L148.438 37.3755L147.866 37.7733V38.47H149.2ZM160.24 30.79V29.4567H159.822L159.478 29.6955L160.24 30.79ZM178.08 30.79H179.413V29.4567H178.08V30.79ZM178.08 40.55V41.8833H179.413V40.55H178.08ZM163.2 40.55V39.2167H162.778L162.433 39.4591L163.2 40.55ZM160.24 42.63L159.473 41.5391L158.906 41.9373V42.63H160.24ZM160.24 53.67V55.0033H174.56V53.67V52.3367H160.24V53.67ZM174.56 53.67H173.226V63.35H174.56H175.893V53.67H174.56ZM174.56 63.35V62.0167H160.24V63.35V64.6833H174.56V63.35ZM160.24 63.35H158.906V78.07H160.24H161.573V63.35H160.24ZM160.24 78.07V79.4033H179.36V78.07V76.7367H160.24V78.07ZM179.36 78.07H178.026V87.75H179.36H180.693V78.07H179.36ZM179.36 87.75V86.4167H149.2V87.75V89.0833H179.36V87.75ZM149.2 87.75H150.533V38.47H149.2H147.866V87.75H149.2ZM149.2 38.47L149.961 39.5645L161.001 31.8845L160.24 30.79L159.478 29.6955L148.438 37.3755L149.2 38.47ZM160.24 30.79V32.1233H178.08V30.79V29.4567H160.24V30.79ZM178.08 30.79H176.746V40.55H178.08H179.413V30.79H178.08ZM178.08 40.55V39.2167H163.2V40.55V41.8833H178.08V40.55ZM163.2 40.55L162.433 39.4591L159.473 41.5391L160.24 42.63L161.006 43.7209L163.966 41.6409L163.2 40.55ZM160.24 42.63H158.906V53.67H160.24H161.573V42.63H160.24ZM215.612 65.19L214.429 65.8051L214.45 65.846L214.474 65.8853L215.612 65.19ZM214.732 78.15L215.829 78.907L215.855 78.87L215.878 78.8314L214.732 78.15ZM207.932 84.63L208.755 85.679L208.765 85.6712L207.932 84.63ZM190.172 84.15L189.328 85.1826L189.337 85.1897L190.172 84.15ZM182.972 73.99L182.218 72.8898L181.434 73.4271L181.686 74.344L182.972 73.99ZM191.852 67.91L193.114 67.4803L192.548 65.8175L191.098 66.8098L191.852 67.91ZM195.932 74.79L196.924 73.8995V73.8995L195.932 74.79ZM202.332 77.19L202.985 78.3521L202.997 78.3458L203.008 78.3392L202.332 77.19ZM204.412 75.59L205.403 76.482L205.425 76.4569L205.447 76.4308L204.412 75.59ZM204.172 68.23L203.308 69.2459L203.431 69.3504L203.575 69.4226L204.172 68.23ZM197.932 64.63L197.344 65.8268L197.352 65.8307L197.932 64.63ZM189.452 59.83L188.707 60.9359L188.715 60.9412L188.723 60.9464L189.452 59.83ZM184.412 54.71L183.182 55.2256L183.189 55.2423L183.197 55.2588L184.412 54.71ZM185.132 41.35L184.034 40.593L184.009 40.63L183.986 40.6686L185.132 41.35ZM191.932 34.95L192.755 35.999L192.765 35.9912L191.932 34.95ZM209.692 35.43L208.848 36.4626L208.857 36.4697L209.692 35.43ZM216.892 45.51L217.652 46.6055L218.428 46.067L218.177 45.156L216.892 45.51ZM208.012 51.67L206.75 52.0997L207.319 53.7731L208.772 52.7655L208.012 51.67ZM203.932 44.79L202.928 45.668L202.934 45.6743L202.939 45.6805L203.932 44.79ZM197.452 42.31L196.828 41.1316V41.1316L197.452 42.31ZM195.212 44.15L194.163 43.3262L194.155 43.3371L195.212 44.15ZM196.012 51.27L196.89 50.2666L196.781 50.1714L196.654 50.1017L196.012 51.27ZM201.852 54.79L202.492 53.6207L202.483 53.6153L202.473 53.6101L201.852 54.79ZM215.612 65.19L214.474 65.8853C214.631 66.1425 214.817 66.6577 214.954 67.5514C215.087 68.4212 215.158 69.5485 215.158 70.95H216.492H217.825C217.825 69.4715 217.75 68.1988 217.59 67.1486C217.433 66.1223 217.179 65.1975 216.749 64.4947L215.612 65.19ZM216.492 70.95H215.158C215.158 73.592 214.611 75.7442 213.586 77.4686L214.732 78.15L215.878 78.8314C217.199 76.6092 217.825 73.9613 217.825 70.95H216.492ZM214.732 78.15L213.634 77.393C212.69 78.7623 210.564 80.8164 207.099 83.5888L207.932 84.63L208.765 85.6712C212.232 82.8969 214.64 80.631 215.829 78.907L214.732 78.15ZM207.932 84.63L207.109 83.581C205.409 84.9147 203.971 85.8832 202.786 86.5125C201.574 87.1566 200.753 87.3767 200.252 87.3767V88.71V90.0433C201.404 90.0433 202.69 89.5834 204.037 88.8675C205.413 88.1368 206.988 87.0653 208.755 85.679L207.932 84.63ZM200.252 88.71V87.3767C197.765 87.3767 194.699 86.0749 191.006 83.1103L190.172 84.15L189.337 85.1897C193.218 88.3051 196.872 90.0433 200.252 90.0433V88.71ZM190.172 84.15L191.015 83.1174C187.382 80.1498 185.179 76.9832 184.257 73.636L182.972 73.99L181.686 74.344C182.791 78.3568 185.388 81.9635 189.328 85.1826L190.172 84.15ZM182.972 73.99L183.725 75.0902L192.605 69.0102L191.852 67.91L191.098 66.8098L182.218 72.8898L182.972 73.99ZM191.852 67.91L190.59 68.3397C191.504 71.0259 192.959 73.4742 194.939 75.6805L195.932 74.79L196.924 73.8995C195.171 71.9458 193.906 69.8074 193.114 67.4803L191.852 67.91ZM195.932 74.79L194.939 75.6805C195.894 76.7443 196.744 77.5865 197.481 78.1732C197.85 78.4668 198.22 78.7198 198.584 78.9045C198.936 79.0826 199.373 79.2433 199.852 79.2433V77.91V76.5767C199.957 76.5767 199.951 76.6074 199.789 76.5255C199.64 76.4502 199.427 76.3132 199.142 76.0868C198.573 75.6335 197.836 74.9157 196.924 73.8995L195.932 74.79ZM199.852 77.91V79.2433C200.927 79.2433 201.977 78.9194 202.985 78.3521L202.332 77.19L201.678 76.0279C200.98 76.4206 200.377 76.5767 199.852 76.5767V77.91ZM202.332 77.19L203.008 78.3392C203.982 77.7659 204.8 77.152 205.403 76.482L204.412 75.59L203.421 74.698C203.064 75.0947 202.494 75.5475 201.656 76.0408L202.332 77.19ZM204.412 75.59L205.447 76.4308C206.423 75.2284 206.785 73.526 206.785 71.59H205.452H204.118C204.118 73.2806 203.787 74.2449 203.377 74.7492L204.412 75.59ZM205.452 71.59H206.785C206.785 69.7261 206.371 67.839 204.768 67.0374L204.172 68.23L203.575 69.4226C203.679 69.4743 204.118 69.8272 204.118 71.59H205.452ZM204.172 68.23L205.035 67.2141C203.824 66.1847 201.602 64.9211 198.511 63.4293L197.932 64.63L197.352 65.8307C200.448 67.3255 202.386 68.462 203.308 69.2459L204.172 68.23ZM197.932 64.63L198.52 63.4333C195.524 61.9618 192.745 60.3883 190.181 58.7136L189.452 59.83L188.723 60.9464C191.385 62.685 194.259 64.3115 197.344 65.8267L197.932 64.63ZM189.452 59.83L190.197 58.7241C187.656 57.0131 186.221 55.4775 185.627 54.1612L184.412 54.71L183.197 55.2588C184.095 57.2492 186.021 59.1269 188.707 60.9359L189.452 59.83ZM184.412 54.71L185.641 54.1944C185.04 52.7611 184.705 50.8205 184.705 48.31H183.372H182.038C182.038 51.0262 182.396 53.3522 183.182 55.2256L184.412 54.71ZM183.372 48.31H184.705C184.705 45.8439 185.246 43.7673 186.278 42.0314L185.132 41.35L183.986 40.6686C182.671 42.8794 182.038 45.4427 182.038 48.31H183.372ZM185.132 41.35L186.229 42.107C187.17 40.7431 189.29 38.7174 192.755 35.999L191.932 34.95L191.109 33.901C187.64 36.6226 185.227 38.8635 184.034 40.593L185.132 41.35ZM191.932 34.95L192.765 35.9912C194.465 34.6312 195.903 33.6438 197.087 33.0024C198.3 32.3454 199.117 32.1233 199.612 32.1233V30.79V29.4567C198.453 29.4567 197.164 29.9279 195.817 30.6576C194.441 31.4029 192.865 32.4955 191.099 33.9088L191.932 34.95ZM199.612 30.79V32.1233C202.091 32.1233 205.154 33.4445 208.848 36.4626L209.692 35.43L210.535 34.3974C206.656 31.2288 202.999 29.4567 199.612 29.4567V30.79ZM209.692 35.43L208.857 36.4697C212.485 39.3822 214.685 42.5198 215.606 45.864L216.892 45.51L218.177 45.156C217.071 41.1402 214.472 37.5578 210.526 34.3903L209.692 35.43ZM216.892 45.51L216.132 44.4145L207.252 50.5745L208.012 51.67L208.772 52.7655L217.652 46.6055L216.892 45.51ZM208.012 51.67L209.274 51.2403C208.359 48.5541 206.904 46.1058 204.924 43.8995L203.932 44.79L202.939 45.6805C204.693 47.6342 205.957 49.7726 206.75 52.0997L208.012 51.67ZM203.932 44.79L204.935 43.912C203.979 42.8193 203.12 41.9529 202.365 41.3488C201.987 41.0464 201.606 40.7865 201.228 40.5974C200.86 40.4132 200.415 40.2567 199.932 40.2567V41.59V42.9233C199.848 42.9233 199.871 42.9001 200.035 42.9826C200.191 43.0602 200.41 43.2003 200.699 43.4312C201.277 43.8937 202.018 44.6274 202.928 45.668L203.932 44.79ZM199.932 41.59V40.2567C198.902 40.2567 197.858 40.586 196.828 41.1316L197.452 42.31L198.076 43.4884C198.858 43.074 199.468 42.9233 199.932 42.9233V41.59ZM197.452 42.31L196.828 41.1316C195.77 41.6917 194.874 42.4215 194.163 43.3262L195.212 44.15L196.26 44.9738C196.723 44.3852 197.32 43.8883 198.076 43.4884L197.452 42.31ZM195.212 44.15L194.155 43.3371C193.334 44.4042 193.078 46.0249 193.078 47.83H194.412H195.745C195.745 46.1151 196.023 45.2825 196.269 44.9629L195.212 44.15ZM194.412 47.83H193.078C193.078 49.8026 193.713 51.5275 195.369 52.4383L196.012 51.27L196.654 50.1017C196.177 49.8392 195.745 49.2707 195.745 47.83H194.412ZM196.012 51.27L195.134 52.2734C196.125 53.141 198.216 54.3831 201.231 55.9699L201.852 54.79L202.473 53.6101C199.408 51.9969 197.605 50.8923 196.89 50.2666L196.012 51.27ZM201.852 54.79L201.211 55.9593C205.074 58.0763 208.106 59.9745 210.328 61.6537C212.582 63.3572 213.877 64.7439 214.429 65.8051L215.612 65.19L216.795 64.5749C215.96 62.9694 214.268 61.2894 211.936 59.5263C209.571 57.7388 206.416 55.7704 202.492 53.6207L201.852 54.79ZM222.961 87.75H221.628V89.0833H222.961V87.75ZM222.961 31.75V30.4167H221.628V31.75H222.961ZM234.001 31.75H235.334V30.4167H234.001V31.75ZM234.001 87.75V89.0833H235.334V87.75H234.001ZM222.961 87.75H224.294V31.75H222.961H221.628V87.75H222.961ZM222.961 31.75V33.0833H234.001V31.75V30.4167H222.961V31.75ZM234.001 31.75H232.668V87.75H234.001H235.334V31.75H234.001ZM234.001 87.75V86.4167H222.961V87.75V89.0833H234.001V87.75ZM252.801 34.95L251.583 35.4915L252.279 37.0587L253.626 35.9973L252.801 34.95ZM269.201 36.07L268.293 37.0466L268.3 37.0532L268.308 37.0597L269.201 36.07ZM276.321 44.55L275.089 45.0607L275.093 45.0695L276.321 44.55ZM276.321 74.95L277.532 75.5087L277.541 75.4893L277.549 75.4695L276.321 74.95ZM269.361 82.95L270.236 83.9562L270.244 83.9489L269.361 82.95ZM244.081 87.75H242.748V89.0833H244.081V87.75ZM243.121 44.39L241.856 44.8116L241.862 44.8287L241.868 44.8457L243.121 44.39ZM239.281 38.15L238.519 37.0561L237.334 37.8816L238.251 38.9968L239.281 38.15ZM249.841 30.79L250.649 29.7294L249.876 29.1404L249.079 29.6961L249.841 30.79ZM254.881 43.75L254.342 42.5304L253.418 42.9386L253.561 43.9386L254.881 43.75ZM255.121 78.07H253.788V79.4033H255.121V78.07ZM263.281 76.47L262.316 75.5505L262.314 75.5517L263.281 76.47ZM265.521 73.35L266.74 73.8915L266.745 73.8795L266.75 73.8674L265.521 73.35ZM265.521 47.03L264.292 47.5474L264.297 47.5595L264.303 47.5715L265.521 47.03ZM263.281 43.91L262.292 44.8045L262.315 44.8293L262.338 44.8528L263.281 43.91ZM252.801 34.95L253.626 35.9973C255.349 34.6398 256.823 33.654 258.056 33.013C259.31 32.3611 260.205 32.1233 260.801 32.1233V30.79V29.4567C259.583 29.4567 258.239 29.9122 256.826 30.647C255.392 31.3927 253.773 32.4868 251.976 33.9027L252.801 34.95ZM260.801 30.79V32.1233C261.324 32.1233 262.214 32.398 263.552 33.2388C264.853 34.0569 266.431 35.3155 268.293 37.0466L269.201 36.07L270.109 35.0934C268.184 33.3045 266.469 31.9231 264.971 30.9811C263.508 30.062 262.091 29.4567 260.801 29.4567V30.79ZM269.201 36.07L268.308 37.0597C272.135 40.5148 274.306 43.1714 275.089 45.0607L276.321 44.55L277.553 44.0393C276.523 41.5553 273.947 38.5585 270.095 35.0803L269.201 36.07ZM276.321 44.55L275.093 45.0695C275.296 45.5487 275.506 46.5786 275.652 48.3216C275.795 50.016 275.868 52.2481 275.868 55.03H277.201H278.534C278.534 52.2119 278.461 49.8973 278.31 48.0984C278.163 46.3481 277.933 44.938 277.549 44.0305L276.321 44.55ZM277.201 55.03H275.868V64.47H277.201H278.534V55.03H277.201ZM277.201 64.47H275.868C275.868 67.2519 275.795 69.484 275.652 71.1784C275.506 72.9214 275.296 73.9513 275.093 74.4305L276.321 74.95L277.549 75.4695C277.933 74.562 278.163 73.1519 278.31 71.4016C278.461 69.6027 278.534 67.2881 278.534 64.47H277.201ZM276.321 74.95L275.11 74.3913C274.275 76.2004 272.142 78.7117 268.478 81.9511L269.361 82.95L270.244 83.9489C273.94 80.6816 276.447 77.8596 277.532 75.5087L276.321 74.95ZM269.361 82.95L268.486 81.9439C266.688 83.5079 265.12 84.6434 263.778 85.3819C262.422 86.1282 261.392 86.4167 260.641 86.4167V87.75V89.0833C262.024 89.0833 263.513 88.5718 265.064 87.7181C266.629 86.8566 268.355 85.5921 270.236 83.9561L269.361 82.95ZM260.641 87.75V86.4167H244.081V87.75V89.0833H260.641V87.75ZM244.081 87.75H245.414V53.51H244.081H242.748V87.75H244.081ZM244.081 53.51H245.414C245.414 49.1847 245.102 45.935 244.374 43.9343L243.121 44.39L241.868 44.8457C242.421 46.365 242.748 49.1953 242.748 53.51H244.081ZM243.121 44.39L244.386 43.9684C243.724 41.9834 242.328 39.7559 240.311 37.3032L239.281 38.15L238.251 38.9968C240.181 41.3441 241.344 43.2765 241.856 44.8116L243.121 44.39ZM239.281 38.15L240.043 39.2439L250.603 31.8839L249.841 30.79L249.079 29.6961L238.519 37.0561L239.281 38.15ZM249.841 30.79L249.033 31.8506C249.908 32.5175 250.779 33.6832 251.583 35.4915L252.801 34.95L254.02 34.4085C253.117 32.3768 252.014 30.7692 250.649 29.7294L249.841 30.79ZM260.641 42.23V40.8967C258.829 40.8967 256.712 41.4831 254.342 42.5304L254.881 43.75L255.42 44.9696C257.636 43.9902 259.36 43.5633 260.641 43.5633V42.23ZM254.881 43.75L253.561 43.9386C253.707 44.9608 253.788 46.5895 253.788 48.87H255.121H256.454C256.454 46.5638 256.375 44.7792 256.201 43.5614L254.881 43.75ZM255.121 48.87H253.788V78.07H255.121H256.454V48.87H255.121ZM255.121 78.07V79.4033H260.641V78.07V76.7367H255.121V78.07ZM260.641 78.07V79.4033C261.978 79.4033 263.198 78.4935 264.248 77.3883L263.281 76.47L262.314 75.5517C261.338 76.5799 260.797 76.7367 260.641 76.7367V78.07ZM263.281 76.47L264.247 77.3895C265.374 76.2062 266.229 75.0404 266.74 73.8915L265.521 73.35L264.303 72.8085C263.96 73.5796 263.322 74.4938 262.316 75.5505L263.281 76.47ZM265.521 73.35L266.75 73.8674C267.056 73.1408 267.224 72.0166 267.33 70.6753C267.441 69.279 267.494 67.4732 267.494 65.27H266.161H264.828C264.828 67.4401 264.775 69.1677 264.672 70.4647C264.565 71.8168 264.413 72.5458 264.292 72.8326L265.521 73.35ZM266.161 65.27H267.494V55.03H266.161H264.828V65.27H266.161ZM266.161 55.03H267.494C267.494 52.827 267.441 51.0274 267.33 49.6437C267.224 48.3227 267.057 47.202 266.74 46.4885L265.521 47.03L264.303 47.5715C264.412 47.818 264.564 48.5106 264.672 49.8563C264.775 51.1393 264.828 52.8596 264.828 55.03H266.161ZM265.521 47.03L266.75 46.5126C266.236 45.293 265.37 44.1134 264.224 42.9672L263.281 43.91L262.338 44.8528C263.325 45.8399 263.952 46.7403 264.292 47.5474L265.521 47.03ZM263.281 43.91L264.27 43.0154C263.23 41.8663 262.005 40.8967 260.641 40.8967V42.23V43.5633C260.771 43.5633 261.305 43.7137 262.292 44.8045L263.281 43.91ZM296.255 53.67H294.922V55.0033H296.255V53.67ZM310.575 53.67H311.909V52.3367H310.575V53.67ZM310.575 63.35V64.6833H311.909V63.35H310.575ZM296.255 63.35V62.0167H294.922V63.35H296.255ZM296.255 78.07H294.922V79.4033H296.255V78.07ZM315.375 78.07H316.709V76.7367H315.375V78.07ZM315.375 87.75V89.0833H316.709V87.75H315.375ZM285.215 87.75H283.882V89.0833H285.215V87.75ZM285.215 38.47L284.454 37.3755L283.882 37.7733V38.47H285.215ZM296.255 30.79V29.4567H295.837L295.494 29.6955L296.255 30.79ZM314.095 30.79H315.429V29.4567H314.095V30.79ZM314.095 40.55V41.8833H315.429V40.55H314.095ZM299.215 40.55V39.2167H298.794L298.449 39.4591L299.215 40.55ZM296.255 42.63L295.489 41.5391L294.922 41.9373V42.63H296.255ZM296.255 53.67V55.0033H310.575V53.67V52.3367H296.255V53.67ZM310.575 53.67H309.242V63.35H310.575H311.909V53.67H310.575ZM310.575 63.35V62.0167H296.255V63.35V64.6833H310.575V63.35ZM296.255 63.35H294.922V78.07H296.255H297.589V63.35H296.255ZM296.255 78.07V79.4033H315.375V78.07V76.7367H296.255V78.07ZM315.375 78.07H314.042V87.75H315.375H316.709V78.07H315.375ZM315.375 87.75V86.4167H285.215V87.75V89.0833H315.375V87.75ZM285.215 87.75H286.549V38.47H285.215H283.882V87.75H285.215ZM285.215 38.47L285.977 39.5645L297.017 31.8845L296.255 30.79L295.494 29.6955L284.454 37.3755L285.215 38.47ZM296.255 30.79V32.1233H314.095V30.79V29.4567H296.255V30.79ZM314.095 30.79H312.762V40.55H314.095H315.429V30.79H314.095ZM314.095 40.55V39.2167H299.215V40.55V41.8833H314.095V40.55ZM299.215 40.55L298.449 39.4591L295.489 41.5391L296.255 42.63L297.022 43.7209L299.982 41.6409L299.215 40.55ZM296.255 42.63H294.922V53.67H296.255H297.589V42.63H296.255ZM333.947 45.43L332.793 44.7619L332.606 45.0863L332.614 45.461L333.947 45.43ZM334.027 48.87H335.361V48.8545L335.36 48.839L334.027 48.87ZM334.027 87.75V89.0833H335.361V87.75H334.027ZM322.987 87.75H321.654V89.0833H322.987V87.75ZM322.027 44.07L320.759 44.4804L320.764 44.4972L320.77 44.5138L322.027 44.07ZM318.187 37.51L317.423 36.4177L316.279 37.2183L317.131 38.324L318.187 37.51ZM327.787 30.79L328.518 29.6747L327.763 29.1798L327.023 29.6977L327.787 30.79ZM332.107 35.99L330.936 36.6267L331.707 38.0459L332.954 37.0196L332.107 35.99ZM347.707 35.03L346.825 36.0293L346.833 36.0371L346.842 36.0447L347.707 35.03ZM353.787 40.95L352.686 41.7011L352.694 41.7131L352.702 41.725L353.787 40.95ZM354.987 87.75V89.0833H356.321V87.75H354.987ZM343.867 87.75H342.534V89.0833H343.867V87.75ZM343.227 45.27L342.035 45.8663L342.061 45.9188L342.092 45.9688L343.227 45.27ZM341.387 42.79L340.388 43.6722L340.402 43.6882L340.416 43.7038L341.387 42.79ZM336.427 42.71L337.227 43.7767L337.244 43.7642L337.26 43.7512L336.427 42.71ZM333.947 45.43L332.614 45.461L332.694 48.901L334.027 48.87L335.36 48.839L335.28 45.399L333.947 45.43ZM334.027 48.87H332.694V87.75H334.027H335.361V48.87H334.027ZM334.027 87.75V86.4167H322.987V87.75V89.0833H334.027V87.75ZM322.987 87.75H324.321V53.51H322.987H321.654V87.75H322.987ZM322.987 53.51H324.321C324.321 49.0265 324.008 45.675 323.285 43.6262L322.027 44.07L320.77 44.5138C321.327 46.0916 321.654 49.0335 321.654 53.51H322.987ZM322.027 44.07L323.296 43.6596C322.64 41.6335 321.255 39.3051 319.243 36.696L318.187 37.51L317.131 38.324C319.067 40.8349 320.241 42.8798 320.759 44.4804L322.027 44.07ZM318.187 37.51L318.952 38.6023L328.552 31.8823L327.787 30.79L327.023 29.6977L317.423 36.4177L318.187 37.51ZM327.787 30.79L327.057 31.9053C328.349 32.7518 329.658 34.2762 330.936 36.6267L332.107 35.99L333.279 35.3533C331.89 32.7971 330.319 30.8548 328.518 29.6747L327.787 30.79ZM332.107 35.99L332.954 37.0196C335.039 35.3047 336.75 34.0493 338.1 33.2295C339.517 32.3684 340.324 32.1233 340.667 32.1233V30.79V29.4567C339.518 29.4567 338.151 30.0783 336.715 30.9505C335.211 31.864 333.389 33.2086 331.26 34.9604L332.107 35.99ZM340.667 30.79V32.1233C341.043 32.1233 341.746 32.3216 342.859 32.9922C343.937 33.6409 345.256 34.6434 346.825 36.0293L347.707 35.03L348.59 34.0307C346.959 32.59 345.505 31.4724 344.235 30.7078C343.002 29.9651 341.785 29.4567 340.667 29.4567V30.79ZM347.707 35.03L346.842 36.0447C350.12 38.8386 352.003 40.7002 352.686 41.7011L353.787 40.95L354.889 40.1989C353.971 38.8531 351.801 36.7681 348.572 34.0153L347.707 35.03ZM353.787 40.95L352.702 41.725C353.292 42.5509 353.654 43.7441 353.654 45.43H354.987H356.321C356.321 43.3826 355.882 41.5891 354.872 40.175L353.787 40.95ZM354.987 45.43H353.654V87.75H354.987H356.321V45.43H354.987ZM354.987 87.75V86.4167H343.867V87.75V89.0833H354.987V87.75ZM343.867 87.75H345.201V47.03H343.867H342.534V87.75H343.867ZM343.867 47.03H345.201C345.201 46.186 344.839 45.3452 344.363 44.5712L343.227 45.27L342.092 45.9688C342.469 46.5814 342.534 46.914 342.534 47.03H343.867ZM343.227 45.27L344.42 44.6737C343.968 43.7691 343.261 42.8357 342.358 41.8762L341.387 42.79L340.416 43.7038C341.22 44.5576 341.74 45.2776 342.035 45.8663L343.227 45.27ZM341.387 42.79L342.387 41.9078C341.487 40.8878 340.379 40.0967 339.067 40.0967V41.43V42.7633C339.249 42.7633 339.688 42.8789 340.388 43.6722L341.387 42.79ZM339.067 41.43V40.0967C337.892 40.0967 336.703 40.7822 335.594 41.6688L336.427 42.71L337.26 43.7512C338.285 42.9312 338.856 42.7633 339.067 42.7633V41.43ZM336.427 42.71L335.627 41.6433C334.437 42.5362 333.482 43.5732 332.793 44.7619L333.947 45.43L335.101 46.098C335.586 45.2602 336.284 44.4838 337.227 43.7767L336.427 42.71ZM391.75 31.75H393.083V30.4167H391.75V31.75ZM391.75 41.35V42.6833H393.083V41.35H391.75ZM381.35 41.35V40.0167H380.017V41.35H381.35ZM381.35 87.75V89.0833H382.683V87.75H381.35ZM370.31 87.75H368.977V89.0833H370.31V87.75ZM370.31 41.35H371.643V40.0167H370.31V41.35ZM359.91 41.35H358.577V42.6833H359.91V41.35ZM359.91 31.75V30.4167H358.577V31.75H359.91ZM391.75 31.75H390.417V41.35H391.75H393.083V31.75H391.75ZM391.75 41.35V40.0167H381.35V41.35V42.6833H391.75V41.35ZM381.35 41.35H380.017V87.75H381.35H382.683V41.35H381.35ZM381.35 87.75V86.4167H370.31V87.75V89.0833H381.35V87.75ZM370.31 87.75H371.643V41.35H370.31H368.977V87.75H370.31ZM370.31 41.35V40.0167H359.91V41.35V42.6833H370.31V41.35ZM359.91 41.35H361.243V31.75H359.91H358.577V41.35H359.91ZM359.91 31.75V33.0833H391.75V31.75V30.4167H359.91V31.75Z" fill="#865849" mask="url(#path-2-inside-1_13_19382)"/>
</svg>
