<svg width="455" height="122" viewBox="0 0 455 122" fill="none" xmlns="http://www.w3.org/2000/svg">
<path d="M6.03125 6.00684C6.35571 2.75968 8.87928 0 12.2471 0H442.758C446.125 0.000265977 448.65 2.75974 448.975 6.00684C448.898 6.00396 448.821 6 448.744 6H445.44C445.149 4.46808 443.945 3.50026 442.758 3.5H12.2471C11.0594 3.5 9.85205 4.46751 9.56055 6H6.25977C6.18313 6 6.10701 6.00401 6.03125 6.00684ZM9.56055 115.5C9.51742 115.273 9.49414 115.034 9.49414 114.784V6.71582C9.49414 6.46568 9.51742 6.22671 9.56055 6H445.44C445.473 6.17202 445.498 6.35044 445.507 6.53613L445.511 6.71582V114.784C445.511 115.034 445.487 115.273 445.444 115.5H9.56055ZM448.975 115.494C448.998 115.26 449.011 115.023 449.011 114.784V6.71582L449.003 6.38477C448.997 6.25814 448.987 6.13214 448.975 6.00684C452.462 6.13789 455.004 9.22831 455.004 12.6943V108.806C455.004 112.272 452.462 115.363 448.975 115.494ZM6.03125 115.494C2.54303 115.364 0.000156427 112.272 0 108.806V12.6943C0.000152932 9.22767 2.54305 6.13679 6.03125 6.00684C6.00785 6.24098 5.99414 6.47746 5.99414 6.71582V114.784C5.99414 115.023 6.00779 115.26 6.03125 115.494ZM12.2471 121.5C8.87962 121.5 6.35612 118.741 6.03125 115.494C6.107 115.497 6.18314 115.5 6.25977 115.5H9.56055C9.85205 117.032 11.0594 118 12.2471 118H442.758C443.945 118 445.153 117.032 445.444 115.5H448.744C448.821 115.5 448.898 115.497 448.975 115.494C448.65 118.741 446.125 121.5 442.758 121.5H12.2471Z" fill="#865849"/>
<mask id="path-2-inside-1_13_19388" fill="white">
<path d="M38.7117 63.51V55.99C38.7117 49.3233 39.245 45.0567 40.3117 43.19C41.3783 41.3233 43.645 38.79 47.1117 35.59C50.6317 32.39 53.245 30.79 54.9517 30.79C57.885 30.79 61.245 32.4967 65.0317 35.91C68.8183 39.27 71.2183 42.9767 72.2317 47.03L63.3517 53.19C62.4983 50.31 61.1383 47.67 59.2717 45.27C57.405 42.8167 56.0983 41.59 55.3517 41.59C54.0183 41.59 52.4983 42.8967 50.7917 45.51C50.0983 46.5233 49.7517 50.0167 49.7517 55.99V63.51C49.7517 69.6433 50.0983 73.1367 50.7917 73.99C52.4983 76.6033 54.0183 77.91 55.3517 77.91C56.0983 77.91 57.405 76.87 59.2717 74.79C61.1383 72.6567 62.4983 70.31 63.3517 67.75L72.2317 73.99C71.2183 77.67 68.8183 81.0567 65.0317 84.15C61.245 87.19 57.885 88.71 54.9517 88.71C53.245 88.71 50.6317 87.11 47.1117 83.91C43.645 80.71 41.3783 78.1767 40.3117 76.31C39.245 74.4433 38.7117 70.1767 38.7117 63.51ZM102.673 87.75V62.15H91.6329V87.75H80.5929V53.51C80.5929 48.9767 80.2729 45.83 79.6329 44.07C79.0463 42.2567 77.7663 40.07 75.7929 37.51L85.3929 30.79C87.0996 31.91 88.5663 33.99 89.7929 37.03C91.0196 40.0167 91.6329 43.6433 91.6329 47.91V52.55H102.673V31.75H113.713V87.75H102.673ZM129.647 35.99C133.434 32.5233 136.314 30.79 138.287 30.79C140.261 30.79 143.141 32.5233 146.927 35.99C150.714 39.4567 153.061 42.31 153.967 44.55C154.554 46.0967 154.847 49.59 154.847 55.03V87.75H143.807V75.75H132.767V87.75H121.727V55.03C121.727 49.59 122.021 46.0967 122.607 44.55C123.514 42.31 125.861 39.4567 129.647 35.99ZM132.767 55.03V66.15H143.807V55.03C143.807 50.6567 143.594 47.99 143.167 47.03C142.741 46.0167 141.994 44.9767 140.927 43.91C139.914 42.79 139.034 42.23 138.287 42.23C137.541 42.23 136.634 42.79 135.567 43.91C134.554 44.9767 133.834 46.0167 133.407 47.03C132.981 47.99 132.767 50.6567 132.767 55.03ZM175.381 45.43L175.461 48.87V87.75H164.421V53.51C164.421 49.03 164.101 45.8833 163.461 44.07C162.874 42.2567 161.594 40.07 159.621 37.51L169.221 30.79C170.768 31.8033 172.208 33.5367 173.541 35.99C177.754 32.5233 180.608 30.79 182.101 30.79C183.594 30.79 185.941 32.2033 189.141 35.03C192.394 37.8033 194.421 39.7767 195.221 40.95C196.021 42.07 196.421 43.5633 196.421 45.43V87.75H185.301V47.03C185.301 46.55 185.088 45.9633 184.661 45.27C184.288 44.5233 183.674 43.6967 182.821 42.79C182.021 41.8833 181.248 41.43 180.501 41.43C179.808 41.43 178.928 41.8567 177.861 42.71C176.794 43.51 175.968 44.4167 175.381 45.43ZM202.384 63.51V55.99C202.384 49.3233 202.917 45.0567 203.984 43.19C205.05 41.3233 207.317 38.79 210.784 35.59C214.304 32.39 216.917 30.79 218.624 30.79C221.557 30.79 224.917 32.4967 228.704 35.91C232.49 39.27 234.89 42.9767 235.904 47.03L227.024 53.19C226.17 50.31 224.81 47.67 222.944 45.27C221.077 42.8167 219.77 41.59 219.024 41.59C217.69 41.59 216.17 42.8967 214.464 45.51C213.77 46.5233 213.424 50.0167 213.424 55.99V63.51C213.424 69.6433 213.77 73.1367 214.464 73.99C216.17 76.6033 217.69 77.91 219.024 77.91C219.77 77.91 221.077 76.87 222.944 74.79C224.81 72.6567 226.17 70.31 227.024 67.75L235.904 73.99C234.89 77.67 232.49 81.0567 228.704 84.15C224.917 87.19 221.557 88.71 218.624 88.71C216.917 88.71 214.304 87.11 210.784 83.91C207.317 80.71 205.05 78.1767 203.984 76.31C202.917 74.4433 202.384 70.1767 202.384 63.51ZM253.705 53.67H268.025V63.35H253.705V78.07H272.825V87.75H242.665V38.47L253.705 30.79H271.545V40.55H256.665L253.705 42.63V53.67ZM305.237 78.15V87.75H276.037V31.75H287.077V78.15H305.237ZM336.409 78.15V87.75H307.209V31.75H318.249V78.15H336.409ZM364.3 83.51C360.514 86.9767 357.66 88.71 355.74 88.71C353.82 88.71 350.94 86.9767 347.1 83.51C343.314 79.99 340.967 77.1367 340.06 74.95C339.474 73.5633 339.18 70.07 339.18 64.47V55.03C339.18 49.43 339.474 45.9367 340.06 44.55C340.967 42.3633 343.314 39.5367 347.1 36.07C350.94 32.55 353.82 30.79 355.74 30.79C357.66 30.79 360.514 32.55 364.3 36.07C368.14 39.5367 370.514 42.3633 371.42 44.55C372.007 45.9367 372.3 49.43 372.3 55.03V64.47C372.3 70.07 372.007 73.5633 371.42 74.95C370.514 77.1367 368.14 79.99 364.3 83.51ZM353.02 75.67C354.087 76.7367 354.994 77.27 355.74 77.27C356.487 77.27 357.367 76.7367 358.38 75.67C359.447 74.55 360.194 73.51 360.62 72.55C361.047 71.5367 361.26 68.8433 361.26 64.47V55.03C361.26 50.6567 361.047 47.99 360.62 47.03C360.194 46.0167 359.447 44.9767 358.38 43.91C357.367 42.79 356.487 42.23 355.74 42.23C354.994 42.23 354.087 42.79 353.02 43.91C352.007 44.9767 351.287 46.0167 350.86 47.03C350.434 47.99 350.22 50.6567 350.22 55.03V64.47C350.22 68.8433 350.434 71.5367 350.86 72.55C351.287 73.51 352.007 74.55 353.02 75.67ZM388.69 35.19C392.956 32.2567 395.863 30.79 397.41 30.79C398.956 30.79 401.33 32.2033 404.53 35.03C407.783 37.8033 409.81 39.7767 410.61 40.95C411.41 42.07 411.81 43.5633 411.81 45.43C411.81 49.0567 411.516 51.2167 410.93 51.91C409.81 53.6167 408.076 55.6167 405.73 57.91C408.983 61.0033 411.01 63.3767 411.81 65.03C412.236 66.15 412.69 69.5633 413.17 75.27C413.65 80.9233 413.89 85.0833 413.89 87.75H401.89C401.89 85.35 401.676 81.59 401.25 76.47C400.823 71.35 400.343 68.2567 399.81 67.19C399.33 66.1233 398.743 65.19 398.05 64.39H390.93V87.75H379.89V52.71C379.89 48.39 379.57 45.4033 378.93 43.75C378.343 42.0433 377.063 39.9633 375.09 37.51L384.69 30.79C386.396 31.91 387.73 33.3767 388.69 35.19ZM390.93 48.87V55.03H394.05C394.796 55.03 395.756 54.4433 396.93 53.27C398.103 52.0967 398.85 51.11 399.17 50.31C399.543 49.4567 399.73 48.5767 399.73 47.67C399.73 46.7633 399.543 45.9633 399.17 45.27C398.85 44.5233 398.37 43.6967 397.73 42.79C397.09 41.8833 396.556 41.43 396.13 41.43C394.69 41.43 392.876 41.7767 390.69 42.47C390.85 44.55 390.93 46.6833 390.93 48.87Z"/>
</mask>
<path d="M38.7117 63.51V55.99C38.7117 49.3233 39.245 45.0567 40.3117 43.19C41.3783 41.3233 43.645 38.79 47.1117 35.59C50.6317 32.39 53.245 30.79 54.9517 30.79C57.885 30.79 61.245 32.4967 65.0317 35.91C68.8183 39.27 71.2183 42.9767 72.2317 47.03L63.3517 53.19C62.4983 50.31 61.1383 47.67 59.2717 45.27C57.405 42.8167 56.0983 41.59 55.3517 41.59C54.0183 41.59 52.4983 42.8967 50.7917 45.51C50.0983 46.5233 49.7517 50.0167 49.7517 55.99V63.51C49.7517 69.6433 50.0983 73.1367 50.7917 73.99C52.4983 76.6033 54.0183 77.91 55.3517 77.91C56.0983 77.91 57.405 76.87 59.2717 74.79C61.1383 72.6567 62.4983 70.31 63.3517 67.75L72.2317 73.99C71.2183 77.67 68.8183 81.0567 65.0317 84.15C61.245 87.19 57.885 88.71 54.9517 88.71C53.245 88.71 50.6317 87.11 47.1117 83.91C43.645 80.71 41.3783 78.1767 40.3117 76.31C39.245 74.4433 38.7117 70.1767 38.7117 63.51ZM102.673 87.75V62.15H91.6329V87.75H80.5929V53.51C80.5929 48.9767 80.2729 45.83 79.6329 44.07C79.0463 42.2567 77.7663 40.07 75.7929 37.51L85.3929 30.79C87.0996 31.91 88.5663 33.99 89.7929 37.03C91.0196 40.0167 91.6329 43.6433 91.6329 47.91V52.55H102.673V31.75H113.713V87.75H102.673ZM129.647 35.99C133.434 32.5233 136.314 30.79 138.287 30.79C140.261 30.79 143.141 32.5233 146.927 35.99C150.714 39.4567 153.061 42.31 153.967 44.55C154.554 46.0967 154.847 49.59 154.847 55.03V87.75H143.807V75.75H132.767V87.75H121.727V55.03C121.727 49.59 122.021 46.0967 122.607 44.55C123.514 42.31 125.861 39.4567 129.647 35.99ZM132.767 55.03V66.15H143.807V55.03C143.807 50.6567 143.594 47.99 143.167 47.03C142.741 46.0167 141.994 44.9767 140.927 43.91C139.914 42.79 139.034 42.23 138.287 42.23C137.541 42.23 136.634 42.79 135.567 43.91C134.554 44.9767 133.834 46.0167 133.407 47.03C132.981 47.99 132.767 50.6567 132.767 55.03ZM175.381 45.43L175.461 48.87V87.75H164.421V53.51C164.421 49.03 164.101 45.8833 163.461 44.07C162.874 42.2567 161.594 40.07 159.621 37.51L169.221 30.79C170.768 31.8033 172.208 33.5367 173.541 35.99C177.754 32.5233 180.608 30.79 182.101 30.79C183.594 30.79 185.941 32.2033 189.141 35.03C192.394 37.8033 194.421 39.7767 195.221 40.95C196.021 42.07 196.421 43.5633 196.421 45.43V87.75H185.301V47.03C185.301 46.55 185.088 45.9633 184.661 45.27C184.288 44.5233 183.674 43.6967 182.821 42.79C182.021 41.8833 181.248 41.43 180.501 41.43C179.808 41.43 178.928 41.8567 177.861 42.71C176.794 43.51 175.968 44.4167 175.381 45.43ZM202.384 63.51V55.99C202.384 49.3233 202.917 45.0567 203.984 43.19C205.05 41.3233 207.317 38.79 210.784 35.59C214.304 32.39 216.917 30.79 218.624 30.79C221.557 30.79 224.917 32.4967 228.704 35.91C232.49 39.27 234.89 42.9767 235.904 47.03L227.024 53.19C226.17 50.31 224.81 47.67 222.944 45.27C221.077 42.8167 219.77 41.59 219.024 41.59C217.69 41.59 216.17 42.8967 214.464 45.51C213.77 46.5233 213.424 50.0167 213.424 55.99V63.51C213.424 69.6433 213.77 73.1367 214.464 73.99C216.17 76.6033 217.69 77.91 219.024 77.91C219.77 77.91 221.077 76.87 222.944 74.79C224.81 72.6567 226.17 70.31 227.024 67.75L235.904 73.99C234.89 77.67 232.49 81.0567 228.704 84.15C224.917 87.19 221.557 88.71 218.624 88.71C216.917 88.71 214.304 87.11 210.784 83.91C207.317 80.71 205.05 78.1767 203.984 76.31C202.917 74.4433 202.384 70.1767 202.384 63.51ZM253.705 53.67H268.025V63.35H253.705V78.07H272.825V87.75H242.665V38.47L253.705 30.79H271.545V40.55H256.665L253.705 42.63V53.67ZM305.237 78.15V87.75H276.037V31.75H287.077V78.15H305.237ZM336.409 78.15V87.75H307.209V31.75H318.249V78.15H336.409ZM364.3 83.51C360.514 86.9767 357.66 88.71 355.74 88.71C353.82 88.71 350.94 86.9767 347.1 83.51C343.314 79.99 340.967 77.1367 340.06 74.95C339.474 73.5633 339.18 70.07 339.18 64.47V55.03C339.18 49.43 339.474 45.9367 340.06 44.55C340.967 42.3633 343.314 39.5367 347.1 36.07C350.94 32.55 353.82 30.79 355.74 30.79C357.66 30.79 360.514 32.55 364.3 36.07C368.14 39.5367 370.514 42.3633 371.42 44.55C372.007 45.9367 372.3 49.43 372.3 55.03V64.47C372.3 70.07 372.007 73.5633 371.42 74.95C370.514 77.1367 368.14 79.99 364.3 83.51ZM353.02 75.67C354.087 76.7367 354.994 77.27 355.74 77.27C356.487 77.27 357.367 76.7367 358.38 75.67C359.447 74.55 360.194 73.51 360.62 72.55C361.047 71.5367 361.26 68.8433 361.26 64.47V55.03C361.26 50.6567 361.047 47.99 360.62 47.03C360.194 46.0167 359.447 44.9767 358.38 43.91C357.367 42.79 356.487 42.23 355.74 42.23C354.994 42.23 354.087 42.79 353.02 43.91C352.007 44.9767 351.287 46.0167 350.86 47.03C350.434 47.99 350.22 50.6567 350.22 55.03V64.47C350.22 68.8433 350.434 71.5367 350.86 72.55C351.287 73.51 352.007 74.55 353.02 75.67ZM388.69 35.19C392.956 32.2567 395.863 30.79 397.41 30.79C398.956 30.79 401.33 32.2033 404.53 35.03C407.783 37.8033 409.81 39.7767 410.61 40.95C411.41 42.07 411.81 43.5633 411.81 45.43C411.81 49.0567 411.516 51.2167 410.93 51.91C409.81 53.6167 408.076 55.6167 405.73 57.91C408.983 61.0033 411.01 63.3767 411.81 65.03C412.236 66.15 412.69 69.5633 413.17 75.27C413.65 80.9233 413.89 85.0833 413.89 87.75H401.89C401.89 85.35 401.676 81.59 401.25 76.47C400.823 71.35 400.343 68.2567 399.81 67.19C399.33 66.1233 398.743 65.19 398.05 64.39H390.93V87.75H379.89V52.71C379.89 48.39 379.57 45.4033 378.93 43.75C378.343 42.0433 377.063 39.9633 375.09 37.51L384.69 30.79C386.396 31.91 387.73 33.3767 388.69 35.19ZM390.93 48.87V55.03H394.05C394.796 55.03 395.756 54.4433 396.93 53.27C398.103 52.0967 398.85 51.11 399.17 50.31C399.543 49.4567 399.73 48.5767 399.73 47.67C399.73 46.7633 399.543 45.9633 399.17 45.27C398.85 44.5233 398.37 43.6967 397.73 42.79C397.09 41.8833 396.556 41.43 396.13 41.43C394.69 41.43 392.876 41.7767 390.69 42.47C390.85 44.55 390.93 46.6833 390.93 48.87Z" fill="white"/>
<path d="M40.3117 43.19L39.154 42.5285L39.154 42.5285L40.3117 43.19ZM47.1117 35.59L46.2147 34.6034L46.2073 34.6103L47.1117 35.59ZM65.0317 35.91L64.1389 36.9004L64.1467 36.9073L65.0317 35.91ZM72.2317 47.03L72.9916 48.1255L73.7486 47.6004L73.5252 46.7066L72.2317 47.03ZM63.3517 53.19L62.0733 53.5688L62.597 55.3363L64.1116 54.2855L63.3517 53.19ZM59.2717 45.27L58.2106 46.0774L58.2149 46.083L58.2192 46.0886L59.2717 45.27ZM50.7917 45.51L51.8921 46.2629L51.9002 46.2511L51.908 46.2391L50.7917 45.51ZM50.7917 73.99L51.908 73.2609L51.8702 73.203L51.8265 73.1492L50.7917 73.99ZM59.2717 74.79L60.264 75.6805L60.2696 75.6743L60.2751 75.668L59.2717 74.79ZM63.3517 67.75L64.1183 66.6591L62.6531 65.6295L62.0868 67.3284L63.3517 67.75ZM72.2317 73.99L73.5172 74.344L73.7664 73.4388L72.9983 72.8991L72.2317 73.99ZM65.0317 84.15L65.8664 85.1898L65.8752 85.1826L65.0317 84.15ZM47.1117 83.91L46.2073 84.8898L46.2148 84.8966L47.1117 83.91ZM40.3117 76.31L41.4693 75.6485V75.6485L40.3117 76.31ZM38.7117 63.51H40.045V55.99H38.7117H37.3783V63.51H38.7117ZM38.7117 55.99H40.045C40.045 52.6854 40.1775 50.0127 40.4347 47.9554C40.697 45.8571 41.0732 44.5447 41.4693 43.8515L40.3117 43.19L39.154 42.5285C38.4835 43.7019 38.0597 45.4562 37.7886 47.6246C37.5125 49.834 37.3783 52.6279 37.3783 55.99H38.7117ZM40.3117 43.19L41.4693 43.8515C42.4265 42.1764 44.5592 39.7607 48.016 36.5697L47.1117 35.59L46.2073 34.6103C42.7308 37.8193 40.3301 40.4702 39.154 42.5285L40.3117 43.19ZM47.1117 35.59L48.0086 36.5766C49.7365 35.0057 51.2005 33.8664 52.4079 33.1271C53.6488 32.3674 54.4707 32.1233 54.9517 32.1233V30.79V29.4567C53.726 29.4567 52.3879 30.0126 51.0155 30.8529C49.6095 31.7136 48.0068 32.9743 46.2148 34.6034L47.1117 35.59ZM54.9517 30.79V32.1233C57.3855 32.1233 60.4319 33.5588 64.1389 36.9004L65.0317 35.91L65.9244 34.9196C62.0581 31.4345 58.3845 29.4567 54.9517 29.4567V30.79ZM65.0317 35.91L64.1467 36.9073C67.7756 40.1273 70.0027 43.6116 70.9381 47.3534L72.2317 47.03L73.5252 46.7066C72.434 42.3417 69.8611 38.4127 65.9166 34.9127L65.0317 35.91ZM72.2317 47.03L71.4717 45.9345L62.5917 52.0945L63.3517 53.19L64.1116 54.2855L72.9916 48.1255L72.2317 47.03ZM63.3517 53.19L64.6301 52.8112C63.7289 49.7698 62.2916 46.981 60.3241 44.4514L59.2717 45.27L58.2192 46.0886C59.9851 48.359 61.2678 50.8502 62.0733 53.5688L63.3517 53.19ZM59.2717 45.27L60.3328 44.4626C59.3816 43.2125 58.5365 42.2253 57.8043 41.5379C57.4387 41.1947 57.0692 40.8956 56.7005 40.6754C56.3496 40.4657 55.883 40.2567 55.3517 40.2567V41.59V42.9233C55.1937 42.9233 55.1704 42.8676 55.3329 42.9646C55.4775 43.051 55.6913 43.212 55.9791 43.4821C56.5535 44.0213 57.2951 44.8741 58.2106 46.0774L59.2717 45.27ZM55.3517 41.59V40.2567C54.2393 40.2567 53.2267 40.7988 52.3425 41.5589C51.4497 42.3264 50.5637 43.4207 49.6753 44.7809L50.7917 45.51L51.908 46.2391C52.7264 44.986 53.4537 44.1203 54.0809 43.5811C54.7166 43.0346 55.1307 42.9233 55.3517 42.9233V41.59ZM50.7917 45.51L49.6913 44.7571C49.374 45.2208 49.1778 45.8271 49.0375 46.4352C48.89 47.0744 48.7746 47.8542 48.6849 48.7583C48.5052 50.5686 48.4183 52.9852 48.4183 55.99H49.7517H51.085C51.085 53.0215 51.1715 50.7048 51.3385 49.0217C51.4221 48.1792 51.5234 47.5222 51.6359 47.0348C51.7555 46.5162 51.8627 46.3059 51.8921 46.2629L50.7917 45.51ZM49.7517 55.99H48.4183V63.51H49.7517H51.085V55.99H49.7517ZM49.7517 63.51H48.4183C48.4183 66.5934 48.5051 69.0506 48.6849 70.8617C48.7745 71.7654 48.8903 72.5399 49.0399 73.1653C49.1781 73.7426 49.3839 74.3717 49.7569 74.8308L50.7917 73.99L51.8265 73.1492C51.8528 73.1816 51.7553 73.0541 51.6334 72.5447C51.523 72.0835 51.4221 71.4413 51.3385 70.5983C51.1715 68.916 51.085 66.5599 51.085 63.51H49.7517ZM50.7917 73.99L49.6753 74.7191C50.5637 76.0793 51.4497 77.1736 52.3425 77.9411C53.2267 78.7012 54.2393 79.2433 55.3517 79.2433V77.91V76.5767C55.1307 76.5767 54.7166 76.4654 54.0809 75.9189C53.4537 75.3797 52.7264 74.514 51.908 73.2609L50.7917 73.99ZM55.3517 77.91V79.2433C55.8306 79.2433 56.2674 79.0826 56.6191 78.9045C56.9837 78.7198 57.3532 78.4668 57.722 78.1732C58.4592 77.5865 59.3093 76.7443 60.264 75.6805L59.2717 74.79L58.2793 73.8995C57.3674 74.9157 56.6308 75.6335 56.0613 76.0868C55.7768 76.3132 55.563 76.4502 55.4142 76.5255C55.2526 76.6074 55.246 76.5767 55.3517 76.5767V77.91ZM59.2717 74.79L60.2751 75.668C62.2524 73.4083 63.7045 70.908 64.6166 68.1716L63.3517 67.75L62.0868 67.3284C61.2922 69.712 60.0243 71.9051 58.2682 73.912L59.2717 74.79ZM63.3517 67.75L62.5851 68.8409L71.4651 75.0809L72.2317 73.99L72.9983 72.8991L64.1183 66.6591L63.3517 67.75ZM72.2317 73.99L70.9462 73.636C70.0245 76.9832 67.8209 80.1498 64.1881 83.1174L65.0317 84.15L65.8752 85.1826C69.8158 81.9635 72.4122 78.3568 73.5172 74.344L72.2317 73.99ZM65.0317 84.15L64.197 83.1103C60.5042 86.0749 57.4385 87.3767 54.9517 87.3767V88.71V90.0433C58.3315 90.0433 61.9858 88.3051 65.8664 85.1897L65.0317 84.15ZM54.9517 88.71V87.3767C54.4707 87.3767 53.6488 87.1326 52.4079 86.3729C51.2005 85.6336 49.7365 84.4943 48.0086 82.9234L47.1117 83.91L46.2148 84.8966C48.0068 86.5257 49.6095 87.7864 51.0155 88.6471C52.3879 89.4874 53.726 90.0433 54.9517 90.0433V88.71ZM47.1117 83.91L48.016 82.9303C44.5592 79.7393 42.4265 77.3236 41.4693 75.6485L40.3117 76.31L39.154 76.9715C40.3301 79.0297 42.7308 81.6807 46.2073 84.8897L47.1117 83.91ZM40.3117 76.31L41.4693 75.6485C41.0732 74.9553 40.697 73.6429 40.4347 71.5446C40.1775 69.4873 40.045 66.8146 40.045 63.51H38.7117H37.3783C37.3783 66.8721 37.5125 69.666 37.7886 71.8754C38.0597 74.0438 38.4835 75.7981 39.154 76.9715L40.3117 76.31ZM102.673 87.75H101.34V89.0833H102.673V87.75ZM102.673 62.15H104.006V60.8167H102.673V62.15ZM91.6329 62.15V60.8167H90.2996V62.15H91.6329ZM91.6329 87.75V89.0833H92.9663V87.75H91.6329ZM80.5929 87.75H79.2596V89.0833H80.5929V87.75ZM79.6329 44.07L78.3643 44.4804L78.3717 44.5032L78.3799 44.5257L79.6329 44.07ZM75.7929 37.51L75.0283 36.4177L73.8846 37.2183L74.7369 38.324L75.7929 37.51ZM85.3929 30.79L86.1245 29.6753L85.3688 29.1794L84.6283 29.6977L85.3929 30.79ZM89.7929 37.03L88.5564 37.5289L88.5596 37.5366L89.7929 37.03ZM91.6329 52.55H90.2996V53.8833H91.6329V52.55ZM102.673 52.55V53.8833H104.006V52.55H102.673ZM102.673 31.75V30.4167H101.34V31.75H102.673ZM113.713 31.75H115.046V30.4167H113.713V31.75ZM113.713 87.75V89.0833H115.046V87.75H113.713ZM102.673 87.75H104.006V62.15H102.673H101.34V87.75H102.673ZM102.673 62.15V60.8167H91.6329V62.15V63.4833H102.673V62.15ZM91.6329 62.15H90.2996V87.75H91.6329H92.9663V62.15H91.6329ZM91.6329 87.75V86.4167H80.5929V87.75V89.0833H91.6329V87.75ZM80.5929 87.75H81.9263V53.51H80.5929H79.2596V87.75H80.5929ZM80.5929 53.51H81.9263C81.9263 48.9803 81.6148 45.6185 80.886 43.6143L79.6329 44.07L78.3799 44.5257C78.9311 46.0415 79.2596 48.973 79.2596 53.51H80.5929ZM79.6329 44.07L80.9015 43.6596C80.246 41.6335 78.8601 39.3051 76.8489 36.696L75.7929 37.51L74.7369 38.324C76.6724 40.8349 77.8465 42.8798 78.3643 44.4804L79.6329 44.07ZM75.7929 37.51L76.5575 38.6023L86.1575 31.8823L85.3929 30.79L84.6283 29.6977L75.0283 36.4177L75.7929 37.51ZM85.3929 30.79L84.6614 31.9047C86.041 32.8101 87.375 34.6009 88.5565 37.5289L89.7929 37.03L91.0294 36.5311C89.7575 33.3791 88.1581 31.0099 86.1245 29.6753L85.3929 30.79ZM89.7929 37.03L88.5596 37.5366C89.7027 40.3199 90.2996 43.7642 90.2996 47.91H91.6329H92.9663C92.9663 43.5225 92.3365 39.7135 91.0263 36.5234L89.7929 37.03ZM91.6329 47.91H90.2996V52.55H91.6329H92.9663V47.91H91.6329ZM91.6329 52.55V53.8833H102.673V52.55V51.2167H91.6329V52.55ZM102.673 52.55H104.006V31.75H102.673H101.34V52.55H102.673ZM102.673 31.75V33.0833H113.713V31.75V30.4167H102.673V31.75ZM113.713 31.75H112.38V87.75H113.713H115.046V31.75H113.713ZM113.713 87.75V86.4167H102.673V87.75V89.0833H113.713V87.75ZM129.647 35.99L128.747 35.0066V35.0066L129.647 35.99ZM153.967 44.55L155.214 44.0771L155.209 44.0634L155.203 44.0497L153.967 44.55ZM154.847 87.75V89.0833H156.181V87.75H154.847ZM143.807 87.75H142.474V89.0833H143.807V87.75ZM143.807 75.75H145.141V74.4167H143.807V75.75ZM132.767 75.75V74.4167H131.434V75.75H132.767ZM132.767 87.75V89.0833H134.101V87.75H132.767ZM121.727 87.75H120.394V89.0833H121.727V87.75ZM122.607 44.55L121.371 44.0497L121.366 44.0634L121.361 44.0771L122.607 44.55ZM132.767 66.15H131.434V67.4833H132.767V66.15ZM143.807 66.15V67.4833H145.141V66.15H143.807ZM143.167 47.03L141.938 47.5474L141.944 47.5595L141.949 47.5715L143.167 47.03ZM140.927 43.91L139.939 44.8045L139.961 44.8293L139.984 44.8528L140.927 43.91ZM135.567 43.91L134.602 42.9905L134.601 42.9917L135.567 43.91ZM133.407 47.03L134.626 47.5715L134.631 47.5595L134.636 47.5474L133.407 47.03ZM129.647 35.99L130.548 36.9734C132.406 35.2722 134 34.0361 135.335 33.2324C136.696 32.4132 137.659 32.1233 138.287 32.1233V30.79V29.4567C136.943 29.4567 135.479 30.0335 133.96 30.9476C132.415 31.8773 130.675 33.2411 128.747 35.0066L129.647 35.99ZM138.287 30.79V32.1233C138.916 32.1233 139.879 32.4132 141.24 33.2324C142.575 34.0361 144.169 35.2722 146.027 36.9734L146.927 35.99L147.828 35.0066C145.899 33.2411 144.16 31.8773 142.615 30.9476C141.096 30.0335 139.632 29.4567 138.287 29.4567V30.79ZM146.927 35.99L146.027 36.9734C149.796 40.4238 151.945 43.1067 152.731 45.0503L153.967 44.55L155.203 44.0497C154.177 41.5132 151.632 38.4895 147.828 35.0066L146.927 35.99ZM153.967 44.55L152.721 45.0229C152.944 45.6109 153.153 46.7125 153.299 48.4416C153.441 50.1368 153.514 52.3294 153.514 55.03H154.847H156.181C156.181 52.2906 156.107 50.0165 155.956 48.2184C155.808 46.4542 155.578 45.0357 155.214 44.0771L153.967 44.55ZM154.847 55.03H153.514V87.75H154.847H156.181V55.03H154.847ZM154.847 87.75V86.4167H143.807V87.75V89.0833H154.847V87.75ZM143.807 87.75H145.141V75.75H143.807H142.474V87.75H143.807ZM143.807 75.75V74.4167H132.767V75.75V77.0833H143.807V75.75ZM132.767 75.75H131.434V87.75H132.767H134.101V75.75H132.767ZM132.767 87.75V86.4167H121.727V87.75V89.0833H132.767V87.75ZM121.727 87.75H123.061V55.03H121.727H120.394V87.75H121.727ZM121.727 55.03H123.061C123.061 52.3294 123.134 50.1368 123.276 48.4416C123.421 46.7125 123.631 45.6109 123.854 45.0229L122.607 44.55L121.361 44.0771C120.997 45.0357 120.767 46.4542 120.619 48.2184C120.468 50.0165 120.394 52.2906 120.394 55.03H121.727ZM122.607 44.55L123.843 45.0503C124.63 43.1067 126.779 40.4238 130.548 36.9734L129.647 35.99L128.747 35.0066C124.943 38.4895 122.398 41.5132 121.371 44.0497L122.607 44.55ZM132.767 55.03H131.434V66.15H132.767H134.101V55.03H132.767ZM132.767 66.15V67.4833H143.807V66.15V64.8167H132.767V66.15ZM143.807 66.15H145.141V55.03H143.807H142.474V66.15H143.807ZM143.807 55.03H145.141C145.141 52.827 145.087 51.0274 144.976 49.6437C144.871 48.3227 144.703 47.202 144.386 46.4885L143.167 47.03L141.949 47.5715C142.058 47.818 142.211 48.5106 142.318 49.8563C142.421 51.1393 142.474 52.8596 142.474 55.03H143.807ZM143.167 47.03L144.396 46.5126C143.883 45.293 143.016 44.1134 141.87 42.9672L140.927 43.91L139.984 44.8528C140.972 45.8399 141.599 46.7403 141.938 47.5474L143.167 47.03ZM140.927 43.91L141.916 43.0154C140.876 41.8663 139.651 40.8967 138.287 40.8967V42.23V43.5633C138.417 43.5633 138.952 43.7137 139.939 44.8045L140.927 43.91ZM138.287 42.23V40.8967C137.582 40.8967 136.925 41.1583 136.347 41.5156C135.763 41.8759 135.182 42.3814 134.602 42.9905L135.567 43.91L136.533 44.8295C137.019 44.3186 137.425 43.9841 137.748 43.7844C138.076 43.5817 138.246 43.5633 138.287 43.5633V42.23ZM135.567 43.91L134.601 42.9917C133.512 44.138 132.685 45.3101 132.178 46.5126L133.407 47.03L134.636 47.5474C134.983 46.7232 135.596 45.8154 136.534 44.8283L135.567 43.91ZM133.407 47.03L132.189 46.4885C131.872 47.202 131.704 48.3227 131.598 49.6437C131.488 51.0274 131.434 52.827 131.434 55.03H132.767H134.101C134.101 52.8596 134.154 51.1393 134.256 49.8563C134.364 48.5106 134.516 47.818 134.626 47.5715L133.407 47.03ZM175.381 45.43L174.227 44.7619L174.039 45.0863L174.048 45.461L175.381 45.43ZM175.461 48.87H176.794V48.8545L176.794 48.839L175.461 48.87ZM175.461 87.75V89.0833H176.794V87.75H175.461ZM164.421 87.75H163.088V89.0833H164.421V87.75ZM163.461 44.07L162.192 44.4804L162.198 44.4972L162.204 44.5138L163.461 44.07ZM159.621 37.51L158.856 36.4177L157.713 37.2183L158.565 38.324L159.621 37.51ZM169.221 30.79L169.952 29.6747L169.196 29.1798L168.456 29.6977L169.221 30.79ZM173.541 35.99L172.37 36.6267L173.141 38.0459L174.388 37.0196L173.541 35.99ZM189.141 35.03L188.258 36.0293L188.267 36.0371L188.276 36.0447L189.141 35.03ZM195.221 40.95L194.119 41.7011L194.128 41.7131L194.136 41.725L195.221 40.95ZM196.421 87.75V89.0833H197.754V87.75H196.421ZM185.301 87.75H183.968V89.0833H185.301V87.75ZM184.661 45.27L183.468 45.8663L183.495 45.9188L183.525 45.9688L184.661 45.27ZM182.821 42.79L181.821 43.6722L181.835 43.6882L181.85 43.7038L182.821 42.79ZM177.861 42.71L178.661 43.7767L178.678 43.7642L178.694 43.7512L177.861 42.71ZM175.381 45.43L174.048 45.461L174.128 48.901L175.461 48.87L176.794 48.839L176.714 45.399L175.381 45.43ZM175.461 48.87H174.128V87.75H175.461H176.794V48.87H175.461ZM175.461 87.75V86.4167H164.421V87.75V89.0833H175.461V87.75ZM164.421 87.75H165.754V53.51H164.421H163.088V87.75H164.421ZM164.421 53.51H165.754C165.754 49.0265 165.441 45.675 164.718 43.6262L163.461 44.07L162.204 44.5138C162.761 46.0916 163.088 49.0335 163.088 53.51H164.421ZM163.461 44.07L164.73 43.6596C164.074 41.6335 162.688 39.3051 160.677 36.696L159.621 37.51L158.565 38.324C160.501 40.8349 161.675 42.8798 162.192 44.4804L163.461 44.07ZM159.621 37.51L160.386 38.6023L169.986 31.8823L169.221 30.79L168.456 29.6977L158.856 36.4177L159.621 37.51ZM169.221 30.79L168.49 31.9053C169.782 32.7518 171.092 34.2762 172.37 36.6267L173.541 35.99L174.713 35.3533C173.323 32.7971 171.753 30.8548 169.952 29.6747L169.221 30.79ZM173.541 35.99L174.388 37.0196C176.472 35.3047 178.184 34.0493 179.533 33.2295C180.951 32.3684 181.757 32.1233 182.101 32.1233V30.79V29.4567C180.951 29.4567 179.584 30.0783 178.149 30.9505C176.645 31.864 174.823 33.2086 172.694 34.9604L173.541 35.99ZM182.101 30.79V32.1233C182.477 32.1233 183.18 32.3216 184.293 32.9922C185.37 33.6409 186.689 34.6434 188.258 36.0293L189.141 35.03L190.024 34.0307C188.393 32.59 186.938 31.4724 185.669 30.7078C184.436 29.9651 183.218 29.4567 182.101 29.4567V30.79ZM189.141 35.03L188.276 36.0447C191.554 38.8386 193.437 40.7002 194.119 41.7011L195.221 40.95L196.323 40.1989C195.405 38.8531 193.235 36.7681 190.006 34.0153L189.141 35.03ZM195.221 40.95L194.136 41.725C194.726 42.5509 195.088 43.7441 195.088 45.43H196.421H197.754C197.754 43.3826 197.316 41.5891 196.306 40.175L195.221 40.95ZM196.421 45.43H195.088V87.75H196.421H197.754V45.43H196.421ZM196.421 87.75V86.4167H185.301V87.75V89.0833H196.421V87.75ZM185.301 87.75H186.634V47.03H185.301H183.968V87.75H185.301ZM185.301 47.03H186.634C186.634 46.186 186.273 45.3452 185.797 44.5712L184.661 45.27L183.525 45.9688C183.903 46.5814 183.968 46.914 183.968 47.03H185.301ZM184.661 45.27L185.854 44.6737C185.401 43.7691 184.695 42.8357 183.792 41.8762L182.821 42.79L181.85 43.7038C182.654 44.5576 183.174 45.2776 183.468 45.8663L184.661 45.27ZM182.821 42.79L183.821 41.9078C182.921 40.8878 181.813 40.0967 180.501 40.0967V41.43V42.7633C180.683 42.7633 181.121 42.8789 181.821 43.6722L182.821 42.79ZM180.501 41.43V40.0967C179.325 40.0967 178.136 40.7822 177.028 41.6688L177.861 42.71L178.694 43.7512C179.719 42.9312 180.29 42.7633 180.501 42.7633V41.43ZM177.861 42.71L177.061 41.6433C175.871 42.5362 174.915 43.5732 174.227 44.7619L175.381 45.43L176.535 46.098C177.02 45.2602 177.718 44.4838 178.661 43.7767L177.861 42.71ZM203.984 43.19L202.826 42.5285V42.5285L203.984 43.19ZM210.784 35.59L209.887 34.6034L209.879 34.6103L210.784 35.59ZM228.704 35.91L227.811 36.9004L227.819 36.9073L228.704 35.91ZM235.904 47.03L236.664 48.1255L237.421 47.6004L237.197 46.7066L235.904 47.03ZM227.024 53.19L225.745 53.5688L226.269 55.3363L227.784 54.2855L227.024 53.19ZM222.944 45.27L221.882 46.0774L221.887 46.083L221.891 46.0886L222.944 45.27ZM214.464 45.51L215.564 46.2629L215.572 46.2511L215.58 46.2391L214.464 45.51ZM214.464 73.99L215.58 73.2609L215.542 73.203L215.498 73.1492L214.464 73.99ZM222.944 74.79L223.936 75.6805L223.941 75.6743L223.947 75.668L222.944 74.79ZM227.024 67.75L227.79 66.6591L226.325 65.6295L225.759 67.3284L227.024 67.75ZM235.904 73.99L237.189 74.344L237.438 73.4388L236.67 72.8991L235.904 73.99ZM228.704 84.15L229.538 85.1898L229.547 85.1826L228.704 84.15ZM210.784 83.91L209.879 84.8898L209.887 84.8966L210.784 83.91ZM203.984 76.31L205.141 75.6485V75.6485L203.984 76.31ZM202.384 63.51H203.717V55.99H202.384H201.05V63.51H202.384ZM202.384 55.99H203.717C203.717 52.6854 203.849 50.0127 204.107 47.9554C204.369 45.8571 204.745 44.5447 205.141 43.8515L203.984 43.19L202.826 42.5285C202.155 43.7019 201.732 45.4562 201.461 47.6246C201.184 49.834 201.05 52.6279 201.05 55.99H202.384ZM203.984 43.19L205.141 43.8515C206.098 42.1764 208.231 39.7607 211.688 36.5697L210.784 35.59L209.879 34.6103C206.403 37.8193 204.002 40.4702 202.826 42.5285L203.984 43.19ZM210.784 35.59L211.68 36.5766C213.408 35.0057 214.872 33.8664 216.08 33.1271C217.321 32.3674 218.143 32.1233 218.624 32.1233V30.79V29.4567C217.398 29.4567 216.06 30.0126 214.687 30.8529C213.281 31.7136 211.679 32.9743 209.887 34.6034L210.784 35.59ZM218.624 30.79V32.1233C221.057 32.1233 224.104 33.5588 227.811 36.9004L228.704 35.91L229.596 34.9196C225.73 31.4345 222.056 29.4567 218.624 29.4567V30.79ZM228.704 35.91L227.819 36.9073C231.447 40.1273 233.675 43.6116 234.61 47.3534L235.904 47.03L237.197 46.7066C236.106 42.3417 233.533 38.4127 229.588 34.9127L228.704 35.91ZM235.904 47.03L235.144 45.9345L226.264 52.0945L227.024 53.19L227.784 54.2855L236.664 48.1255L235.904 47.03ZM227.024 53.19L228.302 52.8112C227.401 49.7698 225.963 46.981 223.996 44.4514L222.944 45.27L221.891 46.0886C223.657 48.359 224.94 50.8502 225.745 53.5688L227.024 53.19ZM222.944 45.27L224.005 44.4626C223.053 43.2125 222.208 42.2253 221.476 41.5379C221.111 41.1947 220.741 40.8956 220.372 40.6754C220.021 40.4657 219.555 40.2567 219.024 40.2567V41.59V42.9233C218.866 42.9233 218.842 42.8676 219.005 42.9646C219.149 43.051 219.363 43.212 219.651 43.4821C220.225 44.0213 220.967 44.8741 221.882 46.0774L222.944 45.27ZM219.024 41.59V40.2567C217.911 40.2567 216.899 40.7988 216.014 41.5589C215.122 42.3264 214.236 43.4207 213.347 44.7809L214.464 45.51L215.58 46.2391C216.398 44.986 217.126 44.1203 217.753 43.5811C218.388 43.0346 218.803 42.9233 219.024 42.9233V41.59ZM214.464 45.51L213.363 44.7571C213.046 45.2208 212.85 45.8271 212.709 46.4352C212.562 47.0744 212.446 47.8542 212.357 48.7583C212.177 50.5686 212.09 52.9852 212.09 55.99H213.424H214.757C214.757 53.0215 214.843 50.7048 215.01 49.0217C215.094 48.1792 215.195 47.5222 215.308 47.0348C215.427 46.5162 215.535 46.3059 215.564 46.2629L214.464 45.51ZM213.424 55.99H212.09V63.51H213.424H214.757V55.99H213.424ZM213.424 63.51H212.09C212.09 66.5934 212.177 69.0506 212.357 70.8617C212.446 71.7654 212.562 72.5399 212.712 73.1653C212.85 73.7426 213.056 74.3717 213.429 74.8308L214.464 73.99L215.498 73.1492C215.525 73.1816 215.427 73.0541 215.305 72.5447C215.195 72.0835 215.094 71.4413 215.01 70.5983C214.843 68.916 214.757 66.5599 214.757 63.51H213.424ZM214.464 73.99L213.347 74.7191C214.236 76.0793 215.122 77.1736 216.014 77.9411C216.899 78.7012 217.911 79.2433 219.024 79.2433V77.91V76.5767C218.803 76.5767 218.388 76.4654 217.753 75.9189C217.126 75.3797 216.398 74.514 215.58 73.2609L214.464 73.99ZM219.024 77.91V79.2433C219.503 79.2433 219.939 79.0826 220.291 78.9045C220.656 78.7198 221.025 78.4668 221.394 78.1732C222.131 77.5865 222.981 76.7443 223.936 75.6805L222.944 74.79L221.951 73.8995C221.039 74.9157 220.303 75.6335 219.733 76.0868C219.449 76.3132 219.235 76.4502 219.086 76.5255C218.925 76.6074 218.918 76.5767 219.024 76.5767V77.91ZM222.944 74.79L223.947 75.668C225.924 73.4083 227.376 70.908 228.288 68.1716L227.024 67.75L225.759 67.3284C224.964 69.712 223.696 71.9051 221.94 73.912L222.944 74.79ZM227.024 67.75L226.257 68.8409L235.137 75.0809L235.904 73.99L236.67 72.8991L227.79 66.6591L227.024 67.75ZM235.904 73.99L234.618 73.636C233.696 76.9832 231.493 80.1498 227.86 83.1174L228.704 84.15L229.547 85.1826C233.488 81.9635 236.084 78.3568 237.189 74.344L235.904 73.99ZM228.704 84.15L227.869 83.1103C224.176 86.0749 221.11 87.3767 218.624 87.3767V88.71V90.0433C222.003 90.0433 225.658 88.3051 229.538 85.1897L228.704 84.15ZM218.624 88.71V87.3767C218.143 87.3767 217.321 87.1326 216.08 86.3729C214.872 85.6336 213.408 84.4943 211.68 82.9234L210.784 83.91L209.887 84.8966C211.679 86.5257 213.281 87.7864 214.687 88.6471C216.06 89.4874 217.398 90.0433 218.624 90.0433V88.71ZM210.784 83.91L211.688 82.9303C208.231 79.7393 206.098 77.3236 205.141 75.6485L203.984 76.31L202.826 76.9715C204.002 79.0297 206.403 81.6807 209.879 84.8897L210.784 83.91ZM203.984 76.31L205.141 75.6485C204.745 74.9553 204.369 73.6429 204.107 71.5446C203.849 69.4873 203.717 66.8146 203.717 63.51H202.384H201.05C201.05 66.8721 201.184 69.666 201.461 71.8754C201.732 74.0438 202.155 75.7981 202.826 76.9715L203.984 76.31ZM253.705 53.67H252.371V55.0033H253.705V53.67ZM268.025 53.67H269.358V52.3367H268.025V53.67ZM268.025 63.35V64.6833H269.358V63.35H268.025ZM253.705 63.35V62.0167H252.371V63.35H253.705ZM253.705 78.07H252.371V79.4033H253.705V78.07ZM272.825 78.07H274.158V76.7367H272.825V78.07ZM272.825 87.75V89.0833H274.158V87.75H272.825ZM242.665 87.75H241.331V89.0833H242.665V87.75ZM242.665 38.47L241.903 37.3755L241.331 37.7733V38.47H242.665ZM253.705 30.79V29.4567H253.287L252.943 29.6955L253.705 30.79ZM271.545 30.79H272.878V29.4567H271.545V30.79ZM271.545 40.55V41.8833H272.878V40.55H271.545ZM256.665 40.55V39.2167H256.243L255.898 39.4591L256.665 40.55ZM253.705 42.63L252.938 41.5391L252.371 41.9373V42.63H253.705ZM253.705 53.67V55.0033H268.025V53.67V52.3367H253.705V53.67ZM268.025 53.67H266.691V63.35H268.025H269.358V53.67H268.025ZM268.025 63.35V62.0167H253.705V63.35V64.6833H268.025V63.35ZM253.705 63.35H252.371V78.07H253.705H255.038V63.35H253.705ZM253.705 78.07V79.4033H272.825V78.07V76.7367H253.705V78.07ZM272.825 78.07H271.491V87.75H272.825H274.158V78.07H272.825ZM272.825 87.75V86.4167H242.665V87.75V89.0833H272.825V87.75ZM242.665 87.75H243.998V38.47H242.665H241.331V87.75H242.665ZM242.665 38.47L243.426 39.5645L254.466 31.8845L253.705 30.79L252.943 29.6955L241.903 37.3755L242.665 38.47ZM253.705 30.79V32.1233H271.545V30.79V29.4567H253.705V30.79ZM271.545 30.79H270.211V40.55H271.545H272.878V30.79H271.545ZM271.545 40.55V39.2167H256.665V40.55V41.8833H271.545V40.55ZM256.665 40.55L255.898 39.4591L252.938 41.5391L253.705 42.63L254.471 43.7209L257.431 41.6409L256.665 40.55ZM253.705 42.63H252.371V53.67H253.705H255.038V42.63H253.705ZM305.237 78.15H306.57V76.8167H305.237V78.15ZM305.237 87.75V89.0833H306.57V87.75H305.237ZM276.037 87.75H274.703V89.0833H276.037V87.75ZM276.037 31.75V30.4167H274.703V31.75H276.037ZM287.077 31.75H288.41V30.4167H287.077V31.75ZM287.077 78.15H285.743V79.4833H287.077V78.15ZM305.237 78.15H303.903V87.75H305.237H306.57V78.15H305.237ZM305.237 87.75V86.4167H276.037V87.75V89.0833H305.237V87.75ZM276.037 87.75H277.37V31.75H276.037H274.703V87.75H276.037ZM276.037 31.75V33.0833H287.077V31.75V30.4167H276.037V31.75ZM287.077 31.75H285.743V78.15H287.077H288.41V31.75H287.077ZM287.077 78.15V79.4833H305.237V78.15V76.8167H287.077V78.15ZM336.409 78.15H337.742V76.8167H336.409V78.15ZM336.409 87.75V89.0833H337.742V87.75H336.409ZM307.209 87.75H305.875V89.0833H307.209V87.75ZM307.209 31.75V30.4167H305.875V31.75H307.209ZM318.249 31.75H319.582V30.4167H318.249V31.75ZM318.249 78.15H316.915V79.4833H318.249V78.15ZM336.409 78.15H335.075V87.75H336.409H337.742V78.15H336.409ZM336.409 87.75V86.4167H307.209V87.75V89.0833H336.409V87.75ZM307.209 87.75H308.542V31.75H307.209H305.875V87.75H307.209ZM307.209 31.75V33.0833H318.249V31.75V30.4167H307.209V31.75ZM318.249 31.75H316.915V78.15H318.249H319.582V31.75H318.249ZM318.249 78.15V79.4833H336.409V78.15V76.8167H318.249V78.15ZM364.3 83.51L365.201 84.4934L365.201 84.4929L364.3 83.51ZM347.1 83.51L346.193 84.4866L346.2 84.4932L346.207 84.4997L347.1 83.51ZM340.06 74.95L341.292 74.4393L341.288 74.4305L340.06 74.95ZM340.06 44.55L341.288 45.0695L341.292 45.0607L340.06 44.55ZM347.1 36.07L348.001 37.0534L348.001 37.0529L347.1 36.07ZM364.3 36.07L363.393 37.0466L363.4 37.0532L363.407 37.0597L364.3 36.07ZM371.42 44.55L370.189 45.0607L370.192 45.0695L371.42 44.55ZM371.42 74.95L370.192 74.4305L370.189 74.4393L371.42 74.95ZM353.02 75.67L352.032 76.5646L352.054 76.5893L352.078 76.6128L353.02 75.67ZM358.38 75.67L357.415 74.7505L357.414 74.7517L358.38 75.67ZM360.62 72.55L361.839 73.0915L361.844 73.0795L361.849 73.0674L360.62 72.55ZM360.62 47.03L359.392 47.5474L359.397 47.5595L359.402 47.5715L360.62 47.03ZM358.38 43.91L357.392 44.8045L357.414 44.8293L357.438 44.8528L358.38 43.91ZM353.02 43.91L352.055 42.9905L352.054 42.9917L353.02 43.91ZM350.86 47.03L352.079 47.5715L352.084 47.5595L352.089 47.5474L350.86 47.03ZM350.86 72.55L349.632 73.0674L349.637 73.0795L349.642 73.0915L350.86 72.55ZM364.3 83.51L363.4 82.5266C361.541 84.2289 359.952 85.4661 358.628 86.2705C357.275 87.0923 356.336 87.3767 355.74 87.3767V88.71V90.0433C357.065 90.0433 358.512 89.4611 360.013 88.5495C361.542 87.6205 363.274 86.2578 365.201 84.4934L364.3 83.51ZM355.74 88.71V87.3767C355.143 87.3767 354.196 87.091 352.828 86.2676C351.489 85.462 349.88 84.2234 347.994 82.5203L347.1 83.51L346.207 84.4997C348.16 86.2633 349.911 87.6247 351.453 88.5524C352.965 89.4623 354.418 90.0433 355.74 90.0433V88.71ZM347.1 83.51L348.008 82.5334C344.234 79.0251 342.08 76.3388 341.292 74.4393L340.06 74.95L338.829 75.4607C339.855 77.9346 342.393 80.9548 346.193 84.4866L347.1 83.51ZM340.06 74.95L341.288 74.4305C341.086 73.9513 340.875 72.9214 340.729 71.1784C340.587 69.484 340.514 67.2519 340.514 64.47H339.18H337.847C337.847 67.2881 337.921 69.6027 338.072 71.4016C338.219 73.1519 338.449 74.562 338.832 75.4695L340.06 74.95ZM339.18 64.47H340.514V55.03H339.18H337.847V64.47H339.18ZM339.18 55.03H340.514C340.514 52.2481 340.587 50.016 340.729 48.3216C340.875 46.5786 341.086 45.5487 341.288 45.0695L340.06 44.55L338.832 44.0305C338.449 44.938 338.219 46.3481 338.072 48.0984C337.921 49.8973 337.847 52.2119 337.847 55.03H339.18ZM340.06 44.55L341.292 45.0607C342.078 43.1658 344.228 40.5073 348.001 37.0534L347.1 36.07L346.2 35.0866C342.399 38.566 339.856 41.5609 338.829 44.0393L340.06 44.55ZM347.1 36.07L348.001 37.0529C349.888 35.3233 351.497 34.0656 352.836 33.2477C354.204 32.4112 355.149 32.1233 355.74 32.1233V30.79V29.4567C354.412 29.4567 352.956 30.0488 351.445 30.9723C349.904 31.9144 348.153 33.2967 346.199 35.0871L347.1 36.07ZM355.74 30.79V32.1233C356.331 32.1233 357.267 32.41 358.62 33.2448C359.944 34.0614 361.533 35.3177 363.393 37.0466L364.3 36.07L365.208 35.0934C363.281 33.3023 361.55 31.9186 360.02 30.9752C358.521 30.05 357.07 29.4567 355.74 29.4567V30.79ZM364.3 36.07L363.407 37.0597C367.234 40.5148 369.405 43.1714 370.189 45.0607L371.42 44.55L372.652 44.0393C371.622 41.5553 369.047 38.5585 365.194 35.0803L364.3 36.07ZM371.42 44.55L370.192 45.0695C370.395 45.5487 370.605 46.5786 370.752 48.3216C370.894 50.016 370.967 52.2481 370.967 55.03H372.3H373.634C373.634 52.2119 373.56 49.8973 373.409 48.0984C373.262 46.3481 373.032 44.938 372.648 44.0305L371.42 44.55ZM372.3 55.03H370.967V64.47H372.3H373.634V55.03H372.3ZM372.3 64.47H370.967C370.967 67.2519 370.894 69.484 370.752 71.1784C370.605 72.9214 370.395 73.9513 370.192 74.4305L371.42 74.95L372.648 75.4695C373.032 74.562 373.262 73.1519 373.409 71.4016C373.56 69.6027 373.634 67.2881 373.634 64.47H372.3ZM371.42 74.95L370.189 74.4393C369.404 76.3332 367.228 79.0176 363.399 82.5271L364.3 83.51L365.201 84.4929C369.053 80.9624 371.624 77.9401 372.652 75.4607L371.42 74.95ZM353.02 75.67L352.078 76.6128C353.174 77.7093 354.418 78.6033 355.74 78.6033V77.27V75.9367C355.569 75.9367 355 75.7641 353.963 74.7272L353.02 75.67ZM355.74 77.27V78.6033C357.078 78.6033 358.297 77.6935 359.347 76.5883L358.38 75.67L357.414 74.7517C356.437 75.7799 355.897 75.9367 355.74 75.9367V77.27ZM358.38 75.67L359.346 76.5895C360.473 75.4062 361.328 74.2404 361.839 73.0915L360.62 72.55L359.402 72.0085C359.059 72.7796 358.421 73.6938 357.415 74.7505L358.38 75.67ZM360.62 72.55L361.849 73.0674C362.155 72.3408 362.323 71.2166 362.43 69.8753C362.54 68.479 362.594 66.6732 362.594 64.47H361.26H359.927C359.927 66.6401 359.874 68.3677 359.771 69.6647C359.664 71.0168 359.512 71.7458 359.392 72.0326L360.62 72.55ZM361.26 64.47H362.594V55.03H361.26H359.927V64.47H361.26ZM361.26 55.03H362.594C362.594 52.827 362.54 51.0274 362.43 49.6437C362.324 48.3227 362.156 47.202 361.839 46.4885L360.62 47.03L359.402 47.5715C359.512 47.818 359.664 48.5106 359.771 49.8563C359.874 51.1393 359.927 52.8596 359.927 55.03H361.26ZM360.62 47.03L361.849 46.5126C361.336 45.293 360.469 44.1134 359.323 42.9672L358.38 43.91L357.438 44.8528C358.425 45.8399 359.052 46.7403 359.392 47.5474L360.62 47.03ZM358.38 43.91L359.369 43.0154C358.329 41.8663 357.104 40.8967 355.74 40.8967V42.23V43.5633C355.87 43.5633 356.405 43.7137 357.392 44.8045L358.38 43.91ZM355.74 42.23V40.8967C355.035 40.8967 354.378 41.1583 353.8 41.5156C353.216 41.8759 352.635 42.3814 352.055 42.9905L353.02 43.91L353.986 44.8295C354.473 44.3186 354.878 43.9841 355.201 43.7844C355.529 43.5817 355.699 43.5633 355.74 43.5633V42.23ZM353.02 43.91L352.054 42.9917C350.965 44.138 350.138 45.3101 349.632 46.5126L350.86 47.03L352.089 47.5474C352.436 46.7232 353.049 45.8154 353.987 44.8283L353.02 43.91ZM350.86 47.03L349.642 46.4885C349.325 47.202 349.157 48.3227 349.051 49.6437C348.941 51.0274 348.887 52.827 348.887 55.03H350.22H351.554C351.554 52.8596 351.607 51.1393 351.71 49.8563C351.817 48.5106 351.969 47.818 352.079 47.5715L350.86 47.03ZM350.22 55.03H348.887V64.47H350.22H351.554V55.03H350.22ZM350.22 64.47H348.887C348.887 66.6732 348.941 68.479 349.051 69.8753C349.158 71.2166 349.326 72.3408 349.632 73.0674L350.86 72.55L352.089 72.0326C351.969 71.7458 351.817 71.0168 351.71 69.6647C351.607 68.3677 351.554 66.6401 351.554 64.47H350.22ZM350.86 72.55L349.642 73.0915C350.145 74.2236 350.961 75.3816 352.032 76.5646L353.02 75.67L354.009 74.7754C353.053 73.7184 352.429 72.7964 352.079 72.0085L350.86 72.55ZM388.69 35.19L387.511 35.8139L388.212 37.1367L389.445 36.2887L388.69 35.19ZM404.53 35.03L403.647 36.0293L403.656 36.0371L403.665 36.0447L404.53 35.03ZM410.61 40.95L409.508 41.7011L409.516 41.7131L409.525 41.725L410.61 40.95ZM410.93 51.91L409.912 51.0487L409.86 51.1107L409.815 51.1785L410.93 51.91ZM405.73 57.91L404.798 56.9564L403.809 57.9232L404.811 58.8763L405.73 57.91ZM411.81 65.03L413.056 64.5553L413.035 64.5013L413.01 64.4493L411.81 65.03ZM413.17 75.27L411.841 75.3818L411.841 75.3828L413.17 75.27ZM413.89 87.75V89.0833H415.223V87.75H413.89ZM401.89 87.75H400.556V89.0833H401.89V87.75ZM401.25 76.47L399.921 76.5807V76.5807L401.25 76.47ZM399.81 67.19L398.594 67.7372L398.605 67.762L398.617 67.7863L399.81 67.19ZM398.05 64.39L399.057 63.5168L398.659 63.0567H398.05V64.39ZM390.93 64.39V63.0567H389.596V64.39H390.93ZM390.93 87.75V89.0833H392.263V87.75H390.93ZM379.89 87.75H378.556V89.0833H379.89V87.75ZM378.93 43.75L377.669 44.1834L377.677 44.2075L377.686 44.2313L378.93 43.75ZM375.09 37.51L374.325 36.4177L373.158 37.2351L374.051 38.3457L375.09 37.51ZM384.69 30.79L385.421 29.6753L384.666 29.1794L383.925 29.6977L384.69 30.79ZM390.93 55.03H389.596V56.3633H390.93V55.03ZM399.17 50.31L397.948 49.7756L397.94 49.7951L397.932 49.8148L399.17 50.31ZM399.17 45.27L397.944 45.7952L397.968 45.8498L397.996 45.9021L399.17 45.27ZM390.69 42.47L390.287 41.199L389.279 41.5185L389.36 42.5723L390.69 42.47ZM388.69 35.19L389.445 36.2887C391.554 34.8387 393.292 33.7757 394.67 33.0804C396.1 32.3592 396.972 32.1233 397.41 32.1233V30.79V29.4567C396.301 29.4567 394.947 29.9541 393.469 30.6996C391.941 31.4709 390.092 32.6079 387.934 34.0913L388.69 35.19ZM397.41 30.79V32.1233C397.82 32.1233 398.547 32.3285 399.668 32.9956C400.756 33.6435 402.08 34.6446 403.647 36.0293L404.53 35.03L405.413 34.0307C403.78 32.5887 402.317 31.4698 401.032 30.7044C399.779 29.9582 398.546 29.4567 397.41 29.4567V30.79ZM404.53 35.03L403.665 36.0447C406.942 38.8386 408.826 40.7002 409.508 41.7011L410.61 40.95L411.711 40.1989C410.794 38.8531 408.624 36.7681 405.395 34.0153L404.53 35.03ZM410.61 40.95L409.525 41.725C410.115 42.5509 410.476 43.7441 410.476 45.43H411.81H413.143C413.143 43.3826 412.705 41.5891 411.695 40.175L410.61 40.95ZM411.81 45.43H410.476C410.476 47.2171 410.404 48.5961 410.269 49.5906C410.201 50.088 410.122 50.4589 410.041 50.722C409.954 51.0036 409.891 51.0731 409.912 51.0487L410.93 51.91L411.948 52.7713C412.262 52.4002 412.456 51.9397 412.589 51.5079C412.728 51.0577 412.832 50.532 412.911 49.9494C413.069 48.7839 413.143 47.2696 413.143 45.43H411.81ZM410.93 51.91L409.815 51.1785C408.77 52.7714 407.112 54.695 404.798 56.9564L405.73 57.91L406.662 58.8636C409.041 56.5383 410.85 54.462 412.045 52.6415L410.93 51.91ZM405.73 57.91L404.811 58.8763C408.069 61.9736 409.927 64.1996 410.61 65.6107L411.81 65.03L413.01 64.4493C412.093 62.5537 409.898 60.0331 406.649 56.9437L405.73 57.91ZM411.81 65.03L410.564 65.5047C410.713 65.8969 410.919 66.8773 411.148 68.6055C411.371 70.2818 411.602 72.5378 411.841 75.3818L413.17 75.27L414.498 75.1582C414.258 72.2955 414.022 69.9916 413.792 68.2545C413.568 66.5694 413.333 65.2831 413.056 64.5553L411.81 65.03ZM413.17 75.27L411.841 75.3828C412.321 81.0306 412.556 85.1433 412.556 87.75H413.89H415.223C415.223 85.0234 414.979 80.8161 414.498 75.1572L413.17 75.27ZM413.89 87.75V86.4167H401.89V87.75V89.0833H413.89V87.75ZM401.89 87.75H403.223C403.223 85.291 403.006 81.4845 402.579 76.3593L401.25 76.47L399.921 76.5807C400.347 81.6955 400.556 85.409 400.556 87.75H401.89ZM401.25 76.47L402.579 76.3593C402.364 73.785 402.134 71.6966 401.887 70.1055C401.65 68.5745 401.374 67.3376 401.002 66.5937L399.81 67.19L398.617 67.7863C398.779 68.1091 399.01 68.9522 399.252 70.5145C399.485 72.0167 399.709 74.035 399.921 76.5807L401.25 76.47ZM399.81 67.19L401.026 66.6428C400.498 65.4702 399.844 64.4244 399.057 63.5168L398.05 64.39L397.042 65.2632C397.642 65.9556 398.162 66.7765 398.594 67.7372L399.81 67.19ZM398.05 64.39V63.0567H390.93V64.39V65.7233H398.05V64.39ZM390.93 64.39H389.596V87.75H390.93H392.263V64.39H390.93ZM390.93 87.75V86.4167H379.89V87.75V89.0833H390.93V87.75ZM379.89 87.75H381.223V52.71H379.89H378.556V87.75H379.89ZM379.89 52.71H381.223C381.223 48.3956 380.913 45.1794 380.173 43.2687L378.93 43.75L377.686 44.2313C378.227 45.6272 378.556 48.3844 378.556 52.71H379.89ZM378.93 43.75L380.191 43.3166C379.53 41.3941 378.138 39.1722 376.129 36.6743L375.09 37.51L374.051 38.3457C375.988 40.7545 377.156 42.6926 377.669 44.1834L378.93 43.75ZM375.09 37.51L375.854 38.6023L385.454 31.8823L384.69 30.79L383.925 29.6977L374.325 36.4177L375.09 37.51ZM384.69 30.79L383.958 31.9047C385.476 32.9007 386.656 34.1981 387.511 35.8139L388.69 35.19L389.868 34.5661C388.804 32.5552 387.317 30.9193 385.421 29.6753L384.69 30.79ZM390.93 48.87H389.596V55.03H390.93H392.263V48.87H390.93ZM390.93 55.03V56.3633H394.05V55.03V53.6967H390.93V55.03ZM394.05 55.03V56.3633C394.763 56.3633 395.434 56.0888 396.025 55.7277C396.627 55.3602 397.243 54.8423 397.873 54.2128L396.93 53.27L395.987 52.3272C395.443 52.871 394.993 53.2332 394.635 53.4523C394.265 53.6779 394.083 53.6967 394.05 53.6967V55.03ZM396.93 53.27L397.873 54.2128C399.077 53.0081 399.984 51.8648 400.408 50.8052L399.17 50.31L397.932 49.8148C397.716 50.3552 397.129 51.1852 395.987 52.3272L396.93 53.27ZM399.17 50.31L400.391 50.8444C400.836 49.8273 401.063 48.7657 401.063 47.67H399.73H398.396C398.396 48.3876 398.25 49.086 397.948 49.7756L399.17 50.31ZM399.73 47.67H401.063C401.063 46.5763 400.837 45.5531 400.344 44.6379L399.17 45.27L397.996 45.9021C398.25 46.3736 398.396 46.9503 398.396 47.67H399.73ZM399.17 45.27L400.395 44.7448C400.028 43.8876 399.495 42.9784 398.819 42.0211L397.73 42.79L396.641 43.5589C397.245 44.415 397.672 45.159 397.944 45.7952L399.17 45.27ZM397.73 42.79L398.819 42.0211C398.467 41.5229 398.1 41.0827 397.713 40.7541C397.349 40.4446 396.807 40.0967 396.13 40.0967V41.43V42.7633C395.879 42.7633 395.817 42.642 395.986 42.7859C396.133 42.9106 396.352 43.1504 396.641 43.5589L397.73 42.79ZM396.13 41.43V40.0967C394.497 40.0967 392.536 40.4858 390.287 41.199L390.69 42.47L391.093 43.741C393.217 43.0675 394.883 42.7633 396.13 42.7633V41.43ZM390.69 42.47L389.36 42.5723C389.518 44.6167 389.596 46.7158 389.596 48.87H390.93H392.263C392.263 46.6508 392.182 44.4833 392.019 42.3677L390.69 42.47Z" fill="#865849" mask="url(#path-2-inside-1_13_19388)"/>
</svg>
