<svg width="459" height="122" viewBox="0 0 459 122" fill="none" xmlns="http://www.w3.org/2000/svg">
<path d="M6.29428 113.75H452.206C454.715 113.75 456.75 111.536 456.75 108.805V12.6946C456.75 9.96379 454.715 7.75 452.206 7.75H6.29428C3.78455 7.75 1.75 9.96379 1.75 12.6946V108.805C1.75 111.536 3.78455 113.75 6.29428 113.75Z" fill="white" stroke="#865849" stroke-width="3.5" stroke-linecap="square"/>
<path d="M12.3279 119.75H446.172C448.678 119.75 450.71 117.527 450.71 114.784V6.71579C450.71 3.97326 448.678 1.75 446.172 1.75H12.3279C9.82156 1.75 7.78986 3.97326 7.78986 6.71579V114.784C7.78986 117.527 9.82156 119.75 12.3279 119.75Z" stroke="#865849" stroke-width="3.5" stroke-linecap="square"/>
<path d="M117.5 63.529V56.009C117.5 49.3424 118.033 45.0757 119.1 43.209C120.167 41.3424 122.433 38.809 125.9 35.609C129.42 32.409 132.033 30.809 133.74 30.809C136.673 30.809 140.033 32.5157 143.82 35.929C147.607 39.289 150.007 42.9957 151.02 47.049L142.14 53.209C141.287 50.329 139.927 47.689 138.06 45.289C136.193 42.8357 134.887 41.609 134.14 41.609C132.807 41.609 131.287 42.9157 129.58 45.529C128.887 46.5424 128.54 50.0357 128.54 56.009V63.529C128.54 69.6624 128.887 73.1557 129.58 74.009C131.287 76.6224 132.807 77.929 134.14 77.929C134.887 77.929 136.193 76.889 138.06 74.809C139.927 72.6757 141.287 70.329 142.14 67.769L151.02 74.009C150.007 77.689 147.607 81.0757 143.82 84.169C140.033 87.209 136.673 88.729 133.74 88.729C132.033 88.729 129.42 87.129 125.9 83.929C122.433 80.729 120.167 78.1957 119.1 76.329C118.033 74.4624 117.5 70.1957 117.5 63.529ZM158.261 87.769V31.769H169.301V87.769H158.261ZM206.581 31.769V41.369H196.181V87.769H185.141V41.369H174.741V31.769H206.581ZM212.011 87.769V31.769H223.051V87.769H212.011ZM261.371 87.769H229.531V79.769L249.211 41.369H230.491V31.769H261.371V39.769L241.611 78.169H261.371V87.769ZM278.431 53.689H292.751V63.369H278.431V78.089H297.551V87.769H267.391V38.489L278.431 30.809H296.271V40.569H281.391L278.431 42.649V53.689ZM316.123 45.449L316.203 48.889V87.769H305.163V53.529C305.163 49.049 304.843 45.9024 304.203 44.089C303.616 42.2757 302.336 40.089 300.363 37.529L309.963 30.809C311.509 31.8224 312.949 33.5557 314.283 36.009C318.496 32.5424 321.349 30.809 322.843 30.809C324.336 30.809 326.683 32.2224 329.883 35.049C333.136 37.8224 335.163 39.7957 335.963 40.969C336.763 42.089 337.163 43.5824 337.163 45.449V87.769H326.043V47.049C326.043 46.569 325.829 45.9824 325.403 45.289C325.029 44.5424 324.416 43.7157 323.563 42.809C322.763 41.9024 321.989 41.449 321.243 41.449C320.549 41.449 319.669 41.8757 318.603 42.729C317.536 43.529 316.709 44.4357 316.123 45.449Z" fill="#865849"/>
</svg>
