<svg width="208" height="276" viewBox="0 0 208 276" fill="none" xmlns="http://www.w3.org/2000/svg">
<path d="M207.874 0H0V275.906H207.874V0Z" fill="#EAE6C4"/>
<path d="M188.976 18.8976H18.8977V257.008H188.976V18.8976Z" fill="#EAE6C4"/>
<path d="M167.547 28.02H40.3272C35.7349 28.02 32.0122 31.7427 32.0122 36.335V239.57C32.0122 244.163 35.7349 247.885 40.3272 247.885H167.547C172.14 247.885 175.862 244.163 175.862 239.57V36.335C175.862 31.7427 172.14 28.02 167.547 28.02Z" fill="#E66443"/>
<path d="M141.879 42.1332V63.8305H161.665V233.868H46.2097V42.1332H141.879Z" fill="#EAE6C4"/>
<path d="M144.52 43.9106V60.7965H161.406L144.52 43.9106Z" fill="#EAE6C4"/>
<path d="M54.8976 146.569C55.6215 146.569 56.2084 145.982 56.2084 145.258C56.2084 144.534 55.6215 143.947 54.8976 143.947C54.1737 143.947 53.5869 144.534 53.5869 145.258C53.5869 145.982 54.1737 146.569 54.8976 146.569Z" fill="#E66443"/>
<path d="M58.9843 146.569C59.7082 146.569 60.2951 145.982 60.2951 145.258C60.2951 144.534 59.7082 143.947 58.9843 143.947C58.2604 143.947 57.6736 144.534 57.6736 145.258C57.6736 145.982 58.2604 146.569 58.9843 146.569Z" fill="#E66443"/>
<path d="M63.071 146.569C63.7949 146.569 64.3817 145.982 64.3817 145.258C64.3817 144.534 63.7949 143.947 63.071 143.947C62.3471 143.947 61.7603 144.534 61.7603 145.258C61.7603 145.982 62.3471 146.569 63.071 146.569Z" fill="#E66443"/>
<path d="M67.1574 146.569C67.8813 146.569 68.4681 145.982 68.4681 145.258C68.4681 144.534 67.8813 143.947 67.1574 143.947C66.4335 143.947 65.8467 144.534 65.8467 145.258C65.8467 145.982 66.4335 146.569 67.1574 146.569Z" fill="#E66443"/>
<path d="M71.2441 146.569C71.968 146.569 72.5548 145.982 72.5548 145.258C72.5548 144.534 71.968 143.947 71.2441 143.947C70.5202 143.947 69.9333 144.534 69.9333 145.258C69.9333 145.982 70.5202 146.569 71.2441 146.569Z" fill="#E66443"/>
<path d="M75.3308 146.569C76.0547 146.569 76.6415 145.982 76.6415 145.258C76.6415 144.534 76.0547 143.947 75.3308 143.947C74.6069 143.947 74.02 144.534 74.02 145.258C74.02 145.982 74.6069 146.569 75.3308 146.569Z" fill="#E66443"/>
<path d="M79.4174 146.569C80.1413 146.569 80.7282 145.982 80.7282 145.258C80.7282 144.534 80.1413 143.947 79.4174 143.947C78.6935 143.947 78.1067 144.534 78.1067 145.258C78.1067 145.982 78.6935 146.569 79.4174 146.569Z" fill="#E66443"/>
<path d="M83.5041 146.569C84.228 146.569 84.8148 145.982 84.8148 145.258C84.8148 144.534 84.228 143.947 83.5041 143.947C82.7802 143.947 82.1934 144.534 82.1934 145.258C82.1934 145.982 82.7802 146.569 83.5041 146.569Z" fill="#E66443"/>
<path d="M87.5908 146.569C88.3147 146.569 88.9015 145.982 88.9015 145.258C88.9015 144.534 88.3147 143.947 87.5908 143.947C86.8669 143.947 86.28 144.534 86.28 145.258C86.28 145.982 86.8669 146.569 87.5908 146.569Z" fill="#E66443"/>
<path d="M91.6772 146.569C92.4011 146.569 92.9879 145.982 92.9879 145.258C92.9879 144.534 92.4011 143.947 91.6772 143.947C90.9533 143.947 90.3665 144.534 90.3665 145.258C90.3665 145.982 90.9533 146.569 91.6772 146.569Z" fill="#E66443"/>
<path d="M95.7639 146.569C96.4878 146.569 97.0746 145.982 97.0746 145.258C97.0746 144.534 96.4878 143.947 95.7639 143.947C95.04 143.947 94.4531 144.534 94.4531 145.258C94.4531 145.982 95.04 146.569 95.7639 146.569Z" fill="#E66443"/>
<path d="M99.8505 146.569C100.574 146.569 101.161 145.982 101.161 145.258C101.161 144.534 100.574 143.947 99.8505 143.947C99.1266 143.947 98.5398 144.534 98.5398 145.258C98.5398 145.982 99.1266 146.569 99.8505 146.569Z" fill="#E66443"/>
<path d="M103.937 146.569C104.661 146.569 105.248 145.982 105.248 145.258C105.248 144.534 104.661 143.947 103.937 143.947C103.213 143.947 102.626 144.534 102.626 145.258C102.626 145.982 103.213 146.569 103.937 146.569Z" fill="#E66443"/>
<path d="M108.024 146.569C108.748 146.569 109.335 145.982 109.335 145.258C109.335 144.534 108.748 143.947 108.024 143.947C107.3 143.947 106.713 144.534 106.713 145.258C106.713 145.982 107.3 146.569 108.024 146.569Z" fill="#E66443"/>
<path d="M112.111 146.569C112.834 146.569 113.421 145.982 113.421 145.258C113.421 144.534 112.834 143.947 112.111 143.947C111.387 143.947 110.8 144.534 110.8 145.258C110.8 145.982 111.387 146.569 112.111 146.569Z" fill="#E66443"/>
<path d="M116.197 146.569C116.921 146.569 117.508 145.982 117.508 145.258C117.508 144.534 116.921 143.947 116.197 143.947C115.473 143.947 114.886 144.534 114.886 145.258C114.886 145.982 115.473 146.569 116.197 146.569Z" fill="#E66443"/>
<path d="M120.284 146.569C121.008 146.569 121.594 145.982 121.594 145.258C121.594 144.534 121.008 143.947 120.284 143.947C119.56 143.947 118.973 144.534 118.973 145.258C118.973 145.982 119.56 146.569 120.284 146.569Z" fill="#E66443"/>
<path d="M124.37 146.569C125.094 146.569 125.681 145.982 125.681 145.258C125.681 144.534 125.094 143.947 124.37 143.947C123.646 143.947 123.06 144.534 123.06 145.258C123.06 145.982 123.646 146.569 124.37 146.569Z" fill="#E66443"/>
<path d="M128.457 146.569C129.181 146.569 129.768 145.982 129.768 145.258C129.768 144.534 129.181 143.947 128.457 143.947C127.733 143.947 127.146 144.534 127.146 145.258C127.146 145.982 127.733 146.569 128.457 146.569Z" fill="#E66443"/>
<path d="M132.544 146.569C133.268 146.569 133.854 145.982 133.854 145.258C133.854 144.534 133.268 143.947 132.544 143.947C131.82 143.947 131.233 144.534 131.233 145.258C131.233 145.982 131.82 146.569 132.544 146.569Z" fill="#E66443"/>
<path d="M136.63 146.569C137.354 146.569 137.941 145.982 137.941 145.258C137.941 144.534 137.354 143.947 136.63 143.947C135.906 143.947 135.32 144.534 135.32 145.258C135.32 145.982 135.906 146.569 136.63 146.569Z" fill="#E66443"/>
<path d="M140.717 146.569C141.441 146.569 142.027 145.982 142.027 145.258C142.027 144.534 141.441 143.947 140.717 143.947C139.993 143.947 139.406 144.534 139.406 145.258C139.406 145.982 139.993 146.569 140.717 146.569Z" fill="#E66443"/>
<path d="M144.803 146.569C145.527 146.569 146.114 145.982 146.114 145.258C146.114 144.534 145.527 143.947 144.803 143.947C144.08 143.947 143.493 144.534 143.493 145.258C143.493 145.982 144.08 146.569 144.803 146.569Z" fill="#E66443"/>
<path d="M148.89 146.569C149.614 146.569 150.201 145.982 150.201 145.258C150.201 144.534 149.614 143.947 148.89 143.947C148.166 143.947 147.579 144.534 147.579 145.258C147.579 145.982 148.166 146.569 148.89 146.569Z" fill="#E66443"/>
<path d="M152.977 146.569C153.701 146.569 154.287 145.982 154.287 145.258C154.287 144.534 153.701 143.947 152.977 143.947C152.253 143.947 151.666 144.534 151.666 145.258C151.666 145.982 152.253 146.569 152.977 146.569Z" fill="#E66443"/>
<path d="M130.901 154.99H153.134Z" fill="#E66443"/>
<path d="M130.901 154.99H153.134" stroke="#E66443" stroke-width="2.26772"/>
<path d="M130.901 163.528H153.134Z" fill="#E66443"/>
<path d="M130.901 163.528H153.134" stroke="#E66443" stroke-width="2.26772"/>
<path d="M54.7407 172.066H153.134Z" fill="#E66443"/>
<path d="M54.7407 172.066H153.134" stroke="#E66443" stroke-width="2.26772"/>
<path d="M54.7407 180.604H153.134Z" fill="#E66443"/>
<path d="M54.7407 180.604H153.134" stroke="#E66443" stroke-width="2.26772"/>
<path d="M54.7407 189.142H140.276Z" fill="#E66443"/>
<path d="M54.7407 189.142H140.276" stroke="#E66443" stroke-width="2.26772"/>
<path d="M54.7407 206.159H153.134Z" fill="#E66443"/>
<path d="M54.7407 206.159H153.134" stroke="#E66443" stroke-width="2.26772"/>
<path d="M54.7407 214.697H153.134Z" fill="#E66443"/>
<path d="M54.7407 214.697H153.134" stroke="#E66443" stroke-width="2.26772"/>
<path d="M54.7407 223.234H153.134Z" fill="#E66443"/>
<path d="M54.7407 223.234H153.134" stroke="#E66443" stroke-width="2.26772"/>
<path d="M56.6243 164.035H55.2605L59.205 153.293H60.5478L64.4923 164.035H63.1285L59.9183 154.992H59.8344L56.6243 164.035ZM57.1278 159.839H62.6249V160.993H57.1278V159.839ZM66.1656 164.035V153.293H69.7953C70.6346 153.293 71.3235 153.436 71.862 153.723C72.4005 154.006 72.7992 154.396 73.058 154.893C73.3167 155.389 73.4461 155.954 73.4461 156.587C73.4461 157.22 73.3167 157.781 73.058 158.271C72.7992 158.76 72.4023 159.145 71.8673 159.425C71.3322 159.701 70.6486 159.839 69.8163 159.839H66.8789V158.664H69.7744C70.3479 158.664 70.8094 158.58 71.1591 158.412C71.5123 158.245 71.7676 158.007 71.925 157.699C72.0858 157.388 72.1662 157.017 72.1662 156.587C72.1662 156.157 72.0858 155.781 71.925 155.459C71.7641 155.138 71.5071 154.889 71.1539 154.714C70.8007 154.536 70.3339 154.447 69.7534 154.447H67.4664V164.035H66.1656ZM71.2221 159.21L73.8657 164.035H72.3551L69.7534 159.21H71.2221ZM75.0263 154.447V153.293H83.0831V154.447H79.7051V164.035H78.4043V154.447H75.0263ZM86.3916 153.293V164.035H85.0908V153.293H86.3916ZM97.6442 156.65H96.3434C96.2664 156.276 96.1318 155.947 95.9395 155.664C95.7506 155.381 95.5199 155.143 95.2471 154.95C94.9778 154.755 94.6788 154.608 94.3501 154.51C94.0214 154.412 93.6787 154.363 93.3221 154.363C92.6716 154.363 92.0824 154.527 91.5544 154.856C91.0298 155.185 90.612 155.669 90.3007 156.309C89.993 156.949 89.8391 157.734 89.8391 158.664C89.8391 159.594 89.993 160.379 90.3007 161.019C90.612 161.659 91.0298 162.144 91.5544 162.472C92.0824 162.801 92.6716 162.965 93.3221 162.965C93.6787 162.965 94.0214 162.916 94.3501 162.818C94.6788 162.721 94.9778 162.575 95.2471 162.383C95.5199 162.187 95.7506 161.948 95.9395 161.665C96.1318 161.378 96.2664 161.049 96.3434 160.678H97.6442C97.5463 161.227 97.368 161.719 97.1092 162.152C96.8504 162.586 96.5287 162.955 96.1441 163.259C95.7594 163.56 95.3275 163.789 94.8484 163.946C94.3729 164.104 93.8641 164.182 93.3221 164.182C92.4059 164.182 91.5911 163.958 90.8777 163.511C90.1644 163.063 89.6031 162.427 89.194 161.602C88.7848 160.776 88.5803 159.797 88.5803 158.664C88.5803 157.531 88.7848 156.552 89.194 155.727C89.6031 154.901 90.1644 154.265 90.8777 153.817C91.5911 153.37 92.4059 153.146 93.3221 153.146C93.8641 153.146 94.3729 153.225 94.8484 153.382C95.3275 153.539 95.7594 153.77 96.1441 154.074C96.5287 154.375 96.8504 154.742 97.1092 155.176C97.368 155.606 97.5463 156.097 97.6442 156.65ZM99.7463 164.035V153.293H101.047V162.881H106.041V164.035H99.7463ZM108.055 164.035V153.293H114.538V154.447H109.356V158.077H114.202V159.231H109.356V162.881H114.622V164.035H108.055Z" fill="#E66443"/>
<path d="M99.7819 99.6802C99.724 99.6223 99.3335 99.557 98.9141 99.535C98.4947 99.513 98.1298 99.4599 98.1033 99.417C98.0768 99.3741 97.9017 99.339 97.7142 99.339C97.52 99.339 97.3254 99.2813 97.2621 99.2051C97.201 99.1314 97.0654 99.0698 96.9609 99.0683C96.8565 99.0663 96.693 99.0065 96.5977 98.9344C96.5024 98.8623 96.3517 98.8033 96.2629 98.8033C96.1741 98.8033 96.1013 98.7678 96.1013 98.7244C96.1013 98.681 96.031 98.6197 95.9451 98.5882C95.6191 98.4687 95.2873 98.2484 95.1838 98.0825C95.1247 97.9878 95.0308 97.9104 94.9752 97.9104C94.9196 97.9104 94.7057 97.7195 94.5 97.4863C93.9828 96.8999 93.9585 96.8649 93.9585 96.706C93.9585 96.6287 93.8982 96.5424 93.8246 96.5141C93.7509 96.4858 93.6906 96.3715 93.6906 96.26C93.6906 96.1485 93.6303 96.0072 93.5567 95.9461C93.483 95.885 93.4228 95.7418 93.4228 95.6279C93.4228 95.5141 93.3826 95.3961 93.3335 95.3657C93.2791 95.3321 93.2442 94.6527 93.2442 93.6258C93.2442 92.2473 93.2199 91.9167 93.1102 91.8071C93.0365 91.7334 92.9763 91.6458 92.9763 91.6124C92.9763 91.579 92.8994 91.4656 92.8054 91.3605C92.7114 91.2553 92.4857 90.9986 92.3039 90.7898C92.1221 90.5811 91.9178 90.4104 91.8498 90.4104C91.7819 90.4104 91.7263 90.3734 91.7263 90.3282C91.7263 90.283 91.6062 90.2196 91.4595 90.1874C91.3127 90.1552 91.1697 90.0917 91.1417 90.0464C91.1137 90.0011 90.975 89.964 90.8335 89.964C90.6919 89.964 90.5513 89.9238 90.521 89.8747C90.4907 89.8256 90.2094 89.7854 89.896 89.7854C89.5826 89.7854 89.3013 89.8256 89.271 89.8747C89.2388 89.9267 88.738 89.964 88.0713 89.964C87.1628 89.964 86.9038 89.9364 86.8156 89.83C86.7545 89.7563 86.6491 89.6961 86.5815 89.6961C86.5139 89.6961 86.4585 89.6624 86.4585 89.6211C86.4585 89.5799 86.358 89.5004 86.2352 89.4445C86.1125 89.3886 86.012 89.2872 86.012 89.2194C86.012 89.1516 85.9116 89.0206 85.7888 88.9285C85.6661 88.8363 85.5656 88.715 85.5656 88.659C85.5656 88.603 85.5053 88.5072 85.4317 88.4461C85.358 88.385 85.2977 88.2381 85.2977 88.1198C85.2977 88.0015 85.2374 87.8816 85.1638 87.8533C85.0733 87.8186 85.0299 87.6766 85.0299 87.415C85.0299 87.2022 84.9897 87.0032 84.9406 86.9728C84.8915 86.9425 84.8513 86.8273 84.8513 86.7168C84.8513 86.6063 84.7923 86.4379 84.7202 86.3426C84.6481 86.2473 84.5878 86.0617 84.5863 85.9301C84.5843 85.7986 84.5232 85.6307 84.4495 85.557C84.3758 85.4833 84.3156 85.282 84.3156 85.1095C84.3156 84.937 84.2777 84.7725 84.2315 84.7439C84.1852 84.7153 84.1203 84.5115 84.0872 84.2911C84.0541 84.0707 83.9916 83.8683 83.9482 83.8415C83.8389 83.774 83.8483 82.3981 83.9585 82.33C84.0076 82.2997 84.0478 82.1817 84.0478 82.0678C84.0478 81.9539 84.1081 81.8108 84.1817 81.7496C84.2554 81.6885 84.3156 81.5883 84.3156 81.5269C84.3156 81.424 84.591 81.1514 85.3982 80.455C85.7903 80.1167 86.0121 79.765 86.0121 79.4813C86.0121 79.3597 86.0523 79.2353 86.1014 79.205C86.2193 79.1321 86.2193 77.135 86.1014 77.0621C86.0504 77.0306 86.0108 76.5591 86.009 75.9631C86.007 75.2269 85.9682 74.8535 85.8782 74.6961C85.7916 74.5445 85.7496 74.1846 85.7474 73.5755C85.7454 73.082 85.7084 72.64 85.6647 72.5934C85.621 72.5468 85.5676 71.955 85.5461 71.2783C85.5216 70.5069 85.468 70.0091 85.4024 69.9435C85.2731 69.8142 85.2524 66.2139 85.3809 66.2139C85.4266 66.2139 85.4922 65.8916 85.5266 65.4977C85.561 65.1037 85.624 64.7598 85.6666 64.7335C85.7093 64.7071 85.7442 64.4656 85.7442 64.1969C85.7442 63.845 85.7817 63.6939 85.8782 63.6569C85.9519 63.6286 86.0134 63.5194 86.0149 63.4142C86.0169 63.3089 86.0767 63.1449 86.1489 63.0495C86.221 62.9542 86.2799 62.7657 86.2799 62.6307C86.2799 62.4957 86.3202 62.3603 86.3693 62.33C86.4184 62.2997 86.4586 62.1816 86.4586 62.0678C86.4586 61.9539 86.5188 61.8108 86.5925 61.7496C86.6662 61.6885 86.7264 61.568 86.7264 61.4818C86.7264 61.3956 86.7867 61.275 86.8603 61.2139C86.934 61.1528 86.9943 61.0273 86.9943 60.9351C86.9943 60.8429 87.0345 60.7675 87.0836 60.7675C87.1327 60.7675 87.1729 60.7045 87.1729 60.6276C87.1729 60.5507 87.2683 60.3598 87.3849 60.2035C87.5016 60.0472 87.665 59.7726 87.748 59.5934C87.831 59.4142 88.0158 59.153 88.1585 59.013C88.3012 58.8731 88.419 58.7029 88.4204 58.6349C88.4214 58.5668 88.5233 58.4181 88.6461 58.3043C88.7689 58.1905 88.8693 58.0553 88.8693 58.0039C88.8693 57.9524 88.9296 57.9103 89.0032 57.9103C89.0769 57.9103 89.1371 57.8649 89.1371 57.8094C89.1371 57.6658 90.8966 55.9673 91.3247 55.6975C91.5211 55.5737 91.7703 55.3781 91.8784 55.2628C91.9866 55.1475 92.1122 55.0532 92.1577 55.0532C92.2031 55.0532 92.2903 54.9929 92.3514 54.9193C92.4125 54.8456 92.5168 54.7853 92.583 54.7853C92.7098 54.7853 93.5356 54.2527 93.5866 54.138C93.603 54.1012 93.7302 54.0711 93.8693 54.0711C94.0084 54.0711 94.1357 54.0409 94.152 54.0041C94.1684 53.9673 94.3425 53.8633 94.5389 53.7731C94.7354 53.6829 95.0098 53.5523 95.1488 53.483C95.2879 53.4136 95.454 53.3568 95.5181 53.3568C95.5822 53.3568 95.7497 53.2968 95.8903 53.2234C96.031 53.15 96.2542 53.0898 96.3863 53.0895C96.5185 53.0892 96.6514 53.0487 96.6818 52.9996C96.7121 52.9505 96.8363 52.9103 96.9577 52.9103C97.0791 52.9103 97.2016 52.8501 97.2299 52.7764C97.2674 52.6787 97.4209 52.6425 97.7972 52.6425C98.0812 52.6425 98.4281 52.5825 98.5689 52.5091C98.9381 52.3166 104.336 52.3161 104.673 52.5085C104.796 52.5787 105.082 52.6376 105.309 52.6393C105.564 52.6413 105.765 52.6937 105.834 52.7764C105.895 52.8501 106.05 52.9116 106.179 52.9132C106.419 52.9162 107.308 53.1944 107.413 53.299C107.445 53.3308 107.58 53.3568 107.714 53.3568C107.848 53.3568 107.98 53.417 108.009 53.4907C108.037 53.5644 108.159 53.6246 108.281 53.6246C108.402 53.6246 108.525 53.6617 108.553 53.707C108.581 53.7524 108.724 53.8158 108.87 53.8481C109.017 53.8803 109.137 53.9437 109.137 53.9889C109.137 54.0341 109.238 54.071 109.36 54.071C109.483 54.071 109.584 54.1084 109.584 54.1541C109.584 54.1997 109.764 54.3274 109.985 54.4378C110.206 54.5481 110.387 54.6715 110.387 54.7119C110.387 54.7523 110.488 54.7853 110.61 54.7853C110.733 54.7853 110.834 54.8178 110.834 54.8575C110.834 54.8972 110.997 55.0479 111.196 55.1923C111.655 55.5242 112.094 55.8871 112.624 56.3702C112.852 56.5789 113.062 56.7496 113.09 56.7496C113.161 56.7496 113.69 57.2854 113.693 57.3592C113.694 57.3922 113.915 57.6503 114.184 57.9328C114.453 58.2152 114.673 58.4821 114.673 58.5259C114.673 58.5697 114.733 58.6286 114.807 58.6569C114.88 58.6852 114.941 58.764 114.941 58.832C114.941 58.9 115.033 59.0552 115.146 59.1768C115.258 59.2984 115.466 59.6266 115.608 59.9061C115.749 60.1857 115.918 60.4586 115.983 60.5126C116.048 60.5666 116.101 60.6612 116.101 60.7228C116.101 60.7845 116.162 60.8849 116.235 60.946C116.309 61.0072 116.369 61.1506 116.369 61.2648C116.369 61.3789 116.47 61.6612 116.593 61.8921C116.715 62.123 116.816 62.3876 116.816 62.48C116.816 62.5724 116.876 62.6712 116.95 62.6995C117.032 62.731 117.084 62.8663 117.084 63.0485C117.084 63.2123 117.118 63.3678 117.161 63.3941C117.204 63.4205 117.266 63.6828 117.299 63.977C117.332 64.2713 117.393 64.5328 117.434 64.5581C117.475 64.5834 117.537 64.9058 117.572 65.2745C117.606 65.6432 117.671 65.9676 117.716 65.9954C117.847 66.0761 117.821 69.9946 117.689 70.1266C117.617 70.1982 117.568 70.6571 117.545 71.4614C117.526 72.1355 117.478 72.7273 117.439 72.7764C117.399 72.8255 117.338 73.5197 117.302 74.3191C117.266 75.1184 117.203 75.7938 117.16 75.8199C117.118 75.846 117.083 76.6853 117.083 77.6852C117.083 79.8085 117.065 79.7495 118.021 80.7288C118.827 81.5545 118.92 81.6721 118.991 81.9583C119.024 82.0891 119.091 82.1961 119.139 82.1961C119.287 82.1961 119.243 83.9078 119.09 84.1104C119.017 84.2057 118.958 84.4368 118.958 84.6238C118.958 84.8109 118.918 84.9639 118.869 84.9639C118.82 84.9639 118.78 85.0744 118.779 85.2094C118.779 85.3445 118.719 85.5701 118.645 85.7107C118.572 85.8514 118.512 86.058 118.512 86.1699C118.512 86.2818 118.452 86.3965 118.378 86.4248C118.291 86.4583 118.244 86.597 118.244 86.8224C118.244 87.1313 118.139 87.4539 117.881 87.9315C117.835 88.0168 117.798 88.1656 117.798 88.2624C117.798 88.3592 117.638 88.6108 117.442 88.8216C117.246 89.0325 117.085 89.2487 117.085 89.3022C117.084 89.3557 116.923 89.4762 116.727 89.5701C116.531 89.6639 116.371 89.7909 116.37 89.8523C116.369 89.9931 113.643 90.0147 113.557 89.8746C113.526 89.8255 113.305 89.7853 113.066 89.7853C112.826 89.7853 112.605 89.8255 112.575 89.8746C112.544 89.9237 112.404 89.9639 112.262 89.9639C112.12 89.9639 111.983 89.9989 111.957 90.0417C111.93 90.0845 111.793 90.1426 111.652 90.1709C111.493 90.2026 111.15 90.4677 110.757 90.8625L110.119 91.5028V93.0885C110.119 94.3891 110.095 94.6942 109.985 94.7854C109.912 94.8465 109.851 95.015 109.851 95.1598C109.851 95.3046 109.791 95.4834 109.717 95.5571C109.644 95.6308 109.583 95.8087 109.583 95.9525C109.583 96.0963 109.543 96.214 109.494 96.214C109.445 96.214 109.405 96.3144 109.405 96.4372C109.405 96.5599 109.363 96.6604 109.313 96.6604C109.262 96.6604 109.192 96.7307 109.156 96.8166C109.028 97.1301 108.643 97.6403 108.534 97.6414C108.473 97.642 108.423 97.693 108.423 97.7546C108.423 97.8163 108.298 97.9218 108.146 97.9891C107.995 98.0563 107.752 98.2268 107.608 98.368C107.463 98.5092 107.289 98.6247 107.22 98.6247C107.15 98.6247 107.069 98.6649 107.039 98.714C107.008 98.7631 106.888 98.8033 106.772 98.8033C106.656 98.8033 106.5 98.8636 106.426 98.9372C106.353 99.0109 106.234 99.0711 106.163 99.0711C106.092 99.0711 105.984 99.1314 105.923 99.205C105.855 99.2862 105.66 99.339 105.426 99.339C105.214 99.339 105.019 99.3735 104.993 99.4157C104.967 99.4579 104.699 99.5147 104.397 99.5421C104.095 99.5695 103.805 99.6354 103.752 99.6886C103.611 99.8291 99.923 99.8209 99.7819 99.6802ZM99.8067 92.3747C99.837 92.3256 99.97 92.2851 100.102 92.2848C100.402 92.2841 100.785 92.0359 101.165 91.5966C101.406 91.3181 101.472 91.2824 101.54 91.394C101.707 91.6673 102.078 92.0175 102.202 92.0175C102.272 92.0175 102.379 92.0778 102.441 92.1515C102.502 92.2252 102.645 92.2854 102.759 92.2854C102.873 92.2854 102.991 92.3256 103.021 92.3747C103.051 92.4238 103.154 92.464 103.249 92.464C103.345 92.464 103.423 92.4238 103.423 92.3747C103.423 92.3256 103.543 92.2854 103.691 92.2854C103.838 92.2854 103.958 92.2529 103.958 92.2133C103.958 92.1737 104.139 92.0137 104.36 91.858C104.581 91.7022 104.762 91.5137 104.762 91.439C104.762 91.3643 104.795 91.3032 104.834 91.3032C104.951 91.3032 105.208 90.6416 105.208 90.341C105.208 90.1885 105.249 90.0389 105.298 90.0086C105.347 89.9783 105.387 89.8175 105.387 89.6515C105.387 89.4854 105.347 89.3247 105.298 89.2943C105.249 89.264 105.208 89.1231 105.208 88.9813C105.208 88.6906 104.822 87.9063 104.624 87.7956C104.553 87.7556 104.494 87.6446 104.494 87.5488C104.494 87.453 104.453 87.3747 104.402 87.3747C104.351 87.3747 104.284 87.3044 104.252 87.2184C104.22 87.1325 104.04 86.8788 103.853 86.6546C103.665 86.4305 103.512 86.1817 103.512 86.1019C103.512 86.022 103.472 85.9318 103.423 85.9015C103.374 85.8712 103.333 85.7531 103.333 85.6393C103.333 85.5254 103.273 85.3822 103.199 85.3211C103.126 85.26 103.066 85.102 103.066 84.9701C103.066 84.8382 103.007 84.6522 102.934 84.5569C102.862 84.4616 102.802 84.3007 102.801 84.1995C102.797 83.9214 102.468 83.2965 102.243 83.139C102.115 83.0496 101.848 82.9997 101.498 82.9997C100.989 82.9997 100.927 83.0228 100.58 83.3431C100.376 83.532 100.208 83.753 100.208 83.8342C100.208 83.9154 100.168 83.9818 100.119 83.9818C100.07 83.9818 100.03 84.078 100.03 84.1955C100.03 84.313 99.9695 84.4323 99.8959 84.4605C99.816 84.4912 99.762 84.6256 99.762 84.7939C99.762 85.0625 99.2822 86.1689 99.1231 86.2672C99.0816 86.2928 99.0477 86.4276 99.0477 86.5668C99.0477 86.7094 98.9892 86.8423 98.9138 86.8712C98.8401 86.8995 98.7798 86.9819 98.7798 87.0543C98.7798 87.1267 98.7084 87.2385 98.6212 87.3026C98.3245 87.5208 97.7977 88.2405 97.7977 88.4277C97.7977 88.5302 97.7575 88.639 97.7084 88.6693C97.5954 88.7391 97.589 90.7384 97.7014 90.8079C97.7467 90.8359 97.8105 90.9804 97.8431 91.129C97.9067 91.4185 98.459 92.0175 98.6622 92.0175C98.7299 92.0175 98.8084 92.0778 98.8367 92.1515C98.866 92.2278 98.9991 92.2854 99.1464 92.2854C99.2884 92.2854 99.4047 92.3256 99.4047 92.3747C99.4047 92.4238 99.4827 92.464 99.578 92.464C99.6733 92.464 99.7763 92.4238 99.8067 92.3747ZM93.2888 86.3925C93.3191 86.3434 93.4331 86.3033 93.5421 86.3033C93.8066 86.3033 94.7482 85.8085 94.9993 85.5376C95.1096 85.4185 95.2538 85.3211 95.3197 85.3211C95.3856 85.3211 95.7631 85.0097 96.1587 84.6291C96.9091 83.9072 97.1132 83.7438 97.3736 83.6563C97.4595 83.6274 97.5299 83.5483 97.5299 83.4803C97.5299 83.4124 97.5653 83.3568 97.6086 83.3568C97.7115 83.3568 98.9584 82.1268 98.9584 82.0253C98.9584 81.9824 99.012 81.9268 99.0774 81.9017C99.1428 81.8766 99.3102 81.6311 99.4493 81.3562C99.6861 80.8881 99.702 80.7878 99.6992 79.779C99.6972 79.1005 99.6588 78.6643 99.5951 78.6007C99.5396 78.5452 99.4942 78.3097 99.4942 78.0775C99.4942 77.8212 99.4416 77.6026 99.3602 77.5214C99.2739 77.4351 99.2263 77.2143 99.2263 76.9009C99.2263 76.5774 99.1814 76.3772 99.0924 76.3033C99.0187 76.2422 98.9584 76.1228 98.9584 76.0382C98.9584 75.6933 98.3552 74.7854 98.1261 74.7854C98.0795 74.7854 97.9483 74.6849 97.8346 74.5622C97.7208 74.4394 97.5676 74.339 97.4941 74.339C97.4206 74.339 97.2531 74.2395 97.1218 74.1178C96.9905 73.9961 96.7374 73.8743 96.5592 73.8472C96.381 73.8201 96.1119 73.7589 95.961 73.7113C95.8102 73.6637 95.5069 73.6247 95.2869 73.6247C95.067 73.6247 94.8437 73.5814 94.7907 73.5284C94.7369 73.4746 94.1596 73.4097 93.4827 73.3813C92.493 73.3398 92.2333 73.3551 92.0656 73.4645C91.9526 73.5382 91.7397 73.6199 91.5924 73.646C91.1552 73.7235 90.7127 73.9233 90.5029 74.1379C90.3947 74.2485 90.2717 74.3389 90.2294 74.3389C90.137 74.3389 89.6727 74.812 89.6727 74.9061C89.6727 74.9426 89.5823 75.0612 89.4718 75.1697C89.2407 75.3968 89.0654 75.6548 88.9901 75.8791C88.9612 75.965 88.9033 76.0354 88.8612 76.0354C88.6937 76.0354 88.2442 77.1266 88.2413 77.5401C88.2393 77.7683 88.1795 78.033 88.1074 78.1283C88.0353 78.2236 87.9763 78.4523 87.9763 78.6365C87.9763 78.8206 87.9361 78.9961 87.887 79.0265C87.7783 79.0937 87.7668 80.2915 87.8743 80.3579C87.9164 80.3839 87.9725 80.7517 87.9989 81.1752C88.0253 81.5987 88.0913 81.9896 88.1456 82.0439C88.1999 82.0981 88.2442 82.2089 88.2442 82.2899C88.2442 82.371 88.3446 82.6263 88.4674 82.8572C88.5902 83.0881 88.6906 83.3364 88.6906 83.409C88.6906 83.4816 88.7509 83.5641 88.8245 83.5924C88.8982 83.6207 88.9585 83.7149 88.9585 83.8019C88.9585 83.8888 89.0188 84.01 89.0924 84.0711C89.1661 84.1322 89.2275 84.2476 89.2289 84.3276C89.2319 84.4923 89.712 85.0532 89.8501 85.0532C89.8999 85.0532 89.9406 85.0939 89.9406 85.1437C89.9406 85.2818 90.5015 85.7619 90.6662 85.7649C90.7461 85.7659 90.8616 85.8278 90.9227 85.9014C90.9838 85.9751 91.0921 86.0353 91.1632 86.0353C91.2344 86.0353 91.3529 86.0956 91.4265 86.1693C91.5002 86.243 91.6958 86.3032 91.8613 86.3032C92.0268 86.3032 92.187 86.3434 92.2174 86.3925C92.2477 86.4416 92.4888 86.4818 92.7531 86.4818C93.0174 86.4818 93.2585 86.4416 93.2888 86.3925ZM110.61 86.3925C110.641 86.3434 110.801 86.3033 110.966 86.3033C111.132 86.3033 111.327 86.2429 111.401 86.1693C111.475 86.0956 111.593 86.0354 111.664 86.0354C111.736 86.0354 111.844 85.9751 111.905 85.9015C111.966 85.8278 112.055 85.7675 112.102 85.7675C112.252 85.7675 112.883 85.2816 112.885 85.1648C112.886 85.1034 112.928 85.0533 112.978 85.0533C113.109 85.0533 113.595 84.4965 113.601 84.339C113.604 84.2653 113.726 84.0878 113.872 83.9446C114.018 83.8014 114.137 83.6105 114.137 83.5205C114.137 83.4305 114.168 83.3568 114.205 83.3568C114.287 83.3568 114.582 82.5532 114.586 82.318C114.588 82.2264 114.648 82.0735 114.72 81.9781C114.803 81.8687 114.851 81.5992 114.851 81.2468C114.851 80.9399 114.891 80.6639 114.941 80.6336C114.99 80.6033 115.03 80.2417 115.03 79.83C115.03 79.4184 114.99 79.0568 114.941 79.0265C114.891 78.9962 114.851 78.7603 114.851 78.5025C114.851 78.2286 114.797 77.9618 114.72 77.8605C114.648 77.7652 114.588 77.5365 114.586 77.3523C114.584 77.1682 114.55 77.0175 114.508 77.0175C114.467 77.0175 114.384 76.8545 114.325 76.6553C114.265 76.456 114.145 76.2219 114.058 76.1351C113.971 76.0482 113.873 75.9199 113.841 75.85C113.716 75.5836 113.546 75.3577 113.237 75.0472C113.061 74.8705 112.891 74.6581 112.86 74.5751C112.828 74.4921 112.73 74.3989 112.643 74.368C112.556 74.3371 112.425 74.2616 112.351 74.2003C112.082 73.9762 111.374 73.6247 111.193 73.6247C111.09 73.6247 110.904 73.5584 110.781 73.4773C110.584 73.3486 110.372 73.3377 109.111 73.3917C108.316 73.4257 107.627 73.492 107.58 73.5391C107.533 73.5862 107.361 73.6247 107.198 73.6247C107.036 73.6247 106.833 73.6627 106.747 73.7091C106.662 73.7555 106.447 73.8167 106.268 73.845C106.09 73.8733 105.847 73.986 105.728 74.0954C105.61 74.2048 105.364 74.3738 105.182 74.4709C105 74.568 104.851 74.6785 104.851 74.7164C104.851 74.7543 104.771 74.7854 104.674 74.7854C104.564 74.7854 104.403 74.9287 104.25 75.1649C104.114 75.3736 103.973 75.5577 103.936 75.5741C103.899 75.5905 103.869 75.6966 103.869 75.8101C103.869 75.9235 103.809 76.0394 103.735 76.0677C103.661 76.096 103.601 76.1961 103.601 76.2903C103.601 76.3844 103.541 76.5765 103.468 76.7172C103.394 76.8578 103.334 77.1011 103.334 77.2578C103.334 77.4145 103.293 77.5675 103.244 77.5979C103.19 77.6314 103.155 78.2958 103.155 79.2924C103.155 80.6895 103.178 80.9722 103.311 81.2062C103.397 81.3572 103.497 81.481 103.534 81.4813C103.571 81.4815 103.601 81.5635 103.601 81.6632C103.601 81.763 103.662 81.8677 103.735 81.896C103.809 81.9243 103.869 82.0033 103.869 82.0717C103.869 82.1401 103.899 82.1968 103.936 82.1977C103.973 82.1986 104.445 82.6204 104.985 83.1349C105.525 83.6495 106.029 84.0906 106.104 84.1151C106.179 84.1397 106.299 84.2469 106.372 84.3534C106.594 84.6815 106.92 84.964 107.574 85.396C107.771 85.5258 107.952 85.6564 107.976 85.6864C108.102 85.8395 109.068 86.3033 109.261 86.3033C109.383 86.3033 109.508 86.3435 109.539 86.3926C109.569 86.4417 109.81 86.4819 110.074 86.4819C110.339 86.4819 110.58 86.4416 110.61 86.3925Z" fill="#E66443"/>
<path d="M60.0059 112.467L56.2898 117.905V135.354H60.8169V125.829H66.8571V121.992H60.8169V117.373L67.3625 118.255L68.8091 113.578L60.0059 112.467Z" fill="#E66443"/>
<path d="M75.1269 112.467L71.286 119.602V126.265H69.4341V128.992H71.286V135.757H75.4304V128.992H79.5024V135.218L83.7473 136.127L85.801 131.651L83.6456 131.314V118.963L82.026 113.442L75.1269 112.467ZM75.4304 117.353L79.5024 118.121V126.265H75.4304V117.353Z" fill="#E66443"/>
<path d="M140.094 112.467L138.949 116.02H144.247V134.848H148.391V116.02H152.849L153.993 112.467H140.094Z" fill="#E66443"/>
<path d="M122.223 113.78V135.421H117.992V117.381L115.265 116.842L117.386 112.467L122.223 113.78Z" fill="#E66443"/>
<path d="M86.6292 134.748L87.8408 130.595L94.572 131.47C94.7965 130.393 94.8075 127.824 94.6057 126.747L87.0667 123.482C87.0217 122.428 87.033 121.891 87.1004 120.679C87.1901 119.445 87.3583 118.424 87.6053 117.617C87.9643 117.078 88.4691 116.439 89.1198 115.698C89.7705 114.935 90.4324 114.285 91.1055 113.746C91.801 113.185 92.4069 112.759 92.9229 112.467L99.2166 113.309L97.2646 117.328L92.1152 116.486C91.7562 117.361 91.644 119.762 91.7786 120.704L99.0147 123.699C99.1942 124.776 99.2615 125.402 99.2165 126.771C99.1715 128.117 99.0257 129.329 98.779 130.406C97.2981 132.627 95.6714 134.355 93.8988 135.589L86.6292 134.748Z" fill="#E66443"/>
<path d="M108.012 112.467C106.958 113.14 105.781 114.194 104.48 115.63C103.178 117.044 102.224 118.312 101.619 119.434C101.17 121.611 100.945 123.484 100.945 125.054C100.945 128.689 101.406 131.852 102.326 134.545L111.714 135.454L113.197 130.742L104.867 130.197C104.211 127.373 104.475 122.728 104.475 120.847C104.475 119.703 105.481 118.895 105.705 118.423C105.929 117.93 107.104 117.582 107.441 117.38L112.22 118.121L114.172 113.275L108.012 112.467Z" fill="#E66443"/>
<path d="M125.099 134.748L126.311 130.595L133.042 131.47C133.267 130.393 133.278 127.824 133.076 126.747L125.537 123.482C125.492 122.428 125.503 121.891 125.571 120.679C125.66 119.445 125.829 118.424 126.075 117.617C126.434 117.078 126.939 116.439 127.59 115.698C128.241 114.935 128.903 114.285 129.576 113.746C130.271 113.185 130.877 112.759 131.393 112.467L137.687 113.309L135.735 117.328L130.585 116.486C130.226 117.361 130.114 119.762 130.249 120.704L137.485 123.699C137.664 124.776 137.732 125.402 137.687 126.771C137.642 128.117 137.496 129.329 137.249 130.406C135.768 132.627 134.142 134.355 132.369 135.589L125.099 134.748Z" fill="#E66443"/>
</svg>
