<svg width="208" height="276" viewBox="0 0 208 276" fill="none" xmlns="http://www.w3.org/2000/svg">
<path d="M207.877 0H0V275.91H207.877V0Z" fill="#EAE6C4"/>
<path d="M189.134 19.1996H19.0525V257.314H189.134V19.1996Z" fill="#EAE6C4"/>
<path d="M65.9959 42.0862V63.7838H46.2104V233.824H161.667V42.0862H65.9959Z" fill="#363835"/>
<path d="M63.3554 43.8636V60.7497H46.4692L63.3554 43.8636Z" fill="#363835"/>
<path d="M93.9749 114.182L91.8218 117.822L94.5895 118.369V133.482L97.2195 136.404L103.798 136.848L105.096 133.038L98.7959 132.661V115.514L93.9749 114.182Z" fill="#EAE6C4"/>
<path d="M84.5592 118.534L79.591 118.124C79.181 118.398 78.885 118.842 78.7028 119.457C78.5207 120.049 78.4296 120.846 78.4296 121.848C78.4296 122.622 78.6021 124.032 78.6345 125.127C78.6811 126.698 78.8959 128.294 78.6193 129.841C78.5086 130.461 77.9703 131.617 77.9703 131.617L83.3139 132.027C84.8494 128.635 84.3359 123.297 83.9099 120.345L84.5592 118.534ZM79.7276 113.513L86.8177 114.162C88.0929 117.692 88.7306 120.982 88.7306 124.034C88.7306 126.402 88.48 128.543 87.9791 130.456C87.4781 131.23 87.1494 132.198 86.193 133.359C85.2593 134.521 84.5895 135.636 83.3826 136.707L75.3359 135.955C74.2656 132.426 73.7305 129.237 73.7305 126.391C73.7305 125.389 73.8215 124.262 74.0037 123.009C74.2085 121.757 74.4819 120.607 74.8235 119.559C75.5522 118.466 76.0287 117.384 77.0534 116.314C78.1009 115.244 78.7256 114.31 79.7276 113.513Z" fill="#EAE6C4"/>
<path d="M58.8719 113.467L56.9597 117.737L60.1024 117.907V136.693H64.0952V128.358L71.8967 124.704C72.0331 123.657 72.0331 122.393 71.8967 120.912C71.7829 119.432 71.5782 118.123 71.2822 116.985C71.009 115.846 70.7245 114.97 70.4285 114.355L58.8719 113.467ZM64.0952 118.237L67.2611 118.453C67.5798 119.341 67.5046 119.82 67.6414 121.095C67.8008 122.37 67.8341 122.889 67.743 123.868L64.0953 125.269L64.0952 118.237Z" fill="#EAE6C4"/>
<path d="M114.526 114.55V136.514H110.232V118.205L107.465 117.659L109.617 113.218L114.526 114.55Z" fill="#EAE6C4"/>
<path d="M125.698 112.948C124.628 113.631 123.433 114.701 122.113 116.158C120.792 117.593 119.824 118.88 119.209 120.019C118.754 122.228 118.526 124.129 118.526 125.723C118.526 129.412 118.993 132.623 119.927 135.355L129.456 136.278L130.96 131.496L122.506 130.943C121.84 128.077 122.108 123.362 122.108 121.453C122.108 120.292 123.129 119.472 123.356 118.993C123.584 118.492 124.776 118.14 125.118 117.935L129.968 118.687L131.95 113.768L125.698 112.948Z" fill="#EAE6C4"/>
<path d="M147.109 117.457L144.513 128.251V136.381H140.207V129.584L136.142 117.935L133.319 117.525L135.471 113.085L139.731 114.144L142.976 123.913L143.045 126.782L141.605 126.885L144.201 116.057L146.695 112.948L151.227 113.529L149.109 118.072L147.109 117.457Z" fill="#EAE6C4"/>
<path d="M55.0529 146.63C55.7769 146.63 56.3637 146.043 56.3637 145.319C56.3637 144.595 55.7769 144.008 55.0529 144.008C54.329 144.008 53.7422 144.595 53.7422 145.319C53.7422 146.043 54.329 146.63 55.0529 146.63Z" fill="#EAE6C4"/>
<path d="M59.1399 146.63C59.8638 146.63 60.4506 146.043 60.4506 145.319C60.4506 144.595 59.8638 144.008 59.1399 144.008C58.4159 144.008 57.8291 144.595 57.8291 145.319C57.8291 146.043 58.4159 146.63 59.1399 146.63Z" fill="#EAE6C4"/>
<path d="M63.2265 146.63C63.9504 146.63 64.5373 146.043 64.5373 145.319C64.5373 144.595 63.9504 144.008 63.2265 144.008C62.5026 144.008 61.9158 144.595 61.9158 145.319C61.9158 146.043 62.5026 146.63 63.2265 146.63Z" fill="#EAE6C4"/>
<path d="M67.3134 146.63C68.0374 146.63 68.6242 146.043 68.6242 145.319C68.6242 144.595 68.0374 144.008 67.3134 144.008C66.5895 144.008 66.0027 144.595 66.0027 145.319C66.0027 146.043 66.5895 146.63 67.3134 146.63Z" fill="#EAE6C4"/>
<path d="M71.3999 146.63C72.1238 146.63 72.7106 146.043 72.7106 145.319C72.7106 144.595 72.1238 144.008 71.3999 144.008C70.676 144.008 70.0891 144.595 70.0891 145.319C70.0891 146.043 70.676 146.63 71.3999 146.63Z" fill="#EAE6C4"/>
<path d="M75.4865 146.63C76.2104 146.63 76.7973 146.043 76.7973 145.319C76.7973 144.595 76.2104 144.008 75.4865 144.008C74.7626 144.008 74.1758 144.595 74.1758 145.319C74.1758 146.043 74.7626 146.63 75.4865 146.63Z" fill="#EAE6C4"/>
<path d="M79.5735 146.63C80.2974 146.63 80.8842 146.043 80.8842 145.319C80.8842 144.595 80.2974 144.008 79.5735 144.008C78.8495 144.008 78.2627 144.595 78.2627 145.319C78.2627 146.043 78.8495 146.63 79.5735 146.63Z" fill="#EAE6C4"/>
<path d="M83.6599 146.63C84.3838 146.63 84.9706 146.043 84.9706 145.319C84.9706 144.595 84.3838 144.008 83.6599 144.008C82.936 144.008 82.3491 144.595 82.3491 145.319C82.3491 146.043 82.936 146.63 83.6599 146.63Z" fill="#EAE6C4"/>
<path d="M87.7465 146.63C88.4705 146.63 89.0573 146.043 89.0573 145.319C89.0573 144.595 88.4705 144.008 87.7465 144.008C87.0226 144.008 86.4358 144.595 86.4358 145.319C86.4358 146.043 87.0226 146.63 87.7465 146.63Z" fill="#EAE6C4"/>
<path d="M91.8332 146.63C92.5571 146.63 93.144 146.043 93.144 145.319C93.144 144.595 92.5571 144.008 91.8332 144.008C91.1093 144.008 90.5225 144.595 90.5225 145.319C90.5225 146.043 91.1093 146.63 91.8332 146.63Z" fill="#EAE6C4"/>
<path d="M95.9199 146.63C96.6438 146.63 97.2306 146.043 97.2306 145.319C97.2306 144.595 96.6438 144.008 95.9199 144.008C95.196 144.008 94.6091 144.595 94.6091 145.319C94.6091 146.043 95.196 146.63 95.9199 146.63Z" fill="#EAE6C4"/>
<path d="M100.007 146.63C100.731 146.63 101.318 146.043 101.318 145.319C101.318 144.595 100.731 144.008 100.007 144.008C99.2829 144.008 98.696 144.595 98.696 145.319C98.696 146.043 99.2829 146.63 100.007 146.63Z" fill="#EAE6C4"/>
<path d="M104.093 146.63C104.817 146.63 105.404 146.043 105.404 145.319C105.404 144.595 104.817 144.008 104.093 144.008C103.37 144.008 102.783 144.595 102.783 145.319C102.783 146.043 103.37 146.63 104.093 146.63Z" fill="#EAE6C4"/>
<path d="M108.18 146.63C108.904 146.63 109.491 146.043 109.491 145.319C109.491 144.595 108.904 144.008 108.18 144.008C107.456 144.008 106.869 144.595 106.869 145.319C106.869 146.043 107.456 146.63 108.18 146.63Z" fill="#EAE6C4"/>
<path d="M112.267 146.63C112.991 146.63 113.578 146.043 113.578 145.319C113.578 144.595 112.991 144.008 112.267 144.008C111.543 144.008 110.956 144.595 110.956 145.319C110.956 146.043 111.543 146.63 112.267 146.63Z" fill="#EAE6C4"/>
<path d="M116.353 146.63C117.077 146.63 117.664 146.043 117.664 145.319C117.664 144.595 117.077 144.008 116.353 144.008C115.629 144.008 115.042 144.595 115.042 145.319C115.042 146.043 115.629 146.63 116.353 146.63Z" fill="#EAE6C4"/>
<path d="M120.44 146.63C121.164 146.63 121.751 146.043 121.751 145.319C121.751 144.595 121.164 144.008 120.44 144.008C119.716 144.008 119.129 144.595 119.129 145.319C119.129 146.043 119.716 146.63 120.44 146.63Z" fill="#EAE6C4"/>
<path d="M124.527 146.63C125.251 146.63 125.838 146.043 125.838 145.319C125.838 144.595 125.251 144.008 124.527 144.008C123.803 144.008 123.216 144.595 123.216 145.319C123.216 146.043 123.803 146.63 124.527 146.63Z" fill="#EAE6C4"/>
<path d="M128.613 146.63C129.337 146.63 129.924 146.043 129.924 145.319C129.924 144.595 129.337 144.008 128.613 144.008C127.89 144.008 127.303 144.595 127.303 145.319C127.303 146.043 127.89 146.63 128.613 146.63Z" fill="#EAE6C4"/>
<path d="M132.7 146.63C133.424 146.63 134.011 146.043 134.011 145.319C134.011 144.595 133.424 144.008 132.7 144.008C131.976 144.008 131.39 144.595 131.39 145.319C131.39 146.043 131.976 146.63 132.7 146.63Z" fill="#EAE6C4"/>
<path d="M136.787 146.63C137.511 146.63 138.098 146.043 138.098 145.319C138.098 144.595 137.511 144.008 136.787 144.008C136.063 144.008 135.477 144.595 135.477 145.319C135.477 146.043 136.063 146.63 136.787 146.63Z" fill="#EAE6C4"/>
<path d="M140.873 146.63C141.597 146.63 142.184 146.043 142.184 145.319C142.184 144.595 141.597 144.008 140.873 144.008C140.15 144.008 139.563 144.595 139.563 145.319C139.563 146.043 140.15 146.63 140.873 146.63Z" fill="#EAE6C4"/>
<path d="M144.96 146.63C145.684 146.63 146.271 146.043 146.271 145.319C146.271 144.595 145.684 144.008 144.96 144.008C144.237 144.008 143.65 144.595 143.65 145.319C143.65 146.043 144.237 146.63 144.96 146.63Z" fill="#EAE6C4"/>
<path d="M149.047 146.63C149.771 146.63 150.358 146.043 150.358 145.319C150.358 144.595 149.771 144.008 149.047 144.008C148.323 144.008 147.736 144.595 147.736 145.319C147.736 146.043 148.323 146.63 149.047 146.63Z" fill="#EAE6C4"/>
<path d="M153.134 146.63C153.858 146.63 154.445 146.043 154.445 145.319C154.445 144.595 153.858 144.008 153.134 144.008C152.41 144.008 151.823 144.595 151.823 145.319C151.823 146.043 152.41 146.63 153.134 146.63Z" fill="#EAE6C4"/>
</svg>
