<svg width="208" height="276" viewBox="0 0 208 276" fill="none" xmlns="http://www.w3.org/2000/svg">
<path d="M207.874 0H0V275.906H207.874V0Z" fill="#EAE6C4"/>
<path d="M188.976 18.8976H18.8977V257.008H188.976V18.8976Z" fill="#EAE6C4"/>
<path d="M167.547 28.02H40.3272C35.7349 28.02 32.0122 31.7427 32.0122 36.335V239.57C32.0122 244.163 35.7349 247.885 40.3272 247.885H167.547C172.14 247.885 175.862 244.163 175.862 239.57V36.335C175.862 31.7427 172.14 28.02 167.547 28.02Z" fill="#66B3BB"/>
<path d="M141.879 42.1332V63.8305H161.665V233.868H46.2097V42.1332H141.879Z" fill="#EAE6C4"/>
<path d="M144.52 43.9106V60.7965H161.406L144.52 43.9106Z" fill="#EAE6C4"/>
<path d="M102.83 101.4C102.69 101.327 102.54 101.267 102.498 101.267C102.457 101.267 102.299 101.146 102.148 100.999C101.998 100.851 101.836 100.731 101.789 100.731C101.742 100.731 101.613 100.653 101.502 100.558C101.391 100.463 101.204 100.302 101.086 100.201C100.968 100.099 100.839 100.017 100.799 100.017C100.76 100.017 100.559 99.856 100.352 99.6594C100.146 99.4629 99.9329 99.3022 99.8795 99.3022C99.8261 99.3022 99.6065 99.1416 99.3916 98.945C99.1767 98.7485 98.9639 98.5879 98.9187 98.5879C98.8735 98.5879 98.7433 98.4874 98.6295 98.3645C98.5158 98.2417 98.3985 98.1412 98.369 98.1412C98.3395 98.1412 98.1934 98.0221 98.0444 97.8762C97.795 97.6325 97.7735 97.5629 97.7735 97.0012C97.7735 96.6656 97.7309 96.3486 97.679 96.2966C97.6272 96.2448 97.5614 95.9656 97.533 95.6761C97.5047 95.3866 97.4521 95.1098 97.4163 95.0607C97.3804 95.0115 97.3243 94.5696 97.2914 94.0785C97.2585 93.5875 97.1928 93.1723 97.1454 93.1559C97.098 93.1408 97.0592 92.7728 97.0592 92.341C97.0592 91.7519 97.0255 91.528 96.9253 91.4446C96.8288 91.3645 96.7913 91.1529 96.7913 90.6886C96.7913 90.1853 96.7569 90.0141 96.6351 89.909C96.3248 89.6414 95.862 89.4803 95.4046 89.4803C95.099 89.4803 94.8999 89.4342 94.827 89.3465C94.7659 89.2728 94.5802 89.2127 94.4143 89.2127C94.2485 89.2127 94.1127 89.1749 94.1127 89.1315C94.1127 89.0869 93.9522 89.023 93.7561 88.9898C93.5599 88.9557 93.3767 88.893 93.349 88.848C93.3214 88.803 93.1854 88.7664 93.047 88.7664C92.9086 88.7664 92.7453 88.7059 92.6842 88.6326C92.611 88.5445 92.4116 88.4988 92.1001 88.4988C91.6679 88.4988 91.0811 88.2958 91.0027 88.1193C90.9864 88.0815 90.7803 88.0524 90.5448 88.0524C90.2733 88.0524 90.0762 88.0033 90.0056 87.9186C89.9445 87.8449 89.7889 87.7833 89.6599 87.7818C89.5308 87.7798 89.3473 87.7198 89.252 87.648C89.1566 87.5758 88.9658 87.5168 88.8278 87.5168C88.6899 87.5168 88.577 87.4768 88.577 87.4277C88.577 87.3786 88.4642 87.3385 88.3262 87.3385C88.1883 87.3385 87.9974 87.2795 87.9021 87.2073C87.8068 87.1351 87.6767 87.075 87.6129 87.0735C87.5493 87.0715 87.404 86.9703 87.2902 86.8475C87.1764 86.7247 87.0353 86.6242 86.9766 86.6242C86.8206 86.6242 85.0056 84.7749 85.0056 84.6161C85.0056 84.542 84.9654 84.4812 84.9163 84.4812C84.8672 84.4812 84.827 84.3795 84.827 84.2551C84.827 84.1308 84.7667 84.006 84.693 83.9777C84.6193 83.9512 84.5591 83.8473 84.5591 83.7509C84.5591 83.6545 84.4988 83.5151 84.4252 83.4414C84.3515 83.3677 84.2912 83.2124 84.2912 83.096C84.2912 82.9796 84.2568 82.8632 84.2144 82.8371C84.1722 82.8106 84.1165 82.4183 84.0906 81.9646C84.0627 81.4777 84.0028 81.126 83.9442 81.1064C83.8776 81.0837 83.8448 80.6671 83.8448 79.8416C83.8448 78.8558 83.8179 78.5879 83.7108 78.4989C83.6371 78.4377 83.5769 78.3088 83.5769 78.212C83.5769 78.0144 83.2482 77.7028 83.0348 77.6982C82.9576 77.6962 82.6174 77.9564 82.2788 78.2756C81.9402 78.595 81.6116 78.856 81.5486 78.856C81.4726 78.856 81.434 78.7225 81.434 78.4594C81.434 78.2414 81.3977 78.0405 81.3533 78.0131C81.3089 77.9866 81.2469 77.5313 81.2155 77.0033C81.1841 76.4754 81.1225 75.9778 81.0785 75.8974C81.0347 75.8169 80.9709 75.5048 80.9368 75.2035C80.9028 74.9022 80.8399 74.634 80.7973 74.6077C80.6485 74.5158 80.7088 73.1771 80.876 72.8588C80.9619 72.6951 81.0623 72.5481 81.0992 72.5314C81.1358 72.5163 81.1662 72.4135 81.1662 72.3058C81.1662 71.9125 81.7416 71.3102 82.4296 70.9836C82.6678 70.8706 82.8626 70.7474 82.8626 70.71C82.8626 70.6722 83.2644 70.6416 83.7555 70.6416C84.2796 70.6416 84.6483 70.6794 84.6483 70.7293C84.6483 70.7777 84.7588 70.8438 84.8939 70.877C85.0289 70.911 85.1595 70.9609 85.1841 70.9904C85.2865 71.1125 85.8372 71.3563 86.0102 71.3563C86.1128 71.3563 86.2739 71.4262 86.3681 71.5112C86.5308 71.6583 86.5452 71.6583 86.6528 71.5112C86.7152 71.4258 86.812 71.3563 86.868 71.3563C87.0322 71.3563 87.003 69.9772 86.8358 69.8384C86.7546 69.7712 86.7019 69.5754 86.7019 69.3417C86.7019 69.1297 86.6617 68.9313 86.6126 68.9009C86.5635 68.8707 86.5233 68.695 86.5233 68.511C86.5233 68.3269 86.4643 68.0981 86.3922 68.0028C86.3141 67.8996 86.2599 67.6264 86.2582 67.327C86.2562 66.9922 86.2107 66.7875 86.1215 66.7134C86.0478 66.6522 85.9875 66.4666 85.9875 66.3007C85.9875 66.1348 85.9509 65.9991 85.9061 65.9991C85.8614 65.9991 85.7976 65.8385 85.7644 65.6423C85.7312 65.4462 85.6675 65.2629 85.6227 65.2352C85.5779 65.2088 85.5412 65.0051 85.5412 64.7856C85.5412 64.5131 85.4987 64.37 85.4072 64.3349C85.3259 64.3046 85.2733 64.1686 85.2733 63.9913C85.2733 63.8307 85.213 63.6493 85.1393 63.5882C85.0656 63.5269 85.0054 63.4075 85.0054 63.3225C85.0054 63.2374 84.9049 63.0594 84.7822 62.927C84.6594 62.7947 84.5583 62.6378 84.5574 62.5793C84.5566 62.5203 84.4561 62.3778 84.3342 62.2622C84.2123 62.1465 84.1125 62.0006 84.1125 61.9383C84.1125 61.8759 84.0522 61.7746 83.9786 61.7134C83.9049 61.6522 83.8446 61.5316 83.8446 61.4454C83.8446 61.3592 83.7843 61.2387 83.7107 61.1775C83.637 61.1162 83.5767 60.9964 83.5767 60.9114C83.5767 60.8259 83.4763 60.6808 83.3535 60.5886C83.2308 60.4964 83.1303 60.3747 83.1303 60.318C83.1303 60.2613 83.07 60.1918 82.9964 60.1634C82.9227 60.137 82.8625 60.0304 82.8625 59.9306C82.8625 59.8308 82.8266 59.7492 82.7829 59.7492C82.7391 59.7492 82.6798 59.6558 82.6511 59.5413C82.6224 59.4271 82.4975 59.2242 82.3736 59.0903C82.2496 58.9565 82.1482 58.794 82.1482 58.7286C82.1482 58.6636 82.0879 58.56 82.0143 58.4992C81.9406 58.4379 81.8804 58.3272 81.8804 58.2527C81.8804 58.1783 81.7799 58.0244 81.6572 57.9107C81.5344 57.7969 81.4339 57.6745 81.4339 57.6386C81.4339 57.4908 81.0599 56.8149 80.896 56.6665C80.799 56.5789 80.7197 56.4314 80.7197 56.3396C80.7197 56.2474 80.6594 56.1488 80.5858 56.1208C80.5121 56.0943 80.4514 56.0033 80.4507 55.9228C80.4501 55.8419 80.2894 55.6034 80.0936 55.3927C79.8978 55.1818 79.7363 54.9609 79.7347 54.9016C79.7327 54.8423 79.6729 54.7161 79.6008 54.6205C79.4267 54.3903 79.4353 54.183 79.6261 54.0102C79.7706 53.8794 79.8227 53.8957 80.3048 54.2196C80.592 54.4128 80.8647 54.5707 80.9108 54.5707C80.9569 54.5707 81.1475 54.7313 81.3344 54.9279C81.5212 55.1244 81.7202 55.285 81.7766 55.285C81.8833 55.285 82.255 55.5738 82.4951 55.8431C82.5717 55.9289 82.6839 55.9992 82.7445 55.9992C82.8051 55.9992 83.0273 56.1595 83.2381 56.3552C83.449 56.551 83.6771 56.7116 83.7451 56.7124C83.8131 56.713 83.9619 56.8141 84.0757 56.9369C84.1895 57.0597 84.3233 57.1599 84.373 57.1599C84.4228 57.1599 84.5868 57.2805 84.7375 57.4279C84.8882 57.5753 85.0408 57.6958 85.0765 57.6958C85.1125 57.6958 85.217 57.7964 85.3092 57.9192C85.4014 58.0421 85.5466 58.1426 85.6319 58.1426C85.7172 58.1426 85.837 58.2027 85.8981 58.2764C86.0248 58.4291 87.0462 59.1248 87.1436 59.1248C87.1792 59.1248 87.3079 59.2351 87.4301 59.3704C87.7315 59.7038 88.233 60.1067 88.3485 60.1086C88.4958 60.1106 89.6183 61.2885 89.6876 61.5133C89.7216 61.6236 89.787 61.7143 89.8328 61.7143C89.8786 61.7143 89.9161 61.7895 89.9161 61.8821C89.9161 61.9744 89.9764 62.0999 90.0501 62.1611C90.1238 62.2223 90.184 62.338 90.184 62.4185C90.184 62.499 90.2844 62.6732 90.4072 62.8054C90.53 62.9377 90.6304 63.1456 90.6304 63.2669C90.6304 63.3882 90.6907 63.5481 90.7644 63.6214C90.8381 63.6951 90.8983 63.8134 90.8983 63.8848C90.8983 63.9559 90.9586 64.0643 91.0323 64.1252C91.106 64.1864 91.1662 64.3093 91.1662 64.3988C91.1662 64.488 91.2064 64.5859 91.2555 64.6166C91.3046 64.6468 91.3448 64.7851 91.3448 64.9235C91.3448 65.0618 91.4051 65.2251 91.4788 65.2863C91.5525 65.3475 91.6127 65.493 91.6127 65.6098C91.6127 65.7266 91.651 65.8222 91.6979 65.8222C91.7448 65.8222 91.8096 65.9632 91.8419 66.1355C91.8741 66.3079 91.9364 66.4712 91.9799 66.498C92.0234 66.5245 92.0591 66.6621 92.0591 66.803C92.0591 66.944 92.1194 67.1193 92.1931 67.1931C92.2668 67.2668 92.3283 67.3802 92.3298 67.4453C92.3318 67.5103 92.3916 67.6414 92.4638 67.7366C92.5359 67.8319 92.5949 68.0205 92.5949 68.1555C92.5949 68.2904 92.6351 68.4257 92.6842 68.4563C92.7333 68.4866 92.7735 68.6019 92.7735 68.7122C92.7735 68.8226 92.8325 68.9912 92.9046 69.0864C92.9767 69.1816 93.0369 69.3252 93.0385 69.405C93.0405 69.4847 93.1016 69.6004 93.1753 69.6613C93.249 69.7225 93.3092 69.8857 93.3092 70.0241C93.3092 70.1624 93.3494 70.3004 93.3985 70.331C93.4476 70.3612 93.4878 70.4614 93.4878 70.5532C93.4878 70.645 93.5481 70.7804 93.6217 70.8541C93.6954 70.9278 93.7557 71.0865 93.7557 71.2067C93.7557 71.3269 93.816 71.4754 93.8896 71.5367C93.9633 71.5979 94.0236 71.7298 94.0236 71.8299C94.0236 72.1274 94.537 72.5189 94.9272 72.5189C95.1119 72.5189 95.2878 72.4789 95.3182 72.4298C95.3484 72.3806 95.4977 72.3405 95.6497 72.3405C95.8594 72.3405 96.0088 72.251 96.2694 71.9686C96.4583 71.7642 96.6129 71.5614 96.6129 71.5183C96.6129 71.4752 96.7133 71.3316 96.8361 71.1994C96.9589 71.0671 97.0593 70.9102 97.0593 70.8508C97.0593 70.7915 97.1598 70.6347 97.2825 70.502C97.4053 70.3693 97.5064 70.2166 97.5072 70.1626C97.508 70.1086 97.6285 69.9279 97.775 69.7618C97.9216 69.5955 98.0415 69.4232 98.0415 69.3784C98.0415 69.3338 98.1419 69.189 98.2647 69.0568C98.3874 68.9245 98.4879 68.7454 98.4879 68.6589C98.4879 68.5723 98.5246 68.5017 98.5695 68.5017C98.6568 68.5017 99.2022 67.6603 99.2022 67.5256C99.2022 67.4814 99.3629 67.2728 99.5593 67.0622C99.7557 66.8517 99.9165 66.6121 99.9165 66.53C99.9165 66.4479 99.9767 66.3307 100.05 66.2695C100.124 66.2083 100.185 66.113 100.186 66.0579C100.187 66.0023 100.347 65.7763 100.541 65.5554C100.736 65.3343 100.896 65.1104 100.897 65.0576C100.898 65.0047 100.999 64.8671 101.122 64.7518C101.245 64.6366 101.345 64.4737 101.345 64.3901C101.345 64.3066 101.405 64.1879 101.479 64.1271C101.553 64.0659 101.613 63.9638 101.613 63.9003C101.613 63.8368 101.774 63.6123 101.97 63.4018C102.166 63.1912 102.327 62.9746 102.327 62.9206C102.327 62.7883 103.173 61.9841 103.312 61.9841C103.373 61.9841 103.516 61.8836 103.63 61.7607C103.743 61.6379 103.894 61.5374 103.964 61.5374C104.034 61.5374 104.141 61.4769 104.202 61.4036C104.263 61.3299 104.386 61.2698 104.476 61.2698C104.565 61.2698 104.663 61.2297 104.693 61.1806C104.723 61.1314 104.839 61.0914 104.949 61.0914C105.06 61.0914 105.228 61.0325 105.324 60.9603C105.419 60.8881 105.583 60.828 105.688 60.8265C105.793 60.8245 105.903 60.7633 105.931 60.6896C105.959 60.6159 106.064 60.5558 106.164 60.5558C106.263 60.5558 106.345 60.5158 106.345 60.4667C106.345 60.4175 106.425 60.3774 106.523 60.3774C106.747 60.3774 107.595 60.0112 107.595 59.9143C107.595 59.8746 107.731 59.8417 107.897 59.8417C108.062 59.8417 108.248 59.7812 108.309 59.7079C108.37 59.6342 108.496 59.5741 108.588 59.5741C108.68 59.5741 108.756 59.5341 108.756 59.4849C108.756 59.4358 108.831 59.3957 108.923 59.3957C109.016 59.3957 109.141 59.3352 109.202 59.2619C109.263 59.1882 109.392 59.1281 109.487 59.1281C109.583 59.1281 109.722 59.0676 109.795 58.9943C109.869 58.9206 110.032 58.8605 110.158 58.8605C110.288 58.8605 110.477 58.7638 110.594 58.6372C110.724 58.4969 110.898 58.4138 111.062 58.4138C111.206 58.4138 111.373 58.3533 111.434 58.28C111.495 58.2063 111.635 58.1462 111.743 58.1462C111.955 58.1462 113.066 57.6272 113.116 57.5051C113.132 57.465 113.209 57.4317 113.287 57.4317C113.482 57.4317 114.113 57.1456 114.113 57.0576C114.113 57.0179 114.228 56.9854 114.37 56.9854C114.511 56.9854 114.677 56.9249 114.738 56.8516C114.799 56.7779 114.9 56.7178 114.962 56.7178C115.024 56.7178 115.19 56.6577 115.33 56.5844C115.471 56.511 115.676 56.4509 115.787 56.4506C115.897 56.4503 115.988 56.4098 115.988 56.3607C115.988 56.3115 116.063 56.2714 116.156 56.2714C116.248 56.2714 116.373 56.211 116.434 56.1376C116.495 56.0639 116.659 56.0038 116.798 56.0038C116.943 56.0038 117.152 55.9094 117.291 55.7805C117.423 55.6577 117.624 55.5571 117.736 55.5571C117.848 55.5571 118 55.497 118.073 55.4233C118.147 55.3496 118.286 55.2895 118.381 55.2895C118.477 55.2895 118.605 55.2291 118.666 55.1557C118.728 55.082 118.853 55.0219 118.945 55.0219C119.037 55.0219 119.113 54.9879 119.113 54.9441C119.113 54.9014 119.274 54.8405 119.47 54.8091C119.666 54.7789 119.827 54.7124 119.827 54.6636C119.827 54.6153 119.903 54.5756 119.995 54.5756C120.087 54.5756 120.212 54.5151 120.274 54.4418C120.335 54.3681 120.48 54.308 120.597 54.308C120.714 54.308 120.809 54.274 120.809 54.2301C120.809 54.1874 120.97 54.1265 121.166 54.0952C121.363 54.0649 121.524 53.9984 121.524 53.9497C121.524 53.9013 121.665 53.8616 121.839 53.8616C122.037 53.8616 122.173 53.8117 122.206 53.7278C122.234 53.6541 122.353 53.594 122.471 53.594C122.588 53.594 122.684 53.5562 122.684 53.5127C122.684 53.4681 122.845 53.4043 123.041 53.371C123.237 53.337 123.42 53.2743 123.448 53.2293C123.517 53.1178 124.559 53.1254 124.559 53.2368C124.559 53.286 124.624 53.3261 124.703 53.3261C124.898 53.3261 125.27 53.6911 125.272 53.8841C125.273 53.9699 125.314 54.0402 125.363 54.0402C125.506 54.0402 125.465 54.9683 125.308 55.2846C125.228 55.4437 124.885 55.867 124.544 56.2249C124.204 56.5828 123.813 57.0512 123.674 57.2659C123.536 57.4806 123.298 57.7567 123.146 57.8795C122.995 58.0023 122.869 58.1565 122.867 58.2223C122.862 58.336 122.67 58.5617 121.814 59.455C121.605 59.6727 121.434 59.8838 121.434 59.9243C121.434 59.9648 121.153 60.2948 120.81 60.6576C120.467 61.0204 120.186 61.3652 120.185 61.4241C120.185 61.483 120.084 61.6395 119.961 61.7718C119.838 61.904 119.738 62.0511 119.738 62.0979C119.738 62.1448 119.597 62.33 119.426 62.509C118.773 63.1898 118.488 63.5196 118.488 63.5948C118.488 63.6375 118.227 63.9429 117.907 64.2733C117.588 64.6036 117.327 64.9228 117.327 64.9825C117.327 65.0422 117.106 65.3265 116.836 65.6145C116.566 65.9025 116.345 66.204 116.345 66.2847C116.345 66.3652 116.285 66.4548 116.211 66.4828C116.137 66.5092 116.077 66.6 116.077 66.6801C116.077 66.7602 115.816 67.0833 115.497 67.3979C115.178 67.7123 114.916 68.0053 114.916 68.0488C114.916 68.0922 114.858 68.1505 114.786 68.1777C114.715 68.2041 114.548 68.4003 114.416 68.6113C114.284 68.8222 114.122 69.0272 114.055 69.0664C113.989 69.1058 113.934 69.2361 113.934 69.3567C113.934 69.4769 113.894 69.5756 113.845 69.5756C113.794 69.5756 113.756 69.8413 113.756 70.1943C113.756 70.774 113.737 70.8329 113.455 71.1317C113.289 71.3071 113.087 71.4507 113.006 71.4507C112.924 71.4507 112.834 71.5112 112.806 71.5845C112.777 71.6582 112.658 71.7183 112.541 71.7183C112.423 71.7183 112.327 71.7523 112.327 71.798C112.327 71.8419 112.231 71.9016 112.114 71.9311C111.997 71.9613 111.716 72.1597 111.489 72.3738L111.077 72.763V73.6584C111.077 74.3453 111.046 74.5796 110.943 74.6649C110.869 74.7261 110.809 74.8247 110.809 74.8841C110.809 75.0065 110.329 75.4599 110.034 75.6161C109.927 75.6728 109.706 75.7484 109.543 75.7839C109.38 75.8179 109.158 75.9437 109.05 76.0602C108.942 76.1766 108.798 76.2718 108.731 76.2718C108.663 76.2718 108.514 76.372 108.399 76.4941C108.227 76.6778 108.183 76.8388 108.15 77.4237C108.114 78.0449 108.078 78.1647 107.857 78.4068C107.718 78.5583 107.522 78.6823 107.421 78.6823C107.32 78.6823 107.238 78.7224 107.238 78.7715C107.238 78.8206 107.145 78.8607 107.032 78.8607C106.918 78.8607 106.747 78.9197 106.652 78.9919C106.557 79.064 106.403 79.1241 106.311 79.1257C106.099 79.1294 105.541 79.7116 105.541 79.9288C105.541 80.0184 105.481 80.1148 105.407 80.1427C105.325 80.173 105.273 80.3102 105.273 80.4972C105.273 80.8521 104.913 81.2711 104.609 81.2711C104.502 81.2711 104.337 81.3301 104.241 81.4023C104.146 81.4745 104.003 81.5346 103.923 81.5361C103.843 81.5381 103.727 81.5992 103.666 81.6729C103.605 81.7466 103.499 81.8067 103.43 81.8067C103.362 81.8067 103.147 81.9072 102.952 82.0301C102.758 82.1529 102.542 82.2534 102.474 82.2534C102.405 82.2534 102.299 82.3139 102.238 82.3872C102.177 82.4609 102.031 82.521 101.914 82.521C101.798 82.521 101.702 82.5611 101.702 82.6103C101.702 82.6594 101.64 82.6995 101.565 82.6995C101.399 82.6995 100.72 83.3932 100.72 83.5621C100.72 83.6279 100.941 83.908 101.211 84.1844C101.481 84.4611 101.702 84.7222 101.702 84.7648C101.702 84.8076 101.738 84.8423 101.781 84.8423C101.889 84.8423 102.684 85.6326 102.684 85.7394C102.684 85.7862 102.724 85.8244 102.773 85.8244C102.823 85.8244 102.863 85.8724 102.863 85.9309C102.863 86.0742 103.314 86.5385 103.453 86.5385C103.514 86.5385 103.643 86.6391 103.74 86.7619C103.836 86.8848 103.96 86.9853 104.014 86.9853C104.068 86.9853 104.113 87.0458 104.113 87.1191C104.113 87.1928 104.144 87.2529 104.182 87.2529C104.282 87.2529 105.274 88.2338 105.274 88.3319C105.274 88.3769 105.331 88.4136 105.401 88.4136C105.471 88.4136 105.542 88.4997 105.558 88.6052C105.573 88.7106 105.664 88.8414 105.76 88.8955C105.855 88.9495 106.036 89.084 106.161 89.1948C106.286 89.3051 106.418 89.3959 106.456 89.3959C106.493 89.3959 106.524 89.4564 106.524 89.5297C106.524 89.6034 106.558 89.6635 106.601 89.6635C106.643 89.6635 108.135 91.1099 109.915 92.8778C111.696 94.6456 113.199 96.092 113.256 96.092C113.374 96.092 113.666 96.4087 113.666 96.5364C113.666 96.5833 113.787 96.7451 113.934 96.8955C114.082 97.0463 114.202 97.1925 114.202 97.2205C114.202 97.247 114.303 97.3505 114.425 97.4473C114.603 97.5875 114.649 97.7028 114.649 98.0182C114.649 98.2355 114.612 98.4134 114.567 98.4134C114.522 98.4134 114.459 98.5741 114.425 98.7702C114.392 98.9664 114.329 99.1496 114.284 99.1773C114.239 99.2037 114.202 99.3617 114.202 99.5254C114.202 99.7076 114.15 99.8428 114.068 99.8746C113.984 99.9048 113.934 100.044 113.934 100.241C113.934 100.415 113.898 100.556 113.855 100.556C113.811 100.556 113.75 100.657 113.719 100.78C113.668 100.983 113.62 101.003 113.185 101.003C112.868 101.003 112.669 101.049 112.595 101.137C112.52 101.228 112.317 101.271 111.964 101.271C111.679 101.271 111.42 101.311 111.39 101.36C111.359 101.409 110.946 101.449 110.457 101.449H109.58L109.213 101.081C109.01 100.879 108.845 100.663 108.845 100.601C108.845 100.539 108.785 100.439 108.711 100.377C108.637 100.316 108.577 100.201 108.577 100.12C108.577 100.04 108.482 99.871 108.365 99.7452C108.248 99.6193 108.125 99.4289 108.091 99.322C108.057 99.2151 107.982 99.127 107.924 99.1267C107.866 99.1259 107.733 99.1039 107.628 99.0745C107.197 98.9588 106.777 99.8149 107.104 100.142C107.179 100.217 107.238 100.435 107.238 100.639C107.238 100.903 107.201 101.003 107.104 101.003C107.03 101.003 106.97 101.064 106.97 101.137C106.97 101.211 106.9 101.272 106.814 101.274C106.728 101.276 106.58 101.336 106.484 101.407C106.231 101.599 103.199 101.596 102.83 101.404L102.83 101.4Z" fill="#66B3BB"/>
<path d="M77.1731 113.214L74.7157 117.456L77.7786 117.927V131.12L75.6586 130.884L74.312 135.192L84.8848 136.539C85.6701 136 85.8468 135.171 86.9911 134.049C88.1579 132.927 88.943 132.04 89.3469 131.39C89.6834 129.684 89.7736 129.343 89.6164 127.211L86.3746 124.35L88.9755 122.096C88.8857 121.131 88.6727 118.51 88.3361 117.388C87.9995 116.243 87.5734 115.211 87.0573 114.291H81.9219L77.1731 113.214ZM81.922 118.499H83.8756C84.1897 119.06 84.4242 119.61 84.5813 120.149C84.7608 120.665 84.9293 121.416 85.0863 122.403L82.9423 124.211V125.711L85.2545 127.688C85.3443 128.607 85.3672 129.37 85.3222 129.975C85.2983 130.581 85.2095 131.311 85.0526 132.163L81.9219 131.792L81.922 118.499Z" fill="#66B3BB"/>
<path d="M129.856 112.878L126.015 120.013V126.677H124.163V129.404H126.015V136.169H130.16V129.404H134.232V135.63L138.477 136.539L140.531 132.063L138.375 131.726V119.374L136.756 113.853L129.856 112.878ZM130.16 117.764L134.232 118.532V126.677H130.16V117.764Z" fill="#66B3BB"/>
<path d="M143.276 114.205L141.154 117.792L143.881 118.331V133.222L146.473 136.101L152.955 136.539L154.234 132.784L148.026 132.413V115.518L143.276 114.205Z" fill="#66B3BB"/>
<path d="M107.325 113.845L105.407 117.456L108.504 117.624V136.135H112.734V117.932L114.695 118.129C115.278 119.699 115.57 121.483 115.57 123.48L111.859 126.216V126.735L114.863 129.168L117.085 135.53L121.83 136.539L123.091 133.057L120.836 132.619L118.548 127.784L116.713 125.577L120.192 123.593C120.237 122.359 120.124 119.497 119.854 117.993C119.585 116.49 119.203 115.797 118.71 114.719L107.325 113.845Z" fill="#66B3BB"/>
<path d="M71.773 114.897V136.539H67.5414V118.498L64.8152 117.96L66.9356 113.584L71.773 114.897Z" fill="#66B3BB"/>
<path d="M96.2124 113.45L92.5615 119.219V132.399L95.1868 136.067L103.568 136.539L104.981 133.22L97.0919 132.783V126.711H102.557V123.172H97.0919V117.116L103.636 117.911L105.183 114.561L96.2124 113.45Z" fill="#66B3BB"/>
<path d="M53.0044 114.205L50.8828 117.792L53.6099 118.331V133.222L56.2014 136.101L62.6836 136.539L63.9625 132.784L57.7547 132.413V115.518L53.0044 114.205Z" fill="#66B3BB"/>
<path d="M54.8974 146.569C55.6213 146.569 56.2081 145.982 56.2081 145.258C56.2081 144.534 55.6213 143.947 54.8974 143.947C54.1735 143.947 53.5867 144.534 53.5867 145.258C53.5867 145.982 54.1735 146.569 54.8974 146.569Z" fill="#66B3BB"/>
<path d="M58.9841 146.569C59.708 146.569 60.2948 145.982 60.2948 145.258C60.2948 144.534 59.708 143.947 58.9841 143.947C58.2602 143.947 57.6733 144.534 57.6733 145.258C57.6733 145.982 58.2602 146.569 58.9841 146.569Z" fill="#66B3BB"/>
<path d="M63.0707 146.569C63.7946 146.569 64.3815 145.982 64.3815 145.258C64.3815 144.534 63.7946 143.947 63.0707 143.947C62.3468 143.947 61.76 144.534 61.76 145.258C61.76 145.982 62.3468 146.569 63.0707 146.569Z" fill="#66B3BB"/>
<path d="M67.1574 146.569C67.8813 146.569 68.4681 145.982 68.4681 145.258C68.4681 144.534 67.8813 143.947 67.1574 143.947C66.4335 143.947 65.8467 144.534 65.8467 145.258C65.8467 145.982 66.4335 146.569 67.1574 146.569Z" fill="#66B3BB"/>
<path d="M71.2438 146.569C71.9677 146.569 72.5546 145.982 72.5546 145.258C72.5546 144.534 71.9677 143.947 71.2438 143.947C70.5199 143.947 69.9331 144.534 69.9331 145.258C69.9331 145.982 70.5199 146.569 71.2438 146.569Z" fill="#66B3BB"/>
<path d="M75.3305 146.569C76.0544 146.569 76.6412 145.982 76.6412 145.258C76.6412 144.534 76.0544 143.947 75.3305 143.947C74.6066 143.947 74.0198 144.534 74.0198 145.258C74.0198 145.982 74.6066 146.569 75.3305 146.569Z" fill="#66B3BB"/>
<path d="M79.4172 146.569C80.1411 146.569 80.7279 145.982 80.7279 145.258C80.7279 144.534 80.1411 143.947 79.4172 143.947C78.6933 143.947 78.1064 144.534 78.1064 145.258C78.1064 145.982 78.6933 146.569 79.4172 146.569Z" fill="#66B3BB"/>
<path d="M83.5038 146.569C84.2277 146.569 84.8146 145.982 84.8146 145.258C84.8146 144.534 84.2277 143.947 83.5038 143.947C82.78 143.947 82.1931 144.534 82.1931 145.258C82.1931 145.982 82.78 146.569 83.5038 146.569Z" fill="#66B3BB"/>
<path d="M87.5905 146.569C88.3144 146.569 88.9013 145.982 88.9013 145.258C88.9013 144.534 88.3144 143.947 87.5905 143.947C86.8666 143.947 86.2798 144.534 86.2798 145.258C86.2798 145.982 86.8666 146.569 87.5905 146.569Z" fill="#66B3BB"/>
<path d="M91.6769 146.569C92.4008 146.569 92.9877 145.982 92.9877 145.258C92.9877 144.534 92.4008 143.947 91.6769 143.947C90.953 143.947 90.3662 144.534 90.3662 145.258C90.3662 145.982 90.953 146.569 91.6769 146.569Z" fill="#66B3BB"/>
<path d="M95.7636 146.569C96.4875 146.569 97.0743 145.982 97.0743 145.258C97.0743 144.534 96.4875 143.947 95.7636 143.947C95.0397 143.947 94.4529 144.534 94.4529 145.258C94.4529 145.982 95.0397 146.569 95.7636 146.569Z" fill="#66B3BB"/>
<path d="M99.8503 146.569C100.574 146.569 101.161 145.982 101.161 145.258C101.161 144.534 100.574 143.947 99.8503 143.947C99.1264 143.947 98.5396 144.534 98.5396 145.258C98.5396 145.982 99.1264 146.569 99.8503 146.569Z" fill="#66B3BB"/>
<path d="M103.937 146.569C104.661 146.569 105.248 145.982 105.248 145.258C105.248 144.534 104.661 143.947 103.937 143.947C103.213 143.947 102.626 144.534 102.626 145.258C102.626 145.982 103.213 146.569 103.937 146.569Z" fill="#66B3BB"/>
<path d="M108.024 146.569C108.748 146.569 109.334 145.982 109.334 145.258C109.334 144.534 108.748 143.947 108.024 143.947C107.3 143.947 106.713 144.534 106.713 145.258C106.713 145.982 107.3 146.569 108.024 146.569Z" fill="#66B3BB"/>
<path d="M112.11 146.569C112.834 146.569 113.421 145.982 113.421 145.258C113.421 144.534 112.834 143.947 112.11 143.947C111.386 143.947 110.8 144.534 110.8 145.258C110.8 145.982 111.386 146.569 112.11 146.569Z" fill="#66B3BB"/>
<path d="M116.197 146.569C116.921 146.569 117.507 145.982 117.507 145.258C117.507 144.534 116.921 143.947 116.197 143.947C115.473 143.947 114.886 144.534 114.886 145.258C114.886 145.982 115.473 146.569 116.197 146.569Z" fill="#66B3BB"/>
<path d="M120.283 146.569C121.007 146.569 121.594 145.982 121.594 145.258C121.594 144.534 121.007 143.947 120.283 143.947C119.559 143.947 118.973 144.534 118.973 145.258C118.973 145.982 119.559 146.569 120.283 146.569Z" fill="#66B3BB"/>
<path d="M124.37 146.569C125.094 146.569 125.681 145.982 125.681 145.258C125.681 144.534 125.094 143.947 124.37 143.947C123.646 143.947 123.059 144.534 123.059 145.258C123.059 145.982 123.646 146.569 124.37 146.569Z" fill="#66B3BB"/>
<path d="M128.457 146.569C129.181 146.569 129.767 145.982 129.767 145.258C129.767 144.534 129.181 143.947 128.457 143.947C127.733 143.947 127.146 144.534 127.146 145.258C127.146 145.982 127.733 146.569 128.457 146.569Z" fill="#66B3BB"/>
<path d="M132.543 146.569C133.267 146.569 133.854 145.982 133.854 145.258C133.854 144.534 133.267 143.947 132.543 143.947C131.82 143.947 131.233 144.534 131.233 145.258C131.233 145.982 131.82 146.569 132.543 146.569Z" fill="#66B3BB"/>
<path d="M136.63 146.569C137.354 146.569 137.941 145.982 137.941 145.258C137.941 144.534 137.354 143.947 136.63 143.947C135.906 143.947 135.319 144.534 135.319 145.258C135.319 145.982 135.906 146.569 136.63 146.569Z" fill="#66B3BB"/>
<path d="M140.716 146.569C141.44 146.569 142.027 145.982 142.027 145.258C142.027 144.534 141.44 143.947 140.716 143.947C139.993 143.947 139.406 144.534 139.406 145.258C139.406 145.982 139.993 146.569 140.716 146.569Z" fill="#66B3BB"/>
<path d="M144.803 146.569C145.527 146.569 146.114 145.982 146.114 145.258C146.114 144.534 145.527 143.947 144.803 143.947C144.079 143.947 143.492 144.534 143.492 145.258C143.492 145.982 144.079 146.569 144.803 146.569Z" fill="#66B3BB"/>
<path d="M148.89 146.569C149.614 146.569 150.201 145.982 150.201 145.258C150.201 144.534 149.614 143.947 148.89 143.947C148.166 143.947 147.579 144.534 147.579 145.258C147.579 145.982 148.166 146.569 148.89 146.569Z" fill="#66B3BB"/>
<path d="M152.977 146.569C153.7 146.569 154.287 145.982 154.287 145.258C154.287 144.534 153.7 143.947 152.977 143.947C152.253 143.947 151.666 144.534 151.666 145.258C151.666 145.982 152.253 146.569 152.977 146.569Z" fill="#66B3BB"/>
<path d="M130.901 154.99H153.134" stroke="#66B3BB" stroke-width="2.26772"/>
<path d="M130.901 163.528H153.134" stroke="#66B3BB" stroke-width="2.26772"/>
<path d="M54.7407 172.066H153.134" stroke="#66B3BB" stroke-width="2.26772"/>
<path d="M54.7407 180.604H153.134" stroke="#66B3BB" stroke-width="2.26772"/>
<path d="M54.7407 189.142H140.276" stroke="#66B3BB" stroke-width="2.26772"/>
<path d="M54.7407 206.159H153.134" stroke="#66B3BB" stroke-width="2.26772"/>
<path d="M54.7407 214.697H153.134" stroke="#66B3BB" stroke-width="2.26772"/>
<path d="M54.7407 223.234H153.134" stroke="#66B3BB" stroke-width="2.26772"/>
<path d="M56.6243 164.035H55.2605L59.205 153.293H60.5478L64.4923 164.035H63.1285L59.9183 154.992H59.8344L56.6243 164.035ZM57.1278 159.839H62.6249V160.993H57.1278V159.839ZM66.1656 164.035V153.293H69.7953C70.6346 153.293 71.3235 153.436 71.862 153.723C72.4005 154.006 72.7992 154.396 73.058 154.893C73.3167 155.389 73.4461 155.954 73.4461 156.587C73.4461 157.22 73.3167 157.781 73.058 158.271C72.7992 158.76 72.4023 159.145 71.8673 159.425C71.3322 159.701 70.6486 159.839 69.8163 159.839H66.8789V158.664H69.7744C70.3479 158.664 70.8094 158.58 71.1591 158.412C71.5123 158.245 71.7676 158.007 71.925 157.699C72.0858 157.388 72.1662 157.017 72.1662 156.587C72.1662 156.157 72.0858 155.781 71.925 155.459C71.7641 155.138 71.5071 154.889 71.1539 154.714C70.8007 154.536 70.3339 154.447 69.7534 154.447H67.4664V164.035H66.1656ZM71.2221 159.21L73.8657 164.035H72.3551L69.7534 159.21H71.2221ZM75.0263 154.447V153.293H83.0831V154.447H79.7051V164.035H78.4043V154.447H75.0263ZM86.3916 153.293V164.035H85.0908V153.293H86.3916ZM97.6442 156.65H96.3434C96.2664 156.276 96.1318 155.947 95.9395 155.664C95.7506 155.381 95.5199 155.143 95.2471 154.95C94.9778 154.755 94.6788 154.608 94.3501 154.51C94.0214 154.412 93.6787 154.363 93.3221 154.363C92.6716 154.363 92.0824 154.527 91.5544 154.856C91.0298 155.185 90.612 155.669 90.3007 156.309C89.993 156.949 89.8391 157.734 89.8391 158.664C89.8391 159.594 89.993 160.379 90.3007 161.019C90.612 161.659 91.0298 162.144 91.5544 162.472C92.0824 162.801 92.6716 162.965 93.3221 162.965C93.6787 162.965 94.0214 162.916 94.3501 162.818C94.6788 162.721 94.9778 162.575 95.2471 162.383C95.5199 162.187 95.7506 161.948 95.9395 161.665C96.1318 161.378 96.2664 161.049 96.3434 160.678H97.6442C97.5463 161.227 97.368 161.719 97.1092 162.152C96.8504 162.586 96.5287 162.955 96.1441 163.259C95.7594 163.56 95.3275 163.789 94.8484 163.946C94.3729 164.104 93.8641 164.182 93.3221 164.182C92.4059 164.182 91.5911 163.958 90.8777 163.511C90.1644 163.063 89.6031 162.427 89.194 161.602C88.7848 160.776 88.5803 159.797 88.5803 158.664C88.5803 157.531 88.7848 156.552 89.194 155.727C89.6031 154.901 90.1644 154.265 90.8777 153.817C91.5911 153.37 92.4059 153.146 93.3221 153.146C93.8641 153.146 94.3729 153.225 94.8484 153.382C95.3275 153.539 95.7594 153.77 96.1441 154.074C96.5287 154.375 96.8504 154.742 97.1092 155.176C97.368 155.606 97.5463 156.097 97.6442 156.65ZM99.7463 164.035V153.293H101.047V162.881H106.041V164.035H99.7463ZM108.055 164.035V153.293H114.538V154.447H109.356V158.077H114.202V159.231H109.356V162.881H114.622V164.035H108.055Z" fill="#66B3BB"/>
</svg>
