<svg width="375" height="276" viewBox="0 0 375 276" fill="none" xmlns="http://www.w3.org/2000/svg">
<path d="M374.173 0H0V275.906H374.173V0Z" fill="#EAE6C4"/>
<path d="M355.276 18.8976H18.8977V257.008H355.276V18.8976Z" fill="#EAE6C4"/>
<path d="M330.558 34.3739H43.6158C40.4848 34.3739 37.9465 36.9121 37.9465 40.0432V235.862C37.9465 238.993 40.4848 241.531 43.6158 241.531H330.558C333.689 241.531 336.227 238.993 336.227 235.862V40.0432C336.227 36.9121 333.689 34.3739 330.558 34.3739Z" fill="#363835"/>
<path d="M325.667 44.7977H48.5063V231.108H325.667V44.7977Z" fill="#EAE6C4"/>
<path d="M54.0069 52.5539C55.2167 52.5539 56.1974 51.5732 56.1974 50.3634C56.1974 49.1536 55.2167 48.1729 54.0069 48.1729C52.7971 48.1729 51.8164 49.1536 51.8164 50.3634C51.8164 51.5732 52.7971 52.5539 54.0069 52.5539Z" fill="#363835"/>
<path d="M54.0069 55.8615C55.2167 55.8615 56.1974 54.8808 56.1974 53.671C56.1974 52.4612 55.2167 51.4805 54.0069 51.4805C52.7971 51.4805 51.8164 52.4612 51.8164 53.671C51.8164 54.8808 52.7971 55.8615 54.0069 55.8615Z" fill="#363835"/>
<path d="M54.0069 59.1692C55.2167 59.1692 56.1974 58.1885 56.1974 56.9787C56.1974 55.7689 55.2167 54.7882 54.0069 54.7882C52.7971 54.7882 51.8164 55.7689 51.8164 56.9787C51.8164 58.1885 52.7971 59.1692 54.0069 59.1692Z" fill="#363835"/>
<path d="M54.0069 62.4768C55.2167 62.4768 56.1974 61.4961 56.1974 60.2863C56.1974 59.0765 55.2167 58.0958 54.0069 58.0958C52.7971 58.0958 51.8164 59.0765 51.8164 60.2863C51.8164 61.4961 52.7971 62.4768 54.0069 62.4768Z" fill="#363835"/>
<path d="M54.0069 65.7844C55.2167 65.7844 56.1974 64.8037 56.1974 63.5939C56.1974 62.3842 55.2167 61.4034 54.0069 61.4034C52.7971 61.4034 51.8164 62.3842 51.8164 63.5939C51.8164 64.8037 52.7971 65.7844 54.0069 65.7844Z" fill="#363835"/>
<path d="M54.0069 69.092C55.2167 69.092 56.1974 68.1113 56.1974 66.9015C56.1974 65.6918 55.2167 64.7111 54.0069 64.7111C52.7971 64.7111 51.8164 65.6918 51.8164 66.9015C51.8164 68.1113 52.7971 69.092 54.0069 69.092Z" fill="#363835"/>
<path d="M54.0069 72.3996C55.2167 72.3996 56.1974 71.4189 56.1974 70.2092C56.1974 68.9994 55.2167 68.0187 54.0069 68.0187C52.7971 68.0187 51.8164 68.9994 51.8164 70.2092C51.8164 71.4189 52.7971 72.3996 54.0069 72.3996Z" fill="#363835"/>
<path d="M54.0069 75.7073C55.2167 75.7073 56.1974 74.7266 56.1974 73.5168C56.1974 72.3071 55.2167 71.3264 54.0069 71.3264C52.7971 71.3264 51.8164 72.3071 51.8164 73.5168C51.8164 74.7266 52.7971 75.7073 54.0069 75.7073Z" fill="#363835"/>
<path d="M54.0069 79.0149C55.2167 79.0149 56.1974 78.0342 56.1974 76.8245C56.1974 75.6147 55.2167 74.634 54.0069 74.634C52.7971 74.634 51.8164 75.6147 51.8164 76.8245C51.8164 78.0342 52.7971 79.0149 54.0069 79.0149Z" fill="#363835"/>
<path d="M54.0069 82.3226C55.2167 82.3226 56.1974 81.3418 56.1974 80.1321C56.1974 78.9223 55.2167 77.9416 54.0069 77.9416C52.7971 77.9416 51.8164 78.9223 51.8164 80.1321C51.8164 81.3418 52.7971 82.3226 54.0069 82.3226Z" fill="#363835"/>
<path d="M54.0069 85.6302C55.2167 85.6302 56.1974 84.6495 56.1974 83.4397C56.1974 82.2299 55.2167 81.2492 54.0069 81.2492C52.7971 81.2492 51.8164 82.2299 51.8164 83.4397C51.8164 84.6495 52.7971 85.6302 54.0069 85.6302Z" fill="#363835"/>
<path d="M54.0069 88.9379C55.2167 88.9379 56.1974 87.9571 56.1974 86.7474C56.1974 85.5376 55.2167 84.5569 54.0069 84.5569C52.7971 84.5569 51.8164 85.5376 51.8164 86.7474C51.8164 87.9571 52.7971 88.9379 54.0069 88.9379Z" fill="#363835"/>
<path d="M54.0069 92.2455C55.2167 92.2455 56.1974 91.2648 56.1974 90.055C56.1974 88.8452 55.2167 87.8645 54.0069 87.8645C52.7971 87.8645 51.8164 88.8452 51.8164 90.055C51.8164 91.2648 52.7971 92.2455 54.0069 92.2455Z" fill="#363835"/>
<path d="M54.0069 95.5531C55.2167 95.5531 56.1974 94.5724 56.1974 93.3626C56.1974 92.1528 55.2167 91.1721 54.0069 91.1721C52.7971 91.1721 51.8164 92.1528 51.8164 93.3626C51.8164 94.5724 52.7971 95.5531 54.0069 95.5531Z" fill="#363835"/>
<path d="M54.0069 98.8607C55.2167 98.8607 56.1974 97.88 56.1974 96.6702C56.1974 95.4604 55.2167 94.4797 54.0069 94.4797C52.7971 94.4797 51.8164 95.4604 51.8164 96.6702C51.8164 97.88 52.7971 98.8607 54.0069 98.8607Z" fill="#363835"/>
<path d="M54.0069 102.168C55.2167 102.168 56.1974 101.188 56.1974 99.9778C56.1974 98.7681 55.2167 97.7874 54.0069 97.7874C52.7971 97.7874 51.8164 98.7681 51.8164 99.9778C51.8164 101.188 52.7971 102.168 54.0069 102.168Z" fill="#363835"/>
<path d="M54.0069 105.476C55.2167 105.476 56.1974 104.495 56.1974 103.286C56.1974 102.076 55.2167 101.095 54.0069 101.095C52.7971 101.095 51.8164 102.076 51.8164 103.286C51.8164 104.495 52.7971 105.476 54.0069 105.476Z" fill="#363835"/>
<path d="M54.0069 108.784C55.2167 108.784 56.1974 107.803 56.1974 106.593C56.1974 105.383 55.2167 104.403 54.0069 104.403C52.7971 104.403 51.8164 105.383 51.8164 106.593C51.8164 107.803 52.7971 108.784 54.0069 108.784Z" fill="#363835"/>
<path d="M54.0069 112.091C55.2167 112.091 56.1974 111.111 56.1974 109.901C56.1974 108.691 55.2167 107.71 54.0069 107.71C52.7971 107.71 51.8164 108.691 51.8164 109.901C51.8164 111.111 52.7971 112.091 54.0069 112.091Z" fill="#363835"/>
<path d="M54.0069 115.399C55.2167 115.399 56.1974 114.418 56.1974 113.208C56.1974 111.999 55.2167 111.018 54.0069 111.018C52.7971 111.018 51.8164 111.999 51.8164 113.208C51.8164 114.418 52.7971 115.399 54.0069 115.399Z" fill="#363835"/>
<path d="M54.0069 118.706C55.2167 118.706 56.1974 117.726 56.1974 116.516C56.1974 115.306 55.2167 114.326 54.0069 114.326C52.7971 114.326 51.8164 115.306 51.8164 116.516C51.8164 117.726 52.7971 118.706 54.0069 118.706Z" fill="#363835"/>
<path d="M54.0069 122.014C55.2167 122.014 56.1974 121.033 56.1974 119.824C56.1974 118.614 55.2167 117.633 54.0069 117.633C52.7971 117.633 51.8164 118.614 51.8164 119.824C51.8164 121.033 52.7971 122.014 54.0069 122.014Z" fill="#363835"/>
<path d="M54.0069 125.322C55.2167 125.322 56.1974 124.341 56.1974 123.131C56.1974 121.922 55.2167 120.941 54.0069 120.941C52.7971 120.941 51.8164 121.922 51.8164 123.131C51.8164 124.341 52.7971 125.322 54.0069 125.322Z" fill="#363835"/>
<path d="M54.0069 128.629C55.2167 128.629 56.1974 127.649 56.1974 126.439C56.1974 125.229 55.2167 124.248 54.0069 124.248C52.7971 124.248 51.8164 125.229 51.8164 126.439C51.8164 127.649 52.7971 128.629 54.0069 128.629Z" fill="#363835"/>
<path d="M54.0069 131.937C55.2167 131.937 56.1974 130.956 56.1974 129.747C56.1974 128.537 55.2167 127.556 54.0069 127.556C52.7971 127.556 51.8164 128.537 51.8164 129.747C51.8164 130.956 52.7971 131.937 54.0069 131.937Z" fill="#363835"/>
<path d="M54.0069 135.245C55.2167 135.245 56.1974 134.264 56.1974 133.054C56.1974 131.844 55.2167 130.864 54.0069 130.864C52.7971 130.864 51.8164 131.844 51.8164 133.054C51.8164 134.264 52.7971 135.245 54.0069 135.245Z" fill="#363835"/>
<path d="M54.0069 138.552C55.2167 138.552 56.1974 137.572 56.1974 136.362C56.1974 135.152 55.2167 134.171 54.0069 134.171C52.7971 134.171 51.8164 135.152 51.8164 136.362C51.8164 137.572 52.7971 138.552 54.0069 138.552Z" fill="#363835"/>
<path d="M54.0069 141.86C55.2167 141.86 56.1974 140.879 56.1974 139.669C56.1974 138.46 55.2167 137.479 54.0069 137.479C52.7971 137.479 51.8164 138.46 51.8164 139.669C51.8164 140.879 52.7971 141.86 54.0069 141.86Z" fill="#363835"/>
<path d="M54.0069 145.168C55.2167 145.168 56.1974 144.187 56.1974 142.977C56.1974 141.767 55.2167 140.787 54.0069 140.787C52.7971 140.787 51.8164 141.767 51.8164 142.977C51.8164 144.187 52.7971 145.168 54.0069 145.168Z" fill="#363835"/>
<path d="M54.0069 148.475C55.2167 148.475 56.1974 147.494 56.1974 146.285C56.1974 145.075 55.2167 144.094 54.0069 144.094C52.7971 144.094 51.8164 145.075 51.8164 146.285C51.8164 147.494 52.7971 148.475 54.0069 148.475Z" fill="#363835"/>
<path d="M54.0069 151.783C55.2167 151.783 56.1974 150.802 56.1974 149.592C56.1974 148.383 55.2167 147.402 54.0069 147.402C52.7971 147.402 51.8164 148.383 51.8164 149.592C51.8164 150.802 52.7971 151.783 54.0069 151.783Z" fill="#363835"/>
<path d="M54.0069 155.09C55.2167 155.09 56.1974 154.11 56.1974 152.9C56.1974 151.69 55.2167 150.709 54.0069 150.709C52.7971 150.709 51.8164 151.69 51.8164 152.9C51.8164 154.11 52.7971 155.09 54.0069 155.09Z" fill="#363835"/>
<path d="M54.0069 158.398C55.2167 158.398 56.1974 157.417 56.1974 156.208C56.1974 154.998 55.2167 154.017 54.0069 154.017C52.7971 154.017 51.8164 154.998 51.8164 156.208C51.8164 157.417 52.7971 158.398 54.0069 158.398Z" fill="#363835"/>
<path d="M54.0069 161.706C55.2167 161.706 56.1974 160.725 56.1974 159.515C56.1974 158.305 55.2167 157.325 54.0069 157.325C52.7971 157.325 51.8164 158.305 51.8164 159.515C51.8164 160.725 52.7971 161.706 54.0069 161.706Z" fill="#363835"/>
<path d="M54.0069 165.013C55.2167 165.013 56.1974 164.033 56.1974 162.823C56.1974 161.613 55.2167 160.632 54.0069 160.632C52.7971 160.632 51.8164 161.613 51.8164 162.823C51.8164 164.033 52.7971 165.013 54.0069 165.013Z" fill="#363835"/>
<path d="M54.0069 168.321C55.2167 168.321 56.1974 167.34 56.1974 166.13C56.1974 164.921 55.2167 163.94 54.0069 163.94C52.7971 163.94 51.8164 164.921 51.8164 166.13C51.8164 167.34 52.7971 168.321 54.0069 168.321Z" fill="#363835"/>
<path d="M54.0069 171.629C55.2167 171.629 56.1974 170.648 56.1974 169.438C56.1974 168.228 55.2167 167.248 54.0069 167.248C52.7971 167.248 51.8164 168.228 51.8164 169.438C51.8164 170.648 52.7971 171.629 54.0069 171.629Z" fill="#363835"/>
<path d="M54.0069 174.936C55.2167 174.936 56.1974 173.956 56.1974 172.746C56.1974 171.536 55.2167 170.555 54.0069 170.555C52.7971 170.555 51.8164 171.536 51.8164 172.746C51.8164 173.956 52.7971 174.936 54.0069 174.936Z" fill="#363835"/>
<path d="M54.0069 178.244C55.2167 178.244 56.1974 177.263 56.1974 176.053C56.1974 174.844 55.2167 173.863 54.0069 173.863C52.7971 173.863 51.8164 174.844 51.8164 176.053C51.8164 177.263 52.7971 178.244 54.0069 178.244Z" fill="#363835"/>
<path d="M54.0069 181.551C55.2167 181.551 56.1974 180.571 56.1974 179.361C56.1974 178.151 55.2167 177.171 54.0069 177.171C52.7971 177.171 51.8164 178.151 51.8164 179.361C51.8164 180.571 52.7971 181.551 54.0069 181.551Z" fill="#363835"/>
<path d="M54.0069 184.859C55.2167 184.859 56.1974 183.878 56.1974 182.669C56.1974 181.459 55.2167 180.478 54.0069 180.478C52.7971 180.478 51.8164 181.459 51.8164 182.669C51.8164 183.878 52.7971 184.859 54.0069 184.859Z" fill="#363835"/>
<path d="M54.0069 188.167C55.2167 188.167 56.1974 187.186 56.1974 185.976C56.1974 184.766 55.2167 183.786 54.0069 183.786C52.7971 183.786 51.8164 184.766 51.8164 185.976C51.8164 187.186 52.7971 188.167 54.0069 188.167Z" fill="#363835"/>
<path d="M54.0069 191.474C55.2167 191.474 56.1974 190.494 56.1974 189.284C56.1974 188.074 55.2167 187.093 54.0069 187.093C52.7971 187.093 51.8164 188.074 51.8164 189.284C51.8164 190.494 52.7971 191.474 54.0069 191.474Z" fill="#363835"/>
<path d="M54.0069 194.782C55.2167 194.782 56.1974 193.801 56.1974 192.592C56.1974 191.382 55.2167 190.401 54.0069 190.401C52.7971 190.401 51.8164 191.382 51.8164 192.592C51.8164 193.801 52.7971 194.782 54.0069 194.782Z" fill="#363835"/>
<path d="M54.0069 198.09C55.2167 198.09 56.1974 197.109 56.1974 195.899C56.1974 194.689 55.2167 193.709 54.0069 193.709C52.7971 193.709 51.8164 194.689 51.8164 195.899C51.8164 197.109 52.7971 198.09 54.0069 198.09Z" fill="#363835"/>
<path d="M54.0069 201.397C55.2167 201.397 56.1974 200.417 56.1974 199.207C56.1974 197.997 55.2167 197.016 54.0069 197.016C52.7971 197.016 51.8164 197.997 51.8164 199.207C51.8164 200.417 52.7971 201.397 54.0069 201.397Z" fill="#363835"/>
<path d="M54.0069 204.705C55.2167 204.705 56.1974 203.724 56.1974 202.514C56.1974 201.305 55.2167 200.324 54.0069 200.324C52.7971 200.324 51.8164 201.305 51.8164 202.514C51.8164 203.724 52.7971 204.705 54.0069 204.705Z" fill="#363835"/>
<path d="M54.0069 208.013C55.2167 208.013 56.1974 207.032 56.1974 205.822C56.1974 204.612 55.2167 203.632 54.0069 203.632C52.7971 203.632 51.8164 204.612 51.8164 205.822C51.8164 207.032 52.7971 208.013 54.0069 208.013Z" fill="#363835"/>
<path d="M54.0069 211.32C55.2167 211.32 56.1974 210.339 56.1974 209.13C56.1974 207.92 55.2167 206.939 54.0069 206.939C52.7971 206.939 51.8164 207.92 51.8164 209.13C51.8164 210.339 52.7971 211.32 54.0069 211.32Z" fill="#363835"/>
<path d="M54.0069 214.628C55.2167 214.628 56.1974 213.647 56.1974 212.437C56.1974 211.228 55.2167 210.247 54.0069 210.247C52.7971 210.247 51.8164 211.228 51.8164 212.437C51.8164 213.647 52.7971 214.628 54.0069 214.628Z" fill="#363835"/>
<path d="M54.0069 217.935C55.2167 217.935 56.1974 216.955 56.1974 215.745C56.1974 214.535 55.2167 213.554 54.0069 213.554C52.7971 213.554 51.8164 214.535 51.8164 215.745C51.8164 216.955 52.7971 217.935 54.0069 217.935Z" fill="#363835"/>
<path d="M54.0069 221.243C55.2167 221.243 56.1974 220.262 56.1974 219.053C56.1974 217.843 55.2167 216.862 54.0069 216.862C52.7971 216.862 51.8164 217.843 51.8164 219.053C51.8164 220.262 52.7971 221.243 54.0069 221.243Z" fill="#363835"/>
<path d="M54.0069 224.551C55.2167 224.551 56.1974 223.57 56.1974 222.36C56.1974 221.15 55.2167 220.17 54.0069 220.17C52.7971 220.17 51.8164 221.15 51.8164 222.36C51.8164 223.57 52.7971 224.551 54.0069 224.551Z" fill="#363835"/>
<path d="M54.0069 227.858C55.2167 227.858 56.1974 226.878 56.1974 225.668C56.1974 224.458 55.2167 223.477 54.0069 223.477C52.7971 223.477 51.8164 224.458 51.8164 225.668C51.8164 226.878 52.7971 227.858 54.0069 227.858Z" fill="#363835"/>
<path d="M57.3333 52.5539C58.5431 52.5539 59.5238 51.5732 59.5238 50.3634C59.5238 49.1536 58.5431 48.1729 57.3333 48.1729C56.1235 48.1729 55.1428 49.1536 55.1428 50.3634C55.1428 51.5732 56.1235 52.5539 57.3333 52.5539Z" fill="#363835"/>
<path d="M60.6595 52.5539C61.8692 52.5539 62.85 51.5732 62.85 50.3634C62.85 49.1536 61.8692 48.1729 60.6595 48.1729C59.4497 48.1729 58.469 49.1536 58.469 50.3634C58.469 51.5732 59.4497 52.5539 60.6595 52.5539Z" fill="#363835"/>
<path d="M63.9859 52.5539C65.1957 52.5539 66.1764 51.5732 66.1764 50.3634C66.1764 49.1536 65.1957 48.1729 63.9859 48.1729C62.7761 48.1729 61.7954 49.1536 61.7954 50.3634C61.7954 51.5732 62.7761 52.5539 63.9859 52.5539Z" fill="#363835"/>
<path d="M67.3123 52.5539C68.5221 52.5539 69.5028 51.5732 69.5028 50.3634C69.5028 49.1536 68.5221 48.1729 67.3123 48.1729C66.1025 48.1729 65.1218 49.1536 65.1218 50.3634C65.1218 51.5732 66.1025 52.5539 67.3123 52.5539Z" fill="#363835"/>
<path d="M70.6385 52.5539C71.8483 52.5539 72.829 51.5732 72.829 50.3634C72.829 49.1536 71.8483 48.1729 70.6385 48.1729C69.4287 48.1729 68.448 49.1536 68.448 50.3634C68.448 51.5732 69.4287 52.5539 70.6385 52.5539Z" fill="#363835"/>
<path d="M73.9649 52.5539C75.1747 52.5539 76.1554 51.5732 76.1554 50.3634C76.1554 49.1536 75.1747 48.1729 73.9649 48.1729C72.7551 48.1729 71.7744 49.1536 71.7744 50.3634C71.7744 51.5732 72.7551 52.5539 73.9649 52.5539Z" fill="#363835"/>
<path d="M77.2911 52.5539C78.5008 52.5539 79.4816 51.5732 79.4816 50.3634C79.4816 49.1536 78.5008 48.1729 77.2911 48.1729C76.0813 48.1729 75.1006 49.1536 75.1006 50.3634C75.1006 51.5732 76.0813 52.5539 77.2911 52.5539Z" fill="#363835"/>
<path d="M80.6175 52.5539C81.8273 52.5539 82.808 51.5732 82.808 50.3634C82.808 49.1536 81.8273 48.1729 80.6175 48.1729C79.4077 48.1729 78.427 49.1536 78.427 50.3634C78.427 51.5732 79.4077 52.5539 80.6175 52.5539Z" fill="#363835"/>
<path d="M83.9439 52.5539C85.1537 52.5539 86.1344 51.5732 86.1344 50.3634C86.1344 49.1536 85.1537 48.1729 83.9439 48.1729C82.7341 48.1729 81.7534 49.1536 81.7534 50.3634C81.7534 51.5732 82.7341 52.5539 83.9439 52.5539Z" fill="#363835"/>
<path d="M87.2701 52.5539C88.4798 52.5539 89.4606 51.5732 89.4606 50.3634C89.4606 49.1536 88.4798 48.1729 87.2701 48.1729C86.0603 48.1729 85.0796 49.1536 85.0796 50.3634C85.0796 51.5732 86.0603 52.5539 87.2701 52.5539Z" fill="#363835"/>
<path d="M90.5965 52.5539C91.8063 52.5539 92.787 51.5732 92.787 50.3634C92.787 49.1536 91.8063 48.1729 90.5965 48.1729C89.3867 48.1729 88.406 49.1536 88.406 50.3634C88.406 51.5732 89.3867 52.5539 90.5965 52.5539Z" fill="#363835"/>
<path d="M93.9229 52.5539C95.1327 52.5539 96.1134 51.5732 96.1134 50.3634C96.1134 49.1536 95.1327 48.1729 93.9229 48.1729C92.7131 48.1729 91.7324 49.1536 91.7324 50.3634C91.7324 51.5732 92.7131 52.5539 93.9229 52.5539Z" fill="#363835"/>
<path d="M97.2491 52.5539C98.4588 52.5539 99.4396 51.5732 99.4396 50.3634C99.4396 49.1536 98.4588 48.1729 97.2491 48.1729C96.0393 48.1729 95.0586 49.1536 95.0586 50.3634C95.0586 51.5732 96.0393 52.5539 97.2491 52.5539Z" fill="#363835"/>
<path d="M100.575 52.5539C101.785 52.5539 102.766 51.5732 102.766 50.3634C102.766 49.1536 101.785 48.1729 100.575 48.1729C99.3657 48.1729 98.385 49.1536 98.385 50.3634C98.385 51.5732 99.3657 52.5539 100.575 52.5539Z" fill="#363835"/>
<path d="M103.902 52.5539C105.112 52.5539 106.092 51.5732 106.092 50.3634C106.092 49.1536 105.112 48.1729 103.902 48.1729C102.692 48.1729 101.711 49.1536 101.711 50.3634C101.711 51.5732 102.692 52.5539 103.902 52.5539Z" fill="#363835"/>
<path d="M107.228 52.5539C108.438 52.5539 109.419 51.5732 109.419 50.3634C109.419 49.1536 108.438 48.1729 107.228 48.1729C106.018 48.1729 105.038 49.1536 105.038 50.3634C105.038 51.5732 106.018 52.5539 107.228 52.5539Z" fill="#363835"/>
<path d="M110.554 52.5539C111.764 52.5539 112.745 51.5732 112.745 50.3634C112.745 49.1536 111.764 48.1729 110.554 48.1729C109.345 48.1729 108.364 49.1536 108.364 50.3634C108.364 51.5732 109.345 52.5539 110.554 52.5539Z" fill="#363835"/>
<path d="M113.881 52.5539C115.09 52.5539 116.071 51.5732 116.071 50.3634C116.071 49.1536 115.09 48.1729 113.881 48.1729C112.671 48.1729 111.69 49.1536 111.69 50.3634C111.69 51.5732 112.671 52.5539 113.881 52.5539Z" fill="#363835"/>
<path d="M117.207 52.5539C118.417 52.5539 119.398 51.5732 119.398 50.3634C119.398 49.1536 118.417 48.1729 117.207 48.1729C115.997 48.1729 115.017 49.1536 115.017 50.3634C115.017 51.5732 115.997 52.5539 117.207 52.5539Z" fill="#363835"/>
<path d="M120.534 52.5539C121.743 52.5539 122.724 51.5732 122.724 50.3634C122.724 49.1536 121.743 48.1729 120.534 48.1729C119.324 48.1729 118.343 49.1536 118.343 50.3634C118.343 51.5732 119.324 52.5539 120.534 52.5539Z" fill="#363835"/>
<path d="M123.86 52.5539C125.069 52.5539 126.05 51.5732 126.05 50.3634C126.05 49.1536 125.069 48.1729 123.86 48.1729C122.65 48.1729 121.669 49.1536 121.669 50.3634C121.669 51.5732 122.65 52.5539 123.86 52.5539Z" fill="#363835"/>
<path d="M127.186 52.5539C128.396 52.5539 129.377 51.5732 129.377 50.3634C129.377 49.1536 128.396 48.1729 127.186 48.1729C125.976 48.1729 124.996 49.1536 124.996 50.3634C124.996 51.5732 125.976 52.5539 127.186 52.5539Z" fill="#363835"/>
<path d="M130.513 52.5539C131.722 52.5539 132.703 51.5732 132.703 50.3634C132.703 49.1536 131.722 48.1729 130.513 48.1729C129.303 48.1729 128.322 49.1536 128.322 50.3634C128.322 51.5732 129.303 52.5539 130.513 52.5539Z" fill="#363835"/>
<path d="M133.839 52.5539C135.048 52.5539 136.029 51.5732 136.029 50.3634C136.029 49.1536 135.048 48.1729 133.839 48.1729C132.629 48.1729 131.648 49.1536 131.648 50.3634C131.648 51.5732 132.629 52.5539 133.839 52.5539Z" fill="#363835"/>
<path d="M137.165 52.5539C138.375 52.5539 139.356 51.5732 139.356 50.3634C139.356 49.1536 138.375 48.1729 137.165 48.1729C135.955 48.1729 134.975 49.1536 134.975 50.3634C134.975 51.5732 135.955 52.5539 137.165 52.5539Z" fill="#363835"/>
<path d="M140.491 52.5539C141.701 52.5539 142.682 51.5732 142.682 50.3634C142.682 49.1536 141.701 48.1729 140.491 48.1729C139.281 48.1729 138.301 49.1536 138.301 50.3634C138.301 51.5732 139.281 52.5539 140.491 52.5539Z" fill="#363835"/>
<path d="M143.818 52.5539C145.027 52.5539 146.008 51.5732 146.008 50.3634C146.008 49.1536 145.027 48.1729 143.818 48.1729C142.608 48.1729 141.627 49.1536 141.627 50.3634C141.627 51.5732 142.608 52.5539 143.818 52.5539Z" fill="#363835"/>
<path d="M147.144 52.5539C148.354 52.5539 149.335 51.5732 149.335 50.3634C149.335 49.1536 148.354 48.1729 147.144 48.1729C145.934 48.1729 144.954 49.1536 144.954 50.3634C144.954 51.5732 145.934 52.5539 147.144 52.5539Z" fill="#363835"/>
<path d="M150.47 52.5539C151.68 52.5539 152.661 51.5732 152.661 50.3634C152.661 49.1536 151.68 48.1729 150.47 48.1729C149.26 48.1729 148.28 49.1536 148.28 50.3634C148.28 51.5732 149.26 52.5539 150.47 52.5539Z" fill="#363835"/>
<path d="M153.797 52.5539C155.006 52.5539 155.987 51.5732 155.987 50.3634C155.987 49.1536 155.006 48.1729 153.797 48.1729C152.587 48.1729 151.606 49.1536 151.606 50.3634C151.606 51.5732 152.587 52.5539 153.797 52.5539Z" fill="#363835"/>
<path d="M157.123 52.5539C158.333 52.5539 159.314 51.5732 159.314 50.3634C159.314 49.1536 158.333 48.1729 157.123 48.1729C155.913 48.1729 154.933 49.1536 154.933 50.3634C154.933 51.5732 155.913 52.5539 157.123 52.5539Z" fill="#363835"/>
<path d="M160.449 52.5539C161.659 52.5539 162.64 51.5732 162.64 50.3634C162.64 49.1536 161.659 48.1729 160.449 48.1729C159.24 48.1729 158.259 49.1536 158.259 50.3634C158.259 51.5732 159.24 52.5539 160.449 52.5539Z" fill="#363835"/>
<path d="M163.776 52.5539C164.985 52.5539 165.966 51.5732 165.966 50.3634C165.966 49.1536 164.985 48.1729 163.776 48.1729C162.566 48.1729 161.585 49.1536 161.585 50.3634C161.585 51.5732 162.566 52.5539 163.776 52.5539Z" fill="#363835"/>
<path d="M167.102 52.5539C168.312 52.5539 169.293 51.5732 169.293 50.3634C169.293 49.1536 168.312 48.1729 167.102 48.1729C165.892 48.1729 164.912 49.1536 164.912 50.3634C164.912 51.5732 165.892 52.5539 167.102 52.5539Z" fill="#363835"/>
<path d="M170.428 52.5539C171.638 52.5539 172.619 51.5732 172.619 50.3634C172.619 49.1536 171.638 48.1729 170.428 48.1729C169.219 48.1729 168.238 49.1536 168.238 50.3634C168.238 51.5732 169.219 52.5539 170.428 52.5539Z" fill="#363835"/>
<path d="M173.755 52.5539C174.964 52.5539 175.945 51.5732 175.945 50.3634C175.945 49.1536 174.964 48.1729 173.755 48.1729C172.545 48.1729 171.564 49.1536 171.564 50.3634C171.564 51.5732 172.545 52.5539 173.755 52.5539Z" fill="#363835"/>
<path d="M177.081 52.5539C178.291 52.5539 179.271 51.5732 179.271 50.3634C179.271 49.1536 178.291 48.1729 177.081 48.1729C175.871 48.1729 174.89 49.1536 174.89 50.3634C174.89 51.5732 175.871 52.5539 177.081 52.5539Z" fill="#363835"/>
<path d="M180.407 52.5539C181.617 52.5539 182.598 51.5732 182.598 50.3634C182.598 49.1536 181.617 48.1729 180.407 48.1729C179.198 48.1729 178.217 49.1536 178.217 50.3634C178.217 51.5732 179.198 52.5539 180.407 52.5539Z" fill="#363835"/>
<path d="M183.734 52.5539C184.943 52.5539 185.924 51.5732 185.924 50.3634C185.924 49.1536 184.943 48.1729 183.734 48.1729C182.524 48.1729 181.543 49.1536 181.543 50.3634C181.543 51.5732 182.524 52.5539 183.734 52.5539Z" fill="#363835"/>
<path d="M187.06 52.5539C188.27 52.5539 189.25 51.5732 189.25 50.3634C189.25 49.1536 188.27 48.1729 187.06 48.1729C185.85 48.1729 184.869 49.1536 184.869 50.3634C184.869 51.5732 185.85 52.5539 187.06 52.5539Z" fill="#363835"/>
<path d="M190.386 52.5539C191.596 52.5539 192.577 51.5732 192.577 50.3634C192.577 49.1536 191.596 48.1729 190.386 48.1729C189.177 48.1729 188.196 49.1536 188.196 50.3634C188.196 51.5732 189.177 52.5539 190.386 52.5539Z" fill="#363835"/>
<path d="M193.712 52.5539C194.922 52.5539 195.903 51.5732 195.903 50.3634C195.903 49.1536 194.922 48.1729 193.712 48.1729C192.503 48.1729 191.522 49.1536 191.522 50.3634C191.522 51.5732 192.503 52.5539 193.712 52.5539Z" fill="#363835"/>
<path d="M197.039 52.5539C198.249 52.5539 199.229 51.5732 199.229 50.3634C199.229 49.1536 198.249 48.1729 197.039 48.1729C195.829 48.1729 194.848 49.1536 194.848 50.3634C194.848 51.5732 195.829 52.5539 197.039 52.5539Z" fill="#363835"/>
<path d="M200.365 52.5539C201.575 52.5539 202.556 51.5732 202.556 50.3634C202.556 49.1536 201.575 48.1729 200.365 48.1729C199.156 48.1729 198.175 49.1536 198.175 50.3634C198.175 51.5732 199.156 52.5539 200.365 52.5539Z" fill="#363835"/>
<path d="M203.691 52.5539C204.901 52.5539 205.882 51.5732 205.882 50.3634C205.882 49.1536 204.901 48.1729 203.691 48.1729C202.482 48.1729 201.501 49.1536 201.501 50.3634C201.501 51.5732 202.482 52.5539 203.691 52.5539Z" fill="#363835"/>
<path d="M207.018 52.5539C208.228 52.5539 209.208 51.5732 209.208 50.3634C209.208 49.1536 208.228 48.1729 207.018 48.1729C205.808 48.1729 204.827 49.1536 204.827 50.3634C204.827 51.5732 205.808 52.5539 207.018 52.5539Z" fill="#363835"/>
<path d="M210.344 52.5539C211.554 52.5539 212.535 51.5732 212.535 50.3634C212.535 49.1536 211.554 48.1729 210.344 48.1729C209.135 48.1729 208.154 49.1536 208.154 50.3634C208.154 51.5732 209.135 52.5539 210.344 52.5539Z" fill="#363835"/>
<path d="M213.67 52.5539C214.88 52.5539 215.861 51.5732 215.861 50.3634C215.861 49.1536 214.88 48.1729 213.67 48.1729C212.461 48.1729 211.48 49.1536 211.48 50.3634C211.48 51.5732 212.461 52.5539 213.67 52.5539Z" fill="#363835"/>
<path d="M216.997 52.5539C218.207 52.5539 219.187 51.5732 219.187 50.3634C219.187 49.1536 218.207 48.1729 216.997 48.1729C215.787 48.1729 214.806 49.1536 214.806 50.3634C214.806 51.5732 215.787 52.5539 216.997 52.5539Z" fill="#363835"/>
<path d="M220.323 52.5539C221.533 52.5539 222.514 51.5732 222.514 50.3634C222.514 49.1536 221.533 48.1729 220.323 48.1729C219.114 48.1729 218.133 49.1536 218.133 50.3634C218.133 51.5732 219.114 52.5539 220.323 52.5539Z" fill="#363835"/>
<path d="M223.649 52.5539C224.859 52.5539 225.84 51.5732 225.84 50.3634C225.84 49.1536 224.859 48.1729 223.649 48.1729C222.44 48.1729 221.459 49.1536 221.459 50.3634C221.459 51.5732 222.44 52.5539 223.649 52.5539Z" fill="#363835"/>
<path d="M226.976 52.5539C228.186 52.5539 229.166 51.5732 229.166 50.3634C229.166 49.1536 228.186 48.1729 226.976 48.1729C225.766 48.1729 224.785 49.1536 224.785 50.3634C224.785 51.5732 225.766 52.5539 226.976 52.5539Z" fill="#363835"/>
<path d="M230.302 52.5539C231.512 52.5539 232.493 51.5732 232.493 50.3634C232.493 49.1536 231.512 48.1729 230.302 48.1729C229.093 48.1729 228.112 49.1536 228.112 50.3634C228.112 51.5732 229.093 52.5539 230.302 52.5539Z" fill="#363835"/>
<path d="M233.628 52.5539C234.838 52.5539 235.819 51.5732 235.819 50.3634C235.819 49.1536 234.838 48.1729 233.628 48.1729C232.419 48.1729 231.438 49.1536 231.438 50.3634C231.438 51.5732 232.419 52.5539 233.628 52.5539Z" fill="#363835"/>
<path d="M236.955 52.5539C238.165 52.5539 239.145 51.5732 239.145 50.3634C239.145 49.1536 238.165 48.1729 236.955 48.1729C235.745 48.1729 234.764 49.1536 234.764 50.3634C234.764 51.5732 235.745 52.5539 236.955 52.5539Z" fill="#363835"/>
<path d="M240.281 52.5539C241.491 52.5539 242.472 51.5732 242.472 50.3634C242.472 49.1536 241.491 48.1729 240.281 48.1729C239.071 48.1729 238.091 49.1536 238.091 50.3634C238.091 51.5732 239.071 52.5539 240.281 52.5539Z" fill="#363835"/>
<path d="M243.607 52.5539C244.817 52.5539 245.798 51.5732 245.798 50.3634C245.798 49.1536 244.817 48.1729 243.607 48.1729C242.398 48.1729 241.417 49.1536 241.417 50.3634C241.417 51.5732 242.398 52.5539 243.607 52.5539Z" fill="#363835"/>
<path d="M246.934 52.5539C248.144 52.5539 249.124 51.5732 249.124 50.3634C249.124 49.1536 248.144 48.1729 246.934 48.1729C245.724 48.1729 244.743 49.1536 244.743 50.3634C244.743 51.5732 245.724 52.5539 246.934 52.5539Z" fill="#363835"/>
<path d="M250.26 52.5539C251.47 52.5539 252.451 51.5732 252.451 50.3634C252.451 49.1536 251.47 48.1729 250.26 48.1729C249.05 48.1729 248.07 49.1536 248.07 50.3634C248.07 51.5732 249.05 52.5539 250.26 52.5539Z" fill="#363835"/>
<path d="M253.586 52.5539C254.796 52.5539 255.777 51.5732 255.777 50.3634C255.777 49.1536 254.796 48.1729 253.586 48.1729C252.377 48.1729 251.396 49.1536 251.396 50.3634C251.396 51.5732 252.377 52.5539 253.586 52.5539Z" fill="#363835"/>
<path d="M256.913 52.5539C258.123 52.5539 259.103 51.5732 259.103 50.3634C259.103 49.1536 258.123 48.1729 256.913 48.1729C255.703 48.1729 254.722 49.1536 254.722 50.3634C254.722 51.5732 255.703 52.5539 256.913 52.5539Z" fill="#363835"/>
<path d="M260.239 52.5539C261.449 52.5539 262.43 51.5732 262.43 50.3634C262.43 49.1536 261.449 48.1729 260.239 48.1729C259.029 48.1729 258.049 49.1536 258.049 50.3634C258.049 51.5732 259.029 52.5539 260.239 52.5539Z" fill="#363835"/>
<path d="M263.565 52.5539C264.775 52.5539 265.756 51.5732 265.756 50.3634C265.756 49.1536 264.775 48.1729 263.565 48.1729C262.356 48.1729 261.375 49.1536 261.375 50.3634C261.375 51.5732 262.356 52.5539 263.565 52.5539Z" fill="#363835"/>
<path d="M266.892 52.5539C268.102 52.5539 269.082 51.5732 269.082 50.3634C269.082 49.1536 268.102 48.1729 266.892 48.1729C265.682 48.1729 264.701 49.1536 264.701 50.3634C264.701 51.5732 265.682 52.5539 266.892 52.5539Z" fill="#363835"/>
<path d="M270.218 52.5539C271.428 52.5539 272.409 51.5732 272.409 50.3634C272.409 49.1536 271.428 48.1729 270.218 48.1729C269.008 48.1729 268.028 49.1536 268.028 50.3634C268.028 51.5732 269.008 52.5539 270.218 52.5539Z" fill="#363835"/>
<path d="M273.544 52.5539C274.754 52.5539 275.735 51.5732 275.735 50.3634C275.735 49.1536 274.754 48.1729 273.544 48.1729C272.335 48.1729 271.354 49.1536 271.354 50.3634C271.354 51.5732 272.335 52.5539 273.544 52.5539Z" fill="#363835"/>
<path d="M276.871 52.5539C278.08 52.5539 279.061 51.5732 279.061 50.3634C279.061 49.1536 278.08 48.1729 276.871 48.1729C275.661 48.1729 274.68 49.1536 274.68 50.3634C274.68 51.5732 275.661 52.5539 276.871 52.5539Z" fill="#363835"/>
<path d="M280.197 52.5539C281.407 52.5539 282.388 51.5732 282.388 50.3634C282.388 49.1536 281.407 48.1729 280.197 48.1729C278.987 48.1729 278.007 49.1536 278.007 50.3634C278.007 51.5732 278.987 52.5539 280.197 52.5539Z" fill="#363835"/>
<path d="M283.523 52.5539C284.733 52.5539 285.714 51.5732 285.714 50.3634C285.714 49.1536 284.733 48.1729 283.523 48.1729C282.314 48.1729 281.333 49.1536 281.333 50.3634C281.333 51.5732 282.314 52.5539 283.523 52.5539Z" fill="#363835"/>
<path d="M286.85 52.5539C288.059 52.5539 289.04 51.5732 289.04 50.3634C289.04 49.1536 288.059 48.1729 286.85 48.1729C285.64 48.1729 284.659 49.1536 284.659 50.3634C284.659 51.5732 285.64 52.5539 286.85 52.5539Z" fill="#363835"/>
<path d="M290.176 52.5539C291.386 52.5539 292.367 51.5732 292.367 50.3634C292.367 49.1536 291.386 48.1729 290.176 48.1729C288.966 48.1729 287.986 49.1536 287.986 50.3634C287.986 51.5732 288.966 52.5539 290.176 52.5539Z" fill="#363835"/>
<path d="M293.502 52.5539C294.712 52.5539 295.693 51.5732 295.693 50.3634C295.693 49.1536 294.712 48.1729 293.502 48.1729C292.293 48.1729 291.312 49.1536 291.312 50.3634C291.312 51.5732 292.293 52.5539 293.502 52.5539Z" fill="#363835"/>
<path d="M296.829 52.5539C298.038 52.5539 299.019 51.5732 299.019 50.3634C299.019 49.1536 298.038 48.1729 296.829 48.1729C295.619 48.1729 294.638 49.1536 294.638 50.3634C294.638 51.5732 295.619 52.5539 296.829 52.5539Z" fill="#363835"/>
<path d="M300.155 52.5539C301.365 52.5539 302.346 51.5732 302.346 50.3634C302.346 49.1536 301.365 48.1729 300.155 48.1729C298.945 48.1729 297.965 49.1536 297.965 50.3634C297.965 51.5732 298.945 52.5539 300.155 52.5539Z" fill="#363835"/>
<path d="M303.481 52.5539C304.691 52.5539 305.672 51.5732 305.672 50.3634C305.672 49.1536 304.691 48.1729 303.481 48.1729C302.272 48.1729 301.291 49.1536 301.291 50.3634C301.291 51.5732 302.272 52.5539 303.481 52.5539Z" fill="#363835"/>
<path d="M306.808 52.5539C308.017 52.5539 308.998 51.5732 308.998 50.3634C308.998 49.1536 308.017 48.1729 306.808 48.1729C305.598 48.1729 304.617 49.1536 304.617 50.3634C304.617 51.5732 305.598 52.5539 306.808 52.5539Z" fill="#363835"/>
<path d="M310.134 52.5539C311.344 52.5539 312.325 51.5732 312.325 50.3634C312.325 49.1536 311.344 48.1729 310.134 48.1729C308.924 48.1729 307.944 49.1536 307.944 50.3634C307.944 51.5732 308.924 52.5539 310.134 52.5539Z" fill="#363835"/>
<path d="M320.113 52.5539C321.323 52.5539 322.304 51.5732 322.304 50.3634C322.304 49.1536 321.323 48.1729 320.113 48.1729C318.903 48.1729 317.923 49.1536 317.923 50.3634C317.923 51.5732 318.903 52.5539 320.113 52.5539Z" fill="#363835"/>
<path d="M320.113 227.858C321.323 227.858 322.304 226.878 322.304 225.668C322.304 224.458 321.323 223.477 320.113 223.477C318.903 223.477 317.923 224.458 317.923 225.668C317.923 226.878 318.903 227.858 320.113 227.858Z" fill="#363835"/>
<path d="M320.113 55.8615C321.323 55.8615 322.304 54.8808 322.304 53.671C322.304 52.4612 321.323 51.4805 320.113 51.4805C318.903 51.4805 317.923 52.4612 317.923 53.671C317.923 54.8808 318.903 55.8615 320.113 55.8615Z" fill="#363835"/>
<path d="M320.113 59.1692C321.323 59.1692 322.304 58.1885 322.304 56.9787C322.304 55.7689 321.323 54.7882 320.113 54.7882C318.903 54.7882 317.923 55.7689 317.923 56.9787C317.923 58.1885 318.903 59.1692 320.113 59.1692Z" fill="#363835"/>
<path d="M320.113 62.4768C321.323 62.4768 322.304 61.4961 322.304 60.2863C322.304 59.0765 321.323 58.0958 320.113 58.0958C318.903 58.0958 317.923 59.0765 317.923 60.2863C317.923 61.4961 318.903 62.4768 320.113 62.4768Z" fill="#363835"/>
<path d="M320.113 65.7844C321.323 65.7844 322.304 64.8037 322.304 63.5939C322.304 62.3842 321.323 61.4034 320.113 61.4034C318.903 61.4034 317.923 62.3842 317.923 63.5939C317.923 64.8037 318.903 65.7844 320.113 65.7844Z" fill="#363835"/>
<path d="M320.113 69.092C321.323 69.092 322.304 68.1113 322.304 66.9015C322.304 65.6918 321.323 64.7111 320.113 64.7111C318.903 64.7111 317.923 65.6918 317.923 66.9015C317.923 68.1113 318.903 69.092 320.113 69.092Z" fill="#363835"/>
<path d="M320.113 72.3996C321.323 72.3996 322.304 71.4189 322.304 70.2092C322.304 68.9994 321.323 68.0187 320.113 68.0187C318.903 68.0187 317.923 68.9994 317.923 70.2092C317.923 71.4189 318.903 72.3996 320.113 72.3996Z" fill="#363835"/>
<path d="M320.113 75.7073C321.323 75.7073 322.304 74.7266 322.304 73.5168C322.304 72.3071 321.323 71.3264 320.113 71.3264C318.903 71.3264 317.923 72.3071 317.923 73.5168C317.923 74.7266 318.903 75.7073 320.113 75.7073Z" fill="#363835"/>
<path d="M320.113 79.0149C321.323 79.0149 322.304 78.0342 322.304 76.8245C322.304 75.6147 321.323 74.634 320.113 74.634C318.903 74.634 317.923 75.6147 317.923 76.8245C317.923 78.0342 318.903 79.0149 320.113 79.0149Z" fill="#363835"/>
<path d="M320.113 82.3226C321.323 82.3226 322.304 81.3418 322.304 80.1321C322.304 78.9223 321.323 77.9416 320.113 77.9416C318.903 77.9416 317.923 78.9223 317.923 80.1321C317.923 81.3418 318.903 82.3226 320.113 82.3226Z" fill="#363835"/>
<path d="M320.113 85.6302C321.323 85.6302 322.304 84.6495 322.304 83.4397C322.304 82.2299 321.323 81.2492 320.113 81.2492C318.903 81.2492 317.923 82.2299 317.923 83.4397C317.923 84.6495 318.903 85.6302 320.113 85.6302Z" fill="#363835"/>
<path d="M320.113 88.9379C321.323 88.9379 322.304 87.9571 322.304 86.7474C322.304 85.5376 321.323 84.5569 320.113 84.5569C318.903 84.5569 317.923 85.5376 317.923 86.7474C317.923 87.9571 318.903 88.9379 320.113 88.9379Z" fill="#363835"/>
<path d="M320.113 92.2455C321.323 92.2455 322.304 91.2648 322.304 90.055C322.304 88.8452 321.323 87.8645 320.113 87.8645C318.903 87.8645 317.923 88.8452 317.923 90.055C317.923 91.2648 318.903 92.2455 320.113 92.2455Z" fill="#363835"/>
<path d="M320.113 95.5531C321.323 95.5531 322.304 94.5724 322.304 93.3626C322.304 92.1528 321.323 91.1721 320.113 91.1721C318.903 91.1721 317.923 92.1528 317.923 93.3626C317.923 94.5724 318.903 95.5531 320.113 95.5531Z" fill="#363835"/>
<path d="M320.113 98.8607C321.323 98.8607 322.304 97.88 322.304 96.6702C322.304 95.4604 321.323 94.4797 320.113 94.4797C318.903 94.4797 317.923 95.4604 317.923 96.6702C317.923 97.88 318.903 98.8607 320.113 98.8607Z" fill="#363835"/>
<path d="M320.113 102.168C321.323 102.168 322.304 101.188 322.304 99.9778C322.304 98.7681 321.323 97.7874 320.113 97.7874C318.903 97.7874 317.923 98.7681 317.923 99.9778C317.923 101.188 318.903 102.168 320.113 102.168Z" fill="#363835"/>
<path d="M320.113 105.476C321.323 105.476 322.304 104.495 322.304 103.286C322.304 102.076 321.323 101.095 320.113 101.095C318.903 101.095 317.923 102.076 317.923 103.286C317.923 104.495 318.903 105.476 320.113 105.476Z" fill="#363835"/>
<path d="M320.113 108.784C321.323 108.784 322.304 107.803 322.304 106.593C322.304 105.383 321.323 104.403 320.113 104.403C318.903 104.403 317.923 105.383 317.923 106.593C317.923 107.803 318.903 108.784 320.113 108.784Z" fill="#363835"/>
<path d="M320.113 112.091C321.323 112.091 322.304 111.111 322.304 109.901C322.304 108.691 321.323 107.71 320.113 107.71C318.903 107.71 317.923 108.691 317.923 109.901C317.923 111.111 318.903 112.091 320.113 112.091Z" fill="#363835"/>
<path d="M320.113 115.399C321.323 115.399 322.304 114.418 322.304 113.208C322.304 111.999 321.323 111.018 320.113 111.018C318.903 111.018 317.923 111.999 317.923 113.208C317.923 114.418 318.903 115.399 320.113 115.399Z" fill="#363835"/>
<path d="M320.113 118.706C321.323 118.706 322.304 117.726 322.304 116.516C322.304 115.306 321.323 114.326 320.113 114.326C318.903 114.326 317.923 115.306 317.923 116.516C317.923 117.726 318.903 118.706 320.113 118.706Z" fill="#363835"/>
<path d="M320.113 122.014C321.323 122.014 322.304 121.033 322.304 119.824C322.304 118.614 321.323 117.633 320.113 117.633C318.903 117.633 317.923 118.614 317.923 119.824C317.923 121.033 318.903 122.014 320.113 122.014Z" fill="#363835"/>
<path d="M320.113 125.322C321.323 125.322 322.304 124.341 322.304 123.131C322.304 121.922 321.323 120.941 320.113 120.941C318.903 120.941 317.923 121.922 317.923 123.131C317.923 124.341 318.903 125.322 320.113 125.322Z" fill="#363835"/>
<path d="M320.113 128.629C321.323 128.629 322.304 127.649 322.304 126.439C322.304 125.229 321.323 124.248 320.113 124.248C318.903 124.248 317.923 125.229 317.923 126.439C317.923 127.649 318.903 128.629 320.113 128.629Z" fill="#363835"/>
<path d="M320.113 131.937C321.323 131.937 322.304 130.956 322.304 129.747C322.304 128.537 321.323 127.556 320.113 127.556C318.903 127.556 317.923 128.537 317.923 129.747C317.923 130.956 318.903 131.937 320.113 131.937Z" fill="#363835"/>
<path d="M320.113 135.245C321.323 135.245 322.304 134.264 322.304 133.054C322.304 131.844 321.323 130.864 320.113 130.864C318.903 130.864 317.923 131.844 317.923 133.054C317.923 134.264 318.903 135.245 320.113 135.245Z" fill="#363835"/>
<path d="M320.113 138.552C321.323 138.552 322.304 137.572 322.304 136.362C322.304 135.152 321.323 134.171 320.113 134.171C318.903 134.171 317.923 135.152 317.923 136.362C317.923 137.572 318.903 138.552 320.113 138.552Z" fill="#363835"/>
<path d="M320.113 141.86C321.323 141.86 322.304 140.879 322.304 139.669C322.304 138.46 321.323 137.479 320.113 137.479C318.903 137.479 317.923 138.46 317.923 139.669C317.923 140.879 318.903 141.86 320.113 141.86Z" fill="#363835"/>
<path d="M320.113 145.168C321.323 145.168 322.304 144.187 322.304 142.977C322.304 141.767 321.323 140.787 320.113 140.787C318.903 140.787 317.923 141.767 317.923 142.977C317.923 144.187 318.903 145.168 320.113 145.168Z" fill="#363835"/>
<path d="M320.113 148.475C321.323 148.475 322.304 147.494 322.304 146.285C322.304 145.075 321.323 144.094 320.113 144.094C318.903 144.094 317.923 145.075 317.923 146.285C317.923 147.494 318.903 148.475 320.113 148.475Z" fill="#363835"/>
<path d="M320.113 151.783C321.323 151.783 322.304 150.802 322.304 149.592C322.304 148.383 321.323 147.402 320.113 147.402C318.903 147.402 317.923 148.383 317.923 149.592C317.923 150.802 318.903 151.783 320.113 151.783Z" fill="#363835"/>
<path d="M320.113 155.09C321.323 155.09 322.304 154.11 322.304 152.9C322.304 151.69 321.323 150.709 320.113 150.709C318.903 150.709 317.923 151.69 317.923 152.9C317.923 154.11 318.903 155.09 320.113 155.09Z" fill="#363835"/>
<path d="M320.113 158.398C321.323 158.398 322.304 157.417 322.304 156.208C322.304 154.998 321.323 154.017 320.113 154.017C318.903 154.017 317.923 154.998 317.923 156.208C317.923 157.417 318.903 158.398 320.113 158.398Z" fill="#363835"/>
<path d="M320.113 161.706C321.323 161.706 322.304 160.725 322.304 159.515C322.304 158.305 321.323 157.325 320.113 157.325C318.903 157.325 317.923 158.305 317.923 159.515C317.923 160.725 318.903 161.706 320.113 161.706Z" fill="#363835"/>
<path d="M320.113 165.013C321.323 165.013 322.304 164.033 322.304 162.823C322.304 161.613 321.323 160.632 320.113 160.632C318.903 160.632 317.923 161.613 317.923 162.823C317.923 164.033 318.903 165.013 320.113 165.013Z" fill="#363835"/>
<path d="M320.113 168.321C321.323 168.321 322.304 167.34 322.304 166.13C322.304 164.921 321.323 163.94 320.113 163.94C318.903 163.94 317.923 164.921 317.923 166.13C317.923 167.34 318.903 168.321 320.113 168.321Z" fill="#363835"/>
<path d="M320.113 171.629C321.323 171.629 322.304 170.648 322.304 169.438C322.304 168.228 321.323 167.248 320.113 167.248C318.903 167.248 317.923 168.228 317.923 169.438C317.923 170.648 318.903 171.629 320.113 171.629Z" fill="#363835"/>
<path d="M320.113 174.936C321.323 174.936 322.304 173.956 322.304 172.746C322.304 171.536 321.323 170.555 320.113 170.555C318.903 170.555 317.923 171.536 317.923 172.746C317.923 173.956 318.903 174.936 320.113 174.936Z" fill="#363835"/>
<path d="M320.113 178.244C321.323 178.244 322.304 177.263 322.304 176.053C322.304 174.844 321.323 173.863 320.113 173.863C318.903 173.863 317.923 174.844 317.923 176.053C317.923 177.263 318.903 178.244 320.113 178.244Z" fill="#363835"/>
<path d="M320.113 181.551C321.323 181.551 322.304 180.571 322.304 179.361C322.304 178.151 321.323 177.171 320.113 177.171C318.903 177.171 317.923 178.151 317.923 179.361C317.923 180.571 318.903 181.551 320.113 181.551Z" fill="#363835"/>
<path d="M320.113 184.859C321.323 184.859 322.304 183.878 322.304 182.669C322.304 181.459 321.323 180.478 320.113 180.478C318.903 180.478 317.923 181.459 317.923 182.669C317.923 183.878 318.903 184.859 320.113 184.859Z" fill="#363835"/>
<path d="M320.113 188.167C321.323 188.167 322.304 187.186 322.304 185.976C322.304 184.766 321.323 183.786 320.113 183.786C318.903 183.786 317.923 184.766 317.923 185.976C317.923 187.186 318.903 188.167 320.113 188.167Z" fill="#363835"/>
<path d="M320.113 191.474C321.323 191.474 322.304 190.494 322.304 189.284C322.304 188.074 321.323 187.093 320.113 187.093C318.903 187.093 317.923 188.074 317.923 189.284C317.923 190.494 318.903 191.474 320.113 191.474Z" fill="#363835"/>
<path d="M320.113 194.782C321.323 194.782 322.304 193.801 322.304 192.592C322.304 191.382 321.323 190.401 320.113 190.401C318.903 190.401 317.923 191.382 317.923 192.592C317.923 193.801 318.903 194.782 320.113 194.782Z" fill="#363835"/>
<path d="M320.113 198.09C321.323 198.09 322.304 197.109 322.304 195.899C322.304 194.689 321.323 193.709 320.113 193.709C318.903 193.709 317.923 194.689 317.923 195.899C317.923 197.109 318.903 198.09 320.113 198.09Z" fill="#363835"/>
<path d="M320.113 201.397C321.323 201.397 322.304 200.417 322.304 199.207C322.304 197.997 321.323 197.016 320.113 197.016C318.903 197.016 317.923 197.997 317.923 199.207C317.923 200.417 318.903 201.397 320.113 201.397Z" fill="#363835"/>
<path d="M320.113 204.705C321.323 204.705 322.304 203.724 322.304 202.514C322.304 201.305 321.323 200.324 320.113 200.324C318.903 200.324 317.923 201.305 317.923 202.514C317.923 203.724 318.903 204.705 320.113 204.705Z" fill="#363835"/>
<path d="M320.113 208.013C321.323 208.013 322.304 207.032 322.304 205.822C322.304 204.612 321.323 203.632 320.113 203.632C318.903 203.632 317.923 204.612 317.923 205.822C317.923 207.032 318.903 208.013 320.113 208.013Z" fill="#363835"/>
<path d="M320.113 211.32C321.323 211.32 322.304 210.339 322.304 209.13C322.304 207.92 321.323 206.939 320.113 206.939C318.903 206.939 317.923 207.92 317.923 209.13C317.923 210.339 318.903 211.32 320.113 211.32Z" fill="#363835"/>
<path d="M320.113 214.628C321.323 214.628 322.304 213.647 322.304 212.437C322.304 211.228 321.323 210.247 320.113 210.247C318.903 210.247 317.923 211.228 317.923 212.437C317.923 213.647 318.903 214.628 320.113 214.628Z" fill="#363835"/>
<path d="M320.113 217.935C321.323 217.935 322.304 216.955 322.304 215.745C322.304 214.535 321.323 213.554 320.113 213.554C318.903 213.554 317.923 214.535 317.923 215.745C317.923 216.955 318.903 217.935 320.113 217.935Z" fill="#363835"/>
<path d="M320.113 221.243C321.323 221.243 322.304 220.262 322.304 219.053C322.304 217.843 321.323 216.862 320.113 216.862C318.903 216.862 317.923 217.843 317.923 219.053C317.923 220.262 318.903 221.243 320.113 221.243Z" fill="#363835"/>
<path d="M320.113 224.551C321.323 224.551 322.304 223.57 322.304 222.36C322.304 221.15 321.323 220.17 320.113 220.17C318.903 220.17 317.923 221.15 317.923 222.36C317.923 223.57 318.903 224.551 320.113 224.551Z" fill="#363835"/>
<path d="M313.46 52.5539C314.67 52.5539 315.651 51.5732 315.651 50.3634C315.651 49.1536 314.67 48.1729 313.46 48.1729C312.25 48.1729 311.27 49.1536 311.27 50.3634C311.27 51.5732 312.25 52.5539 313.46 52.5539Z" fill="#363835"/>
<path d="M316.787 52.5539C317.996 52.5539 318.977 51.5732 318.977 50.3634C318.977 49.1536 317.996 48.1729 316.787 48.1729C315.577 48.1729 314.596 49.1536 314.596 50.3634C314.596 51.5732 315.577 52.5539 316.787 52.5539Z" fill="#363835"/>
<path d="M57.3333 227.858C58.5431 227.858 59.5238 226.878 59.5238 225.668C59.5238 224.458 58.5431 223.477 57.3333 223.477C56.1235 223.477 55.1428 224.458 55.1428 225.668C55.1428 226.878 56.1235 227.858 57.3333 227.858Z" fill="#363835"/>
<path d="M60.6595 227.858C61.8692 227.858 62.85 226.878 62.85 225.668C62.85 224.458 61.8692 223.477 60.6595 223.477C59.4497 223.477 58.469 224.458 58.469 225.668C58.469 226.878 59.4497 227.858 60.6595 227.858Z" fill="#363835"/>
<path d="M63.9859 227.858C65.1957 227.858 66.1764 226.878 66.1764 225.668C66.1764 224.458 65.1957 223.477 63.9859 223.477C62.7761 223.477 61.7954 224.458 61.7954 225.668C61.7954 226.878 62.7761 227.858 63.9859 227.858Z" fill="#363835"/>
<path d="M67.3123 227.858C68.5221 227.858 69.5028 226.878 69.5028 225.668C69.5028 224.458 68.5221 223.477 67.3123 223.477C66.1025 223.477 65.1218 224.458 65.1218 225.668C65.1218 226.878 66.1025 227.858 67.3123 227.858Z" fill="#363835"/>
<path d="M70.6385 227.858C71.8483 227.858 72.829 226.878 72.829 225.668C72.829 224.458 71.8483 223.477 70.6385 223.477C69.4287 223.477 68.448 224.458 68.448 225.668C68.448 226.878 69.4287 227.858 70.6385 227.858Z" fill="#363835"/>
<path d="M73.9649 227.858C75.1747 227.858 76.1554 226.878 76.1554 225.668C76.1554 224.458 75.1747 223.477 73.9649 223.477C72.7551 223.477 71.7744 224.458 71.7744 225.668C71.7744 226.878 72.7551 227.858 73.9649 227.858Z" fill="#363835"/>
<path d="M77.2911 227.858C78.5008 227.858 79.4816 226.878 79.4816 225.668C79.4816 224.458 78.5008 223.477 77.2911 223.477C76.0813 223.477 75.1006 224.458 75.1006 225.668C75.1006 226.878 76.0813 227.858 77.2911 227.858Z" fill="#363835"/>
<path d="M80.6175 227.858C81.8273 227.858 82.808 226.878 82.808 225.668C82.808 224.458 81.8273 223.477 80.6175 223.477C79.4077 223.477 78.427 224.458 78.427 225.668C78.427 226.878 79.4077 227.858 80.6175 227.858Z" fill="#363835"/>
<path d="M83.9439 227.858C85.1537 227.858 86.1344 226.878 86.1344 225.668C86.1344 224.458 85.1537 223.477 83.9439 223.477C82.7341 223.477 81.7534 224.458 81.7534 225.668C81.7534 226.878 82.7341 227.858 83.9439 227.858Z" fill="#363835"/>
<path d="M87.2701 227.858C88.4798 227.858 89.4606 226.878 89.4606 225.668C89.4606 224.458 88.4798 223.477 87.2701 223.477C86.0603 223.477 85.0796 224.458 85.0796 225.668C85.0796 226.878 86.0603 227.858 87.2701 227.858Z" fill="#363835"/>
<path d="M90.5965 227.858C91.8063 227.858 92.787 226.878 92.787 225.668C92.787 224.458 91.8063 223.477 90.5965 223.477C89.3867 223.477 88.406 224.458 88.406 225.668C88.406 226.878 89.3867 227.858 90.5965 227.858Z" fill="#363835"/>
<path d="M93.9229 227.858C95.1327 227.858 96.1134 226.878 96.1134 225.668C96.1134 224.458 95.1327 223.477 93.9229 223.477C92.7131 223.477 91.7324 224.458 91.7324 225.668C91.7324 226.878 92.7131 227.858 93.9229 227.858Z" fill="#363835"/>
<path d="M97.2491 227.858C98.4588 227.858 99.4396 226.878 99.4396 225.668C99.4396 224.458 98.4588 223.477 97.2491 223.477C96.0393 223.477 95.0586 224.458 95.0586 225.668C95.0586 226.878 96.0393 227.858 97.2491 227.858Z" fill="#363835"/>
<path d="M100.575 227.858C101.785 227.858 102.766 226.878 102.766 225.668C102.766 224.458 101.785 223.477 100.575 223.477C99.3657 223.477 98.385 224.458 98.385 225.668C98.385 226.878 99.3657 227.858 100.575 227.858Z" fill="#363835"/>
<path d="M103.902 227.858C105.112 227.858 106.092 226.878 106.092 225.668C106.092 224.458 105.112 223.477 103.902 223.477C102.692 223.477 101.711 224.458 101.711 225.668C101.711 226.878 102.692 227.858 103.902 227.858Z" fill="#363835"/>
<path d="M107.228 227.858C108.438 227.858 109.419 226.878 109.419 225.668C109.419 224.458 108.438 223.477 107.228 223.477C106.018 223.477 105.038 224.458 105.038 225.668C105.038 226.878 106.018 227.858 107.228 227.858Z" fill="#363835"/>
<path d="M110.554 227.858C111.764 227.858 112.745 226.878 112.745 225.668C112.745 224.458 111.764 223.477 110.554 223.477C109.345 223.477 108.364 224.458 108.364 225.668C108.364 226.878 109.345 227.858 110.554 227.858Z" fill="#363835"/>
<path d="M113.881 227.858C115.09 227.858 116.071 226.878 116.071 225.668C116.071 224.458 115.09 223.477 113.881 223.477C112.671 223.477 111.69 224.458 111.69 225.668C111.69 226.878 112.671 227.858 113.881 227.858Z" fill="#363835"/>
<path d="M117.207 227.858C118.417 227.858 119.398 226.878 119.398 225.668C119.398 224.458 118.417 223.477 117.207 223.477C115.997 223.477 115.017 224.458 115.017 225.668C115.017 226.878 115.997 227.858 117.207 227.858Z" fill="#363835"/>
<path d="M120.534 227.858C121.743 227.858 122.724 226.878 122.724 225.668C122.724 224.458 121.743 223.477 120.534 223.477C119.324 223.477 118.343 224.458 118.343 225.668C118.343 226.878 119.324 227.858 120.534 227.858Z" fill="#363835"/>
<path d="M123.86 227.858C125.069 227.858 126.05 226.878 126.05 225.668C126.05 224.458 125.069 223.477 123.86 223.477C122.65 223.477 121.669 224.458 121.669 225.668C121.669 226.878 122.65 227.858 123.86 227.858Z" fill="#363835"/>
<path d="M127.186 227.858C128.396 227.858 129.377 226.878 129.377 225.668C129.377 224.458 128.396 223.477 127.186 223.477C125.976 223.477 124.996 224.458 124.996 225.668C124.996 226.878 125.976 227.858 127.186 227.858Z" fill="#363835"/>
<path d="M130.513 227.858C131.722 227.858 132.703 226.878 132.703 225.668C132.703 224.458 131.722 223.477 130.513 223.477C129.303 223.477 128.322 224.458 128.322 225.668C128.322 226.878 129.303 227.858 130.513 227.858Z" fill="#363835"/>
<path d="M133.839 227.858C135.048 227.858 136.029 226.878 136.029 225.668C136.029 224.458 135.048 223.477 133.839 223.477C132.629 223.477 131.648 224.458 131.648 225.668C131.648 226.878 132.629 227.858 133.839 227.858Z" fill="#363835"/>
<path d="M137.165 227.858C138.375 227.858 139.356 226.878 139.356 225.668C139.356 224.458 138.375 223.477 137.165 223.477C135.955 223.477 134.975 224.458 134.975 225.668C134.975 226.878 135.955 227.858 137.165 227.858Z" fill="#363835"/>
<path d="M140.491 227.858C141.701 227.858 142.682 226.878 142.682 225.668C142.682 224.458 141.701 223.477 140.491 223.477C139.281 223.477 138.301 224.458 138.301 225.668C138.301 226.878 139.281 227.858 140.491 227.858Z" fill="#363835"/>
<path d="M143.818 227.858C145.027 227.858 146.008 226.878 146.008 225.668C146.008 224.458 145.027 223.477 143.818 223.477C142.608 223.477 141.627 224.458 141.627 225.668C141.627 226.878 142.608 227.858 143.818 227.858Z" fill="#363835"/>
<path d="M147.144 227.858C148.354 227.858 149.335 226.878 149.335 225.668C149.335 224.458 148.354 223.477 147.144 223.477C145.934 223.477 144.954 224.458 144.954 225.668C144.954 226.878 145.934 227.858 147.144 227.858Z" fill="#363835"/>
<path d="M150.47 227.858C151.68 227.858 152.661 226.878 152.661 225.668C152.661 224.458 151.68 223.477 150.47 223.477C149.26 223.477 148.28 224.458 148.28 225.668C148.28 226.878 149.26 227.858 150.47 227.858Z" fill="#363835"/>
<path d="M153.797 227.858C155.006 227.858 155.987 226.878 155.987 225.668C155.987 224.458 155.006 223.477 153.797 223.477C152.587 223.477 151.606 224.458 151.606 225.668C151.606 226.878 152.587 227.858 153.797 227.858Z" fill="#363835"/>
<path d="M157.123 227.858C158.333 227.858 159.314 226.878 159.314 225.668C159.314 224.458 158.333 223.477 157.123 223.477C155.913 223.477 154.933 224.458 154.933 225.668C154.933 226.878 155.913 227.858 157.123 227.858Z" fill="#363835"/>
<path d="M160.449 227.858C161.659 227.858 162.64 226.878 162.64 225.668C162.64 224.458 161.659 223.477 160.449 223.477C159.24 223.477 158.259 224.458 158.259 225.668C158.259 226.878 159.24 227.858 160.449 227.858Z" fill="#363835"/>
<path d="M163.776 227.858C164.985 227.858 165.966 226.878 165.966 225.668C165.966 224.458 164.985 223.477 163.776 223.477C162.566 223.477 161.585 224.458 161.585 225.668C161.585 226.878 162.566 227.858 163.776 227.858Z" fill="#363835"/>
<path d="M167.102 227.858C168.312 227.858 169.293 226.878 169.293 225.668C169.293 224.458 168.312 223.477 167.102 223.477C165.892 223.477 164.912 224.458 164.912 225.668C164.912 226.878 165.892 227.858 167.102 227.858Z" fill="#363835"/>
<path d="M170.428 227.858C171.638 227.858 172.619 226.878 172.619 225.668C172.619 224.458 171.638 223.477 170.428 223.477C169.219 223.477 168.238 224.458 168.238 225.668C168.238 226.878 169.219 227.858 170.428 227.858Z" fill="#363835"/>
<path d="M173.755 227.858C174.964 227.858 175.945 226.878 175.945 225.668C175.945 224.458 174.964 223.477 173.755 223.477C172.545 223.477 171.564 224.458 171.564 225.668C171.564 226.878 172.545 227.858 173.755 227.858Z" fill="#363835"/>
<path d="M177.081 227.858C178.291 227.858 179.271 226.878 179.271 225.668C179.271 224.458 178.291 223.477 177.081 223.477C175.871 223.477 174.89 224.458 174.89 225.668C174.89 226.878 175.871 227.858 177.081 227.858Z" fill="#363835"/>
<path d="M180.407 227.858C181.617 227.858 182.598 226.878 182.598 225.668C182.598 224.458 181.617 223.477 180.407 223.477C179.198 223.477 178.217 224.458 178.217 225.668C178.217 226.878 179.198 227.858 180.407 227.858Z" fill="#363835"/>
<path d="M183.734 227.858C184.943 227.858 185.924 226.878 185.924 225.668C185.924 224.458 184.943 223.477 183.734 223.477C182.524 223.477 181.543 224.458 181.543 225.668C181.543 226.878 182.524 227.858 183.734 227.858Z" fill="#363835"/>
<path d="M187.06 227.858C188.27 227.858 189.25 226.878 189.25 225.668C189.25 224.458 188.27 223.477 187.06 223.477C185.85 223.477 184.869 224.458 184.869 225.668C184.869 226.878 185.85 227.858 187.06 227.858Z" fill="#363835"/>
<path d="M190.386 227.858C191.596 227.858 192.577 226.878 192.577 225.668C192.577 224.458 191.596 223.477 190.386 223.477C189.177 223.477 188.196 224.458 188.196 225.668C188.196 226.878 189.177 227.858 190.386 227.858Z" fill="#363835"/>
<path d="M193.712 227.858C194.922 227.858 195.903 226.878 195.903 225.668C195.903 224.458 194.922 223.477 193.712 223.477C192.503 223.477 191.522 224.458 191.522 225.668C191.522 226.878 192.503 227.858 193.712 227.858Z" fill="#363835"/>
<path d="M197.039 227.858C198.249 227.858 199.229 226.878 199.229 225.668C199.229 224.458 198.249 223.477 197.039 223.477C195.829 223.477 194.848 224.458 194.848 225.668C194.848 226.878 195.829 227.858 197.039 227.858Z" fill="#363835"/>
<path d="M200.365 227.858C201.575 227.858 202.556 226.878 202.556 225.668C202.556 224.458 201.575 223.477 200.365 223.477C199.156 223.477 198.175 224.458 198.175 225.668C198.175 226.878 199.156 227.858 200.365 227.858Z" fill="#363835"/>
<path d="M203.691 227.858C204.901 227.858 205.882 226.878 205.882 225.668C205.882 224.458 204.901 223.477 203.691 223.477C202.482 223.477 201.501 224.458 201.501 225.668C201.501 226.878 202.482 227.858 203.691 227.858Z" fill="#363835"/>
<path d="M207.018 227.858C208.228 227.858 209.208 226.878 209.208 225.668C209.208 224.458 208.228 223.477 207.018 223.477C205.808 223.477 204.827 224.458 204.827 225.668C204.827 226.878 205.808 227.858 207.018 227.858Z" fill="#363835"/>
<path d="M210.344 227.858C211.554 227.858 212.535 226.878 212.535 225.668C212.535 224.458 211.554 223.477 210.344 223.477C209.135 223.477 208.154 224.458 208.154 225.668C208.154 226.878 209.135 227.858 210.344 227.858Z" fill="#363835"/>
<path d="M213.67 227.858C214.88 227.858 215.861 226.878 215.861 225.668C215.861 224.458 214.88 223.477 213.67 223.477C212.461 223.477 211.48 224.458 211.48 225.668C211.48 226.878 212.461 227.858 213.67 227.858Z" fill="#363835"/>
<path d="M216.997 227.858C218.207 227.858 219.187 226.878 219.187 225.668C219.187 224.458 218.207 223.477 216.997 223.477C215.787 223.477 214.806 224.458 214.806 225.668C214.806 226.878 215.787 227.858 216.997 227.858Z" fill="#363835"/>
<path d="M220.323 227.858C221.533 227.858 222.514 226.878 222.514 225.668C222.514 224.458 221.533 223.477 220.323 223.477C219.114 223.477 218.133 224.458 218.133 225.668C218.133 226.878 219.114 227.858 220.323 227.858Z" fill="#363835"/>
<path d="M223.649 227.858C224.859 227.858 225.84 226.878 225.84 225.668C225.84 224.458 224.859 223.477 223.649 223.477C222.44 223.477 221.459 224.458 221.459 225.668C221.459 226.878 222.44 227.858 223.649 227.858Z" fill="#363835"/>
<path d="M226.976 227.858C228.186 227.858 229.166 226.878 229.166 225.668C229.166 224.458 228.186 223.477 226.976 223.477C225.766 223.477 224.785 224.458 224.785 225.668C224.785 226.878 225.766 227.858 226.976 227.858Z" fill="#363835"/>
<path d="M230.302 227.858C231.512 227.858 232.493 226.878 232.493 225.668C232.493 224.458 231.512 223.477 230.302 223.477C229.093 223.477 228.112 224.458 228.112 225.668C228.112 226.878 229.093 227.858 230.302 227.858Z" fill="#363835"/>
<path d="M233.628 227.858C234.838 227.858 235.819 226.878 235.819 225.668C235.819 224.458 234.838 223.477 233.628 223.477C232.419 223.477 231.438 224.458 231.438 225.668C231.438 226.878 232.419 227.858 233.628 227.858Z" fill="#363835"/>
<path d="M236.955 227.858C238.165 227.858 239.145 226.878 239.145 225.668C239.145 224.458 238.165 223.477 236.955 223.477C235.745 223.477 234.764 224.458 234.764 225.668C234.764 226.878 235.745 227.858 236.955 227.858Z" fill="#363835"/>
<path d="M240.281 227.858C241.491 227.858 242.472 226.878 242.472 225.668C242.472 224.458 241.491 223.477 240.281 223.477C239.071 223.477 238.091 224.458 238.091 225.668C238.091 226.878 239.071 227.858 240.281 227.858Z" fill="#363835"/>
<path d="M243.607 227.858C244.817 227.858 245.798 226.878 245.798 225.668C245.798 224.458 244.817 223.477 243.607 223.477C242.398 223.477 241.417 224.458 241.417 225.668C241.417 226.878 242.398 227.858 243.607 227.858Z" fill="#363835"/>
<path d="M246.934 227.858C248.144 227.858 249.124 226.878 249.124 225.668C249.124 224.458 248.144 223.477 246.934 223.477C245.724 223.477 244.743 224.458 244.743 225.668C244.743 226.878 245.724 227.858 246.934 227.858Z" fill="#363835"/>
<path d="M250.26 227.858C251.47 227.858 252.451 226.878 252.451 225.668C252.451 224.458 251.47 223.477 250.26 223.477C249.05 223.477 248.07 224.458 248.07 225.668C248.07 226.878 249.05 227.858 250.26 227.858Z" fill="#363835"/>
<path d="M253.586 227.858C254.796 227.858 255.777 226.878 255.777 225.668C255.777 224.458 254.796 223.477 253.586 223.477C252.377 223.477 251.396 224.458 251.396 225.668C251.396 226.878 252.377 227.858 253.586 227.858Z" fill="#363835"/>
<path d="M256.913 227.858C258.123 227.858 259.103 226.878 259.103 225.668C259.103 224.458 258.123 223.477 256.913 223.477C255.703 223.477 254.722 224.458 254.722 225.668C254.722 226.878 255.703 227.858 256.913 227.858Z" fill="#363835"/>
<path d="M260.239 227.858C261.449 227.858 262.43 226.878 262.43 225.668C262.43 224.458 261.449 223.477 260.239 223.477C259.029 223.477 258.049 224.458 258.049 225.668C258.049 226.878 259.029 227.858 260.239 227.858Z" fill="#363835"/>
<path d="M263.565 227.858C264.775 227.858 265.756 226.878 265.756 225.668C265.756 224.458 264.775 223.477 263.565 223.477C262.356 223.477 261.375 224.458 261.375 225.668C261.375 226.878 262.356 227.858 263.565 227.858Z" fill="#363835"/>
<path d="M266.892 227.858C268.102 227.858 269.082 226.878 269.082 225.668C269.082 224.458 268.102 223.477 266.892 223.477C265.682 223.477 264.701 224.458 264.701 225.668C264.701 226.878 265.682 227.858 266.892 227.858Z" fill="#363835"/>
<path d="M270.218 227.858C271.428 227.858 272.409 226.878 272.409 225.668C272.409 224.458 271.428 223.477 270.218 223.477C269.008 223.477 268.028 224.458 268.028 225.668C268.028 226.878 269.008 227.858 270.218 227.858Z" fill="#363835"/>
<path d="M273.544 227.858C274.754 227.858 275.735 226.878 275.735 225.668C275.735 224.458 274.754 223.477 273.544 223.477C272.335 223.477 271.354 224.458 271.354 225.668C271.354 226.878 272.335 227.858 273.544 227.858Z" fill="#363835"/>
<path d="M276.871 227.858C278.08 227.858 279.061 226.878 279.061 225.668C279.061 224.458 278.08 223.477 276.871 223.477C275.661 223.477 274.68 224.458 274.68 225.668C274.68 226.878 275.661 227.858 276.871 227.858Z" fill="#363835"/>
<path d="M280.197 227.858C281.407 227.858 282.388 226.878 282.388 225.668C282.388 224.458 281.407 223.477 280.197 223.477C278.987 223.477 278.007 224.458 278.007 225.668C278.007 226.878 278.987 227.858 280.197 227.858Z" fill="#363835"/>
<path d="M283.523 227.858C284.733 227.858 285.714 226.878 285.714 225.668C285.714 224.458 284.733 223.477 283.523 223.477C282.314 223.477 281.333 224.458 281.333 225.668C281.333 226.878 282.314 227.858 283.523 227.858Z" fill="#363835"/>
<path d="M286.85 227.858C288.059 227.858 289.04 226.878 289.04 225.668C289.04 224.458 288.059 223.477 286.85 223.477C285.64 223.477 284.659 224.458 284.659 225.668C284.659 226.878 285.64 227.858 286.85 227.858Z" fill="#363835"/>
<path d="M290.176 227.858C291.386 227.858 292.367 226.878 292.367 225.668C292.367 224.458 291.386 223.477 290.176 223.477C288.966 223.477 287.986 224.458 287.986 225.668C287.986 226.878 288.966 227.858 290.176 227.858Z" fill="#363835"/>
<path d="M293.502 227.858C294.712 227.858 295.693 226.878 295.693 225.668C295.693 224.458 294.712 223.477 293.502 223.477C292.293 223.477 291.312 224.458 291.312 225.668C291.312 226.878 292.293 227.858 293.502 227.858Z" fill="#363835"/>
<path d="M296.829 227.858C298.038 227.858 299.019 226.878 299.019 225.668C299.019 224.458 298.038 223.477 296.829 223.477C295.619 223.477 294.638 224.458 294.638 225.668C294.638 226.878 295.619 227.858 296.829 227.858Z" fill="#363835"/>
<path d="M300.155 227.858C301.365 227.858 302.346 226.878 302.346 225.668C302.346 224.458 301.365 223.477 300.155 223.477C298.945 223.477 297.965 224.458 297.965 225.668C297.965 226.878 298.945 227.858 300.155 227.858Z" fill="#363835"/>
<path d="M303.481 227.858C304.691 227.858 305.672 226.878 305.672 225.668C305.672 224.458 304.691 223.477 303.481 223.477C302.272 223.477 301.291 224.458 301.291 225.668C301.291 226.878 302.272 227.858 303.481 227.858Z" fill="#363835"/>
<path d="M306.808 227.858C308.017 227.858 308.998 226.878 308.998 225.668C308.998 224.458 308.017 223.477 306.808 223.477C305.598 223.477 304.617 224.458 304.617 225.668C304.617 226.878 305.598 227.858 306.808 227.858Z" fill="#363835"/>
<path d="M310.134 227.858C311.344 227.858 312.325 226.878 312.325 225.668C312.325 224.458 311.344 223.477 310.134 223.477C308.924 223.477 307.944 224.458 307.944 225.668C307.944 226.878 308.924 227.858 310.134 227.858Z" fill="#363835"/>
<path d="M313.46 227.858C314.67 227.858 315.651 226.878 315.651 225.668C315.651 224.458 314.67 223.477 313.46 223.477C312.25 223.477 311.27 224.458 311.27 225.668C311.27 226.878 312.25 227.858 313.46 227.858Z" fill="#363835"/>
<path d="M316.787 227.858C317.996 227.858 318.977 226.878 318.977 225.668C318.977 224.458 317.996 223.477 316.787 223.477C315.577 223.477 314.596 224.458 314.596 225.668C314.596 226.878 315.577 227.858 316.787 227.858Z" fill="#363835"/>
<path d="M157.471 113.644C157.471 113.644 157.424 130.492 157.329 164.189C157.329 176.149 156.617 183.315 155.193 185.688C154.149 188.156 150.542 191.906 144.372 196.936C138.203 201.967 133.551 204.483 130.419 204.483C127.287 204.483 123.253 202.821 118.317 199.499C113.381 196.272 109.679 192.523 107.211 188.251L121.876 178.142L123.3 179.993C126.812 184.454 129.185 186.685 130.419 186.685C131.748 186.685 133.124 186.068 134.548 184.834C136.067 183.6 137.111 182.366 137.68 181.132C138.345 179.898 138.677 175.437 138.677 167.748V119.766C138.677 114.925 138.108 111.176 136.969 108.518C135.83 105.86 134.026 103.534 131.558 101.541L147.22 90.5778C154.054 95.9883 157.471 103.677 157.471 113.644ZM144.942 62.3864C145.986 62.3864 148.312 63.9526 151.919 67.0849C155.526 70.1224 157.329 72.2107 157.329 73.3497C157.329 74.3938 155.478 76.4821 151.776 79.6145C148.169 82.7468 145.844 84.313 144.8 84.313C143.85 84.313 141.572 82.7943 137.965 79.7568C134.358 76.6245 132.555 74.5362 132.555 73.4921C132.555 72.353 134.358 70.2173 137.965 67.0849C141.667 63.9526 143.993 62.3864 144.942 62.3864ZM222.907 92.144V150.52C223.476 153.842 225.707 156.785 229.599 159.348L216.784 170.311C215.55 169.457 214.032 167.938 212.228 165.755C210.425 163.572 208.906 161.341 207.672 159.063C199.793 166.752 194.288 170.596 191.156 170.596C188.878 170.596 185.176 168.081 180.05 163.05C175.019 158.019 171.887 153.937 170.653 150.805C169.419 147.673 168.802 140.933 168.802 130.587C168.802 120.146 169.419 113.359 170.653 110.226C171.887 107.094 175.019 103.012 180.05 97.9816C185.176 92.9508 188.878 90.4354 191.156 90.4354C194.478 90.4354 199.841 93.8526 207.245 100.687L208.953 92.144H222.907ZM203.116 113.928C202.451 112.694 201.075 111.46 198.987 110.226C196.993 108.897 195.475 108.233 194.43 108.233C193.386 108.233 192.247 108.85 191.013 110.084C189.874 111.318 189.115 112.457 188.735 113.501C187.501 115.21 186.884 120.905 186.884 130.587C186.884 140.174 187.501 145.822 188.735 147.53C189.115 148.479 189.874 149.618 191.013 150.947C192.247 152.181 193.386 152.798 194.43 152.798C195.475 152.798 196.993 152.181 198.987 150.947C201.075 149.618 202.404 148.432 202.973 147.388C203.638 146.344 204.017 140.791 204.112 130.729C204.112 120.668 203.78 115.067 203.116 113.928ZM252.903 147.103C253.948 147.103 256.415 148.764 260.307 152.086C264.199 155.314 266.145 157.544 266.145 158.778C266.145 159.917 264.199 162.195 260.307 165.613C256.415 168.935 253.9 170.596 252.761 170.596C251.717 170.596 249.249 168.935 245.357 165.613C241.465 162.195 239.52 159.917 239.52 158.778C239.52 157.544 241.465 155.314 245.357 152.086C249.344 148.764 251.859 147.103 252.903 147.103ZM262.301 67.5121C261.541 96.0832 261.161 113.169 261.161 118.769C261.161 124.275 261.873 128.831 263.297 132.438L249.771 141.977C246.828 138.37 245.072 130.634 244.503 118.769L242.652 67.5121H262.301Z" fill="#363835"/>
<path d="M174.064 193.836H175.589L178.64 198.972H178.769L181.821 193.836H183.346L179.371 200.304V204.838H178.039V200.304L174.064 193.836ZM185.069 204.838V193.836H191.709V195.018H186.401V198.735H191.365V199.917H186.401V203.656H191.795V204.838H185.069ZM200.127 196.586C200.062 196.042 199.801 195.62 199.342 195.319C198.884 195.018 198.322 194.867 197.656 194.867C197.169 194.867 196.742 194.946 196.377 195.104C196.015 195.261 195.733 195.478 195.528 195.754C195.328 196.03 195.228 196.343 195.228 196.694C195.228 196.988 195.297 197.24 195.437 197.451C195.58 197.659 195.763 197.833 195.985 197.972C196.207 198.109 196.44 198.221 196.683 198.311C196.927 198.397 197.151 198.467 197.355 198.52L198.472 198.821C198.759 198.896 199.077 199 199.428 199.133C199.783 199.265 200.121 199.446 200.444 199.675C200.77 199.901 201.038 200.191 201.249 200.546C201.461 200.9 201.566 201.335 201.566 201.851C201.566 202.445 201.411 202.983 201.099 203.463C200.791 203.942 200.34 204.324 199.745 204.607C199.154 204.89 198.436 205.031 197.591 205.031C196.803 205.031 196.121 204.904 195.545 204.65C194.971 204.395 194.52 204.041 194.191 203.586C193.865 203.131 193.68 202.603 193.637 202.001H195.013C195.048 202.417 195.188 202.761 195.432 203.033C195.679 203.301 195.99 203.502 196.366 203.634C196.746 203.763 197.154 203.828 197.591 203.828C198.1 203.828 198.556 203.745 198.961 203.581C199.366 203.412 199.686 203.18 199.923 202.882C200.159 202.582 200.277 202.231 200.277 201.829C200.277 201.464 200.175 201.167 199.971 200.938C199.767 200.709 199.498 200.522 199.165 200.379C198.832 200.236 198.472 200.11 198.085 200.003L196.732 199.616C195.872 199.369 195.192 199.016 194.69 198.558C194.189 198.1 193.938 197.5 193.938 196.758C193.938 196.142 194.105 195.605 194.438 195.147C194.775 194.685 195.226 194.327 195.792 194.072C196.361 193.815 196.997 193.686 197.699 193.686C198.408 193.686 199.038 193.813 199.59 194.067C200.141 194.318 200.578 194.662 200.9 195.098C201.226 195.535 201.398 196.031 201.416 196.586H200.127Z" fill="#363835"/>
<path d="M165.847 199.313C165.847 197.959 166.023 196.714 166.374 195.579C166.728 194.44 167.233 193.393 167.889 192.436H169.006C168.748 192.791 168.506 193.228 168.281 193.747C168.059 194.263 167.863 194.831 167.695 195.45C167.527 196.066 167.394 196.704 167.298 197.363C167.204 198.021 167.158 198.671 167.158 199.313C167.158 200.165 167.24 201.03 167.405 201.907C167.57 202.785 167.792 203.599 168.071 204.351C168.35 205.103 168.662 205.716 169.006 206.189H167.889C167.233 205.232 166.728 204.187 166.374 203.051C166.023 201.913 165.847 200.666 165.847 199.313Z" fill="#363835"/>
<path d="M213.709 199.313C213.709 200.666 213.531 201.913 213.177 203.051C212.826 204.187 212.323 205.232 211.667 206.189H210.55C210.808 205.834 211.048 205.397 211.27 204.878C211.495 204.362 211.692 203.796 211.861 203.18C212.029 202.561 212.16 201.921 212.253 201.263C212.35 200.6 212.398 199.95 212.398 199.313C212.398 198.46 212.315 197.595 212.151 196.718C211.986 195.84 211.764 195.026 211.485 194.274C211.205 193.522 210.894 192.909 210.55 192.436H211.667C212.323 193.393 212.826 194.44 213.177 195.579C213.531 196.714 213.709 197.959 213.709 199.313Z" fill="#363835"/>
</svg>
