<svg width="375" height="276" viewBox="0 0 375 276" fill="none" xmlns="http://www.w3.org/2000/svg">
<path d="M374.173 0H0V275.906H374.173V0Z" fill="#EAE6C4"/>
<path d="M355.276 18.8976H18.8977V257.008H355.276V18.8976Z" fill="#EAE6C4"/>
<path d="M330.558 34.3739H43.6158C40.4848 34.3739 37.9465 36.9121 37.9465 40.0432V235.862C37.9465 238.993 40.4848 241.531 43.6158 241.531H330.558C333.689 241.531 336.227 238.993 336.227 235.862V40.0432C336.227 36.9121 333.689 34.3739 330.558 34.3739Z" fill="#363835"/>
<path d="M50.3045 50.425C51.5143 50.425 52.495 49.4443 52.495 48.2346C52.495 47.0248 51.5143 46.0441 50.3045 46.0441C49.0947 46.0441 48.114 47.0248 48.114 48.2346C48.114 49.4443 49.0947 50.425 50.3045 50.425Z" fill="#EAE6C4"/>
<path d="M50.3045 53.7689C51.5143 53.7689 52.495 52.7882 52.495 51.5784C52.495 50.3686 51.5143 49.3879 50.3045 49.3879C49.0947 49.3879 48.114 50.3686 48.114 51.5784C48.114 52.7882 49.0947 53.7689 50.3045 53.7689Z" fill="#EAE6C4"/>
<path d="M50.3045 57.1127C51.5143 57.1127 52.495 56.132 52.495 54.9223C52.495 53.7125 51.5143 52.7318 50.3045 52.7318C49.0947 52.7318 48.114 53.7125 48.114 54.9223C48.114 56.132 49.0947 57.1127 50.3045 57.1127Z" fill="#EAE6C4"/>
<path d="M50.3045 60.4566C51.5143 60.4566 52.495 59.4759 52.495 58.2661C52.495 57.0564 51.5143 56.0757 50.3045 56.0757C49.0947 56.0757 48.114 57.0564 48.114 58.2661C48.114 59.4759 49.0947 60.4566 50.3045 60.4566Z" fill="#EAE6C4"/>
<path d="M50.3045 63.8005C51.5143 63.8005 52.495 62.8197 52.495 61.61C52.495 60.4002 51.5143 59.4195 50.3045 59.4195C49.0947 59.4195 48.114 60.4002 48.114 61.61C48.114 62.8197 49.0947 63.8005 50.3045 63.8005Z" fill="#EAE6C4"/>
<path d="M50.3045 67.1443C51.5143 67.1443 52.495 66.1636 52.495 64.9538C52.495 63.7441 51.5143 62.7634 50.3045 62.7634C49.0947 62.7634 48.114 63.7441 48.114 64.9538C48.114 66.1636 49.0947 67.1443 50.3045 67.1443Z" fill="#EAE6C4"/>
<path d="M50.3045 70.4882C51.5143 70.4882 52.495 69.5075 52.495 68.2977C52.495 67.0879 51.5143 66.1072 50.3045 66.1072C49.0947 66.1072 48.114 67.0879 48.114 68.2977C48.114 69.5075 49.0947 70.4882 50.3045 70.4882Z" fill="#EAE6C4"/>
<path d="M50.3045 73.832C51.5143 73.832 52.495 72.8513 52.495 71.6415C52.495 70.4318 51.5143 69.451 50.3045 69.451C49.0947 69.451 48.114 70.4318 48.114 71.6415C48.114 72.8513 49.0947 73.832 50.3045 73.832Z" fill="#EAE6C4"/>
<path d="M50.3045 77.1759C51.5143 77.1759 52.495 76.1952 52.495 74.9854C52.495 73.7756 51.5143 72.7949 50.3045 72.7949C49.0947 72.7949 48.114 73.7756 48.114 74.9854C48.114 76.1952 49.0947 77.1759 50.3045 77.1759Z" fill="#EAE6C4"/>
<path d="M50.3045 80.5198C51.5143 80.5198 52.495 79.539 52.495 78.3293C52.495 77.1195 51.5143 76.1388 50.3045 76.1388C49.0947 76.1388 48.114 77.1195 48.114 78.3293C48.114 79.539 49.0947 80.5198 50.3045 80.5198Z" fill="#EAE6C4"/>
<path d="M50.3045 83.8636C51.5143 83.8636 52.495 82.8829 52.495 81.6731C52.495 80.4634 51.5143 79.4827 50.3045 79.4827C49.0947 79.4827 48.114 80.4634 48.114 81.6731C48.114 82.8829 49.0947 83.8636 50.3045 83.8636Z" fill="#EAE6C4"/>
<path d="M50.3045 87.2075C51.5143 87.2075 52.495 86.2268 52.495 85.017C52.495 83.8072 51.5143 82.8265 50.3045 82.8265C49.0947 82.8265 48.114 83.8072 48.114 85.017C48.114 86.2268 49.0947 87.2075 50.3045 87.2075Z" fill="#EAE6C4"/>
<path d="M50.3045 90.5513C51.5143 90.5513 52.495 89.5706 52.495 88.3609C52.495 87.1511 51.5143 86.1704 50.3045 86.1704C49.0947 86.1704 48.114 87.1511 48.114 88.3609C48.114 89.5706 49.0947 90.5513 50.3045 90.5513Z" fill="#EAE6C4"/>
<path d="M50.3045 93.8952C51.5143 93.8952 52.495 92.9145 52.495 91.7047C52.495 90.4949 51.5143 89.5142 50.3045 89.5142C49.0947 89.5142 48.114 90.4949 48.114 91.7047C48.114 92.9145 49.0947 93.8952 50.3045 93.8952Z" fill="#EAE6C4"/>
<path d="M50.3045 97.2391C51.5143 97.2391 52.495 96.2583 52.495 95.0486C52.495 93.8388 51.5143 92.8581 50.3045 92.8581C49.0947 92.8581 48.114 93.8388 48.114 95.0486C48.114 96.2583 49.0947 97.2391 50.3045 97.2391Z" fill="#EAE6C4"/>
<path d="M50.3045 100.583C51.5143 100.583 52.495 99.6022 52.495 98.3924C52.495 97.1826 51.5143 96.2019 50.3045 96.2019C49.0947 96.2019 48.114 97.1826 48.114 98.3924C48.114 99.6022 49.0947 100.583 50.3045 100.583Z" fill="#EAE6C4"/>
<path d="M50.3045 103.927C51.5143 103.927 52.495 102.946 52.495 101.736C52.495 100.527 51.5143 99.5458 50.3045 99.5458C49.0947 99.5458 48.114 100.527 48.114 101.736C48.114 102.946 49.0947 103.927 50.3045 103.927Z" fill="#EAE6C4"/>
<path d="M50.3045 107.271C51.5143 107.271 52.495 106.29 52.495 105.08C52.495 103.87 51.5143 102.89 50.3045 102.89C49.0947 102.89 48.114 103.87 48.114 105.08C48.114 106.29 49.0947 107.271 50.3045 107.271Z" fill="#EAE6C4"/>
<path d="M50.3045 110.614C51.5143 110.614 52.495 109.634 52.495 108.424C52.495 107.214 51.5143 106.233 50.3045 106.233C49.0947 106.233 48.114 107.214 48.114 108.424C48.114 109.634 49.0947 110.614 50.3045 110.614Z" fill="#EAE6C4"/>
<path d="M50.3045 113.958C51.5143 113.958 52.495 112.978 52.495 111.768C52.495 110.558 51.5143 109.577 50.3045 109.577C49.0947 109.577 48.114 110.558 48.114 111.768C48.114 112.978 49.0947 113.958 50.3045 113.958Z" fill="#EAE6C4"/>
<path d="M50.3045 117.302C51.5143 117.302 52.495 116.321 52.495 115.112C52.495 113.902 51.5143 112.921 50.3045 112.921C49.0947 112.921 48.114 113.902 48.114 115.112C48.114 116.321 49.0947 117.302 50.3045 117.302Z" fill="#EAE6C4"/>
<path d="M50.3045 120.646C51.5143 120.646 52.495 119.665 52.495 118.456C52.495 117.246 51.5143 116.265 50.3045 116.265C49.0947 116.265 48.114 117.246 48.114 118.456C48.114 119.665 49.0947 120.646 50.3045 120.646Z" fill="#EAE6C4"/>
<path d="M50.3045 123.99C51.5143 123.99 52.495 123.009 52.495 121.799C52.495 120.59 51.5143 119.609 50.3045 119.609C49.0947 119.609 48.114 120.59 48.114 121.799C48.114 123.009 49.0947 123.99 50.3045 123.99Z" fill="#EAE6C4"/>
<path d="M50.3045 127.334C51.5143 127.334 52.495 126.353 52.495 125.143C52.495 123.934 51.5143 122.953 50.3045 122.953C49.0947 122.953 48.114 123.934 48.114 125.143C48.114 126.353 49.0947 127.334 50.3045 127.334Z" fill="#EAE6C4"/>
<path d="M50.3045 130.678C51.5143 130.678 52.495 129.697 52.495 128.487C52.495 127.277 51.5143 126.297 50.3045 126.297C49.0947 126.297 48.114 127.277 48.114 128.487C48.114 129.697 49.0947 130.678 50.3045 130.678Z" fill="#EAE6C4"/>
<path d="M50.3045 134.021C51.5143 134.021 52.495 133.041 52.495 131.831C52.495 130.621 51.5143 129.641 50.3045 129.641C49.0947 129.641 48.114 130.621 48.114 131.831C48.114 133.041 49.0947 134.021 50.3045 134.021Z" fill="#EAE6C4"/>
<path d="M50.3045 137.365C51.5143 137.365 52.495 136.385 52.495 135.175C52.495 133.965 51.5143 132.984 50.3045 132.984C49.0947 132.984 48.114 133.965 48.114 135.175C48.114 136.385 49.0947 137.365 50.3045 137.365Z" fill="#EAE6C4"/>
<path d="M50.3045 140.709C51.5143 140.709 52.495 139.729 52.495 138.519C52.495 137.309 51.5143 136.328 50.3045 136.328C49.0947 136.328 48.114 137.309 48.114 138.519C48.114 139.729 49.0947 140.709 50.3045 140.709Z" fill="#EAE6C4"/>
<path d="M50.3045 144.053C51.5143 144.053 52.495 143.072 52.495 141.863C52.495 140.653 51.5143 139.672 50.3045 139.672C49.0947 139.672 48.114 140.653 48.114 141.863C48.114 143.072 49.0947 144.053 50.3045 144.053Z" fill="#EAE6C4"/>
<path d="M50.3045 147.397C51.5143 147.397 52.495 146.416 52.495 145.206C52.495 143.997 51.5143 143.016 50.3045 143.016C49.0947 143.016 48.114 143.997 48.114 145.206C48.114 146.416 49.0947 147.397 50.3045 147.397Z" fill="#EAE6C4"/>
<path d="M50.3045 150.741C51.5143 150.741 52.495 149.76 52.495 148.55C52.495 147.341 51.5143 146.36 50.3045 146.36C49.0947 146.36 48.114 147.341 48.114 148.55C48.114 149.76 49.0947 150.741 50.3045 150.741Z" fill="#EAE6C4"/>
<path d="M50.3045 154.085C51.5143 154.085 52.495 153.104 52.495 151.894C52.495 150.684 51.5143 149.704 50.3045 149.704C49.0947 149.704 48.114 150.684 48.114 151.894C48.114 153.104 49.0947 154.085 50.3045 154.085Z" fill="#EAE6C4"/>
<path d="M50.3045 157.429C51.5143 157.429 52.495 156.448 52.495 155.238C52.495 154.028 51.5143 153.048 50.3045 153.048C49.0947 153.048 48.114 154.028 48.114 155.238C48.114 156.448 49.0947 157.429 50.3045 157.429Z" fill="#EAE6C4"/>
<path d="M50.3045 160.772C51.5143 160.772 52.495 159.792 52.495 158.582C52.495 157.372 51.5143 156.391 50.3045 156.391C49.0947 156.391 48.114 157.372 48.114 158.582C48.114 159.792 49.0947 160.772 50.3045 160.772Z" fill="#EAE6C4"/>
<path d="M50.3045 164.116C51.5143 164.116 52.495 163.136 52.495 161.926C52.495 160.716 51.5143 159.735 50.3045 159.735C49.0947 159.735 48.114 160.716 48.114 161.926C48.114 163.136 49.0947 164.116 50.3045 164.116Z" fill="#EAE6C4"/>
<path d="M50.3045 167.46C51.5143 167.46 52.495 166.479 52.495 165.27C52.495 164.06 51.5143 163.079 50.3045 163.079C49.0947 163.079 48.114 164.06 48.114 165.27C48.114 166.479 49.0947 167.46 50.3045 167.46Z" fill="#EAE6C4"/>
<path d="M50.3045 170.804C51.5143 170.804 52.495 169.823 52.495 168.613C52.495 167.404 51.5143 166.423 50.3045 166.423C49.0947 166.423 48.114 167.404 48.114 168.613C48.114 169.823 49.0947 170.804 50.3045 170.804Z" fill="#EAE6C4"/>
<path d="M50.3045 174.148C51.5143 174.148 52.495 173.167 52.495 171.957C52.495 170.747 51.5143 169.767 50.3045 169.767C49.0947 169.767 48.114 170.747 48.114 171.957C48.114 173.167 49.0947 174.148 50.3045 174.148Z" fill="#EAE6C4"/>
<path d="M50.3045 177.492C51.5143 177.492 52.495 176.511 52.495 175.301C52.495 174.091 51.5143 173.111 50.3045 173.111C49.0947 173.111 48.114 174.091 48.114 175.301C48.114 176.511 49.0947 177.492 50.3045 177.492Z" fill="#EAE6C4"/>
<path d="M50.3045 180.835C51.5143 180.835 52.495 179.855 52.495 178.645C52.495 177.435 51.5143 176.455 50.3045 176.455C49.0947 176.455 48.114 177.435 48.114 178.645C48.114 179.855 49.0947 180.835 50.3045 180.835Z" fill="#EAE6C4"/>
<path d="M50.3045 184.179C51.5143 184.179 52.495 183.199 52.495 181.989C52.495 180.779 51.5143 179.798 50.3045 179.798C49.0947 179.798 48.114 180.779 48.114 181.989C48.114 183.199 49.0947 184.179 50.3045 184.179Z" fill="#EAE6C4"/>
<path d="M50.3045 187.523C51.5143 187.523 52.495 186.542 52.495 185.333C52.495 184.123 51.5143 183.142 50.3045 183.142C49.0947 183.142 48.114 184.123 48.114 185.333C48.114 186.542 49.0947 187.523 50.3045 187.523Z" fill="#EAE6C4"/>
<path d="M50.3045 190.867C51.5143 190.867 52.495 189.886 52.495 188.677C52.495 187.467 51.5143 186.486 50.3045 186.486C49.0947 186.486 48.114 187.467 48.114 188.677C48.114 189.886 49.0947 190.867 50.3045 190.867Z" fill="#EAE6C4"/>
<path d="M50.3045 194.211C51.5143 194.211 52.495 193.23 52.495 192.02C52.495 190.811 51.5143 189.83 50.3045 189.83C49.0947 189.83 48.114 190.811 48.114 192.02C48.114 193.23 49.0947 194.211 50.3045 194.211Z" fill="#EAE6C4"/>
<path d="M50.3045 197.555C51.5143 197.555 52.495 196.574 52.495 195.364C52.495 194.155 51.5143 193.174 50.3045 193.174C49.0947 193.174 48.114 194.155 48.114 195.364C48.114 196.574 49.0947 197.555 50.3045 197.555Z" fill="#EAE6C4"/>
<path d="M50.3045 200.899C51.5143 200.899 52.495 199.918 52.495 198.708C52.495 197.498 51.5143 196.518 50.3045 196.518C49.0947 196.518 48.114 197.498 48.114 198.708C48.114 199.918 49.0947 200.899 50.3045 200.899Z" fill="#EAE6C4"/>
<path d="M50.3045 204.243C51.5143 204.243 52.495 203.262 52.495 202.052C52.495 200.842 51.5143 199.862 50.3045 199.862C49.0947 199.862 48.114 200.842 48.114 202.052C48.114 203.262 49.0947 204.243 50.3045 204.243Z" fill="#EAE6C4"/>
<path d="M50.3045 207.586C51.5143 207.586 52.495 206.606 52.495 205.396C52.495 204.186 51.5143 203.205 50.3045 203.205C49.0947 203.205 48.114 204.186 48.114 205.396C48.114 206.606 49.0947 207.586 50.3045 207.586Z" fill="#EAE6C4"/>
<path d="M50.3045 210.93C51.5143 210.93 52.495 209.95 52.495 208.74C52.495 207.53 51.5143 206.549 50.3045 206.549C49.0947 206.549 48.114 207.53 48.114 208.74C48.114 209.95 49.0947 210.93 50.3045 210.93Z" fill="#EAE6C4"/>
<path d="M50.3045 214.274C51.5143 214.274 52.495 213.293 52.495 212.084C52.495 210.874 51.5143 209.893 50.3045 209.893C49.0947 209.893 48.114 210.874 48.114 212.084C48.114 213.293 49.0947 214.274 50.3045 214.274Z" fill="#EAE6C4"/>
<path d="M50.3045 217.618C51.5143 217.618 52.495 216.637 52.495 215.427C52.495 214.218 51.5143 213.237 50.3045 213.237C49.0947 213.237 48.114 214.218 48.114 215.427C48.114 216.637 49.0947 217.618 50.3045 217.618Z" fill="#EAE6C4"/>
<path d="M50.3045 220.962C51.5143 220.962 52.495 219.981 52.495 218.771C52.495 217.562 51.5143 216.581 50.3045 216.581C49.0947 216.581 48.114 217.562 48.114 218.771C48.114 219.981 49.0947 220.962 50.3045 220.962Z" fill="#EAE6C4"/>
<path d="M50.3045 224.306C51.5143 224.306 52.495 223.325 52.495 222.115C52.495 220.905 51.5143 219.925 50.3045 219.925C49.0947 219.925 48.114 220.905 48.114 222.115C48.114 223.325 49.0947 224.306 50.3045 224.306Z" fill="#EAE6C4"/>
<path d="M50.3045 227.649C51.5143 227.649 52.495 226.669 52.495 225.459C52.495 224.249 51.5143 223.268 50.3045 223.268C49.0947 223.268 48.114 224.249 48.114 225.459C48.114 226.669 49.0947 227.649 50.3045 227.649Z" fill="#EAE6C4"/>
<path d="M53.6407 50.425C54.8504 50.425 55.8312 49.4443 55.8312 48.2346C55.8312 47.0248 54.8504 46.0441 53.6407 46.0441C52.4309 46.0441 51.4502 47.0248 51.4502 48.2346C51.4502 49.4443 52.4309 50.425 53.6407 50.425Z" fill="#EAE6C4"/>
<path d="M56.9769 50.425C58.1866 50.425 59.1673 49.4443 59.1673 48.2346C59.1673 47.0248 58.1866 46.0441 56.9769 46.0441C55.7671 46.0441 54.7864 47.0248 54.7864 48.2346C54.7864 49.4443 55.7671 50.425 56.9769 50.425Z" fill="#EAE6C4"/>
<path d="M60.313 50.425C61.5228 50.425 62.5035 49.4443 62.5035 48.2346C62.5035 47.0248 61.5228 46.0441 60.313 46.0441C59.1033 46.0441 58.1226 47.0248 58.1226 48.2346C58.1226 49.4443 59.1033 50.425 60.313 50.425Z" fill="#EAE6C4"/>
<path d="M63.649 50.425C64.8588 50.425 65.8395 49.4443 65.8395 48.2346C65.8395 47.0248 64.8588 46.0441 63.649 46.0441C62.4392 46.0441 61.4585 47.0248 61.4585 48.2346C61.4585 49.4443 62.4392 50.425 63.649 50.425Z" fill="#EAE6C4"/>
<path d="M66.9852 50.425C68.1949 50.425 69.1756 49.4443 69.1756 48.2346C69.1756 47.0248 68.1949 46.0441 66.9852 46.0441C65.7754 46.0441 64.7947 47.0248 64.7947 48.2346C64.7947 49.4443 65.7754 50.425 66.9852 50.425Z" fill="#EAE6C4"/>
<path d="M70.3213 50.425C71.5311 50.425 72.5118 49.4443 72.5118 48.2346C72.5118 47.0248 71.5311 46.0441 70.3213 46.0441C69.1116 46.0441 68.1309 47.0248 68.1309 48.2346C68.1309 49.4443 69.1116 50.425 70.3213 50.425Z" fill="#EAE6C4"/>
<path d="M73.6575 50.425C74.8673 50.425 75.848 49.4443 75.848 48.2346C75.848 47.0248 74.8673 46.0441 73.6575 46.0441C72.4478 46.0441 71.467 47.0248 71.467 48.2346C71.467 49.4443 72.4478 50.425 73.6575 50.425Z" fill="#EAE6C4"/>
<path d="M76.9937 50.425C78.2035 50.425 79.1842 49.4443 79.1842 48.2346C79.1842 47.0248 78.2035 46.0441 76.9937 46.0441C75.7839 46.0441 74.8032 47.0248 74.8032 48.2346C74.8032 49.4443 75.7839 50.425 76.9937 50.425Z" fill="#EAE6C4"/>
<path d="M80.3299 50.425C81.5397 50.425 82.5204 49.4443 82.5204 48.2346C82.5204 47.0248 81.5397 46.0441 80.3299 46.0441C79.1201 46.0441 78.1394 47.0248 78.1394 48.2346C78.1394 49.4443 79.1201 50.425 80.3299 50.425Z" fill="#EAE6C4"/>
<path d="M83.6661 50.425C84.8758 50.425 85.8566 49.4443 85.8566 48.2346C85.8566 47.0248 84.8758 46.0441 83.6661 46.0441C82.4563 46.0441 81.4756 47.0248 81.4756 48.2346C81.4756 49.4443 82.4563 50.425 83.6661 50.425Z" fill="#EAE6C4"/>
<path d="M87.002 50.425C88.2118 50.425 89.1925 49.4443 89.1925 48.2346C89.1925 47.0248 88.2118 46.0441 87.002 46.0441C85.7922 46.0441 84.8115 47.0248 84.8115 48.2346C84.8115 49.4443 85.7922 50.425 87.002 50.425Z" fill="#EAE6C4"/>
<path d="M90.3382 50.425C91.548 50.425 92.5287 49.4443 92.5287 48.2346C92.5287 47.0248 91.548 46.0441 90.3382 46.0441C89.1284 46.0441 88.1477 47.0248 88.1477 48.2346C88.1477 49.4443 89.1284 50.425 90.3382 50.425Z" fill="#EAE6C4"/>
<path d="M93.6744 50.425C94.8841 50.425 95.8649 49.4443 95.8649 48.2346C95.8649 47.0248 94.8841 46.0441 93.6744 46.0441C92.4646 46.0441 91.4839 47.0248 91.4839 48.2346C91.4839 49.4443 92.4646 50.425 93.6744 50.425Z" fill="#EAE6C4"/>
<path d="M97.0106 50.425C98.2203 50.425 99.201 49.4443 99.201 48.2346C99.201 47.0248 98.2203 46.0441 97.0106 46.0441C95.8008 46.0441 94.8201 47.0248 94.8201 48.2346C94.8201 49.4443 95.8008 50.425 97.0106 50.425Z" fill="#EAE6C4"/>
<path d="M100.347 50.425C101.557 50.425 102.537 49.4443 102.537 48.2346C102.537 47.0248 101.557 46.0441 100.347 46.0441C99.137 46.0441 98.1562 47.0248 98.1562 48.2346C98.1562 49.4443 99.137 50.425 100.347 50.425Z" fill="#EAE6C4"/>
<path d="M103.683 50.425C104.893 50.425 105.873 49.4443 105.873 48.2346C105.873 47.0248 104.893 46.0441 103.683 46.0441C102.473 46.0441 101.492 47.0248 101.492 48.2346C101.492 49.4443 102.473 50.425 103.683 50.425Z" fill="#EAE6C4"/>
<path d="M107.019 50.425C108.229 50.425 109.21 49.4443 109.21 48.2346C109.21 47.0248 108.229 46.0441 107.019 46.0441C105.809 46.0441 104.829 47.0248 104.829 48.2346C104.829 49.4443 105.809 50.425 107.019 50.425Z" fill="#EAE6C4"/>
<path d="M110.355 50.425C111.565 50.425 112.546 49.4443 112.546 48.2346C112.546 47.0248 111.565 46.0441 110.355 46.0441C109.145 46.0441 108.165 47.0248 108.165 48.2346C108.165 49.4443 109.145 50.425 110.355 50.425Z" fill="#EAE6C4"/>
<path d="M113.691 50.425C114.901 50.425 115.882 49.4443 115.882 48.2346C115.882 47.0248 114.901 46.0441 113.691 46.0441C112.481 46.0441 111.501 47.0248 111.501 48.2346C111.501 49.4443 112.481 50.425 113.691 50.425Z" fill="#EAE6C4"/>
<path d="M117.027 50.425C118.237 50.425 119.218 49.4443 119.218 48.2346C119.218 47.0248 118.237 46.0441 117.027 46.0441C115.818 46.0441 114.837 47.0248 114.837 48.2346C114.837 49.4443 115.818 50.425 117.027 50.425Z" fill="#EAE6C4"/>
<path d="M120.364 50.425C121.573 50.425 122.554 49.4443 122.554 48.2346C122.554 47.0248 121.573 46.0441 120.364 46.0441C119.154 46.0441 118.173 47.0248 118.173 48.2346C118.173 49.4443 119.154 50.425 120.364 50.425Z" fill="#EAE6C4"/>
<path d="M123.7 50.425C124.91 50.425 125.89 49.4443 125.89 48.2346C125.89 47.0248 124.91 46.0441 123.7 46.0441C122.49 46.0441 121.509 47.0248 121.509 48.2346C121.509 49.4443 122.49 50.425 123.7 50.425Z" fill="#EAE6C4"/>
<path d="M127.036 50.425C128.246 50.425 129.226 49.4443 129.226 48.2346C129.226 47.0248 128.246 46.0441 127.036 46.0441C125.826 46.0441 124.845 47.0248 124.845 48.2346C124.845 49.4443 125.826 50.425 127.036 50.425Z" fill="#EAE6C4"/>
<path d="M130.372 50.425C131.582 50.425 132.563 49.4443 132.563 48.2346C132.563 47.0248 131.582 46.0441 130.372 46.0441C129.162 46.0441 128.182 47.0248 128.182 48.2346C128.182 49.4443 129.162 50.425 130.372 50.425Z" fill="#EAE6C4"/>
<path d="M133.708 50.425C134.918 50.425 135.899 49.4443 135.899 48.2346C135.899 47.0248 134.918 46.0441 133.708 46.0441C132.499 46.0441 131.518 47.0248 131.518 48.2346C131.518 49.4443 132.499 50.425 133.708 50.425Z" fill="#EAE6C4"/>
<path d="M137.044 50.425C138.254 50.425 139.235 49.4443 139.235 48.2346C139.235 47.0248 138.254 46.0441 137.044 46.0441C135.834 46.0441 134.854 47.0248 134.854 48.2346C134.854 49.4443 135.834 50.425 137.044 50.425Z" fill="#EAE6C4"/>
<path d="M140.38 50.425C141.59 50.425 142.571 49.4443 142.571 48.2346C142.571 47.0248 141.59 46.0441 140.38 46.0441C139.171 46.0441 138.19 47.0248 138.19 48.2346C138.19 49.4443 139.171 50.425 140.38 50.425Z" fill="#EAE6C4"/>
<path d="M143.717 50.425C144.926 50.425 145.907 49.4443 145.907 48.2346C145.907 47.0248 144.926 46.0441 143.717 46.0441C142.507 46.0441 141.526 47.0248 141.526 48.2346C141.526 49.4443 142.507 50.425 143.717 50.425Z" fill="#EAE6C4"/>
<path d="M147.053 50.425C148.263 50.425 149.243 49.4443 149.243 48.2346C149.243 47.0248 148.263 46.0441 147.053 46.0441C145.843 46.0441 144.862 47.0248 144.862 48.2346C144.862 49.4443 145.843 50.425 147.053 50.425Z" fill="#EAE6C4"/>
<path d="M150.389 50.425C151.599 50.425 152.579 49.4443 152.579 48.2346C152.579 47.0248 151.599 46.0441 150.389 46.0441C149.179 46.0441 148.198 47.0248 148.198 48.2346C148.198 49.4443 149.179 50.425 150.389 50.425Z" fill="#EAE6C4"/>
<path d="M153.725 50.425C154.935 50.425 155.916 49.4443 155.916 48.2346C155.916 47.0248 154.935 46.0441 153.725 46.0441C152.515 46.0441 151.535 47.0248 151.535 48.2346C151.535 49.4443 152.515 50.425 153.725 50.425Z" fill="#EAE6C4"/>
<path d="M157.061 50.425C158.271 50.425 159.252 49.4443 159.252 48.2346C159.252 47.0248 158.271 46.0441 157.061 46.0441C155.852 46.0441 154.871 47.0248 154.871 48.2346C154.871 49.4443 155.852 50.425 157.061 50.425Z" fill="#EAE6C4"/>
<path d="M160.398 50.425C161.607 50.425 162.588 49.4443 162.588 48.2346C162.588 47.0248 161.607 46.0441 160.398 46.0441C159.188 46.0441 158.207 47.0248 158.207 48.2346C158.207 49.4443 159.188 50.425 160.398 50.425Z" fill="#EAE6C4"/>
<path d="M163.733 50.425C164.943 50.425 165.924 49.4443 165.924 48.2346C165.924 47.0248 164.943 46.0441 163.733 46.0441C162.524 46.0441 161.543 47.0248 161.543 48.2346C161.543 49.4443 162.524 50.425 163.733 50.425Z" fill="#EAE6C4"/>
<path d="M167.07 50.425C168.279 50.425 169.26 49.4443 169.26 48.2346C169.26 47.0248 168.279 46.0441 167.07 46.0441C165.86 46.0441 164.879 47.0248 164.879 48.2346C164.879 49.4443 165.86 50.425 167.07 50.425Z" fill="#EAE6C4"/>
<path d="M170.406 50.425C171.616 50.425 172.596 49.4443 172.596 48.2346C172.596 47.0248 171.616 46.0441 170.406 46.0441C169.196 46.0441 168.215 47.0248 168.215 48.2346C168.215 49.4443 169.196 50.425 170.406 50.425Z" fill="#EAE6C4"/>
<path d="M173.742 50.425C174.952 50.425 175.932 49.4443 175.932 48.2346C175.932 47.0248 174.952 46.0441 173.742 46.0441C172.532 46.0441 171.552 47.0248 171.552 48.2346C171.552 49.4443 172.532 50.425 173.742 50.425Z" fill="#EAE6C4"/>
<path d="M177.078 50.425C178.288 50.425 179.269 49.4443 179.269 48.2346C179.269 47.0248 178.288 46.0441 177.078 46.0441C175.868 46.0441 174.888 47.0248 174.888 48.2346C174.888 49.4443 175.868 50.425 177.078 50.425Z" fill="#EAE6C4"/>
<path d="M180.414 50.425C181.624 50.425 182.605 49.4443 182.605 48.2346C182.605 47.0248 181.624 46.0441 180.414 46.0441C179.205 46.0441 178.224 47.0248 178.224 48.2346C178.224 49.4443 179.205 50.425 180.414 50.425Z" fill="#EAE6C4"/>
<path d="M183.751 50.425C184.96 50.425 185.941 49.4443 185.941 48.2346C185.941 47.0248 184.96 46.0441 183.751 46.0441C182.541 46.0441 181.56 47.0248 181.56 48.2346C181.56 49.4443 182.541 50.425 183.751 50.425Z" fill="#EAE6C4"/>
<path d="M187.086 50.425C188.296 50.425 189.277 49.4443 189.277 48.2346C189.277 47.0248 188.296 46.0441 187.086 46.0441C185.877 46.0441 184.896 47.0248 184.896 48.2346C184.896 49.4443 185.877 50.425 187.086 50.425Z" fill="#EAE6C4"/>
<path d="M190.423 50.425C191.632 50.425 192.613 49.4443 192.613 48.2346C192.613 47.0248 191.632 46.0441 190.423 46.0441C189.213 46.0441 188.232 47.0248 188.232 48.2346C188.232 49.4443 189.213 50.425 190.423 50.425Z" fill="#EAE6C4"/>
<path d="M193.759 50.425C194.969 50.425 195.949 49.4443 195.949 48.2346C195.949 47.0248 194.969 46.0441 193.759 46.0441C192.549 46.0441 191.568 47.0248 191.568 48.2346C191.568 49.4443 192.549 50.425 193.759 50.425Z" fill="#EAE6C4"/>
<path d="M197.095 50.425C198.305 50.425 199.286 49.4443 199.286 48.2346C199.286 47.0248 198.305 46.0441 197.095 46.0441C195.885 46.0441 194.905 47.0248 194.905 48.2346C194.905 49.4443 195.885 50.425 197.095 50.425Z" fill="#EAE6C4"/>
<path d="M200.431 50.425C201.641 50.425 202.622 49.4443 202.622 48.2346C202.622 47.0248 201.641 46.0441 200.431 46.0441C199.221 46.0441 198.241 47.0248 198.241 48.2346C198.241 49.4443 199.221 50.425 200.431 50.425Z" fill="#EAE6C4"/>
<path d="M203.767 50.425C204.977 50.425 205.958 49.4443 205.958 48.2346C205.958 47.0248 204.977 46.0441 203.767 46.0441C202.558 46.0441 201.577 47.0248 201.577 48.2346C201.577 49.4443 202.558 50.425 203.767 50.425Z" fill="#EAE6C4"/>
<path d="M207.104 50.425C208.313 50.425 209.294 49.4443 209.294 48.2346C209.294 47.0248 208.313 46.0441 207.104 46.0441C205.894 46.0441 204.913 47.0248 204.913 48.2346C204.913 49.4443 205.894 50.425 207.104 50.425Z" fill="#EAE6C4"/>
<path d="M210.44 50.425C211.649 50.425 212.63 49.4443 212.63 48.2346C212.63 47.0248 211.649 46.0441 210.44 46.0441C209.23 46.0441 208.249 47.0248 208.249 48.2346C208.249 49.4443 209.23 50.425 210.44 50.425Z" fill="#EAE6C4"/>
<path d="M213.776 50.425C214.985 50.425 215.966 49.4443 215.966 48.2346C215.966 47.0248 214.985 46.0441 213.776 46.0441C212.566 46.0441 211.585 47.0248 211.585 48.2346C211.585 49.4443 212.566 50.425 213.776 50.425Z" fill="#EAE6C4"/>
<path d="M217.112 50.425C218.322 50.425 219.302 49.4443 219.302 48.2346C219.302 47.0248 218.322 46.0441 217.112 46.0441C215.902 46.0441 214.921 47.0248 214.921 48.2346C214.921 49.4443 215.902 50.425 217.112 50.425Z" fill="#EAE6C4"/>
<path d="M220.448 50.425C221.658 50.425 222.639 49.4443 222.639 48.2346C222.639 47.0248 221.658 46.0441 220.448 46.0441C219.238 46.0441 218.258 47.0248 218.258 48.2346C218.258 49.4443 219.238 50.425 220.448 50.425Z" fill="#EAE6C4"/>
<path d="M223.784 50.425C224.994 50.425 225.975 49.4443 225.975 48.2346C225.975 47.0248 224.994 46.0441 223.784 46.0441C222.574 46.0441 221.594 47.0248 221.594 48.2346C221.594 49.4443 222.574 50.425 223.784 50.425Z" fill="#EAE6C4"/>
<path d="M227.12 50.425C228.33 50.425 229.311 49.4443 229.311 48.2346C229.311 47.0248 228.33 46.0441 227.12 46.0441C225.911 46.0441 224.93 47.0248 224.93 48.2346C224.93 49.4443 225.911 50.425 227.12 50.425Z" fill="#EAE6C4"/>
<path d="M230.457 50.425C231.666 50.425 232.647 49.4443 232.647 48.2346C232.647 47.0248 231.666 46.0441 230.457 46.0441C229.247 46.0441 228.266 47.0248 228.266 48.2346C228.266 49.4443 229.247 50.425 230.457 50.425Z" fill="#EAE6C4"/>
<path d="M233.793 50.425C235.002 50.425 235.983 49.4443 235.983 48.2346C235.983 47.0248 235.002 46.0441 233.793 46.0441C232.583 46.0441 231.602 47.0248 231.602 48.2346C231.602 49.4443 232.583 50.425 233.793 50.425Z" fill="#EAE6C4"/>
<path d="M237.129 50.425C238.338 50.425 239.319 49.4443 239.319 48.2346C239.319 47.0248 238.338 46.0441 237.129 46.0441C235.919 46.0441 234.938 47.0248 234.938 48.2346C234.938 49.4443 235.919 50.425 237.129 50.425Z" fill="#EAE6C4"/>
<path d="M240.465 50.425C241.675 50.425 242.655 49.4443 242.655 48.2346C242.655 47.0248 241.675 46.0441 240.465 46.0441C239.255 46.0441 238.274 47.0248 238.274 48.2346C238.274 49.4443 239.255 50.425 240.465 50.425Z" fill="#EAE6C4"/>
<path d="M243.801 50.425C245.011 50.425 245.992 49.4443 245.992 48.2346C245.992 47.0248 245.011 46.0441 243.801 46.0441C242.591 46.0441 241.611 47.0248 241.611 48.2346C241.611 49.4443 242.591 50.425 243.801 50.425Z" fill="#EAE6C4"/>
<path d="M247.137 50.425C248.347 50.425 249.328 49.4443 249.328 48.2346C249.328 47.0248 248.347 46.0441 247.137 46.0441C245.927 46.0441 244.947 47.0248 244.947 48.2346C244.947 49.4443 245.927 50.425 247.137 50.425Z" fill="#EAE6C4"/>
<path d="M250.473 50.425C251.683 50.425 252.664 49.4443 252.664 48.2346C252.664 47.0248 251.683 46.0441 250.473 46.0441C249.264 46.0441 248.283 47.0248 248.283 48.2346C248.283 49.4443 249.264 50.425 250.473 50.425Z" fill="#EAE6C4"/>
<path d="M253.81 50.425C255.019 50.425 256 49.4443 256 48.2346C256 47.0248 255.019 46.0441 253.81 46.0441C252.6 46.0441 251.619 47.0248 251.619 48.2346C251.619 49.4443 252.6 50.425 253.81 50.425Z" fill="#EAE6C4"/>
<path d="M257.146 50.425C258.356 50.425 259.336 49.4443 259.336 48.2346C259.336 47.0248 258.356 46.0441 257.146 46.0441C255.936 46.0441 254.955 47.0248 254.955 48.2346C254.955 49.4443 255.936 50.425 257.146 50.425Z" fill="#EAE6C4"/>
<path d="M260.482 50.425C261.692 50.425 262.672 49.4443 262.672 48.2346C262.672 47.0248 261.692 46.0441 260.482 46.0441C259.272 46.0441 258.291 47.0248 258.291 48.2346C258.291 49.4443 259.272 50.425 260.482 50.425Z" fill="#EAE6C4"/>
<path d="M263.818 50.425C265.028 50.425 266.008 49.4443 266.008 48.2346C266.008 47.0248 265.028 46.0441 263.818 46.0441C262.608 46.0441 261.627 47.0248 261.627 48.2346C261.627 49.4443 262.608 50.425 263.818 50.425Z" fill="#EAE6C4"/>
<path d="M267.154 50.425C268.364 50.425 269.345 49.4443 269.345 48.2346C269.345 47.0248 268.364 46.0441 267.154 46.0441C265.944 46.0441 264.964 47.0248 264.964 48.2346C264.964 49.4443 265.944 50.425 267.154 50.425Z" fill="#EAE6C4"/>
<path d="M270.49 50.425C271.7 50.425 272.681 49.4443 272.681 48.2346C272.681 47.0248 271.7 46.0441 270.49 46.0441C269.281 46.0441 268.3 47.0248 268.3 48.2346C268.3 49.4443 269.281 50.425 270.49 50.425Z" fill="#EAE6C4"/>
<path d="M273.826 50.425C275.036 50.425 276.017 49.4443 276.017 48.2346C276.017 47.0248 275.036 46.0441 273.826 46.0441C272.617 46.0441 271.636 47.0248 271.636 48.2346C271.636 49.4443 272.617 50.425 273.826 50.425Z" fill="#EAE6C4"/>
<path d="M277.163 50.425C278.372 50.425 279.353 49.4443 279.353 48.2346C279.353 47.0248 278.372 46.0441 277.163 46.0441C275.953 46.0441 274.972 47.0248 274.972 48.2346C274.972 49.4443 275.953 50.425 277.163 50.425Z" fill="#EAE6C4"/>
<path d="M280.499 50.425C281.709 50.425 282.689 49.4443 282.689 48.2346C282.689 47.0248 281.709 46.0441 280.499 46.0441C279.289 46.0441 278.308 47.0248 278.308 48.2346C278.308 49.4443 279.289 50.425 280.499 50.425Z" fill="#EAE6C4"/>
<path d="M283.835 50.425C285.045 50.425 286.025 49.4443 286.025 48.2346C286.025 47.0248 285.045 46.0441 283.835 46.0441C282.625 46.0441 281.644 47.0248 281.644 48.2346C281.644 49.4443 282.625 50.425 283.835 50.425Z" fill="#EAE6C4"/>
<path d="M287.171 50.425C288.381 50.425 289.361 49.4443 289.361 48.2346C289.361 47.0248 288.381 46.0441 287.171 46.0441C285.961 46.0441 284.98 47.0248 284.98 48.2346C284.98 49.4443 285.961 50.425 287.171 50.425Z" fill="#EAE6C4"/>
<path d="M290.507 50.425C291.717 50.425 292.698 49.4443 292.698 48.2346C292.698 47.0248 291.717 46.0441 290.507 46.0441C289.297 46.0441 288.317 47.0248 288.317 48.2346C288.317 49.4443 289.297 50.425 290.507 50.425Z" fill="#EAE6C4"/>
<path d="M293.843 50.425C295.053 50.425 296.034 49.4443 296.034 48.2346C296.034 47.0248 295.053 46.0441 293.843 46.0441C292.634 46.0441 291.653 47.0248 291.653 48.2346C291.653 49.4443 292.634 50.425 293.843 50.425Z" fill="#EAE6C4"/>
<path d="M297.179 50.425C298.389 50.425 299.37 49.4443 299.37 48.2346C299.37 47.0248 298.389 46.0441 297.179 46.0441C295.97 46.0441 294.989 47.0248 294.989 48.2346C294.989 49.4443 295.97 50.425 297.179 50.425Z" fill="#EAE6C4"/>
<path d="M300.516 50.425C301.725 50.425 302.706 49.4443 302.706 48.2346C302.706 47.0248 301.725 46.0441 300.516 46.0441C299.306 46.0441 298.325 47.0248 298.325 48.2346C298.325 49.4443 299.306 50.425 300.516 50.425Z" fill="#EAE6C4"/>
<path d="M303.852 50.425C305.062 50.425 306.042 49.4443 306.042 48.2346C306.042 47.0248 305.062 46.0441 303.852 46.0441C302.642 46.0441 301.661 47.0248 301.661 48.2346C301.661 49.4443 302.642 50.425 303.852 50.425Z" fill="#EAE6C4"/>
<path d="M307.188 50.425C308.398 50.425 309.379 49.4443 309.379 48.2346C309.379 47.0248 308.398 46.0441 307.188 46.0441C305.978 46.0441 304.998 47.0248 304.998 48.2346C304.998 49.4443 305.978 50.425 307.188 50.425Z" fill="#EAE6C4"/>
<path d="M317.196 50.425C318.406 50.425 319.387 49.4443 319.387 48.2346C319.387 47.0248 318.406 46.0441 317.196 46.0441C315.987 46.0441 315.006 47.0248 315.006 48.2346C315.006 49.4443 315.987 50.425 317.196 50.425Z" fill="#EAE6C4"/>
<path d="M310.524 50.425C311.734 50.425 312.714 49.4443 312.714 48.2346C312.714 47.0248 311.734 46.0441 310.524 46.0441C309.314 46.0441 308.333 47.0248 308.333 48.2346C308.333 49.4443 309.314 50.425 310.524 50.425Z" fill="#EAE6C4"/>
<path d="M313.86 50.425C315.07 50.425 316.051 49.4443 316.051 48.2346C316.051 47.0248 315.07 46.0441 313.86 46.0441C312.65 46.0441 311.67 47.0248 311.67 48.2346C311.67 49.4443 312.65 50.425 313.86 50.425Z" fill="#EAE6C4"/>
<path d="M50.3045 230.993C51.5143 230.993 52.495 230.013 52.495 228.803C52.495 227.593 51.5143 226.612 50.3045 226.612C49.0947 226.612 48.114 227.593 48.114 228.803C48.114 230.013 49.0947 230.993 50.3045 230.993Z" fill="#EAE6C4"/>
<path d="M320.533 50.425C321.742 50.425 322.723 49.4443 322.723 48.2346C322.723 47.0248 321.742 46.0441 320.533 46.0441C319.323 46.0441 318.342 47.0248 318.342 48.2346C318.342 49.4443 319.323 50.425 320.533 50.425Z" fill="#EAE6C4"/>
<path d="M323.869 50.425C325.078 50.425 326.059 49.4443 326.059 48.2346C326.059 47.0248 325.078 46.0441 323.869 46.0441C322.659 46.0441 321.678 47.0248 321.678 48.2346C321.678 49.4443 322.659 50.425 323.869 50.425Z" fill="#EAE6C4"/>
<path d="M323.869 53.7689C325.078 53.7689 326.059 52.7882 326.059 51.5784C326.059 50.3686 325.078 49.3879 323.869 49.3879C322.659 49.3879 321.678 50.3686 321.678 51.5784C321.678 52.7882 322.659 53.7689 323.869 53.7689Z" fill="#EAE6C4"/>
<path d="M323.869 57.1127C325.078 57.1127 326.059 56.132 326.059 54.9223C326.059 53.7125 325.078 52.7318 323.869 52.7318C322.659 52.7318 321.678 53.7125 321.678 54.9223C321.678 56.132 322.659 57.1127 323.869 57.1127Z" fill="#EAE6C4"/>
<path d="M323.869 60.4566C325.078 60.4566 326.059 59.4759 326.059 58.2661C326.059 57.0564 325.078 56.0757 323.869 56.0757C322.659 56.0757 321.678 57.0564 321.678 58.2661C321.678 59.4759 322.659 60.4566 323.869 60.4566Z" fill="#EAE6C4"/>
<path d="M323.869 63.8005C325.078 63.8005 326.059 62.8197 326.059 61.61C326.059 60.4002 325.078 59.4195 323.869 59.4195C322.659 59.4195 321.678 60.4002 321.678 61.61C321.678 62.8197 322.659 63.8005 323.869 63.8005Z" fill="#EAE6C4"/>
<path d="M323.869 67.1443C325.078 67.1443 326.059 66.1636 326.059 64.9538C326.059 63.7441 325.078 62.7634 323.869 62.7634C322.659 62.7634 321.678 63.7441 321.678 64.9538C321.678 66.1636 322.659 67.1443 323.869 67.1443Z" fill="#EAE6C4"/>
<path d="M323.869 70.4882C325.078 70.4882 326.059 69.5075 326.059 68.2977C326.059 67.0879 325.078 66.1072 323.869 66.1072C322.659 66.1072 321.678 67.0879 321.678 68.2977C321.678 69.5075 322.659 70.4882 323.869 70.4882Z" fill="#EAE6C4"/>
<path d="M323.869 73.832C325.078 73.832 326.059 72.8513 326.059 71.6415C326.059 70.4318 325.078 69.451 323.869 69.451C322.659 69.451 321.678 70.4318 321.678 71.6415C321.678 72.8513 322.659 73.832 323.869 73.832Z" fill="#EAE6C4"/>
<path d="M323.869 77.1759C325.078 77.1759 326.059 76.1952 326.059 74.9854C326.059 73.7756 325.078 72.7949 323.869 72.7949C322.659 72.7949 321.678 73.7756 321.678 74.9854C321.678 76.1952 322.659 77.1759 323.869 77.1759Z" fill="#EAE6C4"/>
<path d="M323.869 80.5198C325.078 80.5198 326.059 79.539 326.059 78.3293C326.059 77.1195 325.078 76.1388 323.869 76.1388C322.659 76.1388 321.678 77.1195 321.678 78.3293C321.678 79.539 322.659 80.5198 323.869 80.5198Z" fill="#EAE6C4"/>
<path d="M323.869 83.8636C325.078 83.8636 326.059 82.8829 326.059 81.6731C326.059 80.4634 325.078 79.4827 323.869 79.4827C322.659 79.4827 321.678 80.4634 321.678 81.6731C321.678 82.8829 322.659 83.8636 323.869 83.8636Z" fill="#EAE6C4"/>
<path d="M323.869 87.2075C325.078 87.2075 326.059 86.2268 326.059 85.017C326.059 83.8072 325.078 82.8265 323.869 82.8265C322.659 82.8265 321.678 83.8072 321.678 85.017C321.678 86.2268 322.659 87.2075 323.869 87.2075Z" fill="#EAE6C4"/>
<path d="M323.869 90.5513C325.078 90.5513 326.059 89.5706 326.059 88.3609C326.059 87.1511 325.078 86.1704 323.869 86.1704C322.659 86.1704 321.678 87.1511 321.678 88.3609C321.678 89.5706 322.659 90.5513 323.869 90.5513Z" fill="#EAE6C4"/>
<path d="M323.869 93.8952C325.078 93.8952 326.059 92.9145 326.059 91.7047C326.059 90.4949 325.078 89.5142 323.869 89.5142C322.659 89.5142 321.678 90.4949 321.678 91.7047C321.678 92.9145 322.659 93.8952 323.869 93.8952Z" fill="#EAE6C4"/>
<path d="M323.869 97.2391C325.078 97.2391 326.059 96.2583 326.059 95.0486C326.059 93.8388 325.078 92.8581 323.869 92.8581C322.659 92.8581 321.678 93.8388 321.678 95.0486C321.678 96.2583 322.659 97.2391 323.869 97.2391Z" fill="#EAE6C4"/>
<path d="M323.869 100.583C325.078 100.583 326.059 99.6022 326.059 98.3924C326.059 97.1826 325.078 96.2019 323.869 96.2019C322.659 96.2019 321.678 97.1826 321.678 98.3924C321.678 99.6022 322.659 100.583 323.869 100.583Z" fill="#EAE6C4"/>
<path d="M323.869 103.927C325.078 103.927 326.059 102.946 326.059 101.736C326.059 100.527 325.078 99.5458 323.869 99.5458C322.659 99.5458 321.678 100.527 321.678 101.736C321.678 102.946 322.659 103.927 323.869 103.927Z" fill="#EAE6C4"/>
<path d="M323.869 107.271C325.078 107.271 326.059 106.29 326.059 105.08C326.059 103.87 325.078 102.89 323.869 102.89C322.659 102.89 321.678 103.87 321.678 105.08C321.678 106.29 322.659 107.271 323.869 107.271Z" fill="#EAE6C4"/>
<path d="M323.869 110.614C325.078 110.614 326.059 109.634 326.059 108.424C326.059 107.214 325.078 106.233 323.869 106.233C322.659 106.233 321.678 107.214 321.678 108.424C321.678 109.634 322.659 110.614 323.869 110.614Z" fill="#EAE6C4"/>
<path d="M323.869 113.958C325.078 113.958 326.059 112.978 326.059 111.768C326.059 110.558 325.078 109.577 323.869 109.577C322.659 109.577 321.678 110.558 321.678 111.768C321.678 112.978 322.659 113.958 323.869 113.958Z" fill="#EAE6C4"/>
<path d="M323.869 117.302C325.078 117.302 326.059 116.321 326.059 115.112C326.059 113.902 325.078 112.921 323.869 112.921C322.659 112.921 321.678 113.902 321.678 115.112C321.678 116.321 322.659 117.302 323.869 117.302Z" fill="#EAE6C4"/>
<path d="M323.869 120.646C325.078 120.646 326.059 119.665 326.059 118.456C326.059 117.246 325.078 116.265 323.869 116.265C322.659 116.265 321.678 117.246 321.678 118.456C321.678 119.665 322.659 120.646 323.869 120.646Z" fill="#EAE6C4"/>
<path d="M323.869 123.99C325.078 123.99 326.059 123.009 326.059 121.799C326.059 120.59 325.078 119.609 323.869 119.609C322.659 119.609 321.678 120.59 321.678 121.799C321.678 123.009 322.659 123.99 323.869 123.99Z" fill="#EAE6C4"/>
<path d="M323.869 127.334C325.078 127.334 326.059 126.353 326.059 125.143C326.059 123.934 325.078 122.953 323.869 122.953C322.659 122.953 321.678 123.934 321.678 125.143C321.678 126.353 322.659 127.334 323.869 127.334Z" fill="#EAE6C4"/>
<path d="M323.869 130.678C325.078 130.678 326.059 129.697 326.059 128.487C326.059 127.277 325.078 126.297 323.869 126.297C322.659 126.297 321.678 127.277 321.678 128.487C321.678 129.697 322.659 130.678 323.869 130.678Z" fill="#EAE6C4"/>
<path d="M323.869 134.021C325.078 134.021 326.059 133.041 326.059 131.831C326.059 130.621 325.078 129.641 323.869 129.641C322.659 129.641 321.678 130.621 321.678 131.831C321.678 133.041 322.659 134.021 323.869 134.021Z" fill="#EAE6C4"/>
<path d="M323.869 137.365C325.078 137.365 326.059 136.385 326.059 135.175C326.059 133.965 325.078 132.984 323.869 132.984C322.659 132.984 321.678 133.965 321.678 135.175C321.678 136.385 322.659 137.365 323.869 137.365Z" fill="#EAE6C4"/>
<path d="M323.869 140.709C325.078 140.709 326.059 139.729 326.059 138.519C326.059 137.309 325.078 136.328 323.869 136.328C322.659 136.328 321.678 137.309 321.678 138.519C321.678 139.729 322.659 140.709 323.869 140.709Z" fill="#EAE6C4"/>
<path d="M323.869 144.053C325.078 144.053 326.059 143.072 326.059 141.863C326.059 140.653 325.078 139.672 323.869 139.672C322.659 139.672 321.678 140.653 321.678 141.863C321.678 143.072 322.659 144.053 323.869 144.053Z" fill="#EAE6C4"/>
<path d="M323.869 147.397C325.078 147.397 326.059 146.416 326.059 145.206C326.059 143.997 325.078 143.016 323.869 143.016C322.659 143.016 321.678 143.997 321.678 145.206C321.678 146.416 322.659 147.397 323.869 147.397Z" fill="#EAE6C4"/>
<path d="M323.869 150.741C325.078 150.741 326.059 149.76 326.059 148.55C326.059 147.341 325.078 146.36 323.869 146.36C322.659 146.36 321.678 147.341 321.678 148.55C321.678 149.76 322.659 150.741 323.869 150.741Z" fill="#EAE6C4"/>
<path d="M323.869 154.085C325.078 154.085 326.059 153.104 326.059 151.894C326.059 150.684 325.078 149.704 323.869 149.704C322.659 149.704 321.678 150.684 321.678 151.894C321.678 153.104 322.659 154.085 323.869 154.085Z" fill="#EAE6C4"/>
<path d="M323.869 157.429C325.078 157.429 326.059 156.448 326.059 155.238C326.059 154.028 325.078 153.048 323.869 153.048C322.659 153.048 321.678 154.028 321.678 155.238C321.678 156.448 322.659 157.429 323.869 157.429Z" fill="#EAE6C4"/>
<path d="M323.869 160.772C325.078 160.772 326.059 159.792 326.059 158.582C326.059 157.372 325.078 156.391 323.869 156.391C322.659 156.391 321.678 157.372 321.678 158.582C321.678 159.792 322.659 160.772 323.869 160.772Z" fill="#EAE6C4"/>
<path d="M323.869 164.116C325.078 164.116 326.059 163.136 326.059 161.926C326.059 160.716 325.078 159.735 323.869 159.735C322.659 159.735 321.678 160.716 321.678 161.926C321.678 163.136 322.659 164.116 323.869 164.116Z" fill="#EAE6C4"/>
<path d="M323.869 167.46C325.078 167.46 326.059 166.479 326.059 165.27C326.059 164.06 325.078 163.079 323.869 163.079C322.659 163.079 321.678 164.06 321.678 165.27C321.678 166.479 322.659 167.46 323.869 167.46Z" fill="#EAE6C4"/>
<path d="M323.869 170.804C325.078 170.804 326.059 169.823 326.059 168.613C326.059 167.404 325.078 166.423 323.869 166.423C322.659 166.423 321.678 167.404 321.678 168.613C321.678 169.823 322.659 170.804 323.869 170.804Z" fill="#EAE6C4"/>
<path d="M323.869 174.148C325.078 174.148 326.059 173.167 326.059 171.957C326.059 170.747 325.078 169.767 323.869 169.767C322.659 169.767 321.678 170.747 321.678 171.957C321.678 173.167 322.659 174.148 323.869 174.148Z" fill="#EAE6C4"/>
<path d="M323.869 177.492C325.078 177.492 326.059 176.511 326.059 175.301C326.059 174.091 325.078 173.111 323.869 173.111C322.659 173.111 321.678 174.091 321.678 175.301C321.678 176.511 322.659 177.492 323.869 177.492Z" fill="#EAE6C4"/>
<path d="M323.869 180.835C325.078 180.835 326.059 179.855 326.059 178.645C326.059 177.435 325.078 176.455 323.869 176.455C322.659 176.455 321.678 177.435 321.678 178.645C321.678 179.855 322.659 180.835 323.869 180.835Z" fill="#EAE6C4"/>
<path d="M323.869 184.179C325.078 184.179 326.059 183.199 326.059 181.989C326.059 180.779 325.078 179.798 323.869 179.798C322.659 179.798 321.678 180.779 321.678 181.989C321.678 183.199 322.659 184.179 323.869 184.179Z" fill="#EAE6C4"/>
<path d="M323.869 187.523C325.078 187.523 326.059 186.542 326.059 185.333C326.059 184.123 325.078 183.142 323.869 183.142C322.659 183.142 321.678 184.123 321.678 185.333C321.678 186.542 322.659 187.523 323.869 187.523Z" fill="#EAE6C4"/>
<path d="M323.869 190.867C325.078 190.867 326.059 189.886 326.059 188.677C326.059 187.467 325.078 186.486 323.869 186.486C322.659 186.486 321.678 187.467 321.678 188.677C321.678 189.886 322.659 190.867 323.869 190.867Z" fill="#EAE6C4"/>
<path d="M323.869 194.211C325.078 194.211 326.059 193.23 326.059 192.02C326.059 190.811 325.078 189.83 323.869 189.83C322.659 189.83 321.678 190.811 321.678 192.02C321.678 193.23 322.659 194.211 323.869 194.211Z" fill="#EAE6C4"/>
<path d="M323.869 197.555C325.078 197.555 326.059 196.574 326.059 195.364C326.059 194.155 325.078 193.174 323.869 193.174C322.659 193.174 321.678 194.155 321.678 195.364C321.678 196.574 322.659 197.555 323.869 197.555Z" fill="#EAE6C4"/>
<path d="M323.869 200.899C325.078 200.899 326.059 199.918 326.059 198.708C326.059 197.498 325.078 196.518 323.869 196.518C322.659 196.518 321.678 197.498 321.678 198.708C321.678 199.918 322.659 200.899 323.869 200.899Z" fill="#EAE6C4"/>
<path d="M323.869 204.243C325.078 204.243 326.059 203.262 326.059 202.052C326.059 200.842 325.078 199.862 323.869 199.862C322.659 199.862 321.678 200.842 321.678 202.052C321.678 203.262 322.659 204.243 323.869 204.243Z" fill="#EAE6C4"/>
<path d="M323.869 207.586C325.078 207.586 326.059 206.606 326.059 205.396C326.059 204.186 325.078 203.205 323.869 203.205C322.659 203.205 321.678 204.186 321.678 205.396C321.678 206.606 322.659 207.586 323.869 207.586Z" fill="#EAE6C4"/>
<path d="M323.869 210.93C325.078 210.93 326.059 209.95 326.059 208.74C326.059 207.53 325.078 206.549 323.869 206.549C322.659 206.549 321.678 207.53 321.678 208.74C321.678 209.95 322.659 210.93 323.869 210.93Z" fill="#EAE6C4"/>
<path d="M323.869 214.274C325.078 214.274 326.059 213.293 326.059 212.084C326.059 210.874 325.078 209.893 323.869 209.893C322.659 209.893 321.678 210.874 321.678 212.084C321.678 213.293 322.659 214.274 323.869 214.274Z" fill="#EAE6C4"/>
<path d="M323.869 217.618C325.078 217.618 326.059 216.637 326.059 215.427C326.059 214.218 325.078 213.237 323.869 213.237C322.659 213.237 321.678 214.218 321.678 215.427C321.678 216.637 322.659 217.618 323.869 217.618Z" fill="#EAE6C4"/>
<path d="M323.869 220.962C325.078 220.962 326.059 219.981 326.059 218.771C326.059 217.562 325.078 216.581 323.869 216.581C322.659 216.581 321.678 217.562 321.678 218.771C321.678 219.981 322.659 220.962 323.869 220.962Z" fill="#EAE6C4"/>
<path d="M323.869 224.306C325.078 224.306 326.059 223.325 326.059 222.115C326.059 220.905 325.078 219.925 323.869 219.925C322.659 219.925 321.678 220.905 321.678 222.115C321.678 223.325 322.659 224.306 323.869 224.306Z" fill="#EAE6C4"/>
<path d="M323.869 227.649C325.078 227.649 326.059 226.669 326.059 225.459C326.059 224.249 325.078 223.268 323.869 223.268C322.659 223.268 321.678 224.249 321.678 225.459C321.678 226.669 322.659 227.649 323.869 227.649Z" fill="#EAE6C4"/>
<path d="M323.869 230.993C325.078 230.993 326.059 230.013 326.059 228.803C326.059 227.593 325.078 226.612 323.869 226.612C322.659 226.612 321.678 227.593 321.678 228.803C321.678 230.013 322.659 230.993 323.869 230.993Z" fill="#EAE6C4"/>
<path d="M53.6407 230.993C54.8504 230.993 55.8312 230.013 55.8312 228.803C55.8312 227.593 54.8504 226.612 53.6407 226.612C52.4309 226.612 51.4502 227.593 51.4502 228.803C51.4502 230.013 52.4309 230.993 53.6407 230.993Z" fill="#EAE6C4"/>
<path d="M56.9769 230.993C58.1866 230.993 59.1673 230.013 59.1673 228.803C59.1673 227.593 58.1866 226.612 56.9769 226.612C55.7671 226.612 54.7864 227.593 54.7864 228.803C54.7864 230.013 55.7671 230.993 56.9769 230.993Z" fill="#EAE6C4"/>
<path d="M60.313 230.993C61.5228 230.993 62.5035 230.013 62.5035 228.803C62.5035 227.593 61.5228 226.612 60.313 226.612C59.1033 226.612 58.1226 227.593 58.1226 228.803C58.1226 230.013 59.1033 230.993 60.313 230.993Z" fill="#EAE6C4"/>
<path d="M63.649 230.993C64.8588 230.993 65.8395 230.013 65.8395 228.803C65.8395 227.593 64.8588 226.612 63.649 226.612C62.4392 226.612 61.4585 227.593 61.4585 228.803C61.4585 230.013 62.4392 230.993 63.649 230.993Z" fill="#EAE6C4"/>
<path d="M66.9852 230.993C68.1949 230.993 69.1756 230.013 69.1756 228.803C69.1756 227.593 68.1949 226.612 66.9852 226.612C65.7754 226.612 64.7947 227.593 64.7947 228.803C64.7947 230.013 65.7754 230.993 66.9852 230.993Z" fill="#EAE6C4"/>
<path d="M70.3213 230.993C71.5311 230.993 72.5118 230.013 72.5118 228.803C72.5118 227.593 71.5311 226.612 70.3213 226.612C69.1116 226.612 68.1309 227.593 68.1309 228.803C68.1309 230.013 69.1116 230.993 70.3213 230.993Z" fill="#EAE6C4"/>
<path d="M73.6575 230.993C74.8673 230.993 75.848 230.013 75.848 228.803C75.848 227.593 74.8673 226.612 73.6575 226.612C72.4478 226.612 71.467 227.593 71.467 228.803C71.467 230.013 72.4478 230.993 73.6575 230.993Z" fill="#EAE6C4"/>
<path d="M76.9937 230.993C78.2035 230.993 79.1842 230.013 79.1842 228.803C79.1842 227.593 78.2035 226.612 76.9937 226.612C75.7839 226.612 74.8032 227.593 74.8032 228.803C74.8032 230.013 75.7839 230.993 76.9937 230.993Z" fill="#EAE6C4"/>
<path d="M80.3299 230.993C81.5397 230.993 82.5204 230.013 82.5204 228.803C82.5204 227.593 81.5397 226.612 80.3299 226.612C79.1201 226.612 78.1394 227.593 78.1394 228.803C78.1394 230.013 79.1201 230.993 80.3299 230.993Z" fill="#EAE6C4"/>
<path d="M83.6661 230.993C84.8758 230.993 85.8566 230.013 85.8566 228.803C85.8566 227.593 84.8758 226.612 83.6661 226.612C82.4563 226.612 81.4756 227.593 81.4756 228.803C81.4756 230.013 82.4563 230.993 83.6661 230.993Z" fill="#EAE6C4"/>
<path d="M87.002 230.993C88.2118 230.993 89.1925 230.013 89.1925 228.803C89.1925 227.593 88.2118 226.612 87.002 226.612C85.7922 226.612 84.8115 227.593 84.8115 228.803C84.8115 230.013 85.7922 230.993 87.002 230.993Z" fill="#EAE6C4"/>
<path d="M90.3382 230.993C91.548 230.993 92.5287 230.013 92.5287 228.803C92.5287 227.593 91.548 226.612 90.3382 226.612C89.1284 226.612 88.1477 227.593 88.1477 228.803C88.1477 230.013 89.1284 230.993 90.3382 230.993Z" fill="#EAE6C4"/>
<path d="M93.6744 230.993C94.8841 230.993 95.8649 230.013 95.8649 228.803C95.8649 227.593 94.8841 226.612 93.6744 226.612C92.4646 226.612 91.4839 227.593 91.4839 228.803C91.4839 230.013 92.4646 230.993 93.6744 230.993Z" fill="#EAE6C4"/>
<path d="M97.0106 230.993C98.2203 230.993 99.201 230.013 99.201 228.803C99.201 227.593 98.2203 226.612 97.0106 226.612C95.8008 226.612 94.8201 227.593 94.8201 228.803C94.8201 230.013 95.8008 230.993 97.0106 230.993Z" fill="#EAE6C4"/>
<path d="M100.347 230.993C101.557 230.993 102.537 230.013 102.537 228.803C102.537 227.593 101.557 226.612 100.347 226.612C99.137 226.612 98.1562 227.593 98.1562 228.803C98.1562 230.013 99.137 230.993 100.347 230.993Z" fill="#EAE6C4"/>
<path d="M103.683 230.993C104.893 230.993 105.873 230.013 105.873 228.803C105.873 227.593 104.893 226.612 103.683 226.612C102.473 226.612 101.492 227.593 101.492 228.803C101.492 230.013 102.473 230.993 103.683 230.993Z" fill="#EAE6C4"/>
<path d="M107.019 230.993C108.229 230.993 109.21 230.013 109.21 228.803C109.21 227.593 108.229 226.612 107.019 226.612C105.809 226.612 104.829 227.593 104.829 228.803C104.829 230.013 105.809 230.993 107.019 230.993Z" fill="#EAE6C4"/>
<path d="M110.355 230.993C111.565 230.993 112.546 230.013 112.546 228.803C112.546 227.593 111.565 226.612 110.355 226.612C109.145 226.612 108.165 227.593 108.165 228.803C108.165 230.013 109.145 230.993 110.355 230.993Z" fill="#EAE6C4"/>
<path d="M113.691 230.993C114.901 230.993 115.882 230.013 115.882 228.803C115.882 227.593 114.901 226.612 113.691 226.612C112.481 226.612 111.501 227.593 111.501 228.803C111.501 230.013 112.481 230.993 113.691 230.993Z" fill="#EAE6C4"/>
<path d="M117.027 230.993C118.237 230.993 119.218 230.013 119.218 228.803C119.218 227.593 118.237 226.612 117.027 226.612C115.818 226.612 114.837 227.593 114.837 228.803C114.837 230.013 115.818 230.993 117.027 230.993Z" fill="#EAE6C4"/>
<path d="M120.364 230.993C121.573 230.993 122.554 230.013 122.554 228.803C122.554 227.593 121.573 226.612 120.364 226.612C119.154 226.612 118.173 227.593 118.173 228.803C118.173 230.013 119.154 230.993 120.364 230.993Z" fill="#EAE6C4"/>
<path d="M123.7 230.993C124.91 230.993 125.89 230.013 125.89 228.803C125.89 227.593 124.91 226.612 123.7 226.612C122.49 226.612 121.509 227.593 121.509 228.803C121.509 230.013 122.49 230.993 123.7 230.993Z" fill="#EAE6C4"/>
<path d="M127.036 230.993C128.246 230.993 129.226 230.013 129.226 228.803C129.226 227.593 128.246 226.612 127.036 226.612C125.826 226.612 124.845 227.593 124.845 228.803C124.845 230.013 125.826 230.993 127.036 230.993Z" fill="#EAE6C4"/>
<path d="M130.372 230.993C131.582 230.993 132.563 230.013 132.563 228.803C132.563 227.593 131.582 226.612 130.372 226.612C129.162 226.612 128.182 227.593 128.182 228.803C128.182 230.013 129.162 230.993 130.372 230.993Z" fill="#EAE6C4"/>
<path d="M133.708 230.993C134.918 230.993 135.899 230.013 135.899 228.803C135.899 227.593 134.918 226.612 133.708 226.612C132.499 226.612 131.518 227.593 131.518 228.803C131.518 230.013 132.499 230.993 133.708 230.993Z" fill="#EAE6C4"/>
<path d="M137.044 230.993C138.254 230.993 139.235 230.013 139.235 228.803C139.235 227.593 138.254 226.612 137.044 226.612C135.834 226.612 134.854 227.593 134.854 228.803C134.854 230.013 135.834 230.993 137.044 230.993Z" fill="#EAE6C4"/>
<path d="M140.38 230.993C141.59 230.993 142.571 230.013 142.571 228.803C142.571 227.593 141.59 226.612 140.38 226.612C139.171 226.612 138.19 227.593 138.19 228.803C138.19 230.013 139.171 230.993 140.38 230.993Z" fill="#EAE6C4"/>
<path d="M143.717 230.993C144.926 230.993 145.907 230.013 145.907 228.803C145.907 227.593 144.926 226.612 143.717 226.612C142.507 226.612 141.526 227.593 141.526 228.803C141.526 230.013 142.507 230.993 143.717 230.993Z" fill="#EAE6C4"/>
<path d="M147.053 230.993C148.263 230.993 149.243 230.013 149.243 228.803C149.243 227.593 148.263 226.612 147.053 226.612C145.843 226.612 144.862 227.593 144.862 228.803C144.862 230.013 145.843 230.993 147.053 230.993Z" fill="#EAE6C4"/>
<path d="M150.389 230.993C151.599 230.993 152.579 230.013 152.579 228.803C152.579 227.593 151.599 226.612 150.389 226.612C149.179 226.612 148.198 227.593 148.198 228.803C148.198 230.013 149.179 230.993 150.389 230.993Z" fill="#EAE6C4"/>
<path d="M153.725 230.993C154.935 230.993 155.916 230.013 155.916 228.803C155.916 227.593 154.935 226.612 153.725 226.612C152.515 226.612 151.535 227.593 151.535 228.803C151.535 230.013 152.515 230.993 153.725 230.993Z" fill="#EAE6C4"/>
<path d="M157.061 230.993C158.271 230.993 159.252 230.013 159.252 228.803C159.252 227.593 158.271 226.612 157.061 226.612C155.852 226.612 154.871 227.593 154.871 228.803C154.871 230.013 155.852 230.993 157.061 230.993Z" fill="#EAE6C4"/>
<path d="M160.398 230.993C161.607 230.993 162.588 230.013 162.588 228.803C162.588 227.593 161.607 226.612 160.398 226.612C159.188 226.612 158.207 227.593 158.207 228.803C158.207 230.013 159.188 230.993 160.398 230.993Z" fill="#EAE6C4"/>
<path d="M163.733 230.993C164.943 230.993 165.924 230.013 165.924 228.803C165.924 227.593 164.943 226.612 163.733 226.612C162.524 226.612 161.543 227.593 161.543 228.803C161.543 230.013 162.524 230.993 163.733 230.993Z" fill="#EAE6C4"/>
<path d="M167.07 230.993C168.279 230.993 169.26 230.013 169.26 228.803C169.26 227.593 168.279 226.612 167.07 226.612C165.86 226.612 164.879 227.593 164.879 228.803C164.879 230.013 165.86 230.993 167.07 230.993Z" fill="#EAE6C4"/>
<path d="M170.406 230.993C171.616 230.993 172.596 230.013 172.596 228.803C172.596 227.593 171.616 226.612 170.406 226.612C169.196 226.612 168.215 227.593 168.215 228.803C168.215 230.013 169.196 230.993 170.406 230.993Z" fill="#EAE6C4"/>
<path d="M173.742 230.993C174.952 230.993 175.932 230.013 175.932 228.803C175.932 227.593 174.952 226.612 173.742 226.612C172.532 226.612 171.552 227.593 171.552 228.803C171.552 230.013 172.532 230.993 173.742 230.993Z" fill="#EAE6C4"/>
<path d="M177.078 230.993C178.288 230.993 179.269 230.013 179.269 228.803C179.269 227.593 178.288 226.612 177.078 226.612C175.868 226.612 174.888 227.593 174.888 228.803C174.888 230.013 175.868 230.993 177.078 230.993Z" fill="#EAE6C4"/>
<path d="M180.414 230.993C181.624 230.993 182.605 230.013 182.605 228.803C182.605 227.593 181.624 226.612 180.414 226.612C179.205 226.612 178.224 227.593 178.224 228.803C178.224 230.013 179.205 230.993 180.414 230.993Z" fill="#EAE6C4"/>
<path d="M183.751 230.993C184.96 230.993 185.941 230.013 185.941 228.803C185.941 227.593 184.96 226.612 183.751 226.612C182.541 226.612 181.56 227.593 181.56 228.803C181.56 230.013 182.541 230.993 183.751 230.993Z" fill="#EAE6C4"/>
<path d="M187.086 230.993C188.296 230.993 189.277 230.013 189.277 228.803C189.277 227.593 188.296 226.612 187.086 226.612C185.877 226.612 184.896 227.593 184.896 228.803C184.896 230.013 185.877 230.993 187.086 230.993Z" fill="#EAE6C4"/>
<path d="M190.423 230.993C191.632 230.993 192.613 230.013 192.613 228.803C192.613 227.593 191.632 226.612 190.423 226.612C189.213 226.612 188.232 227.593 188.232 228.803C188.232 230.013 189.213 230.993 190.423 230.993Z" fill="#EAE6C4"/>
<path d="M193.759 230.993C194.969 230.993 195.949 230.013 195.949 228.803C195.949 227.593 194.969 226.612 193.759 226.612C192.549 226.612 191.568 227.593 191.568 228.803C191.568 230.013 192.549 230.993 193.759 230.993Z" fill="#EAE6C4"/>
<path d="M197.095 230.993C198.305 230.993 199.286 230.013 199.286 228.803C199.286 227.593 198.305 226.612 197.095 226.612C195.885 226.612 194.905 227.593 194.905 228.803C194.905 230.013 195.885 230.993 197.095 230.993Z" fill="#EAE6C4"/>
<path d="M200.431 230.993C201.641 230.993 202.622 230.013 202.622 228.803C202.622 227.593 201.641 226.612 200.431 226.612C199.221 226.612 198.241 227.593 198.241 228.803C198.241 230.013 199.221 230.993 200.431 230.993Z" fill="#EAE6C4"/>
<path d="M203.767 230.993C204.977 230.993 205.958 230.013 205.958 228.803C205.958 227.593 204.977 226.612 203.767 226.612C202.558 226.612 201.577 227.593 201.577 228.803C201.577 230.013 202.558 230.993 203.767 230.993Z" fill="#EAE6C4"/>
<path d="M207.104 230.993C208.313 230.993 209.294 230.013 209.294 228.803C209.294 227.593 208.313 226.612 207.104 226.612C205.894 226.612 204.913 227.593 204.913 228.803C204.913 230.013 205.894 230.993 207.104 230.993Z" fill="#EAE6C4"/>
<path d="M210.44 230.993C211.649 230.993 212.63 230.013 212.63 228.803C212.63 227.593 211.649 226.612 210.44 226.612C209.23 226.612 208.249 227.593 208.249 228.803C208.249 230.013 209.23 230.993 210.44 230.993Z" fill="#EAE6C4"/>
<path d="M213.776 230.993C214.985 230.993 215.966 230.013 215.966 228.803C215.966 227.593 214.985 226.612 213.776 226.612C212.566 226.612 211.585 227.593 211.585 228.803C211.585 230.013 212.566 230.993 213.776 230.993Z" fill="#EAE6C4"/>
<path d="M217.112 230.993C218.322 230.993 219.302 230.013 219.302 228.803C219.302 227.593 218.322 226.612 217.112 226.612C215.902 226.612 214.921 227.593 214.921 228.803C214.921 230.013 215.902 230.993 217.112 230.993Z" fill="#EAE6C4"/>
<path d="M220.448 230.993C221.658 230.993 222.639 230.013 222.639 228.803C222.639 227.593 221.658 226.612 220.448 226.612C219.238 226.612 218.258 227.593 218.258 228.803C218.258 230.013 219.238 230.993 220.448 230.993Z" fill="#EAE6C4"/>
<path d="M223.784 230.993C224.994 230.993 225.975 230.013 225.975 228.803C225.975 227.593 224.994 226.612 223.784 226.612C222.574 226.612 221.594 227.593 221.594 228.803C221.594 230.013 222.574 230.993 223.784 230.993Z" fill="#EAE6C4"/>
<path d="M227.12 230.993C228.33 230.993 229.311 230.013 229.311 228.803C229.311 227.593 228.33 226.612 227.12 226.612C225.911 226.612 224.93 227.593 224.93 228.803C224.93 230.013 225.911 230.993 227.12 230.993Z" fill="#EAE6C4"/>
<path d="M230.457 230.993C231.666 230.993 232.647 230.013 232.647 228.803C232.647 227.593 231.666 226.612 230.457 226.612C229.247 226.612 228.266 227.593 228.266 228.803C228.266 230.013 229.247 230.993 230.457 230.993Z" fill="#EAE6C4"/>
<path d="M233.793 230.993C235.002 230.993 235.983 230.013 235.983 228.803C235.983 227.593 235.002 226.612 233.793 226.612C232.583 226.612 231.602 227.593 231.602 228.803C231.602 230.013 232.583 230.993 233.793 230.993Z" fill="#EAE6C4"/>
<path d="M237.129 230.993C238.338 230.993 239.319 230.013 239.319 228.803C239.319 227.593 238.338 226.612 237.129 226.612C235.919 226.612 234.938 227.593 234.938 228.803C234.938 230.013 235.919 230.993 237.129 230.993Z" fill="#EAE6C4"/>
<path d="M240.465 230.993C241.675 230.993 242.655 230.013 242.655 228.803C242.655 227.593 241.675 226.612 240.465 226.612C239.255 226.612 238.274 227.593 238.274 228.803C238.274 230.013 239.255 230.993 240.465 230.993Z" fill="#EAE6C4"/>
<path d="M243.801 230.993C245.011 230.993 245.992 230.013 245.992 228.803C245.992 227.593 245.011 226.612 243.801 226.612C242.591 226.612 241.611 227.593 241.611 228.803C241.611 230.013 242.591 230.993 243.801 230.993Z" fill="#EAE6C4"/>
<path d="M247.137 230.993C248.347 230.993 249.328 230.013 249.328 228.803C249.328 227.593 248.347 226.612 247.137 226.612C245.927 226.612 244.947 227.593 244.947 228.803C244.947 230.013 245.927 230.993 247.137 230.993Z" fill="#EAE6C4"/>
<path d="M250.473 230.993C251.683 230.993 252.664 230.013 252.664 228.803C252.664 227.593 251.683 226.612 250.473 226.612C249.264 226.612 248.283 227.593 248.283 228.803C248.283 230.013 249.264 230.993 250.473 230.993Z" fill="#EAE6C4"/>
<path d="M253.81 230.993C255.019 230.993 256 230.013 256 228.803C256 227.593 255.019 226.612 253.81 226.612C252.6 226.612 251.619 227.593 251.619 228.803C251.619 230.013 252.6 230.993 253.81 230.993Z" fill="#EAE6C4"/>
<path d="M257.146 230.993C258.356 230.993 259.336 230.013 259.336 228.803C259.336 227.593 258.356 226.612 257.146 226.612C255.936 226.612 254.955 227.593 254.955 228.803C254.955 230.013 255.936 230.993 257.146 230.993Z" fill="#EAE6C4"/>
<path d="M260.482 230.993C261.692 230.993 262.672 230.013 262.672 228.803C262.672 227.593 261.692 226.612 260.482 226.612C259.272 226.612 258.291 227.593 258.291 228.803C258.291 230.013 259.272 230.993 260.482 230.993Z" fill="#EAE6C4"/>
<path d="M263.818 230.993C265.028 230.993 266.008 230.013 266.008 228.803C266.008 227.593 265.028 226.612 263.818 226.612C262.608 226.612 261.627 227.593 261.627 228.803C261.627 230.013 262.608 230.993 263.818 230.993Z" fill="#EAE6C4"/>
<path d="M267.154 230.993C268.364 230.993 269.345 230.013 269.345 228.803C269.345 227.593 268.364 226.612 267.154 226.612C265.944 226.612 264.964 227.593 264.964 228.803C264.964 230.013 265.944 230.993 267.154 230.993Z" fill="#EAE6C4"/>
<path d="M270.49 230.993C271.7 230.993 272.681 230.013 272.681 228.803C272.681 227.593 271.7 226.612 270.49 226.612C269.281 226.612 268.3 227.593 268.3 228.803C268.3 230.013 269.281 230.993 270.49 230.993Z" fill="#EAE6C4"/>
<path d="M273.826 230.993C275.036 230.993 276.017 230.013 276.017 228.803C276.017 227.593 275.036 226.612 273.826 226.612C272.617 226.612 271.636 227.593 271.636 228.803C271.636 230.013 272.617 230.993 273.826 230.993Z" fill="#EAE6C4"/>
<path d="M277.163 230.993C278.372 230.993 279.353 230.013 279.353 228.803C279.353 227.593 278.372 226.612 277.163 226.612C275.953 226.612 274.972 227.593 274.972 228.803C274.972 230.013 275.953 230.993 277.163 230.993Z" fill="#EAE6C4"/>
<path d="M280.499 230.993C281.709 230.993 282.689 230.013 282.689 228.803C282.689 227.593 281.709 226.612 280.499 226.612C279.289 226.612 278.308 227.593 278.308 228.803C278.308 230.013 279.289 230.993 280.499 230.993Z" fill="#EAE6C4"/>
<path d="M283.835 230.993C285.045 230.993 286.025 230.013 286.025 228.803C286.025 227.593 285.045 226.612 283.835 226.612C282.625 226.612 281.644 227.593 281.644 228.803C281.644 230.013 282.625 230.993 283.835 230.993Z" fill="#EAE6C4"/>
<path d="M287.171 230.993C288.381 230.993 289.361 230.013 289.361 228.803C289.361 227.593 288.381 226.612 287.171 226.612C285.961 226.612 284.98 227.593 284.98 228.803C284.98 230.013 285.961 230.993 287.171 230.993Z" fill="#EAE6C4"/>
<path d="M290.507 230.993C291.717 230.993 292.698 230.013 292.698 228.803C292.698 227.593 291.717 226.612 290.507 226.612C289.297 226.612 288.317 227.593 288.317 228.803C288.317 230.013 289.297 230.993 290.507 230.993Z" fill="#EAE6C4"/>
<path d="M293.843 230.993C295.053 230.993 296.034 230.013 296.034 228.803C296.034 227.593 295.053 226.612 293.843 226.612C292.634 226.612 291.653 227.593 291.653 228.803C291.653 230.013 292.634 230.993 293.843 230.993Z" fill="#EAE6C4"/>
<path d="M297.179 230.993C298.389 230.993 299.37 230.013 299.37 228.803C299.37 227.593 298.389 226.612 297.179 226.612C295.97 226.612 294.989 227.593 294.989 228.803C294.989 230.013 295.97 230.993 297.179 230.993Z" fill="#EAE6C4"/>
<path d="M300.516 230.993C301.725 230.993 302.706 230.013 302.706 228.803C302.706 227.593 301.725 226.612 300.516 226.612C299.306 226.612 298.325 227.593 298.325 228.803C298.325 230.013 299.306 230.993 300.516 230.993Z" fill="#EAE6C4"/>
<path d="M303.852 230.993C305.062 230.993 306.042 230.013 306.042 228.803C306.042 227.593 305.062 226.612 303.852 226.612C302.642 226.612 301.661 227.593 301.661 228.803C301.661 230.013 302.642 230.993 303.852 230.993Z" fill="#EAE6C4"/>
<path d="M307.188 230.993C308.398 230.993 309.379 230.013 309.379 228.803C309.379 227.593 308.398 226.612 307.188 226.612C305.978 226.612 304.998 227.593 304.998 228.803C304.998 230.013 305.978 230.993 307.188 230.993Z" fill="#EAE6C4"/>
<path d="M317.196 230.993C318.406 230.993 319.387 230.013 319.387 228.803C319.387 227.593 318.406 226.612 317.196 226.612C315.987 226.612 315.006 227.593 315.006 228.803C315.006 230.013 315.987 230.993 317.196 230.993Z" fill="#EAE6C4"/>
<path d="M310.524 230.993C311.734 230.993 312.714 230.013 312.714 228.803C312.714 227.593 311.734 226.612 310.524 226.612C309.314 226.612 308.333 227.593 308.333 228.803C308.333 230.013 309.314 230.993 310.524 230.993Z" fill="#EAE6C4"/>
<path d="M313.86 230.993C315.07 230.993 316.051 230.013 316.051 228.803C316.051 227.593 315.07 226.612 313.86 226.612C312.65 226.612 311.67 227.593 311.67 228.803C311.67 230.013 312.65 230.993 313.86 230.993Z" fill="#EAE6C4"/>
<path d="M320.533 230.993C321.742 230.993 322.723 230.013 322.723 228.803C322.723 227.593 321.742 226.612 320.533 226.612C319.323 226.612 318.342 227.593 318.342 228.803C318.342 230.013 319.323 230.993 320.533 230.993Z" fill="#EAE6C4"/>
<path d="M89.2608 178.205H69.1218V125.569C69.1218 120.381 68.5115 116.364 67.291 113.516C66.0704 110.668 64.1379 108.176 61.4934 106.04L78.2759 94.2921C82.0392 97.3434 84.8363 100.853 86.6672 104.819C94.1939 97.6994 99.4829 94.1395 102.534 94.1395C105.687 94.1395 110.366 96.9874 116.571 102.683C122.877 108.278 126.03 113.821 126.03 119.313V148.759C126.03 153.946 126.64 157.964 127.861 160.812C129.081 163.66 131.014 166.152 133.658 168.288L116.876 180.036C109.552 174.238 105.891 165.999 105.891 155.319V121.449C105.891 119.72 104.975 117.94 103.145 116.109C101.314 114.177 99.5846 113.211 97.9572 113.211C96.4315 113.211 93.5327 115.347 89.2608 119.618V178.205ZM197.574 136.859V142.351H160.652C160.652 148.454 161.415 153.285 162.941 156.845C163.449 158.066 164.365 159.337 165.687 160.659C167.009 161.88 168.382 162.49 169.806 162.49C171.23 162.49 173.01 161.27 175.146 158.829C177.282 156.387 178.96 153.438 180.181 149.98L195.895 161.117C193.149 166.203 188.928 170.627 183.232 174.391C177.638 178.154 173.112 180.036 169.654 180.036C166.195 180.036 161.161 177.34 154.549 171.949C148.04 166.559 144.073 162.388 142.649 159.439C141.225 156.387 140.513 148.962 140.513 137.164C140.513 125.263 141.225 117.838 142.649 114.889C144.073 111.837 148.04 107.616 154.549 102.226C161.161 96.8349 165.992 94.1395 169.043 94.1395C172.095 94.1395 176.875 96.8349 183.385 102.226C189.996 107.616 194.014 111.837 195.438 114.889C196.862 117.838 197.574 125.162 197.574 136.859ZM176.367 117.788C175.655 116.364 174.485 114.991 172.858 113.668C171.332 112.346 169.857 111.685 168.433 111.685C167.111 111.685 165.585 113.058 163.856 115.804C162.127 118.449 161.059 122.466 160.652 127.857H178.045C177.74 122.466 177.18 119.11 176.367 117.788ZM209.83 95.9703H229.969V148.759C229.969 153.946 230.58 157.964 231.8 160.812C233.021 163.66 234.953 166.152 237.598 168.288L220.815 180.036C213.492 174.238 209.83 165.999 209.83 155.319V95.9703ZM220.205 64.0835C221.324 64.0835 223.816 65.7618 227.681 69.1183C231.546 72.3731 233.479 74.6107 233.479 75.8313C233.479 76.9501 231.495 79.1878 227.528 82.5443C223.663 85.9008 221.171 87.579 220.053 87.579C219.035 87.579 216.594 85.9516 212.729 82.6969C208.864 79.3403 206.932 77.1027 206.932 75.9838C206.932 74.7633 208.864 72.4748 212.729 69.1183C216.696 65.7618 219.188 64.0835 220.205 64.0835ZM267.605 178.205H247.466V125.569C247.466 120.381 246.856 116.364 245.635 113.516C244.415 110.668 242.482 108.176 239.838 106.04L256.62 94.2921C260.383 97.3434 263.181 100.853 265.011 104.819C272.538 97.6994 277.827 94.1395 280.878 94.1395C284.032 94.1395 288.71 96.9874 294.915 102.683C301.221 108.278 304.374 113.821 304.374 119.313V148.759C304.374 153.946 304.984 157.964 306.205 160.812C307.425 163.66 309.358 166.152 312.002 168.288L295.22 180.036C287.897 174.238 284.235 165.999 284.235 155.319V121.449C284.235 119.72 283.32 117.94 281.489 116.109C279.658 114.177 277.929 113.211 276.301 113.211C274.776 113.211 271.877 115.347 267.605 119.618V178.205Z" fill="#EAE6C4"/>
<path d="M184.912 196.619V207.965H183.582L177.399 199.056H177.288V207.965H175.914V196.619H177.244L183.449 205.55H183.56V196.619H184.912ZM197.235 202.292C197.235 203.489 197.019 204.523 196.587 205.395C196.155 206.266 195.562 206.939 194.808 207.411C194.055 207.884 193.194 208.121 192.227 208.121C191.259 208.121 190.398 207.884 189.645 207.411C188.891 206.939 188.298 206.266 187.866 205.395C187.434 204.523 187.218 203.489 187.218 202.292C187.218 201.095 187.434 200.061 187.866 199.189C188.298 198.318 188.891 197.645 189.645 197.173C190.398 196.7 191.259 196.463 192.227 196.463C193.194 196.463 194.055 196.7 194.808 197.173C195.562 197.645 196.155 198.318 196.587 199.189C197.019 200.061 197.235 201.095 197.235 202.292ZM195.905 202.292C195.905 201.309 195.741 200.48 195.412 199.804C195.087 199.128 194.646 198.617 194.088 198.27C193.534 197.922 192.914 197.749 192.227 197.749C191.539 197.749 190.917 197.922 190.359 198.27C189.805 198.617 189.364 199.128 189.035 199.804C188.71 200.48 188.548 201.309 188.548 202.292C188.548 203.274 188.71 204.104 189.035 204.78C189.364 205.456 189.805 205.967 190.359 206.314C190.917 206.662 191.539 206.835 192.227 206.835C192.914 206.835 193.534 206.662 194.088 206.314C194.646 205.967 195.087 205.456 195.412 204.78C195.741 204.104 195.905 203.274 195.905 202.292Z" fill="#EAE6C4"/>
<path d="M167.395 202.99C167.395 201.637 167.571 200.392 167.922 199.257C168.276 198.118 168.781 197.071 169.437 196.115H170.554C170.296 196.469 170.054 196.906 169.829 197.425C169.607 197.941 169.412 198.509 169.243 199.128C169.075 199.744 168.942 200.381 168.846 201.04C168.753 201.699 168.706 202.349 168.706 202.99C168.706 203.843 168.788 204.707 168.953 205.585C169.118 206.462 169.34 207.277 169.619 208.029C169.899 208.781 170.21 209.393 170.554 209.866H169.437C168.781 208.91 168.276 207.864 167.922 206.729C167.571 205.59 167.395 204.344 167.395 202.99Z" fill="#EAE6C4"/>
<path d="M213.322 202.99C213.322 204.344 213.144 205.59 212.79 206.729C212.439 207.864 211.936 208.91 211.28 209.866H210.163C210.421 209.512 210.661 209.075 210.883 208.555C211.109 208.04 211.306 207.474 211.474 206.858C211.642 206.238 211.773 205.599 211.866 204.94C211.963 204.278 212.011 203.628 212.011 202.99C212.011 202.138 211.929 201.273 211.764 200.396C211.599 199.518 211.377 198.704 211.098 197.952C210.819 197.2 210.507 196.587 210.163 196.115H211.28C211.936 197.071 212.439 198.118 212.79 199.257C213.144 200.392 213.322 201.637 213.322 202.99Z" fill="#EAE6C4"/>
</svg>
